<svg width="126" height="338" viewBox="0 0 126 338" fill="none" xmlns="http://www.w3.org/2000/svg">
<path fill-rule="evenodd" clip-rule="evenodd" d="M31.3203 314.009V328.161H34.1934V314.009H36.5342L42.3863 328.161H58.5062C58.5062 328.161 60.1827 326.669 58.5062 325.82C54.5161 323.798 50.3665 319.382 50.3665 319.382H44.3548C42.4821 319.382 40.0466 315.481 39.1067 313.69L35.683 311.562L31.3203 314.009Z" fill="#1B1B1B"/>
<path d="M50.3665 319.382C48.8017 316.801 48.265 315.34 47.9427 312.713L39.1067 313.69C40.0466 315.481 42.4821 319.382 44.3548 319.382H50.3665Z" fill="white"/>
<path d="M50.3665 319.382C50.3665 319.382 54.5161 323.798 58.5062 325.82C60.1827 326.669 58.5062 328.161 58.5062 328.161H42.3863L36.5342 314.009H34.1934V328.161H31.3203V314.009L35.683 311.562L39.1067 313.69M50.3665 319.382C48.8017 316.801 48.265 315.34 47.9427 312.713L39.1067 313.69M50.3665 319.382C49.1429 319.382 46.2274 319.382 44.3548 319.382M50.3665 319.382H44.3548M39.1067 313.69C40.0466 315.481 42.4821 319.382 44.3548 319.382" stroke="#1B1B1B" stroke-linecap="round" stroke-linejoin="round"/>
<path d="M51.2301 49.2264C52.9981 48.0343 56.2085 45.6735 57.5384 43.7619C59.4671 40.9897 59.8746 39.6292 59.8746 35.5275C59.8746 33.6489 60.6847 32.4385 60.0759 29.5549C59.4671 26.6713 58.8347 22.5452 60.0759 22.8793C60.9181 23.106 60.9145 24.5046 61.4848 25.7321C62.1249 27.1097 62.9493 27.6693 62.8937 29.1873C62.8466 30.4767 61.6967 30.758 62.2153 31.9395C62.8564 33.4 64.2932 30.7684 64.504 29.1873C64.7723 27.1745 62.5297 25.3828 64.2691 24.2546C69.8378 20.6429 74.702 13.7559 76.1445 14.2914C77.9391 14.9577 78.9664 18.2019 79.0565 18.497C78.9014 15.3377 77.8042 12.2762 76.225 10.6414C70.8674 5.09502 62.8073 5.47283 55.4584 6.65837C48.1095 7.84391 46.7345 10.2154 46.7345 13.3446C46.7345 16.4738 49.8641 18.0384 49.8641 20.172C49.8641 21.3099 46.3078 25.1977 42.9419 27.1416C37.7914 30.1161 32.9597 30.7814 30.6617 36.1499C27.746 42.9617 37.4895 52.8391 37.4895 52.8391L40.173 54.5069L51.2301 49.2264Z" fill="#1B1B1B"/>
<path d="M67.1418 53.1643C66.7799 52.2134 65.8158 49.7835 65.8158 47.9808C65.8158 45.8513 66.5632 41.6485 66.6836 40.0413C70.2891 42.7173 75.6713 46.0882 77.6691 44.094C78.8564 42.9089 77.454 38.6658 77.997 36.7144C78.54 34.7631 82.4866 32.7654 81.7797 31.9395C80.1496 30.0348 78.7491 29.4703 78.7491 27.1416C78.7491 24.8129 79.0754 22.6849 79.0754 19.263C79.0754 19.0075 79.069 18.7519 79.0565 18.497C78.9664 18.2019 77.9391 14.9577 76.1445 14.2914C74.702 13.7559 69.8378 20.6429 64.2691 24.2546C62.5297 25.3828 64.7723 27.1745 64.504 29.1873C64.2932 30.7684 62.8564 33.4 62.2153 31.9395C61.6967 30.758 62.8466 30.4767 62.8937 29.1873C62.9493 27.6693 62.1249 27.1097 61.4848 25.7321C60.9145 24.5046 60.9181 23.106 60.0759 22.8793C58.8347 22.5452 59.4671 26.6713 60.0759 29.5549C60.6847 32.4385 59.8746 33.6489 59.8746 35.5275C59.8746 39.6292 59.4671 40.9897 57.5384 43.7619C56.2085 45.6735 52.9981 48.0343 51.2301 49.2264C51.6872 51.1288 52.6014 54.9976 52.6014 55.2539C52.6014 55.5102 58.0689 56.9412 60.8027 57.6246L67.1418 53.1643Z" fill="white"/>
<path d="M51.2301 49.2264C52.9981 48.0343 56.2085 45.6735 57.5384 43.7619C59.4671 40.9897 59.8746 39.6292 59.8746 35.5275C59.8746 33.6489 60.6847 32.4385 60.0759 29.5549C59.4671 26.6713 58.8347 22.5452 60.0759 22.8793C60.9181 23.106 60.9145 24.5046 61.4848 25.7321C62.1249 27.1097 62.9493 27.6693 62.8937 29.1873C62.8466 30.4767 61.6967 30.758 62.2153 31.9395C62.8564 33.4 64.2932 30.7684 64.504 29.1873C64.7723 27.1745 62.5297 25.3828 64.2691 24.2546C69.8378 20.6429 74.702 13.7559 76.1445 14.2914C77.9391 14.9577 78.9664 18.2019 79.0565 18.497M51.2301 49.2264L40.173 54.5069L37.4895 52.8391C37.4895 52.8391 27.746 42.9617 30.6617 36.1499C32.9597 30.7814 37.7914 30.1161 42.9419 27.1416C46.3078 25.1977 49.8641 21.3099 49.8641 20.172C49.8641 18.0384 46.7345 16.4738 46.7345 13.3446C46.7345 10.2154 48.1095 7.84391 55.4584 6.65837C62.8073 5.47283 70.8674 5.09502 76.225 10.6414C77.8042 12.2762 78.9014 15.3377 79.0565 18.497M51.2301 49.2264C51.6872 51.1288 52.6014 54.9976 52.6014 55.2539C52.6014 55.5102 58.0689 56.9412 60.8027 57.6246L67.1418 53.1643C66.7799 52.2134 65.8158 49.7835 65.8158 47.9808C65.8158 45.8513 66.5632 41.6485 66.6836 40.0413C70.2891 42.7173 75.6713 46.0882 77.6691 44.094M79.063 18.5184C79.063 18.5184 79.0608 18.5111 79.0565 18.497M63.2045 37.2636C63.2045 37.2636 74.5531 47.2043 77.6691 44.094M77.6691 44.094C78.8564 42.9089 77.454 38.6658 77.997 36.7144C78.54 34.7631 82.4866 32.7654 81.7797 31.9395C80.1496 30.0348 78.7491 29.4703 78.7491 27.1416C78.7491 24.8129 79.0754 22.6849 79.0754 19.263C79.0754 19.0075 79.069 18.7519 79.0565 18.497" stroke="#1B1B1B" stroke-linecap="round" stroke-linejoin="round"/>
<path fill-rule="evenodd" clip-rule="evenodd" d="M66.8477 314.009V328.161H69.7207V314.009H72.0616L77.9137 328.161H94.0336C94.0336 328.161 95.71 326.669 94.0336 325.82C90.0435 323.798 85.8938 319.382 85.8938 319.382H79.8821C78.0094 319.382 75.587 315.031 74.6471 313.24C74.5726 312.675 71.2104 311.562 71.2104 311.562L66.8477 314.009Z" fill="#1B1B1B"/>
<path d="M85.8938 319.382C84.3517 317.021 83.8506 315.662 83.8037 313.24L74.6471 313.24C75.587 315.031 78.0094 319.382 79.8821 319.382H85.8938Z" fill="white"/>
<path d="M85.8938 319.382C85.8938 319.382 90.0435 323.798 94.0336 325.82C95.71 326.669 94.0336 328.161 94.0336 328.161H77.9137L72.0616 314.009H69.7207V328.161H66.8477V314.009L71.2104 311.562C71.2104 311.562 74.5726 312.675 74.6471 313.24M85.8938 319.382C84.3517 317.021 83.8506 315.662 83.8037 313.24L74.6471 313.24M85.8938 319.382C84.6702 319.382 81.7548 319.382 79.8821 319.382M85.8938 319.382H79.8821M74.6471 313.24C75.587 315.031 78.0094 319.382 79.8821 319.382" stroke="#1B1B1B" stroke-linecap="round" stroke-linejoin="round"/>
<path d="M64.2749 63.9945C61.8744 64.3872 58.0739 63.5762 56.4737 63.1216L53.8477 65.272L59.7268 111.377L75.6108 111.996L77.0548 91.7798L74.5316 63.1216L70.4944 62.1397C69.4215 62.5943 66.6755 63.6018 64.2749 63.9945Z" fill="#1B1B1B" stroke="#1B1B1B" stroke-linecap="round" stroke-linejoin="round"/>
<path d="M91.2142 119.416C87.4017 107.971 78.3025 110.2 68.9731 109.24C56.6412 107.971 47.4087 103.406 38.3761 112.532C24.9327 126.115 23.1105 251.068 24.8398 314.011L86.6711 313.083C88.1409 253.771 95.1379 131.196 91.2142 119.416Z" fill="#FCAF17" stroke="#1B1B1B" stroke-linecap="round" stroke-linejoin="round"/>
<path d="M31.375 313.961L33.9317 287.282" stroke="#1B1B1B" stroke-linecap="round" stroke-linejoin="round"/>
<path d="M78.8516 313.109L80.8121 284.639" stroke="#1B1B1B" stroke-linecap="round" stroke-linejoin="round"/>
<path d="M36.8984 150.416L49.1498 134.681L90.23 151.978L77.9781 174.56L36.8984 150.416Z" fill="#1B1B1B" stroke="#1B1B1B" stroke-linecap="round" stroke-linejoin="round"/>
<path d="M61.2983 54.7347C56.792 54.7347 53.9556 53.813 52.0885 51.9032L49.582 55.7649L53.8309 65.5501L61.2983 66.9664L70.6974 65.5501L72.1781 61.945L71.1481 55.3143L67.929 52.3528C66.8776 53.1467 65.8046 54.7347 61.2983 54.7347Z" fill="white" stroke="#1B1B1B" stroke-linecap="round" stroke-linejoin="round"/>
<path d="M70.2444 112.298C70.6292 125.032 60.2297 300.527 58.2599 313.434M70.2444 112.298L55.4336 110.182M70.2444 112.298L78.9428 112.602" stroke="#1B1B1B" stroke-linecap="round" stroke-linejoin="round"/>
<path d="M54.0236 138.835L61.5246 148.166L69.4117 142.725L63.9109 135.044L54.0236 138.835Z" fill="white"/>
<path d="M78.8735 134.276C77.5982 134.033 76.5236 133.961 75.6335 133.993C75.5353 133.997 75.4394 134.002 75.3456 134.008L71.4334 141.189L69.4117 142.725L61.5246 148.166C61.5246 148.166 59.9309 149.084 59.6877 150.111C58.5385 154.964 65.0473 158.528 70.4194 156.108C74.8542 154.11 76.8187 146.852 76.8187 146.852L83.9971 138.336C83.0508 136.567 81.424 134.762 78.8735 134.276Z" fill="white"/>
<path d="M51.1492 48.6751C44.5941 50.326 30.7886 54.6367 29.1371 58.429C27.4856 62.2214 27.2571 73.874 28.7546 83.584C32.2132 106.01 40.4465 119.366 51.1568 139.934L54.0236 138.835L63.9109 135.044L65.9134 134.276L56.8912 115.391L54.4586 107.031L65.7876 108.835C61.1789 90.2588 56.6177 80.7527 46.0483 64.904L50.3523 60.8226L44.3415 59.7837L51.1492 48.6751Z" fill="white"/>
<path d="M84.4387 62.6967C83.7894 60.4706 71.7479 52.7625 66.3373 49.4388L79.7387 59.7837C77.8835 60.2289 74.3215 61.0452 73.7278 61.342C73.7278 61.342 76.9188 63.4693 78.9224 64.904C76.3392 82.3377 75.9004 92.1343 75.3232 109.615L79.5758 109.854C77.8549 116.528 74.0048 129.143 72.2649 135.044C72.5929 134.665 73.5704 134.122 75.3456 134.008C75.4394 134.002 75.5353 133.997 75.6335 133.993C76.5236 133.961 77.5982 134.033 78.8735 134.276C81.424 134.762 83.0508 136.567 83.9971 138.336C84.5651 139.397 84.8879 140.446 85.0184 141.189C85.2889 140.261 86.7343 135.508 90.3517 123.914C94.8734 109.421 85.2503 65.4792 84.4387 62.6967Z" fill="white"/>
<path d="M66.3373 49.4388C67.4061 53.2765 70.7682 62.5041 71.4334 66.6957C72.0986 70.8873 72.7853 96.9297 73.0455 109.427L75.3232 109.615C75.9004 92.1343 76.3392 82.3377 78.9224 64.904C76.9188 63.4693 73.7278 61.342 73.7278 61.342C74.3215 61.0452 77.8835 60.2289 79.7387 59.7837L66.3373 49.4388Z" fill="white"/>
<path d="M68.1608 109.093C64.2295 84.6311 60.1525 71.538 51.1492 48.6751L44.3415 59.7837L50.3523 60.8226L46.0483 64.904C56.6177 80.7527 61.1789 90.2588 65.7876 108.835L68.1608 109.093Z" fill="white"/>
<path d="M51.1492 48.6751C60.1525 71.538 64.2295 84.6311 68.1608 109.093M51.1492 48.6751C44.5941 50.326 30.7886 54.6367 29.1371 58.429C27.4856 62.2214 27.2571 73.874 28.7546 83.584C32.2132 106.01 40.4465 119.366 51.1568 139.934L54.0236 138.835M51.1492 48.6751L44.3415 59.7837L50.3523 60.8226L46.0483 64.904C56.6177 80.7527 61.1789 90.2588 65.7876 108.835M68.1608 109.093L65.7876 108.835M68.1608 109.093L73.0455 109.427M56.8912 115.391L65.9134 134.276L63.9109 135.044M56.8912 115.391C51.6386 109.761 48.0176 107.611 40.8844 104.723M56.8912 115.391L54.4586 107.031M44.8107 73.8737L54.4586 107.031M66.3373 49.4388C71.7479 52.7625 83.7894 60.4706 84.4387 62.6967C85.2503 65.4792 94.8734 109.421 90.3517 123.914C86.7343 135.508 85.2889 140.261 85.0184 141.189C84.8879 140.446 84.5651 139.397 83.9971 138.336M66.3373 49.4388C67.4061 53.2765 70.7682 62.5041 71.4334 66.6957C72.0986 70.8873 72.7853 96.9297 73.0455 109.427M66.3373 49.4388L79.7387 59.7837C77.8835 60.2289 74.3215 61.0452 73.7278 61.342C73.7278 61.342 76.9188 63.4693 78.9224 64.904C76.3392 82.3377 75.9004 92.1343 75.3232 109.615M72.2649 135.044C74.0048 129.143 77.8549 116.528 79.5758 109.854M72.2649 135.044C72.5929 134.665 73.5704 134.122 75.3456 134.008M72.2649 135.044C72.6103 134.645 73.6754 134.065 75.6335 133.993M79.6851 109.427C81.5402 102.117 83.0087 85.9622 84.4387 78.8125M79.6851 109.427C82.1555 108.59 83.4985 108.623 85.8022 109.427M79.6851 109.427C79.6497 109.567 79.6133 109.709 79.5758 109.854M73.0455 109.427L75.3232 109.615M75.3232 109.615L79.5758 109.854M65.7876 108.835L54.4586 107.031M83.9971 138.336C83.0508 136.567 81.424 134.762 78.8735 134.276C77.5982 134.033 76.5236 133.961 75.6335 133.993M83.9971 138.336L76.8187 146.852C76.8187 146.852 74.8542 154.11 70.4194 156.108C65.0473 158.528 58.5385 154.964 59.6877 150.111C59.9309 149.084 61.5246 148.166 61.5246 148.166M75.3456 134.008L71.4334 141.189L69.4117 142.725M75.3456 134.008C75.4394 134.002 75.5353 133.997 75.6335 133.993M54.0236 138.835L61.5246 148.166M54.0236 138.835L63.9109 135.044M61.5246 148.166L69.4117 142.725M63.9109 135.044L69.4117 142.725" stroke="#1B1B1B" stroke-linecap="round" stroke-linejoin="round"/>
<path d="M63 313.449L65.0458 285.321" stroke="#1B1B1B" stroke-linecap="round" stroke-linejoin="round"/>
<path d="M70.1562 313.109L73.5657 271.513" stroke="#1B1B1B" stroke-linecap="round" stroke-linejoin="round"/>
<path d="M44.0902 1.48907C42.2171 1.48645 34.8835 4.53377 31.913 6.0553C29.9318 7.07009 50.3054 8.02141 50.3054 8.02141L75.8643 10.1143L78.7816 7.07009L78.1474 4.53322H82.6871C82.6871 4.53322 81.6695 9.97753 84.0625 10.8112C85.9037 11.4526 86.9912 11.3569 87.851 9.60695C88.9122 7.4469 85.3037 3.63229 85.3037 3.63229C85.3037 3.63229 90.1115 3.28132 92.3819 1.48496C94.5283 -0.213264 46.2583 1.49212 44.0902 1.48907Z" fill="#1B1B1B" stroke="#1B1B1B" stroke-linecap="round" stroke-linejoin="round"/>
<path d="M1.21875 328.789H124.78" stroke="#1B1B1B" stroke-linecap="round"/>
<path d="M7.57031 333.509H66.2231" stroke="#1B1B1B" stroke-linecap="round"/>
<path d="M71.8594 337.346H109.436" stroke="#1B1B1B" stroke-linecap="round"/>
</svg>
