<svg width="1977" height="1100" viewBox="0 0 1977 1100" fill="none" xmlns="http://www.w3.org/2000/svg">
<path fill-rule="evenodd" clip-rule="evenodd" d="M1976.63 30C1976.63 13.4315 1963.2 0 1946.63 0H30C13.4315 0 0 13.4314 0 30V950C0 966.569 13.4315 980 30 980H191.172C207.74 980 221.172 993.431 221.172 1010V1070C221.172 1086.57 234.603 1100 251.172 1100H532.172C548.74 1100 562.172 1086.57 562.172 1070V1010C562.172 993.431 575.603 980 592.172 980H1946.63C1963.2 980 1976.63 966.569 1976.63 950V30Z" fill="#8F00FF"/>
</svg>
