<svg width="138" height="76" viewBox="0 0 138 76" fill="none" xmlns="http://www.w3.org/2000/svg">
<path d="M130.246 36.3654C131.211 34.001 130.616 31.2886 128.856 29.4385V29.4385L124.782 37.8415C126.017 39.2089 127.132 40.4439 128.171 41.4548L130.246 36.3654Z" fill="#1B1B1B"/>
<path d="M120.442 33.2031L116.514 41.6159C117.985 43.2374 119.342 44.8882 120.601 46.4643L124.782 37.8415C123.485 36.4058 122.056 34.8242 120.442 33.2031Z" fill="#1B1B1B"/>
<path d="M109.998 35.5294L106.516 43.8018C108.843 45.7368 110.965 47.6733 112.837 49.4932L116.514 41.6159C114.553 39.4526 112.391 37.3415 109.998 35.5294Z" fill="#1B1B1B"/>
<path d="M105.92 22.7535L102.515 31.3836C105.237 32.3536 107.723 33.8063 109.998 35.5294L113.505 27.2002C111.265 25.5774 108.756 24.055 105.92 22.7535Z" fill="#1B1B1B"/>
<path d="M106.289 13.6994C104.6 13.1767 102.553 12.7484 100.389 12.4045L97.5865 20.1175C99.7179 20.4816 101.999 21.0981 104.408 22.0941C104.922 22.3068 105.426 22.5268 105.92 22.7535L109.11 14.6663C108.213 14.3271 107.274 14.0042 106.289 13.6994Z" fill="#1B1B1B"/>
<path d="M124.385 24.7595C122.275 22.6523 119.951 20.5798 117.085 18.6973L113.505 27.2002C116.164 29.1271 118.444 31.1954 120.442 33.2031L124.385 24.7595Z" fill="#1B1B1B"/>
<path d="M117.038 53.8135V53.8135C118.781 55.7139 122.044 55.275 123.061 52.9055L123.991 50.7391C122.946 49.4472 121.82 47.9908 120.601 46.4643L117.038 53.8135Z" fill="#1B1B1B"/>
<path d="M91.7883 36.0767C94.3959 36.5073 97.0622 37.3399 99.6116 38.7443L102.515 31.3836C102.091 31.2322 101.66 31.0926 101.223 30.9655C98.8222 30.2665 96.3946 29.9674 94.0287 29.91L91.7883 36.0767Z" fill="#1B1B1B"/>
<path d="M87.9304 19.8382L83.9958 30.7637C86.9939 30.2916 90.4404 29.8229 94.0287 29.91L97.5865 20.1175C93.8735 19.4831 90.6151 19.6143 87.9304 19.8382Z" fill="#1B1B1B"/>
<path d="M74.3775 35.4755C76.858 36.0767 79.1069 36.3109 82.4143 36.4132C83.0319 34.207 83.9958 30.7637 83.9958 30.7637C81.6768 30.7772 78.691 30.6682 76.6573 30.377L74.3775 35.4755Z" fill="#1B1B1B"/>
<path d="M90.9655 11.41C88.525 11.2632 86.4354 11.2211 85.1401 11.2654L81.8797 19.3659C83.2824 19.5131 85.4946 20.0413 87.9304 19.8382L90.9655 11.41Z" fill="#1B1B1B"/>
<path d="M74.3775 35.4755L76.6573 30.377L81.8797 19.3659L85.1401 11.2654V11.2654C83.2287 11.4513 81.559 12.6364 80.7528 14.3795L55.3956 69.2057C55.0855 69.8761 55.4548 70.6641 56.1684 70.8548V70.8548C56.7196 71.0021 57.2978 70.7374 57.5465 70.2239L74.3775 35.4755Z" fill="#1B1B1B"/>
<path d="M74.3775 35.4755C76.858 36.0767 79.1069 36.3109 82.4143 36.4132M74.3775 35.4755L76.6573 30.377M74.3775 35.4755L57.5465 70.2239C57.2978 70.7374 56.7196 71.0021 56.1684 70.8548V70.8548C55.4548 70.6641 55.0855 69.8761 55.3956 69.2057L80.7528 14.3795C81.559 12.6364 83.2287 11.4513 85.1401 11.2654V11.2654M85.1401 11.2654C86.4354 11.2211 88.525 11.2632 90.9655 11.41M85.1401 11.2654L81.8797 19.3659M82.4143 36.4132C85.9233 36.2373 88.2718 35.9255 91.7883 36.0767M82.4143 36.4132C83.0319 34.207 83.9958 30.7637 83.9958 30.7637M90.9655 11.41C93.8596 11.584 97.2472 11.9053 100.389 12.4045M90.9655 11.41L87.9304 19.8382M100.389 12.4045C102.553 12.7484 104.6 13.1767 106.289 13.6994C107.274 14.0042 108.213 14.3271 109.11 14.6663M100.389 12.4045L97.5865 20.1175M91.7883 36.0767C94.3959 36.5073 97.0622 37.3399 99.6116 38.7443M91.7883 36.0767L94.0287 29.91M99.6116 38.7443C100.483 39.2242 101.34 39.7707 102.177 40.3909C103.688 41.511 105.138 42.6561 106.516 43.8018M99.6116 38.7443L102.515 31.3836M109.11 14.6663C112.215 15.8402 114.819 17.2094 117.085 18.6973M109.11 14.6663L105.92 22.7535M117.085 18.6973C119.951 20.5798 122.275 22.6523 124.385 24.7595M117.085 18.6973L113.505 27.2002M106.516 43.8018C108.843 45.7368 110.965 47.6733 112.837 49.4932M106.516 43.8018L109.998 35.5294M112.837 49.4932C114.429 51.042 115.839 52.5063 117.038 53.8135M112.837 49.4932L116.514 41.6159M124.385 24.7595C125.948 26.3212 127.394 27.9019 128.856 29.4385M124.385 24.7595L120.442 33.2031M128.856 29.4385V29.4385C130.616 31.2886 131.211 34.001 130.246 36.3654L128.171 41.4548M128.856 29.4385L124.782 37.8415M117.038 53.8135V53.8135C118.781 55.7139 122.044 55.275 123.061 52.9055L123.991 50.7391M117.038 53.8135L120.601 46.4643M123.991 50.7391L128.171 41.4548M123.991 50.7391C122.946 49.4472 121.82 47.9908 120.601 46.4643M76.6573 30.377L81.8797 19.3659M76.6573 30.377C78.691 30.6682 81.6768 30.7772 83.9958 30.7637M128.171 41.4548C127.132 40.4439 126.017 39.2089 124.782 37.8415M81.8797 19.3659C83.2824 19.5131 85.4946 20.0413 87.9304 19.8382M124.782 37.8415L120.601 46.4643M124.782 37.8415C123.485 36.4058 122.056 34.8242 120.442 33.2031M120.442 33.2031L116.514 41.6159M120.442 33.2031C118.444 31.1954 116.164 29.1271 113.505 27.2002M116.514 41.6159C117.985 43.2374 119.342 44.8882 120.601 46.4643M116.514 41.6159C114.553 39.4526 112.391 37.3415 109.998 35.5294M109.998 35.5294C107.723 33.8063 105.237 32.3536 102.515 31.3836M109.998 35.5294L113.505 27.2002M105.92 22.7535L102.515 31.3836M105.92 22.7535C108.756 24.055 111.265 25.5774 113.505 27.2002M105.92 22.7535C105.426 22.5268 104.922 22.3068 104.408 22.0941C101.999 21.0981 99.7179 20.4816 97.5865 20.1175M102.515 31.3836C102.091 31.2322 101.66 31.0926 101.223 30.9655C98.8222 30.2665 96.3946 29.9674 94.0287 29.91M97.5865 20.1175L94.0287 29.91M97.5865 20.1175C93.8735 19.4831 90.6151 19.6143 87.9304 19.8382M94.0287 29.91C90.4404 29.8229 86.9939 30.2916 83.9958 30.7637M87.9304 19.8382L83.9958 30.7637" stroke="#1B1B1B"/>
<path d="M8.03476 36.3654C7.07039 34.001 7.66529 31.2886 9.4253 29.4385V29.4385L13.4994 37.8415C12.2643 39.2089 11.1495 40.4439 10.1106 41.4548L8.03476 36.3654Z" fill="#1B1B1B"/>
<path d="M17.8389 33.2031L21.7668 41.6159C20.2966 43.2374 18.9388 44.8882 17.6801 46.4643L13.4994 37.8415C14.7962 36.4058 16.2256 34.8242 17.8389 33.2031Z" fill="#1B1B1B"/>
<path d="M28.283 35.5294L31.7657 43.8018C29.4386 45.7368 27.3158 47.6733 25.4446 49.4932L21.7668 41.6159C23.7282 39.4526 25.8898 37.3415 28.283 35.5294Z" fill="#1B1B1B"/>
<path d="M32.3612 22.7535L35.7658 31.3836C33.044 32.3536 30.5587 33.8063 28.283 35.5294L24.7763 27.2002C27.0161 25.5774 29.525 24.055 32.3612 22.7535Z" fill="#1B1B1B"/>
<path d="M31.9918 13.6994C33.6808 13.1767 35.7283 12.7484 37.8925 12.4045L40.6947 20.1175C38.5633 20.4816 36.2822 21.0981 33.8736 22.0941C33.3594 22.3068 32.8553 22.5268 32.3612 22.7535L29.1708 14.6663C30.068 14.3271 31.007 14.0042 31.9918 13.6994Z" fill="#1B1B1B"/>
<path d="M13.8966 24.7595C16.0064 22.6523 18.3304 20.5798 21.1966 18.6973L24.7763 27.2002C22.1168 29.1271 19.8368 31.1954 17.8389 33.2031L13.8966 24.7595Z" fill="#1B1B1B"/>
<path d="M21.2432 53.8135V53.8135C19.5003 55.7139 16.2373 55.275 15.22 52.9055L14.2899 50.7391C15.335 49.4472 16.4611 47.9908 17.6801 46.4643L21.2432 53.8135Z" fill="#1B1B1B"/>
<path d="M46.493 36.0767C43.8854 36.5073 41.2191 37.3399 38.6696 38.7443L35.7658 31.3836C36.1907 31.2322 36.6213 31.0926 37.0578 30.9655C39.4591 30.2665 41.8866 29.9674 44.2525 29.91L46.493 36.0767Z" fill="#1B1B1B"/>
<path d="M50.3509 19.8382L54.2854 30.7637C51.2874 30.2916 47.8409 29.8229 44.2525 29.91L40.6947 20.1175C44.4078 19.4831 47.6661 19.6143 50.3509 19.8382Z" fill="#1B1B1B"/>
<path d="M63.852 35.5294C61.0987 36.4132 59.3758 36.5891 55.8669 36.4132C55.2493 34.207 54.2854 30.7637 54.2854 30.7637C56.6044 30.7772 59.065 30.6211 61.0987 30.3299L63.852 35.5294Z" fill="#1B1B1B"/>
<path d="M47.3157 11.41C49.7563 11.2632 51.8459 11.2211 53.1411 11.2654L56.4016 19.3659C54.9989 19.5131 52.7867 20.0413 50.3509 19.8382L47.3157 11.41Z" fill="#1B1B1B"/>
<path d="M63.852 35.5294L61.0987 30.3299L56.4016 19.3659L53.1411 11.2654V11.2654C55.0446 11.4505 56.6965 12.6567 57.4525 14.4134L81.1098 69.386C81.3982 70.0561 80.9068 70.8025 80.1773 70.8025V70.8025C79.776 70.8025 79.4123 70.5661 79.2494 70.1994L63.852 35.5294Z" fill="#1B1B1B"/>
<path d="M63.852 35.5294C61.0987 36.4132 59.3758 36.5891 55.8669 36.4132M63.852 35.5294L61.0987 30.3299M63.852 35.5294L79.2494 70.1994C79.4123 70.5661 79.776 70.8025 80.1773 70.8025V70.8025C80.9068 70.8025 81.3982 70.0561 81.1098 69.386L57.4525 14.4134C56.6965 12.6567 55.0446 11.4505 53.1411 11.2654V11.2654M53.1411 11.2654C51.8459 11.2211 49.7563 11.2632 47.3157 11.41M53.1411 11.2654L56.4016 19.3659M55.8669 36.4132C52.358 36.2373 50.0095 35.9255 46.493 36.0767M55.8669 36.4132C55.2493 34.207 54.2854 30.7637 54.2854 30.7637M47.3157 11.41C44.4216 11.584 41.0341 11.9053 37.8925 12.4045M47.3157 11.41L50.3509 19.8382M37.8925 12.4045C35.7283 12.7484 33.6808 13.1767 31.9918 13.6994C31.007 14.0042 30.068 14.3271 29.1708 14.6663M37.8925 12.4045L40.6947 20.1175M46.493 36.0767C43.8854 36.5073 41.2191 37.3399 38.6696 38.7443M46.493 36.0767L44.2525 29.91M38.6696 38.7443C37.7986 39.2242 36.9412 39.7707 36.1045 40.3909C34.5931 41.511 33.1436 42.6561 31.7657 43.8018M38.6696 38.7443L35.7658 31.3836M29.1708 14.6663C26.0661 15.8402 23.462 17.2094 21.1966 18.6973M29.1708 14.6663L32.3612 22.7535M21.1966 18.6973C18.3304 20.5798 16.0064 22.6523 13.8966 24.7595M21.1966 18.6973L24.7763 27.2002M31.7657 43.8018C29.4386 45.7368 27.3158 47.6733 25.4446 49.4932M31.7657 43.8018L28.283 35.5294M25.4446 49.4932C23.8523 51.042 22.4421 52.5063 21.2432 53.8135M25.4446 49.4932L21.7668 41.6159M13.8966 24.7595C12.333 26.3212 10.8871 27.9019 9.4253 29.4385M13.8966 24.7595L17.8389 33.2031M9.4253 29.4385V29.4385C7.66529 31.2886 7.07039 34.001 8.03476 36.3654L10.1106 41.4548M9.4253 29.4385L13.4994 37.8415M21.2432 53.8135V53.8135C19.5003 55.7139 16.2373 55.275 15.22 52.9055L14.2899 50.7391M21.2432 53.8135L17.6801 46.4643M14.2899 50.7391L10.1106 41.4548M14.2899 50.7391C15.335 49.4472 16.4611 47.9908 17.6801 46.4643M61.0987 30.3299L56.4016 19.3659M61.0987 30.3299C59.065 30.6211 56.6044 30.7772 54.2854 30.7637M10.1106 41.4548C11.1495 40.4439 12.2643 39.2089 13.4994 37.8415M56.4016 19.3659C54.9989 19.5131 52.7867 20.0413 50.3509 19.8382M13.4994 37.8415L17.6801 46.4643M13.4994 37.8415C14.7962 36.4058 16.2256 34.8242 17.8389 33.2031M17.8389 33.2031L21.7668 41.6159M17.8389 33.2031C19.8368 31.1954 22.1168 29.1271 24.7763 27.2002M21.7668 41.6159C20.2966 43.2374 18.9388 44.8882 17.6801 46.4643M21.7668 41.6159C23.7282 39.4526 25.8898 37.3415 28.283 35.5294M28.283 35.5294C30.5587 33.8063 33.044 32.3536 35.7658 31.3836M28.283 35.5294L24.7763 27.2002M32.3612 22.7535L35.7658 31.3836M32.3612 22.7535C29.525 24.055 27.0161 25.5774 24.7763 27.2002M32.3612 22.7535C32.8553 22.5268 33.3594 22.3068 33.8736 22.0941C36.2822 21.0981 38.5633 20.4816 40.6947 20.1175M35.7658 31.3836C36.1907 31.2322 36.6213 31.0926 37.0578 30.9655C39.4591 30.2665 41.8866 29.9674 44.2525 29.91M40.6947 20.1175L44.2525 29.91M40.6947 20.1175C44.4078 19.4831 47.6661 19.6143 50.3509 19.8382M44.2525 29.91C47.8409 29.8229 51.2874 30.2916 54.2854 30.7637M50.3509 19.8382L54.2854 30.7637" stroke="#1B1B1B"/>
</svg>
