<svg width="25" height="25" viewBox="0 0 25 25" fill="none" xmlns="http://www.w3.org/2000/svg">
<path d="M11.0273 1H21.8314C22.6351 1 23.2865 1.65148 23.2865 2.45512V14.0757C23.2865 14.8794 22.6351 15.5308 21.8314 15.5308H12.9994" stroke="black" stroke-width="2" stroke-linecap="round" stroke-linejoin="round"/>
<path d="M5.53997 7.00183C7.19734 7.00183 8.5409 5.65828 8.5409 4.00091C8.5409 2.34355 7.19734 1 5.53997 1C3.88262 1 2.53906 2.34355 2.53906 4.00091C2.53906 5.65828 3.88262 7.00183 5.53997 7.00183Z" stroke="black" stroke-width="2" stroke-linecap="round" stroke-linejoin="round"/>
<path d="M15.5714 9.61831C15.5714 8.64552 14.7828 7.85693 13.8101 7.85693H5.54102C3.03309 7.85693 1 9.89001 1 12.398V16.4284H2.94614L3.59486 23.2855H7.48717L8.98214 11.3797H13.8101C14.7828 11.3797 15.5714 10.5911 15.5714 9.61831Z" stroke="black" stroke-width="2" stroke-linecap="round" stroke-linejoin="round"/>
</svg>
