<svg width="24" height="24" viewBox="0 0 24 24" fill="none" xmlns="http://www.w3.org/2000/svg">
<g clip-path="url(#clip0_91_87)">
<path d="M8.99459 22.2546C7.94109 22.9341 6.6857 23.2303 5.4395 23.0934C4.19332 22.9562 3.03232 22.3943 2.15176 21.5018L1.38193 20.7491C1.04444 20.4038 0.855469 19.9403 0.855469 19.4575C0.855469 18.9748 1.04444 18.5111 1.38193 18.166L4.64939 14.9327C4.99171 14.5963 5.45246 14.4078 5.93243 14.4078C6.41238 14.4078 6.87314 14.5963 7.21545 14.9327C7.56066 15.2702 8.02427 15.4592 8.50705 15.4592C8.98982 15.4592 9.45342 15.2702 9.79862 14.9327L14.9307 9.80056C15.102 9.63184 15.2379 9.43077 15.3307 9.20904C15.4235 8.98732 15.4713 8.74934 15.4713 8.50898C15.4713 8.2686 15.4235 8.03064 15.3307 7.8089C15.2379 7.58717 15.102 7.38611 14.9307 7.21739C14.5943 6.87508 14.4058 6.41431 14.4058 5.93436C14.4058 5.4544 14.5943 4.99365 14.9307 4.65132L18.1811 1.40098C18.5263 1.06348 18.9899 0.874512 19.4726 0.874512C19.9555 0.874512 20.4191 1.06348 20.7643 1.40098L21.5171 2.1708C22.4094 3.05136 22.9713 4.21236 23.1084 5.45855C23.2456 6.70475 22.9494 7.96013 22.2696 9.01363C18.7284 14.2326 14.2226 18.7267 8.99459 22.2546Z" stroke="black" stroke-width="2" stroke-linecap="round" stroke-linejoin="round"/>
</g>
<defs>
<clipPath id="clip0_91_87">
<rect width="24" height="24" fill="white"/>
</clipPath>
</defs>
</svg>
