<svg width="26" height="25" viewBox="0 0 26 25" fill="none" xmlns="http://www.w3.org/2000/svg">
<path d="M12.9953 1C10.9958 1.00062 9.0339 1.54358 7.31859 2.57104C5.60328 3.5985 4.19878 5.07198 3.25467 6.83454C2.31056 8.5971 1.86221 10.5827 1.95737 12.58C2.05253 14.5772 2.68764 16.5112 3.79506 18.176L1.94141 23.1078L8.14858 21.9853C9.64325 22.7157 11.2835 23.0994 12.9471 23.1076C14.6106 23.1159 16.2546 22.7485 17.7564 22.0329C19.2582 21.3174 20.5792 20.272 21.6208 18.975C22.6624 17.6778 23.3978 16.1623 23.7722 14.5414C24.1465 12.9204 24.1502 11.2359 23.7829 9.61339C23.4157 7.99087 22.6869 6.47215 21.651 5.17048C20.615 3.86881 19.2986 2.81774 17.7999 2.09565C16.3012 1.37354 14.6589 0.99902 12.9953 1Z" stroke="black" stroke-width="2" stroke-linecap="round" stroke-linejoin="round"/>
<path d="M10.4453 9.50305C10.4453 8.99853 10.5949 8.50533 10.8752 8.08585C11.1555 7.66635 11.5539 7.3394 12.02 7.14633C12.4861 6.95325 12.999 6.90273 13.4939 7.00117C13.9887 7.09959 14.4432 7.34253 14.8 7.69929C15.1567 8.05604 15.3997 8.51056 15.4981 9.00539C15.5965 9.50022 15.546 10.0131 15.3529 10.4792C15.1599 10.9453 14.8329 11.3437 14.4134 11.624C13.9939 11.9043 13.5007 12.0539 12.9962 12.0539V13.7545" stroke="black" stroke-width="2" stroke-linecap="round" stroke-linejoin="round"/>
<path d="M12.9994 18.0061C12.7646 18.0061 12.5742 17.8156 12.5742 17.581C12.5742 17.3461 12.7646 17.1558 12.9994 17.1558" stroke="black" stroke-width="2" stroke-linecap="round" stroke-linejoin="round"/>
<path d="M13 18.006C13.2348 18.006 13.4251 17.8158 13.4251 17.5809C13.4251 17.346 13.2348 17.1558 13 17.1558" stroke="black" stroke-width="2" stroke-linecap="round" stroke-linejoin="round"/>
</svg>
