<svg width="125" height="230" viewBox="0 0 125 230" fill="none" xmlns="http://www.w3.org/2000/svg">
<path fill-rule="evenodd" clip-rule="evenodd" d="M98.2718 190.585C98.6967 192.115 101.668 195.485 102.155 196.405C102.641 197.325 101.85 200.813 101.366 201.612C100.883 202.411 94.9956 206.328 94.8139 206.266C94.6323 206.204 89.293 203.633 89.293 203.633C89.293 203.633 91.1128 182.198 90.9311 182.257C90.7495 182.316 96.4521 182.686 96.4521 182.686C96.4521 182.686 97.8469 189.056 98.2718 190.585Z" fill="black"/>
<path fill-rule="evenodd" clip-rule="evenodd" d="M105.009 183.361C107.922 178.461 88.0246 79.3655 86.0816 74.466C84.1418 69.5667 82.4551 63.367 77.2325 61.1399C72.01 58.9096 80.9856 67.9749 82.1988 77.407C83.412 86.8391 79.8341 130.384 79.8341 130.384C79.8341 130.384 88.8713 183.115 89.8445 188.26C90.8144 193.405 90.6619 191.172 92.7509 190.546C92.7509 190.546 102.096 188.26 105.009 183.361Z" fill="white" stroke="#1D1D1B" stroke-width="0.48"/>
<path fill-rule="evenodd" clip-rule="evenodd" d="M79.6312 126.081C83.1734 124.905 83.2935 133.319 85.2948 145.997C87.2963 158.674 97.4883 218.388 97.4883 218.388C97.4883 218.388 25.4239 231.065 21.966 221.145C21.966 221.145 21.7843 180.171 25.9689 160.878C30.1534 141.585 31.2465 130.378 31.2465 130.378V130.381C31.2465 130.381 73.5004 128.118 79.6312 126.081Z" fill="white" stroke="#1D1D1B" stroke-width="0.48"/>
<path fill-rule="evenodd" clip-rule="evenodd" d="M21.0552 31.6746C21.0552 26.9357 23.7249 7.5836 36.1 2.19288C48.4751 -3.19785 62.0116 2.2027 65.8652 9.05074C67.9153 12.6959 68.8463 16.888 68.0061 22.462C67.1659 28.0361 64.8531 34.5272 64.8531 34.5272C64.8531 34.5272 61.0319 41.9975 61.1519 48.5509C61.2719 55.1042 64.7299 113.409 64.7299 113.409C64.7299 113.409 30.0308 121.433 19.3555 113.409V113.416C19.3555 113.416 21.0552 36.4137 21.0552 31.6746Z" fill="black"/>
<path fill-rule="evenodd" clip-rule="evenodd" d="M33.9983 56.7876C33.9983 56.7876 44.4726 67.6083 47.9305 69.0788C51.3884 70.5493 54.483 69.629 54.483 66.9336C54.483 64.2383 52.3583 60.0757 51.0251 56.8891C49.6919 53.7058 49.2669 53.0933 49.1436 47.5782C49.0236 42.0663 49.1436 43.3534 49.1436 43.3534C49.1436 43.3534 44.6964 49.5793 33.1484 30.083C33.1484 30.083 34.6438 49.029 33.9983 56.7876Z" fill="white" stroke="#1D1D1B" stroke-width="0.48"/>
<path fill-rule="evenodd" clip-rule="evenodd" d="M50.2984 49.2946C61.7621 50.336 64.4317 41.1496 64.4317 41.1496C64.4317 41.1496 67.6917 29.8802 67.5847 21.9808C67.4776 14.0815 65.8849 9.11982 64.2468 8.44516C62.6087 7.77049 60.8505 8.93641 57.1494 8.1373C53.4482 7.34148 50.2952 5.37973 46.0491 6.60461C41.8029 7.82945 37.8001 8.93313 33.249 21.0573C33.249 21.0573 33.0673 23.2614 31.9158 20.8739C30.7642 18.4864 28.8212 19.3412 28.1562 21.3029C27.488 23.2614 27.0046 29.9392 29.856 32.8769C32.7073 35.8178 32.7689 31.652 33.2522 31.7142V31.7175C33.2522 31.7175 38.8316 48.2531 50.2984 49.2946Z" fill="white" stroke="#1D1D1B" stroke-width="0.48"/>
<path fill-rule="evenodd" clip-rule="evenodd" d="M22.0822 59.5845C33.7891 58.8509 33.9934 56.7876 33.9934 56.7876C33.9934 56.7876 44.711 64.8507 50.047 74.833C55.3864 84.8153 66.2434 113.174 66.2434 113.174C66.2434 113.174 57.0764 66.593 50.2547 55.0649C50.2547 55.0649 56.9596 57.2199 64.9686 58.4939C72.9743 59.7679 77.7687 60.1347 80.8632 63.8715C83.9579 67.6083 85.9592 78.5075 83.6529 131.059C83.6529 131.059 33.5458 140.491 27.4799 133.875C27.4799 133.875 22.9905 100.558 23.477 93.8216C23.477 93.8216 16.9246 71.4073 5.82422 66.6913V66.688C5.82422 66.688 10.3753 60.3181 22.0822 59.5845Z" fill="white" stroke="#1D1D1B" stroke-width="0.48"/>
<path fill-rule="evenodd" clip-rule="evenodd" d="M5.82538 66.688C5.82538 66.688 19.352 69.6879 23.4781 93.8183C27.6043 117.949 26.7544 117.582 27.1177 119.419C27.481 121.257 63.7565 110.6 70.189 110.478C76.6182 110.357 81.4709 134.73 71.6455 141.1C71.6455 141.1 64.2463 147.591 5.82858 146.245H5.82538C5.82538 146.245 -5.03167 115.623 5.82538 66.688Z" fill="black"/>
<path fill-rule="evenodd" clip-rule="evenodd" d="M56.9727 25.0625L58.5524 25.1444L56.9727 25.0625Z" fill="black"/>
<path d="M56.9727 25.0625L58.5524 25.1444" stroke="#1D1D1B" stroke-width="2.46"/>
<path fill-rule="evenodd" clip-rule="evenodd" d="M80.9914 126.097C85.9609 126.765 95.0046 128.485 103.984 130.201C112.962 131.917 120.167 123.261 120.585 120.169C121.335 114.644 94.8489 112.964 93.2367 111.664C91.2158 110.03 97.5738 101.629 98.0895 99.7822C98.495 98.3313 98.5047 96.517 95.1052 97.9056C91.7056 99.2942 88.3127 106.725 85.643 108.359C82.9733 109.994 79.0905 112.28 64.4512 116.606C49.8119 120.936 54.8463 127.676 57.5159 133.204V133.201C57.5159 133.201 76.0219 125.429 80.9914 126.097Z" fill="white" stroke="#1D1D1B" stroke-width="0.48"/>
<path fill-rule="evenodd" clip-rule="evenodd" d="M95.3636 199.222L105.299 202.713V206.879C105.299 206.879 107.252 208.899 110.59 207.186V198.796L97.4883 195.671V195.668C96.6384 195.547 94.3937 196.955 95.3636 199.222Z" fill="black"/>
<path fill-rule="evenodd" clip-rule="evenodd" d="M114.046 215.941L123.995 207.874L95.125 196.589L95.583 205.871L114.046 215.941Z" stroke="black" stroke-width="0.48"/>
<path d="M123.999 221.331V207.874L114.051 215.94L114.012 229.997" stroke="black" stroke-width="0.48"/>
<path fill-rule="evenodd" clip-rule="evenodd" d="M5.82537 66.688C5.82537 66.688 19.352 69.6879 23.4781 93.8183C27.6042 117.949 26.7544 117.582 27.1177 119.419C27.481 121.257 63.7565 110.6 70.1889 110.478C70.1889 110.478 56.8439 142.141 71.6454 141.1C71.6454 141.1 64.2463 147.591 5.82862 146.245H5.82537C5.82537 146.245 -5.03171 115.623 5.82537 66.688Z" fill="white" stroke="black" stroke-width="0.48"/>
<path fill-rule="evenodd" clip-rule="evenodd" d="M57.2641 21.3259C57.2641 21.3259 57.9648 28.1642 53.2321 30.5844C49.226 32.6313 44.6651 31.9141 42.0831 27.5059C40.8017 25.3182 40.2795 23.0814 40.3995 20.1437L40.4028 20.1404L57.2641 21.3259Z" fill="white" stroke="black" stroke-width="0.48"/>
<path fill-rule="evenodd" clip-rule="evenodd" d="M58.8614 21.5088C58.8614 21.5088 57.3238 28.5599 61.0477 31.5271C63.4352 33.4299 68.0706 33.8327 70.8083 29.4606C72.1675 27.2925 72.8974 25.1473 73.1763 22.0393L58.8614 21.5088Z" fill="white" stroke="black" stroke-width="0.48"/>
<path fill-rule="evenodd" clip-rule="evenodd" d="M72.4152 26.0676C72.4152 26.0676 73.1872 23.2478 73.184 22.0426L59.0312 21.5121V21.5088C70.2743 23.0186 72.4152 26.0676 72.4152 26.0676Z" fill="black"/>
<path fill-rule="evenodd" clip-rule="evenodd" d="M40.5719 23.3433C40.5719 23.3433 40.2702 20.4481 40.4064 20.1436L57.2677 21.3291V21.3258C46.9524 20.6741 40.5719 23.3433 40.5719 23.3433Z" fill="black"/>
</svg>
