<svg width="1559" height="379" viewBox="0 0 1559 379" fill="none" xmlns="http://www.w3.org/2000/svg">
<path d="M407.448 45.364C405.177 45.364 403.392 44.506 402.092 42.79C400.809 41.0393 400.168 38.7427 400.168 35.9C400.168 33.0573 400.809 30.7693 402.092 29.036C403.392 27.3027 405.177 26.436 407.448 26.436C409.753 26.436 411.538 27.3027 412.804 29.036C414.086 30.7693 414.728 33.0573 414.728 35.9C414.728 38.7427 414.086 41.0393 412.804 42.79C411.538 44.506 409.753 45.364 407.448 45.364ZM411.166 35.9C411.166 33.9587 410.845 32.4767 410.204 31.454C409.58 30.4313 408.661 29.92 407.448 29.92C406.234 29.92 405.316 30.4313 404.692 31.454C404.068 32.4767 403.756 33.9587 403.756 35.9C403.756 37.8413 404.068 39.3233 404.692 40.346C405.316 41.3513 406.234 41.854 407.448 41.854C408.661 41.854 409.58 41.3427 410.204 40.32C410.845 39.2973 411.166 37.824 411.166 35.9ZM420.84 33.43H422.712C424.48 33.43 425.953 33.9587 427.132 35.016C428.328 36.056 428.926 37.512 428.926 39.384C428.926 41.256 428.293 42.7207 427.028 43.778C425.797 44.8353 424.263 45.364 422.426 45.364C420.935 45.364 419.626 45.0347 418.5 44.376C417.39 43.7 416.584 42.7293 416.082 41.464L419.15 39.67C419.583 41.126 420.675 41.854 422.426 41.854C423.344 41.854 424.055 41.6373 424.558 41.204C425.078 40.7533 425.338 40.1467 425.338 39.384C425.338 38.6387 425.086 38.0407 424.584 37.59C424.081 37.1393 423.396 36.914 422.53 36.914H417.018L417.746 26.8H428.068V30.154H421.074L420.84 33.43ZM434.862 43.128C434.862 43.7347 434.645 44.2547 434.212 44.688C433.779 45.1213 433.259 45.338 432.652 45.338C432.045 45.338 431.525 45.1213 431.092 44.688C430.659 44.2547 430.442 43.7347 430.442 43.128C430.442 42.5213 430.659 42.0013 431.092 41.568C431.525 41.1347 432.045 40.918 432.652 40.918C433.259 40.918 433.779 41.1347 434.212 41.568C434.645 42.0013 434.862 42.5213 434.862 43.128ZM443.528 45.364C441.257 45.364 439.472 44.506 438.172 42.79C436.889 41.0393 436.248 38.7427 436.248 35.9C436.248 33.0573 436.889 30.7693 438.172 29.036C439.472 27.3027 441.257 26.436 443.528 26.436C445.833 26.436 447.619 27.3027 448.884 29.036C450.167 30.7693 450.808 33.0573 450.808 35.9C450.808 38.7427 450.167 41.0393 448.884 42.79C447.619 44.506 445.833 45.364 443.528 45.364ZM447.246 35.9C447.246 33.9587 446.925 32.4767 446.284 31.454C445.66 30.4313 444.741 29.92 443.528 29.92C442.315 29.92 441.396 30.4313 440.772 31.454C440.148 32.4767 439.836 33.9587 439.836 35.9C439.836 37.8413 440.148 39.3233 440.772 40.346C441.396 41.3513 442.315 41.854 443.528 41.854C444.741 41.854 445.66 41.3427 446.284 40.32C446.925 39.2973 447.246 37.824 447.246 35.9ZM465.495 32.754C465.495 34.158 465.131 35.3887 464.403 36.446H464.429L458.761 45H454.653L458.709 39.072C456.82 39.0547 455.277 38.4567 454.081 37.278C452.902 36.0993 452.313 34.5913 452.313 32.754C452.313 30.882 452.92 29.3653 454.133 28.204C455.364 27.0253 456.95 26.436 458.891 26.436C460.832 26.436 462.418 27.0253 463.649 28.204C464.88 29.3827 465.495 30.8993 465.495 32.754ZM455.875 32.754C455.875 33.638 456.161 34.3573 456.733 34.912C457.305 35.4493 458.024 35.718 458.891 35.718C459.792 35.718 460.52 35.4493 461.075 34.912C461.647 34.3573 461.933 33.638 461.933 32.754C461.933 31.87 461.647 31.1593 461.075 30.622C460.52 30.0847 459.792 29.816 458.891 29.816C458.024 29.816 457.305 30.0933 456.733 30.648C456.161 31.1853 455.875 31.8873 455.875 32.754Z" fill="#1B1B1B"/>
<path d="M352.12 84.326C350.86 85.586 349.318 86.216 347.494 86.216C345.67 86.216 344.128 85.586 342.868 84.326C341.608 83.042 340.978 81.5 340.978 79.7C340.978 77.888 341.608 76.352 342.868 75.092C344.128 73.82 345.67 73.184 347.494 73.184C349.318 73.184 350.86 73.82 352.12 75.092C353.38 76.352 354.01 77.888 354.01 79.7C354.01 81.5 353.38 83.042 352.12 84.326ZM342.238 79.7C342.238 81.188 342.742 82.442 343.75 83.462C344.758 84.482 346.006 84.992 347.494 84.992C348.982 84.992 350.23 84.482 351.238 83.462C352.246 82.442 352.75 81.188 352.75 79.7C352.75 78.224 352.246 76.976 351.238 75.956C350.23 74.924 348.982 74.408 347.494 74.408C346.006 74.408 344.758 74.924 343.75 75.956C342.742 76.976 342.238 78.224 342.238 79.7ZM354.905 77H362.465V78.152H359.279V86H358.091V78.152H354.905V77ZM366.36 81.32L371.184 86H369.6L365.1 81.662V86H363.912V77H365.1V80.978L369.384 77H371.004L366.36 81.32ZM377.631 76.784C378.915 76.784 380.007 77.24 380.907 78.152C381.819 79.064 382.275 80.18 382.275 81.5C382.275 82.82 381.819 83.936 380.907 84.848C380.007 85.76 378.915 86.216 377.631 86.216C376.035 86.216 374.823 85.556 373.995 84.236V89.6H372.807V77H373.995V78.764C374.823 77.444 376.035 76.784 377.631 76.784ZM375.021 84.038C375.705 84.722 376.545 85.064 377.541 85.064C378.537 85.064 379.377 84.722 380.061 84.038C380.745 83.33 381.087 82.484 381.087 81.5C381.087 80.504 380.745 79.664 380.061 78.98C379.377 78.284 378.537 77.936 377.541 77.936C376.545 77.936 375.705 78.284 375.021 78.98C374.337 79.664 373.995 80.504 373.995 81.5C373.995 82.484 374.337 83.33 375.021 84.038ZM385.438 80.42H387.904C388.732 80.42 389.44 80.684 390.028 81.212C390.616 81.728 390.91 82.394 390.91 83.21C390.91 84.038 390.616 84.71 390.028 85.226C389.464 85.742 388.756 86 387.904 86H384.25V77H385.438V80.42ZM392.17 86V77H393.358V86H392.17ZM385.438 84.848H387.904C388.42 84.848 388.852 84.698 389.2 84.398C389.548 84.086 389.722 83.69 389.722 83.21C389.722 82.73 389.548 82.34 389.2 82.04C388.852 81.728 388.42 81.572 387.904 81.572H385.438V84.848ZM394.807 77H402.367V78.152H399.181V86H397.993V78.152H394.807V77ZM405.003 83.93L410.367 77H411.375V86H410.187V79.07L404.823 86H403.815V77H405.003V83.93ZM418.045 76.784C419.389 76.784 420.463 77.258 421.267 78.206C422.095 79.142 422.509 80.252 422.509 81.536C422.509 81.596 422.497 81.782 422.473 82.094H414.571C414.691 82.994 415.075 83.714 415.723 84.254C416.371 84.794 417.181 85.064 418.153 85.064C419.521 85.064 420.487 84.554 421.051 83.534L422.095 84.146C421.699 84.794 421.153 85.304 420.457 85.676C419.773 86.036 418.999 86.216 418.135 86.216C416.719 86.216 415.567 85.772 414.679 84.884C413.791 83.996 413.347 82.868 413.347 81.5C413.347 80.144 413.785 79.022 414.661 78.134C415.537 77.234 416.665 76.784 418.045 76.784ZM418.045 77.936C417.109 77.936 416.323 78.212 415.687 78.764C415.063 79.316 414.691 80.042 414.571 80.942H421.285C421.153 79.982 420.787 79.244 420.187 78.728C419.563 78.2 418.849 77.936 418.045 77.936ZM428.899 77H436.459V86H435.271V78.152H430.087V86H428.899V77ZM443.795 76.784C445.079 76.784 446.171 77.24 447.071 78.152C447.983 79.064 448.439 80.18 448.439 81.5C448.439 82.82 447.983 83.936 447.071 84.848C446.171 85.76 445.079 86.216 443.795 86.216C442.199 86.216 440.987 85.556 440.159 84.236V89.6H438.971V77H440.159V78.764C440.987 77.444 442.199 76.784 443.795 76.784ZM441.185 84.038C441.869 84.722 442.709 85.064 443.705 85.064C444.701 85.064 445.541 84.722 446.225 84.038C446.909 83.33 447.251 82.484 447.251 81.5C447.251 80.504 446.909 79.664 446.225 78.98C445.541 78.284 444.701 77.936 443.705 77.936C442.709 77.936 441.869 78.284 441.185 78.98C440.501 79.664 440.159 80.504 440.159 81.5C440.159 82.484 440.501 83.33 441.185 84.038ZM457.956 84.866C457.032 85.766 455.916 86.216 454.608 86.216C453.276 86.216 452.154 85.766 451.242 84.866C450.33 83.954 449.874 82.832 449.874 81.5C449.874 80.168 450.33 79.052 451.242 78.152C452.154 77.24 453.276 76.784 454.608 76.784C455.928 76.784 457.044 77.24 457.956 78.152C458.88 79.052 459.342 80.168 459.342 81.5C459.342 82.82 458.88 83.942 457.956 84.866ZM452.088 84.038C452.772 84.722 453.612 85.064 454.608 85.064C455.604 85.064 456.444 84.722 457.128 84.038C457.812 83.33 458.154 82.484 458.154 81.5C458.154 80.504 457.812 79.664 457.128 78.98C456.444 78.284 455.604 77.936 454.608 77.936C453.612 77.936 452.772 78.284 452.088 78.98C451.404 79.664 451.062 80.504 451.062 81.5C451.062 82.484 451.404 83.33 452.088 84.038ZM461.33 77H467.09V78.152H462.518V86H461.33V77ZM473.361 76.784C474.645 76.784 475.737 77.24 476.637 78.152C477.549 79.064 478.005 80.18 478.005 81.5C478.005 82.82 477.549 83.936 476.637 84.848C475.737 85.76 474.645 86.216 473.361 86.216C471.765 86.216 470.553 85.556 469.725 84.236V89.6H468.537V77H469.725V78.764C470.553 77.444 471.765 76.784 473.361 76.784ZM470.751 84.038C471.435 84.722 472.275 85.064 473.271 85.064C474.267 85.064 475.107 84.722 475.791 84.038C476.475 83.33 476.817 82.484 476.817 81.5C476.817 80.504 476.475 79.664 475.791 78.98C475.107 78.284 474.267 77.936 473.271 77.936C472.275 77.936 471.435 78.284 470.751 78.98C470.067 79.664 469.725 80.504 469.725 81.5C469.725 82.484 470.067 83.33 470.751 84.038ZM487.721 78.764V77H488.909V86H487.721V84.236C486.893 85.556 485.681 86.216 484.085 86.216C482.801 86.216 481.703 85.76 480.791 84.848C479.891 83.936 479.441 82.82 479.441 81.5C479.441 80.18 479.891 79.064 480.791 78.152C481.703 77.24 482.801 76.784 484.085 76.784C485.681 76.784 486.893 77.444 487.721 78.764ZM481.655 84.038C482.339 84.722 483.179 85.064 484.175 85.064C485.171 85.064 486.011 84.722 486.695 84.038C487.379 83.33 487.721 82.484 487.721 81.5C487.721 80.504 487.379 79.664 486.695 78.98C486.011 78.284 485.171 77.936 484.175 77.936C483.179 77.936 482.339 78.284 481.655 78.98C480.971 79.664 480.629 80.504 480.629 81.5C480.629 82.484 480.971 83.33 481.655 84.038ZM498.876 77H500.244V86H499.056V78.818L495.906 83.93H495.762L492.612 78.818V86H491.424V77H492.792L495.834 81.932L498.876 77ZM510.214 77H511.582V86H510.394V78.818L507.244 83.93H507.1L503.95 78.818V86H502.762V77H504.13L507.172 81.932L510.214 77ZM515.288 80.42H517.754C518.582 80.42 519.29 80.684 519.878 81.212C520.466 81.728 520.76 82.394 520.76 83.21C520.76 84.038 520.466 84.71 519.878 85.226C519.314 85.742 518.606 86 517.754 86H514.1V77H515.288V80.42ZM522.02 86V77H523.208V86H522.02ZM515.288 84.848H517.754C518.27 84.848 518.702 84.698 519.05 84.398C519.398 84.086 519.572 83.69 519.572 83.21C519.572 82.73 519.398 82.34 519.05 82.04C518.702 81.728 518.27 81.572 517.754 81.572H515.288V84.848Z" fill="#1B1B1B"/>
<path d="M617.584 299.764L614.178 304.184C615.443 304.548 616.449 305.189 617.194 306.108C617.957 307.027 618.338 308.119 618.338 309.384C618.338 311.256 617.705 312.721 616.44 313.778C615.209 314.835 613.675 315.364 611.838 315.364C610.399 315.364 609.125 315.035 608.016 314.376C606.907 313.7 606.101 312.747 605.598 311.516L608.666 309.748C609.099 311.152 610.157 311.854 611.838 311.854C612.757 311.854 613.467 311.637 613.97 311.204C614.49 310.753 614.75 310.147 614.75 309.384C614.75 308.639 614.49 308.041 613.97 307.59C613.467 307.139 612.757 306.914 611.838 306.914H611.058L609.68 304.834L613.268 300.154H606.144V296.8H617.584V299.764ZM627.358 315.364C625.087 315.364 623.302 314.506 622.002 312.79C620.719 311.039 620.078 308.743 620.078 305.9C620.078 303.057 620.719 300.769 622.002 299.036C623.302 297.303 625.087 296.436 627.358 296.436C629.663 296.436 631.449 297.303 632.714 299.036C633.997 300.769 634.638 303.057 634.638 305.9C634.638 308.743 633.997 311.039 632.714 312.79C631.449 314.506 629.663 315.364 627.358 315.364ZM631.076 305.9C631.076 303.959 630.755 302.477 630.114 301.454C629.49 300.431 628.571 299.92 627.358 299.92C626.145 299.92 625.226 300.431 624.602 301.454C623.978 302.477 623.666 303.959 623.666 305.9C623.666 307.841 623.978 309.323 624.602 310.346C625.226 311.351 626.145 311.854 627.358 311.854C628.571 311.854 629.49 311.343 630.114 310.32C630.755 309.297 631.076 307.824 631.076 305.9ZM640.452 313.128C640.452 313.735 640.235 314.255 639.802 314.688C639.368 315.121 638.848 315.338 638.242 315.338C637.635 315.338 637.115 315.121 636.682 314.688C636.248 314.255 636.032 313.735 636.032 313.128C636.032 312.521 636.248 312.001 636.682 311.568C637.115 311.135 637.635 310.918 638.242 310.918C638.848 310.918 639.368 311.135 639.802 311.568C640.235 312.001 640.452 312.521 640.452 313.128ZM649.118 315.364C646.847 315.364 645.062 314.506 643.762 312.79C642.479 311.039 641.838 308.743 641.838 305.9C641.838 303.057 642.479 300.769 643.762 299.036C645.062 297.303 646.847 296.436 649.118 296.436C651.423 296.436 653.208 297.303 654.474 299.036C655.756 300.769 656.398 303.057 656.398 305.9C656.398 308.743 655.756 311.039 654.474 312.79C653.208 314.506 651.423 315.364 649.118 315.364ZM652.836 305.9C652.836 303.959 652.515 302.477 651.874 301.454C651.25 300.431 650.331 299.92 649.118 299.92C647.904 299.92 646.986 300.431 646.362 301.454C645.738 302.477 645.426 303.959 645.426 305.9C645.426 307.841 645.738 309.323 646.362 310.346C646.986 311.351 647.904 311.854 649.118 311.854C650.331 311.854 651.25 311.343 651.874 310.32C652.515 309.297 652.836 307.824 652.836 305.9ZM671.085 302.754C671.085 304.158 670.721 305.389 669.993 306.446H670.019L664.351 315H660.243L664.299 309.072C662.409 309.055 660.867 308.457 659.671 307.278C658.492 306.099 657.903 304.591 657.903 302.754C657.903 300.882 658.509 299.365 659.723 298.204C660.953 297.025 662.539 296.436 664.481 296.436C666.422 296.436 668.008 297.025 669.239 298.204C670.469 299.383 671.085 300.899 671.085 302.754ZM661.465 302.754C661.465 303.638 661.751 304.357 662.323 304.912C662.895 305.449 663.614 305.718 664.481 305.718C665.382 305.718 666.11 305.449 666.665 304.912C667.237 304.357 667.523 303.638 667.523 302.754C667.523 301.87 667.237 301.159 666.665 300.622C666.11 300.085 665.382 299.816 664.481 299.816C663.614 299.816 662.895 300.093 662.323 300.648C661.751 301.185 661.465 301.887 661.465 302.754Z" fill="#1B1B1B"/>
<path d="M536.862 349.326C535.602 350.586 534.06 351.216 532.236 351.216C530.412 351.216 528.87 350.586 527.61 349.326C526.35 348.042 525.72 346.5 525.72 344.7C525.72 342.888 526.35 341.352 527.61 340.092C528.87 338.82 530.412 338.184 532.236 338.184C534.06 338.184 535.602 338.82 536.862 340.092C538.122 341.352 538.752 342.888 538.752 344.7C538.752 346.5 538.122 348.042 536.862 349.326ZM526.98 344.7C526.98 346.188 527.484 347.442 528.492 348.462C529.5 349.482 530.748 349.992 532.236 349.992C533.724 349.992 534.972 349.482 535.98 348.462C536.988 347.442 537.492 346.188 537.492 344.7C537.492 343.224 536.988 341.976 535.98 340.956C534.972 339.924 533.724 339.408 532.236 339.408C530.748 339.408 529.5 339.924 528.492 340.956C527.484 341.976 526.98 343.224 526.98 344.7ZM543.175 346.32L547.999 351H546.415L541.915 346.662V351H540.727V342H541.915V345.978L546.199 342H547.819L543.175 346.32ZM556.267 349.866C555.343 350.766 554.227 351.216 552.919 351.216C551.587 351.216 550.465 350.766 549.553 349.866C548.641 348.954 548.185 347.832 548.185 346.5C548.185 345.168 548.641 344.052 549.553 343.152C550.465 342.24 551.587 341.784 552.919 341.784C554.239 341.784 555.355 342.24 556.267 343.152C557.191 344.052 557.653 345.168 557.653 346.5C557.653 347.82 557.191 348.942 556.267 349.866ZM550.399 349.038C551.083 349.722 551.923 350.064 552.919 350.064C553.915 350.064 554.755 349.722 555.439 349.038C556.123 348.33 556.465 347.484 556.465 346.5C556.465 345.504 556.123 344.664 555.439 343.98C554.755 343.284 553.915 342.936 552.919 342.936C551.923 342.936 551.083 343.284 550.399 343.98C549.715 344.664 549.373 345.504 549.373 346.5C549.373 347.484 549.715 348.33 550.399 349.038ZM566.013 345.924V342H567.201V351H566.013V347.076H560.829V351H559.641V342H560.829V345.924H566.013ZM575.545 346.482V342H576.733V351H575.545V347.58C574.849 347.94 573.991 348.12 572.971 348.12C571.783 348.12 570.883 347.85 570.271 347.31C569.659 346.758 569.353 345.948 569.353 344.88V342H570.541V344.88C570.541 345.624 570.733 346.164 571.117 346.5C571.513 346.836 572.119 347.004 572.935 347.004C573.847 347.004 574.717 346.83 575.545 346.482ZM586.998 343.764V342H588.186V351H586.998V349.236C586.17 350.556 584.958 351.216 583.362 351.216C582.078 351.216 580.98 350.76 580.068 349.848C579.168 348.936 578.718 347.82 578.718 346.5C578.718 345.18 579.168 344.064 580.068 343.152C580.98 342.24 582.078 341.784 583.362 341.784C584.958 341.784 586.17 342.444 586.998 343.764ZM580.932 349.038C581.616 349.722 582.456 350.064 583.452 350.064C584.448 350.064 585.288 349.722 585.972 349.038C586.656 348.33 586.998 347.484 586.998 346.5C586.998 345.504 586.656 344.664 585.972 343.98C585.288 343.284 584.448 342.936 583.452 342.936C582.456 342.936 581.616 343.284 580.932 343.98C580.248 344.664 579.906 345.504 579.906 346.5C579.906 347.484 580.248 348.33 580.932 349.038ZM597.073 345.924V342H598.261V351H597.073V347.076H591.889V351H590.701V342H591.889V345.924H597.073ZM601.962 348.93L607.326 342H608.334V351H607.146V344.07L601.782 351H600.774V342H601.962V348.93ZM615.004 341.784C616.348 341.784 617.422 342.258 618.226 343.206C619.054 344.142 619.468 345.252 619.468 346.536C619.468 346.596 619.456 346.782 619.432 347.094H611.53C611.65 347.994 612.034 348.714 612.682 349.254C613.33 349.794 614.14 350.064 615.112 350.064C616.48 350.064 617.446 349.554 618.01 348.534L619.054 349.146C618.658 349.794 618.112 350.304 617.416 350.676C616.732 351.036 615.958 351.216 615.094 351.216C613.678 351.216 612.526 350.772 611.638 349.884C610.75 348.996 610.306 347.868 610.306 346.5C610.306 345.144 610.744 344.022 611.62 343.134C612.496 342.234 613.624 341.784 615.004 341.784ZM615.004 342.936C614.068 342.936 613.282 343.212 612.646 343.764C612.022 344.316 611.65 345.042 611.53 345.942H618.244C618.112 344.982 617.746 344.244 617.146 343.728C616.522 343.2 615.808 342.936 615.004 342.936ZM625.858 342H633.418V351H632.23V343.152H627.046V351H625.858V342ZM640.754 341.784C642.038 341.784 643.13 342.24 644.03 343.152C644.942 344.064 645.398 345.18 645.398 346.5C645.398 347.82 644.942 348.936 644.03 349.848C643.13 350.76 642.038 351.216 640.754 351.216C639.158 351.216 637.946 350.556 637.118 349.236V354.6H635.93V342H637.118V343.764C637.946 342.444 639.158 341.784 640.754 341.784ZM638.144 349.038C638.828 349.722 639.668 350.064 640.664 350.064C641.66 350.064 642.5 349.722 643.184 349.038C643.868 348.33 644.21 347.484 644.21 346.5C644.21 345.504 643.868 344.664 643.184 343.98C642.5 343.284 641.66 342.936 640.664 342.936C639.668 342.936 638.828 343.284 638.144 343.98C637.46 344.664 637.118 345.504 637.118 346.5C637.118 347.484 637.46 348.33 638.144 349.038ZM648.561 348.93L653.925 342H654.933V351H653.745V344.07L648.381 351H647.373V342H648.561V348.93ZM661.604 341.784C662.948 341.784 664.022 342.258 664.826 343.206C665.654 344.142 666.068 345.252 666.068 346.536C666.068 346.596 666.056 346.782 666.032 347.094H658.13C658.25 347.994 658.634 348.714 659.282 349.254C659.93 349.794 660.74 350.064 661.712 350.064C663.08 350.064 664.046 349.554 664.61 348.534L665.654 349.146C665.258 349.794 664.712 350.304 664.016 350.676C663.332 351.036 662.558 351.216 661.694 351.216C660.278 351.216 659.126 350.772 658.238 349.884C657.35 348.996 656.906 347.868 656.906 346.5C656.906 345.144 657.344 344.022 658.22 343.134C659.096 342.234 660.224 341.784 661.604 341.784ZM661.604 342.936C660.668 342.936 659.882 343.212 659.246 343.764C658.622 344.316 658.25 345.042 658.13 345.942H664.844C664.712 344.982 664.346 344.244 663.746 343.728C663.122 343.2 662.408 342.936 661.604 342.936ZM675.409 342H676.777V351H675.589V343.818L672.439 348.93H672.295L669.145 343.818V351H667.957V342H669.325L672.367 346.932L675.409 342ZM687.035 343.764V342H688.223V351H687.035V349.236C686.207 350.556 684.995 351.216 683.399 351.216C682.115 351.216 681.017 350.76 680.105 349.848C679.205 348.936 678.755 347.82 678.755 346.5C678.755 345.18 679.205 344.064 680.105 343.152C681.017 342.24 682.115 341.784 683.399 341.784C684.995 341.784 686.207 342.444 687.035 343.764ZM680.969 349.038C681.653 349.722 682.493 350.064 683.489 350.064C684.485 350.064 685.325 349.722 686.009 349.038C686.693 348.33 687.035 347.484 687.035 346.5C687.035 345.504 686.693 344.664 686.009 343.98C685.325 343.284 684.485 342.936 683.489 342.936C682.493 342.936 681.653 343.284 680.969 343.98C680.285 344.664 679.943 345.504 679.943 346.5C679.943 347.484 680.285 348.33 680.969 349.038ZM699.883 346.374C700.927 346.77 701.449 347.49 701.449 348.534C701.449 349.29 701.155 349.926 700.567 350.442C700.003 350.958 699.175 351.216 698.083 351.216C696.259 351.216 695.071 350.496 694.519 349.056L695.527 348.462C695.911 349.53 696.763 350.064 698.083 350.064C698.767 350.064 699.301 349.92 699.685 349.632C700.069 349.332 700.261 348.942 700.261 348.462C700.261 348.03 700.105 347.688 699.793 347.436C699.481 347.172 699.061 347.04 698.533 347.04H697.219V345.888H698.173C698.689 345.888 699.091 345.762 699.379 345.51C699.679 345.246 699.829 344.886 699.829 344.43C699.829 343.998 699.649 343.644 699.289 343.368C698.941 343.08 698.479 342.936 697.903 342.936C696.787 342.936 696.037 343.386 695.653 344.286L694.663 343.71C695.263 342.426 696.343 341.784 697.903 341.784C698.863 341.784 699.619 342.036 700.171 342.54C700.735 343.032 701.017 343.638 701.017 344.358C701.017 345.282 700.639 345.954 699.883 346.374ZM710.994 343.764V342H712.182V351H710.994V349.236C710.166 350.556 708.954 351.216 707.358 351.216C706.074 351.216 704.976 350.76 704.064 349.848C703.164 348.936 702.714 347.82 702.714 346.5C702.714 345.18 703.164 344.064 704.064 343.152C704.976 342.24 706.074 341.784 707.358 341.784C708.954 341.784 710.166 342.444 710.994 343.764ZM704.928 349.038C705.612 349.722 706.452 350.064 707.448 350.064C708.444 350.064 709.284 349.722 709.968 349.038C710.652 348.33 710.994 347.484 710.994 346.5C710.994 345.504 710.652 344.664 709.968 343.98C709.284 343.284 708.444 342.936 707.448 342.936C706.452 342.936 705.612 343.284 704.928 343.98C704.244 344.664 703.902 345.504 703.902 346.5C703.902 347.484 704.244 348.33 704.928 349.038ZM717.524 342H721.178V351H719.99V347.544H718.442L715.67 351H714.158L717.002 347.508C716.27 347.4 715.67 347.1 715.202 346.608C714.746 346.104 714.518 345.498 714.518 344.79C714.518 343.986 714.806 343.32 715.382 342.792C715.982 342.264 716.696 342 717.524 342ZM717.524 346.428H719.99V343.152H717.524C717.008 343.152 716.576 343.308 716.228 343.62C715.88 343.92 715.706 344.31 715.706 344.79C715.706 345.27 715.88 345.666 716.228 345.978C716.576 346.278 717.008 346.428 717.524 346.428ZM729.422 346.374C730.406 346.734 730.898 347.436 730.898 348.48C730.898 349.224 730.646 349.83 730.142 350.298C729.65 350.766 728.96 351 728.072 351H723.698V342H727.712C728.576 342 729.248 342.222 729.728 342.666C730.22 343.11 730.466 343.692 730.466 344.412C730.466 345.312 730.118 345.966 729.422 346.374ZM727.712 343.152H724.886V345.888H727.712C728.756 345.888 729.278 345.42 729.278 344.484C729.278 344.064 729.14 343.74 728.864 343.512C728.6 343.272 728.216 343.152 727.712 343.152ZM724.886 349.848H728.072C728.6 349.848 729.002 349.722 729.278 349.47C729.566 349.218 729.71 348.864 729.71 348.408C729.71 347.976 729.566 347.64 729.278 347.4C729.002 347.16 728.6 347.04 728.072 347.04H724.886V349.848ZM740.24 349.866C739.316 350.766 738.2 351.216 736.892 351.216C735.56 351.216 734.438 350.766 733.526 349.866C732.614 348.954 732.158 347.832 732.158 346.5C732.158 345.168 732.614 344.052 733.526 343.152C734.438 342.24 735.56 341.784 736.892 341.784C738.212 341.784 739.328 342.24 740.24 343.152C741.164 344.052 741.626 345.168 741.626 346.5C741.626 347.82 741.164 348.942 740.24 349.866ZM734.372 349.038C735.056 349.722 735.896 350.064 736.892 350.064C737.888 350.064 738.728 349.722 739.412 349.038C740.096 348.33 740.438 347.484 740.438 346.5C740.438 345.504 740.096 344.664 739.412 343.98C738.728 343.284 737.888 342.936 736.892 342.936C735.896 342.936 735.056 343.284 734.372 343.98C733.688 344.664 733.346 345.504 733.346 346.5C733.346 347.484 733.688 348.33 734.372 349.038ZM746.062 346.32L750.886 351H749.302L744.802 346.662V351H743.614V342H744.802V345.978L749.086 342H750.706L746.062 346.32Z" fill="#1B1B1B"/>
<path d="M1425.29 298.49L1430.07 296.8H1433.19V315H1429.6V300.596L1426.17 301.558L1425.29 298.49ZM1447.92 315H1435.76V312.322L1441.97 305.926C1443.36 304.453 1444.05 303.239 1444.05 302.286C1444.05 301.575 1443.83 301.003 1443.37 300.57C1442.94 300.137 1442.38 299.92 1441.68 299.92C1440.3 299.92 1439.28 300.631 1438.64 302.052L1435.63 300.284C1436.18 299.053 1436.99 298.109 1438.04 297.45C1439.12 296.774 1440.32 296.436 1441.63 296.436C1443.28 296.436 1444.69 296.956 1445.87 297.996C1447.05 299.019 1447.64 300.405 1447.64 302.156C1447.64 304.045 1446.64 305.987 1444.65 307.98L1441.09 311.542H1447.92V315ZM1454.56 313.128C1454.56 313.735 1454.34 314.255 1453.91 314.688C1453.48 315.121 1452.96 315.338 1452.35 315.338C1451.74 315.338 1451.22 315.121 1450.79 314.688C1450.36 314.255 1450.14 313.735 1450.14 313.128C1450.14 312.521 1450.36 312.001 1450.79 311.568C1451.22 311.135 1451.74 310.918 1452.35 310.918C1452.96 310.918 1453.48 311.135 1453.91 311.568C1454.34 312.001 1454.56 312.521 1454.56 313.128ZM1456.11 298.49L1460.89 296.8H1464.01V315H1460.43V300.596L1456.99 301.558L1456.11 298.49ZM1478.75 315H1466.58V312.322L1472.79 305.926C1474.18 304.453 1474.87 303.239 1474.87 302.286C1474.87 301.575 1474.65 301.003 1474.2 300.57C1473.77 300.137 1473.2 299.92 1472.51 299.92C1471.12 299.92 1470.11 300.631 1469.47 302.052L1466.45 300.284C1467.01 299.053 1467.81 298.109 1468.87 297.45C1469.94 296.774 1471.14 296.436 1472.46 296.436C1474.1 296.436 1475.52 296.956 1476.69 297.996C1477.87 299.019 1478.46 300.405 1478.46 302.156C1478.46 304.045 1477.47 305.987 1475.47 307.98L1471.91 311.542H1478.75V315Z" fill="#1B1B1B"/>
<path d="M1357.79 338.4V349.812H1359.14V353.412H1357.88V351H1348.88V353.412H1347.62V349.812H1348.64C1349.47 348.84 1349.88 347.34 1349.88 345.312V338.4H1357.79ZM1350.14 349.812H1356.53V339.588H1351.14V345.348C1351.14 347.328 1350.81 348.816 1350.14 349.812ZM1364.84 341.784C1366.18 341.784 1367.26 342.258 1368.06 343.206C1368.89 344.142 1369.3 345.252 1369.3 346.536C1369.3 346.596 1369.29 346.782 1369.27 347.094H1361.37C1361.49 347.994 1361.87 348.714 1362.52 349.254C1363.17 349.794 1363.98 350.064 1364.95 350.064C1366.32 350.064 1367.28 349.554 1367.85 348.534L1368.89 349.146C1368.49 349.794 1367.95 350.304 1367.25 350.676C1366.57 351.036 1365.79 351.216 1364.93 351.216C1363.51 351.216 1362.36 350.772 1361.47 349.884C1360.59 348.996 1360.14 347.868 1360.14 346.5C1360.14 345.144 1360.58 344.022 1361.46 343.134C1362.33 342.234 1363.46 341.784 1364.84 341.784ZM1364.84 342.936C1363.9 342.936 1363.12 343.212 1362.48 343.764C1361.86 344.316 1361.49 345.042 1361.37 345.942H1368.08C1367.95 344.982 1367.58 344.244 1366.98 343.728C1366.36 343.2 1365.64 342.936 1364.84 342.936ZM1378.65 342H1380.01V351H1378.83V343.818L1375.68 348.93H1375.53L1372.38 343.818V351H1371.19V342H1372.56L1375.6 346.932L1378.65 342ZM1390.07 349.866C1389.15 350.766 1388.03 351.216 1386.73 351.216C1385.39 351.216 1384.27 350.766 1383.36 349.866C1382.45 348.954 1381.99 347.832 1381.99 346.5C1381.99 345.168 1382.45 344.052 1383.36 343.152C1384.27 342.24 1385.39 341.784 1386.73 341.784C1388.05 341.784 1389.16 342.24 1390.07 343.152C1391 344.052 1391.46 345.168 1391.46 346.5C1391.46 347.82 1391 348.942 1390.07 349.866ZM1384.21 349.038C1384.89 349.722 1385.73 350.064 1386.73 350.064C1387.72 350.064 1388.56 349.722 1389.25 349.038C1389.93 348.33 1390.27 347.484 1390.27 346.5C1390.27 345.504 1389.93 344.664 1389.25 343.98C1388.56 343.284 1387.72 342.936 1386.73 342.936C1385.73 342.936 1384.89 343.284 1384.21 343.98C1383.52 344.664 1383.18 345.504 1383.18 346.5C1383.18 347.484 1383.52 348.33 1384.21 349.038ZM1400.66 342V349.848H1401.92V353.412H1400.73V351H1393.38V353.412H1392.2V349.848H1393.29C1393.91 349.032 1394.21 347.898 1394.21 346.446V342H1400.66ZM1394.73 349.848H1399.47V343.152H1395.4V346.446C1395.4 347.838 1395.18 348.972 1394.73 349.848ZM1407.52 341.784C1408.86 341.784 1409.94 342.258 1410.74 343.206C1411.57 344.142 1411.98 345.252 1411.98 346.536C1411.98 346.596 1411.97 346.782 1411.95 347.094H1404.05C1404.17 347.994 1404.55 348.714 1405.2 349.254C1405.85 349.794 1406.66 350.064 1407.63 350.064C1409 350.064 1409.96 349.554 1410.53 348.534L1411.57 349.146C1411.17 349.794 1410.63 350.304 1409.93 350.676C1409.25 351.036 1408.47 351.216 1407.61 351.216C1406.19 351.216 1405.04 350.772 1404.15 349.884C1403.27 348.996 1402.82 347.868 1402.82 346.5C1402.82 345.144 1403.26 344.022 1404.14 343.134C1405.01 342.234 1406.14 341.784 1407.52 341.784ZM1407.52 342.936C1406.58 342.936 1405.8 343.212 1405.16 343.764C1404.54 344.316 1404.17 345.042 1404.05 345.942H1410.76C1410.63 344.982 1410.26 344.244 1409.66 343.728C1409.04 343.2 1408.32 342.936 1407.52 342.936ZM1420.25 345.924V342H1421.43V351H1420.25V347.076H1415.06V351H1413.87V342H1415.06V345.924H1420.25ZM1425.13 345.42H1427.6C1428.43 345.42 1429.14 345.684 1429.72 346.212C1430.31 346.728 1430.61 347.394 1430.61 348.21C1430.61 349.038 1430.31 349.71 1429.72 350.226C1429.16 350.742 1428.45 351 1427.6 351H1423.95V342H1425.13V345.42ZM1425.13 349.848H1427.6C1428.12 349.848 1428.55 349.698 1428.9 349.398C1429.24 349.086 1429.42 348.69 1429.42 348.21C1429.42 347.73 1429.24 347.34 1428.9 347.04C1428.55 346.728 1428.12 346.572 1427.6 346.572H1425.13V349.848ZM1443.56 346.014H1437.08V344.862H1443.56V346.014ZM1450.75 342H1458.31V351H1457.13V343.152H1451.94V351H1450.75V342ZM1465.65 341.784C1466.93 341.784 1468.03 342.24 1468.93 343.152C1469.84 344.064 1470.29 345.18 1470.29 346.5C1470.29 347.82 1469.84 348.936 1468.93 349.848C1468.03 350.76 1466.93 351.216 1465.65 351.216C1464.05 351.216 1462.84 350.556 1462.01 349.236V354.6H1460.83V342H1462.01V343.764C1462.84 342.444 1464.05 341.784 1465.65 341.784ZM1463.04 349.038C1463.72 349.722 1464.56 350.064 1465.56 350.064C1466.56 350.064 1467.4 349.722 1468.08 349.038C1468.76 348.33 1469.11 347.484 1469.11 346.5C1469.11 345.504 1468.76 344.664 1468.08 343.98C1467.4 343.284 1466.56 342.936 1465.56 342.936C1464.56 342.936 1463.72 343.284 1463.04 343.98C1462.36 344.664 1462.01 345.504 1462.01 346.5C1462.01 347.484 1462.36 348.33 1463.04 349.038ZM1476.43 341.784C1477.77 341.784 1478.84 342.258 1479.65 343.206C1480.48 344.142 1480.89 345.252 1480.89 346.536C1480.89 346.596 1480.88 346.782 1480.85 347.094H1472.95C1473.07 347.994 1473.46 348.714 1474.1 349.254C1474.75 349.794 1475.56 350.064 1476.53 350.064C1477.9 350.064 1478.87 349.554 1479.43 348.534L1480.48 349.146C1480.08 349.794 1479.53 350.304 1478.84 350.676C1478.15 351.036 1477.38 351.216 1476.52 351.216C1475.1 351.216 1473.95 350.772 1473.06 349.884C1472.17 348.996 1471.73 347.868 1471.73 346.5C1471.73 345.144 1472.17 344.022 1473.04 343.134C1473.92 342.234 1475.05 341.784 1476.43 341.784ZM1476.43 342.936C1475.49 342.936 1474.7 343.212 1474.07 343.764C1473.44 344.316 1473.07 345.042 1472.95 345.942H1479.67C1479.53 344.982 1479.17 344.244 1478.57 343.728C1477.94 343.2 1477.23 342.936 1476.43 342.936ZM1487.25 346.374C1488.29 346.77 1488.81 347.49 1488.81 348.534C1488.81 349.29 1488.52 349.926 1487.93 350.442C1487.37 350.958 1486.54 351.216 1485.45 351.216C1483.62 351.216 1482.44 350.496 1481.88 349.056L1482.89 348.462C1483.28 349.53 1484.13 350.064 1485.45 350.064C1486.13 350.064 1486.67 349.92 1487.05 349.632C1487.43 349.332 1487.63 348.942 1487.63 348.462C1487.63 348.03 1487.47 347.688 1487.16 347.436C1486.85 347.172 1486.43 347.04 1485.9 347.04H1484.58V345.888H1485.54C1486.05 345.888 1486.46 345.762 1486.74 345.51C1487.04 345.246 1487.19 344.886 1487.19 344.43C1487.19 343.998 1487.01 343.644 1486.65 343.368C1486.31 343.08 1485.84 342.936 1485.27 342.936C1484.15 342.936 1483.4 343.386 1483.02 344.286L1482.03 343.71C1482.63 342.426 1483.71 341.784 1485.27 341.784C1486.23 341.784 1486.98 342.036 1487.54 342.54C1488.1 343.032 1488.38 343.638 1488.38 344.358C1488.38 345.282 1488 345.954 1487.25 346.374ZM1494.78 341.784C1496.12 341.784 1497.2 342.258 1498 343.206C1498.83 344.142 1499.24 345.252 1499.24 346.536C1499.24 346.596 1499.23 346.782 1499.21 347.094H1491.3C1491.42 347.994 1491.81 348.714 1492.46 349.254C1493.1 349.794 1493.91 350.064 1494.89 350.064C1496.25 350.064 1497.22 349.554 1497.78 348.534L1498.83 349.146C1498.43 349.794 1497.89 350.304 1497.19 350.676C1496.51 351.036 1495.73 351.216 1494.87 351.216C1493.45 351.216 1492.3 350.772 1491.41 349.884C1490.52 348.996 1490.08 347.868 1490.08 346.5C1490.08 345.144 1490.52 344.022 1491.39 343.134C1492.27 342.234 1493.4 341.784 1494.78 341.784ZM1494.78 342.936C1493.84 342.936 1493.06 343.212 1492.42 343.764C1491.8 344.316 1491.42 345.042 1491.3 345.942H1498.02C1497.89 344.982 1497.52 344.244 1496.92 343.728C1496.3 343.2 1495.58 342.936 1494.78 342.936ZM1507.5 345.924V342H1508.69V351H1507.5V347.076H1502.32V351H1501.13V342H1502.32V345.924H1507.5ZM1510.12 342H1517.68V343.152H1514.5V351H1513.31V343.152H1510.12V342ZM1526.52 343.764V342H1527.71V351H1526.52V349.236C1525.69 350.556 1524.48 351.216 1522.88 351.216C1521.6 351.216 1520.5 350.76 1519.59 349.848C1518.69 348.936 1518.24 347.82 1518.24 346.5C1518.24 345.18 1518.69 344.064 1519.59 343.152C1520.5 342.24 1521.6 341.784 1522.88 341.784C1524.48 341.784 1525.69 342.444 1526.52 343.764ZM1520.45 349.038C1521.14 349.722 1521.98 350.064 1522.97 350.064C1523.97 350.064 1524.81 349.722 1525.49 349.038C1526.18 348.33 1526.52 347.484 1526.52 346.5C1526.52 345.504 1526.18 344.664 1525.49 343.98C1524.81 343.284 1523.97 342.936 1522.97 342.936C1521.98 342.936 1521.14 343.284 1520.45 343.98C1519.77 344.664 1519.43 345.504 1519.43 346.5C1519.43 347.484 1519.77 348.33 1520.45 349.038ZM1537.6 342V349.848H1539.04V353.412H1537.86V351H1530.22V342H1531.41V349.848H1536.42V342H1537.6ZM1542.03 348.93L1547.39 342H1548.4V351H1547.21V344.07L1541.85 351H1540.84V342H1542.03V348.93ZM1553.74 342H1557.39V351H1556.21V347.544H1554.66L1551.89 351H1550.37L1553.22 347.508C1552.49 347.4 1551.89 347.1 1551.42 346.608C1550.96 346.104 1550.73 345.498 1550.73 344.79C1550.73 343.986 1551.02 343.32 1551.6 342.792C1552.2 342.264 1552.91 342 1553.74 342ZM1553.74 346.428H1556.21V343.152H1553.74C1553.22 343.152 1552.79 343.308 1552.44 343.62C1552.1 343.92 1551.92 344.31 1551.92 344.79C1551.92 345.27 1552.1 345.666 1552.44 345.978C1552.79 346.278 1553.22 346.428 1553.74 346.428ZM1382.06 363H1388.51V372H1387.32V364.152H1383.25V368.166C1383.25 369.666 1382.96 370.698 1382.39 371.262C1381.82 371.826 1381.04 372.072 1380.05 372V370.884C1380.74 370.956 1381.25 370.788 1381.58 370.38C1381.9 369.972 1382.06 369.234 1382.06 368.166V363ZM1394.59 370.542L1397.5 363H1398.76L1394.91 372.828C1394.55 373.74 1394.05 374.442 1393.4 374.934C1392.76 375.438 1392.05 375.66 1391.27 375.6V374.484C1392.35 374.616 1393.18 373.992 1393.74 372.612L1393.97 372.054L1389.94 363H1391.2L1394.59 370.542ZM1406.03 367.482V363H1407.22V372H1406.03V368.58C1405.33 368.94 1404.48 369.12 1403.46 369.12C1402.27 369.12 1401.37 368.85 1400.76 368.31C1400.14 367.758 1399.84 366.948 1399.84 365.88V363H1401.03V365.88C1401.03 366.624 1401.22 367.164 1401.6 367.5C1402 367.836 1402.6 368.004 1403.42 368.004C1404.33 368.004 1405.2 367.83 1406.03 367.482ZM1420.62 370.848V363H1421.8V372H1409.74V363H1410.93V370.848H1415.18V363H1416.37V370.848H1420.62ZM1425.5 369.93L1430.87 363H1431.88V372H1430.69V365.07L1425.32 372H1424.32V363H1425.5V369.93ZM1438.44 367.338L1441.95 372H1440.53L1437.72 368.292L1434.91 372H1433.49L1437.02 367.338L1433.72 363H1435.14L1437.72 366.402L1440.29 363H1441.71L1438.44 367.338ZM1448.06 363H1455.62V372H1454.44V364.152H1449.25V372H1448.06V363ZM1462.96 362.784C1464.24 362.784 1465.34 363.24 1466.24 364.152C1467.15 365.064 1467.6 366.18 1467.6 367.5C1467.6 368.82 1467.15 369.936 1466.24 370.848C1465.34 371.76 1464.24 372.216 1462.96 372.216C1461.36 372.216 1460.15 371.556 1459.32 370.236V375.6H1458.14V363H1459.32V364.764C1460.15 363.444 1461.36 362.784 1462.96 362.784ZM1460.35 370.038C1461.03 370.722 1461.87 371.064 1462.87 371.064C1463.87 371.064 1464.71 370.722 1465.39 370.038C1466.07 369.33 1466.42 368.484 1466.42 367.5C1466.42 366.504 1466.07 365.664 1465.39 364.98C1464.71 364.284 1463.87 363.936 1462.87 363.936C1461.87 363.936 1461.03 364.284 1460.35 364.98C1459.67 365.664 1459.32 366.504 1459.32 367.5C1459.32 368.484 1459.67 369.33 1460.35 370.038ZM1477.12 370.866C1476.2 371.766 1475.08 372.216 1473.77 372.216C1472.44 372.216 1471.32 371.766 1470.41 370.866C1469.5 369.954 1469.04 368.832 1469.04 367.5C1469.04 366.168 1469.5 365.052 1470.41 364.152C1471.32 363.24 1472.44 362.784 1473.77 362.784C1475.09 362.784 1476.21 363.24 1477.12 364.152C1478.05 365.052 1478.51 366.168 1478.51 367.5C1478.51 368.82 1478.05 369.942 1477.12 370.866ZM1471.25 370.038C1471.94 370.722 1472.78 371.064 1473.77 371.064C1474.77 371.064 1475.61 370.722 1476.29 370.038C1476.98 369.33 1477.32 368.484 1477.32 367.5C1477.32 366.504 1476.98 365.664 1476.29 364.98C1475.61 364.284 1474.77 363.936 1473.77 363.936C1472.78 363.936 1471.94 364.284 1471.25 364.98C1470.57 365.664 1470.23 366.504 1470.23 367.5C1470.23 368.484 1470.57 369.33 1471.25 370.038ZM1484.65 362.784C1486 362.784 1487.07 363.258 1487.88 364.206C1488.7 365.142 1489.12 366.252 1489.12 367.536C1489.12 367.596 1489.11 367.782 1489.08 368.094H1481.18C1481.3 368.994 1481.68 369.714 1482.33 370.254C1482.98 370.794 1483.79 371.064 1484.76 371.064C1486.13 371.064 1487.1 370.554 1487.66 369.534L1488.7 370.146C1488.31 370.794 1487.76 371.304 1487.07 371.676C1486.38 372.036 1485.61 372.216 1484.74 372.216C1483.33 372.216 1482.18 371.772 1481.29 370.884C1480.4 369.996 1479.96 368.868 1479.96 367.5C1479.96 366.144 1480.39 365.022 1481.27 364.134C1482.15 363.234 1483.27 362.784 1484.65 362.784ZM1484.65 363.936C1483.72 363.936 1482.93 364.212 1482.3 364.764C1481.67 365.316 1481.3 366.042 1481.18 366.942H1487.89C1487.76 365.982 1487.4 365.244 1486.8 364.728C1486.17 364.2 1485.46 363.936 1484.65 363.936ZM1493.46 367.32L1498.28 372H1496.7L1492.2 367.662V372H1491.01V363H1492.2V366.978L1496.48 363H1498.1L1493.46 367.32ZM1498.82 363H1506.38V364.152H1503.2V372H1502.01V364.152H1498.82V363ZM1515.02 370.866C1514.1 371.766 1512.98 372.216 1511.67 372.216C1510.34 372.216 1509.22 371.766 1508.31 370.866C1507.39 369.954 1506.94 368.832 1506.94 367.5C1506.94 366.168 1507.39 365.052 1508.31 364.152C1509.22 363.24 1510.34 362.784 1511.67 362.784C1512.99 362.784 1514.11 363.24 1515.02 364.152C1515.94 365.052 1516.41 366.168 1516.41 367.5C1516.41 368.82 1515.94 369.942 1515.02 370.866ZM1509.15 370.038C1509.84 370.722 1510.68 371.064 1511.67 371.064C1512.67 371.064 1513.51 370.722 1514.19 370.038C1514.88 369.33 1515.22 368.484 1515.22 367.5C1515.22 366.504 1514.88 365.664 1514.19 364.98C1513.51 364.284 1512.67 363.936 1511.67 363.936C1510.68 363.936 1509.84 364.284 1509.15 364.98C1508.47 365.664 1508.13 366.504 1508.13 367.5C1508.13 368.484 1508.47 369.33 1509.15 370.038ZM1524.12 367.374C1525.1 367.734 1525.59 368.436 1525.59 369.48C1525.59 370.224 1525.34 370.83 1524.84 371.298C1524.35 371.766 1523.66 372 1522.77 372H1518.39V363H1522.41C1523.27 363 1523.94 363.222 1524.42 363.666C1524.92 364.11 1525.16 364.692 1525.16 365.412C1525.16 366.312 1524.81 366.966 1524.12 367.374ZM1522.41 364.152H1519.58V366.888H1522.41C1523.45 366.888 1523.97 366.42 1523.97 365.484C1523.97 365.064 1523.84 364.74 1523.56 364.512C1523.3 364.272 1522.91 364.152 1522.41 364.152ZM1519.58 370.848H1522.77C1523.3 370.848 1523.7 370.722 1523.97 370.47C1524.26 370.218 1524.41 369.864 1524.41 369.408C1524.41 368.976 1524.26 368.64 1523.97 368.4C1523.7 368.16 1523.3 368.04 1522.77 368.04H1519.58V370.848Z" fill="#1B1B1B"/>
<path d="M1086.74 6.49L1091.53 4.8H1094.65V23H1091.06V8.596L1087.63 9.558L1086.74 6.49ZM1096.85 8.232V4.8H1108.6V7.842L1102.44 23H1098.64L1104.62 8.232H1096.85ZM1111.04 21.128C1111.04 21.7347 1110.82 22.2547 1110.39 22.688C1109.96 23.1213 1109.44 23.338 1108.83 23.338C1108.22 23.338 1107.7 23.1213 1107.27 22.688C1106.84 22.2547 1106.62 21.7347 1106.62 21.128C1106.62 20.5213 1106.84 20.0013 1107.27 19.568C1107.7 19.1347 1108.22 18.918 1108.83 18.918C1109.44 18.918 1109.96 19.1347 1110.39 19.568C1110.82 20.0013 1111.04 20.5213 1111.04 21.128ZM1112.59 6.49L1117.37 4.8H1120.49V23H1116.91V8.596L1113.47 9.558L1112.59 6.49ZM1130.55 23.364C1128.28 23.364 1126.49 22.506 1125.19 20.79C1123.91 19.0393 1123.27 16.7427 1123.27 13.9C1123.27 11.0573 1123.91 8.76933 1125.19 7.036C1126.49 5.30267 1128.28 4.436 1130.55 4.436C1132.85 4.436 1134.64 5.30267 1135.91 7.036C1137.19 8.76933 1137.83 11.0573 1137.83 13.9C1137.83 16.7427 1137.19 19.0393 1135.91 20.79C1134.64 22.506 1132.85 23.364 1130.55 23.364ZM1134.27 13.9C1134.27 11.9587 1133.95 10.4767 1133.31 9.454C1132.68 8.43133 1131.76 7.92 1130.55 7.92C1129.34 7.92 1128.42 8.43133 1127.79 9.454C1127.17 10.4767 1126.86 11.9587 1126.86 13.9C1126.86 15.8413 1127.17 17.3233 1127.79 18.346C1128.42 19.3513 1129.34 19.854 1130.55 19.854C1131.76 19.854 1132.68 19.3427 1133.31 18.32C1133.95 17.2973 1134.27 15.824 1134.27 13.9Z" fill="#1B1B1B"/>
<path d="M1006.29 51.184C1008.21 51.184 1009.77 51.814 1010.97 53.074C1012.2 54.322 1012.81 55.864 1012.81 57.7C1012.81 59.536 1012.2 61.084 1010.97 62.344C1009.76 63.592 1008.2 64.216 1006.29 64.216C1005.14 64.216 1004.07 63.934 1003.09 63.37C1002.11 62.806 1001.36 62.05 1000.84 61.102L1001.96 60.472C1002.35 61.24 1002.94 61.852 1003.72 62.308C1004.5 62.764 1005.36 62.992 1006.29 62.992C1007.73 62.992 1008.93 62.548 1009.89 61.66C1010.84 60.784 1011.38 59.662 1011.51 58.294H1004.62V57.106H1011.51C1011.38 55.738 1010.84 54.616 1009.89 53.74C1008.93 52.852 1007.73 52.408 1006.29 52.408C1005.36 52.408 1004.5 52.636 1003.72 53.092C1002.94 53.548 1002.35 54.16 1001.96 54.928L1000.84 54.28C1001.38 53.332 1002.14 52.582 1003.11 52.03C1004.08 51.466 1005.14 51.184 1006.29 51.184ZM1017.24 59.32L1022.07 64H1020.48L1015.98 59.662V64H1014.8V55H1015.98V58.978L1020.27 55H1021.89L1017.24 59.32ZM1029.41 59.374C1030.4 59.734 1030.89 60.436 1030.89 61.48C1030.89 62.224 1030.64 62.83 1030.13 63.298C1029.64 63.766 1028.95 64 1028.06 64H1023.69V55H1027.7C1028.57 55 1029.24 55.222 1029.72 55.666C1030.21 56.11 1030.46 56.692 1030.46 57.412C1030.46 58.312 1030.11 58.966 1029.41 59.374ZM1027.7 56.152H1024.88V58.888H1027.7C1028.75 58.888 1029.27 58.42 1029.27 57.484C1029.27 57.064 1029.13 56.74 1028.86 56.512C1028.59 56.272 1028.21 56.152 1027.7 56.152ZM1024.88 62.848H1028.06C1028.59 62.848 1028.99 62.722 1029.27 62.47C1029.56 62.218 1029.7 61.864 1029.7 61.408C1029.7 60.976 1029.56 60.64 1029.27 60.4C1028.99 60.16 1028.59 60.04 1028.06 60.04H1024.88V62.848ZM1040.43 56.764V55H1041.62V64H1040.43V62.236C1039.6 63.556 1038.39 64.216 1036.79 64.216C1035.51 64.216 1034.41 63.76 1033.5 62.848C1032.6 61.936 1032.15 60.82 1032.15 59.5C1032.15 58.18 1032.6 57.064 1033.5 56.152C1034.41 55.24 1035.51 54.784 1036.79 54.784C1038.39 54.784 1039.6 55.444 1040.43 56.764ZM1034.36 62.038C1035.05 62.722 1035.89 63.064 1036.88 63.064C1037.88 63.064 1038.72 62.722 1039.4 62.038C1040.09 61.33 1040.43 60.484 1040.43 59.5C1040.43 58.504 1040.09 57.664 1039.4 56.98C1038.72 56.284 1037.88 55.936 1036.88 55.936C1035.89 55.936 1035.05 56.284 1034.36 56.98C1033.68 57.664 1033.34 58.504 1033.34 59.5C1033.34 60.484 1033.68 61.33 1034.36 62.038ZM1043.05 55H1050.61V56.152H1047.43V64H1046.24V56.152H1043.05V55ZM1059.25 62.866C1058.33 63.766 1057.21 64.216 1055.9 64.216C1054.57 64.216 1053.45 63.766 1052.54 62.866C1051.63 61.954 1051.17 60.832 1051.17 59.5C1051.17 58.168 1051.63 57.052 1052.54 56.152C1053.45 55.24 1054.57 54.784 1055.9 54.784C1057.22 54.784 1058.34 55.24 1059.25 56.152C1060.18 57.052 1060.64 58.168 1060.64 59.5C1060.64 60.82 1060.18 61.942 1059.25 62.866ZM1053.38 62.038C1054.07 62.722 1054.91 63.064 1055.9 63.064C1056.9 63.064 1057.74 62.722 1058.42 62.038C1059.11 61.33 1059.45 60.484 1059.45 59.5C1059.45 58.504 1059.11 57.664 1058.42 56.98C1057.74 56.284 1056.9 55.936 1055.9 55.936C1054.91 55.936 1054.07 56.284 1053.38 56.98C1052.7 57.664 1052.36 58.504 1052.36 59.5C1052.36 60.484 1052.7 61.33 1053.38 62.038ZM1067.45 54.784C1068.73 54.784 1069.83 55.24 1070.73 56.152C1071.64 57.064 1072.09 58.18 1072.09 59.5C1072.09 60.82 1071.64 61.936 1070.73 62.848C1069.83 63.76 1068.73 64.216 1067.45 64.216C1065.85 64.216 1064.64 63.556 1063.81 62.236V67.6H1062.63V55H1063.81V56.764C1064.64 55.444 1065.85 54.784 1067.45 54.784ZM1064.84 62.038C1065.52 62.722 1066.36 63.064 1067.36 63.064C1068.36 63.064 1069.2 62.722 1069.88 62.038C1070.56 61.33 1070.91 60.484 1070.91 59.5C1070.91 58.504 1070.56 57.664 1069.88 56.98C1069.2 56.284 1068.36 55.936 1067.36 55.936C1066.36 55.936 1065.52 56.284 1064.84 56.98C1064.16 57.664 1063.81 58.504 1063.81 59.5C1063.81 60.484 1064.16 61.33 1064.84 62.038ZM1085.23 59.014H1078.75V57.862H1085.23V59.014ZM1099.96 62.866C1099.04 63.766 1097.92 64.216 1096.61 64.216C1095.28 64.216 1094.16 63.766 1093.25 62.866C1092.34 61.954 1091.88 60.832 1091.88 59.5C1091.88 58.168 1092.34 57.052 1093.25 56.152C1094.16 55.24 1095.28 54.784 1096.61 54.784C1097.93 54.784 1099.05 55.24 1099.96 56.152C1100.89 57.052 1101.35 58.168 1101.35 59.5C1101.35 60.82 1100.89 61.942 1099.96 62.866ZM1094.09 62.038C1094.78 62.722 1095.62 63.064 1096.61 63.064C1097.61 63.064 1098.45 62.722 1099.13 62.038C1099.82 61.33 1100.16 60.484 1100.16 59.5C1100.16 58.504 1099.82 57.664 1099.13 56.98C1098.45 56.284 1097.61 55.936 1096.61 55.936C1095.62 55.936 1094.78 56.284 1094.09 56.98C1093.41 57.664 1093.07 58.504 1093.07 59.5C1093.07 60.484 1093.41 61.33 1094.09 62.038ZM1101.9 55H1109.46V56.152H1106.28V64H1105.09V56.152H1101.9V55ZM1114.56 64.216C1113.27 64.216 1112.19 63.79 1111.32 62.938C1110.45 62.074 1110.02 60.958 1110.02 59.59C1110.02 58.054 1110.25 56.878 1110.7 56.062C1111.16 55.234 1112.08 54.484 1113.48 53.812C1113.92 53.608 1114.27 53.452 1114.52 53.344C1114.94 53.176 1115.27 53.032 1115.51 52.912C1116.55 52.432 1117.08 51.838 1117.09 51.13L1118.03 51.67C1117.97 51.97 1117.87 52.24 1117.74 52.48C1117.59 52.744 1117.43 52.954 1117.27 53.11C1117.13 53.266 1116.9 53.434 1116.59 53.614C1116.39 53.734 1116.14 53.866 1115.85 54.01L1114.95 54.388L1114.11 54.748C1113.28 55.108 1112.66 55.486 1112.25 55.882C1111.86 56.266 1111.57 56.77 1111.41 57.394C1111.79 56.878 1112.29 56.488 1112.92 56.224C1113.54 55.948 1114.17 55.81 1114.81 55.81C1116.01 55.81 1117 56.206 1117.78 56.998C1118.57 57.778 1118.97 58.78 1118.97 60.004C1118.97 61.216 1118.55 62.224 1117.71 63.028C1116.88 63.82 1115.83 64.216 1114.56 64.216ZM1112.22 62.146C1112.84 62.734 1113.62 63.028 1114.56 63.028C1115.49 63.028 1116.26 62.746 1116.86 62.182C1117.47 61.606 1117.78 60.88 1117.78 60.004C1117.78 59.116 1117.49 58.39 1116.91 57.826C1116.35 57.25 1115.59 56.962 1114.65 56.962C1113.79 56.962 1113.02 57.232 1112.32 57.772C1111.63 58.288 1111.28 58.996 1111.28 59.896C1111.28 60.808 1111.59 61.558 1112.22 62.146ZM1128.32 62.866C1127.39 63.766 1126.28 64.216 1124.97 64.216C1123.64 64.216 1122.51 63.766 1121.6 62.866C1120.69 61.954 1120.23 60.832 1120.23 59.5C1120.23 58.168 1120.69 57.052 1121.6 56.152C1122.51 55.24 1123.64 54.784 1124.97 54.784C1126.29 54.784 1127.4 55.24 1128.32 56.152C1129.24 57.052 1129.7 58.168 1129.7 59.5C1129.7 60.82 1129.24 61.942 1128.32 62.866ZM1122.45 62.038C1123.13 62.722 1123.97 63.064 1124.97 63.064C1125.96 63.064 1126.8 62.722 1127.49 62.038C1128.17 61.33 1128.51 60.484 1128.51 59.5C1128.51 58.504 1128.17 57.664 1127.49 56.98C1126.8 56.284 1125.96 55.936 1124.97 55.936C1123.97 55.936 1123.13 56.284 1122.45 56.98C1121.76 57.664 1121.42 58.504 1121.42 59.5C1121.42 60.484 1121.76 61.33 1122.45 62.038ZM1136.51 54.784C1137.8 54.784 1138.89 55.24 1139.79 56.152C1140.7 57.064 1141.16 58.18 1141.16 59.5C1141.16 60.82 1140.7 61.936 1139.79 62.848C1138.89 63.76 1137.8 64.216 1136.51 64.216C1134.92 64.216 1133.71 63.556 1132.88 62.236V67.6H1131.69V55H1132.88V56.764C1133.71 55.444 1134.92 54.784 1136.51 54.784ZM1133.9 62.038C1134.59 62.722 1135.43 63.064 1136.42 63.064C1137.42 63.064 1138.26 62.722 1138.94 62.038C1139.63 61.33 1139.97 60.484 1139.97 59.5C1139.97 58.504 1139.63 57.664 1138.94 56.98C1138.26 56.284 1137.42 55.936 1136.42 55.936C1135.43 55.936 1134.59 56.284 1133.9 56.98C1133.22 57.664 1132.88 58.504 1132.88 59.5C1132.88 60.484 1133.22 61.33 1133.9 62.038ZM1147.63 55H1155.19V64H1154.01V56.152H1148.82V64H1147.63V55ZM1162.53 54.784C1163.81 54.784 1164.91 55.24 1165.81 56.152C1166.72 57.064 1167.17 58.18 1167.17 59.5C1167.17 60.82 1166.72 61.936 1165.81 62.848C1164.91 63.76 1163.81 64.216 1162.53 64.216C1160.93 64.216 1159.72 63.556 1158.89 62.236V67.6H1157.71V55H1158.89V56.764C1159.72 55.444 1160.93 54.784 1162.53 54.784ZM1159.92 62.038C1160.6 62.722 1161.44 63.064 1162.44 63.064C1163.44 63.064 1164.28 62.722 1164.96 62.038C1165.64 61.33 1165.99 60.484 1165.99 59.5C1165.99 58.504 1165.64 57.664 1164.96 56.98C1164.28 56.284 1163.44 55.936 1162.44 55.936C1161.44 55.936 1160.6 56.284 1159.92 56.98C1159.24 57.664 1158.89 58.504 1158.89 59.5C1158.89 60.484 1159.24 61.33 1159.92 62.038ZM1176.69 62.866C1175.77 63.766 1174.65 64.216 1173.34 64.216C1172.01 64.216 1170.89 63.766 1169.98 62.866C1169.06 61.954 1168.61 60.832 1168.61 59.5C1168.61 58.168 1169.06 57.052 1169.98 56.152C1170.89 55.24 1172.01 54.784 1173.34 54.784C1174.66 54.784 1175.78 55.24 1176.69 56.152C1177.61 57.052 1178.08 58.168 1178.08 59.5C1178.08 60.82 1177.61 61.942 1176.69 62.866ZM1170.82 62.038C1171.51 62.722 1172.35 63.064 1173.34 63.064C1174.34 63.064 1175.18 62.722 1175.86 62.038C1176.55 61.33 1176.89 60.484 1176.89 59.5C1176.89 58.504 1176.55 57.664 1175.86 56.98C1175.18 56.284 1174.34 55.936 1173.34 55.936C1172.35 55.936 1171.51 56.284 1170.82 56.98C1170.14 57.664 1169.8 58.504 1169.8 59.5C1169.8 60.484 1170.14 61.33 1170.82 62.038ZM1184.22 54.784C1185.57 54.784 1186.64 55.258 1187.44 56.206C1188.27 57.142 1188.69 58.252 1188.69 59.536C1188.69 59.596 1188.67 59.782 1188.65 60.094H1180.75C1180.87 60.994 1181.25 61.714 1181.9 62.254C1182.55 62.794 1183.36 63.064 1184.33 63.064C1185.7 63.064 1186.66 62.554 1187.23 61.534L1188.27 62.146C1187.88 62.794 1187.33 63.304 1186.63 63.676C1185.95 64.036 1185.18 64.216 1184.31 64.216C1182.9 64.216 1181.74 63.772 1180.86 62.884C1179.97 61.996 1179.52 60.868 1179.52 59.5C1179.52 58.144 1179.96 57.022 1180.84 56.134C1181.71 55.234 1182.84 54.784 1184.22 54.784ZM1184.22 55.936C1183.29 55.936 1182.5 56.212 1181.86 56.764C1181.24 57.316 1180.87 58.042 1180.75 58.942H1187.46C1187.33 57.982 1186.96 57.244 1186.36 56.728C1185.74 56.2 1185.03 55.936 1184.22 55.936ZM1193.02 59.32L1197.85 64H1196.26L1191.76 59.662V64H1190.58V55H1191.76V58.978L1196.05 55H1197.67L1193.02 59.32ZM1198.39 55H1205.95V56.152H1202.76V64H1201.58V56.152H1198.39V55ZM1214.59 62.866C1213.67 63.766 1212.55 64.216 1211.24 64.216C1209.91 64.216 1208.79 63.766 1207.88 62.866C1206.96 61.954 1206.51 60.832 1206.51 59.5C1206.51 58.168 1206.96 57.052 1207.88 56.152C1208.79 55.24 1209.91 54.784 1211.24 54.784C1212.56 54.784 1213.68 55.24 1214.59 56.152C1215.51 57.052 1215.98 58.168 1215.98 59.5C1215.98 60.82 1215.51 61.942 1214.59 62.866ZM1208.72 62.038C1209.41 62.722 1210.25 63.064 1211.24 63.064C1212.24 63.064 1213.08 62.722 1213.76 62.038C1214.45 61.33 1214.79 60.484 1214.79 59.5C1214.79 58.504 1214.45 57.664 1213.76 56.98C1213.08 56.284 1212.24 55.936 1211.24 55.936C1210.25 55.936 1209.41 56.284 1208.72 56.98C1208.04 57.664 1207.7 58.504 1207.7 59.5C1207.7 60.484 1208.04 61.33 1208.72 62.038ZM1223.69 59.374C1224.67 59.734 1225.16 60.436 1225.16 61.48C1225.16 62.224 1224.91 62.83 1224.41 63.298C1223.92 63.766 1223.23 64 1222.34 64H1217.96V55H1221.98C1222.84 55 1223.51 55.222 1223.99 55.666C1224.49 56.11 1224.73 56.692 1224.73 57.412C1224.73 58.312 1224.38 58.966 1223.69 59.374ZM1221.98 56.152H1219.15V58.888H1221.98C1223.02 58.888 1223.54 58.42 1223.54 57.484C1223.54 57.064 1223.41 56.74 1223.13 56.512C1222.87 56.272 1222.48 56.152 1221.98 56.152ZM1219.15 62.848H1222.34C1222.87 62.848 1223.27 62.722 1223.54 62.47C1223.83 62.218 1223.98 61.864 1223.98 61.408C1223.98 60.976 1223.83 60.64 1223.54 60.4C1223.27 60.16 1222.87 60.04 1222.34 60.04H1219.15V62.848ZM1056.48 80.374C1057.46 80.734 1057.95 81.436 1057.95 82.48C1057.95 83.224 1057.7 83.83 1057.2 84.298C1056.7 84.766 1056.01 85 1055.13 85H1050.75V76H1054.77C1055.63 76 1056.3 76.222 1056.78 76.666C1057.27 77.11 1057.52 77.692 1057.52 78.412C1057.52 79.312 1057.17 79.966 1056.48 80.374ZM1054.77 77.152H1051.94V79.888H1054.77C1055.81 79.888 1056.33 79.42 1056.33 78.484C1056.33 78.064 1056.19 77.74 1055.92 77.512C1055.65 77.272 1055.27 77.152 1054.77 77.152ZM1051.94 83.848H1055.13C1055.65 83.848 1056.06 83.722 1056.33 83.47C1056.62 83.218 1056.76 82.864 1056.76 82.408C1056.76 81.976 1056.62 81.64 1056.33 81.4C1056.06 81.16 1055.65 81.04 1055.13 81.04H1051.94V83.848ZM1067.29 83.866C1066.37 84.766 1065.25 85.216 1063.95 85.216C1062.61 85.216 1061.49 84.766 1060.58 83.866C1059.67 82.954 1059.21 81.832 1059.21 80.5C1059.21 79.168 1059.67 78.052 1060.58 77.152C1061.49 76.24 1062.61 75.784 1063.95 75.784C1065.27 75.784 1066.38 76.24 1067.29 77.152C1068.22 78.052 1068.68 79.168 1068.68 80.5C1068.68 81.82 1068.22 82.942 1067.29 83.866ZM1061.43 83.038C1062.11 83.722 1062.95 84.064 1063.95 84.064C1064.94 84.064 1065.78 83.722 1066.47 83.038C1067.15 82.33 1067.49 81.484 1067.49 80.5C1067.49 79.504 1067.15 78.664 1066.47 77.98C1065.78 77.284 1064.94 76.936 1063.95 76.936C1062.95 76.936 1062.11 77.284 1061.43 77.98C1060.74 78.664 1060.4 79.504 1060.4 80.5C1060.4 81.484 1060.74 82.33 1061.43 83.038ZM1080.89 80.374C1081.88 80.734 1082.37 81.436 1082.37 82.48C1082.37 83.224 1082.12 83.83 1081.61 84.298C1081.12 84.766 1080.43 85 1079.54 85H1075.17V76H1079.18C1080.05 76 1080.72 76.222 1081.2 76.666C1081.69 77.11 1081.94 77.692 1081.94 78.412C1081.94 79.312 1081.59 79.966 1080.89 80.374ZM1079.18 77.152H1076.36V79.888H1079.18C1080.23 79.888 1080.75 79.42 1080.75 78.484C1080.75 78.064 1080.61 77.74 1080.33 77.512C1080.07 77.272 1079.69 77.152 1079.18 77.152ZM1076.36 83.848H1079.54C1080.07 83.848 1080.47 83.722 1080.75 83.47C1081.04 83.218 1081.18 82.864 1081.18 82.408C1081.18 81.976 1081.04 81.64 1080.75 81.4C1080.47 81.16 1080.07 81.04 1079.54 81.04H1076.36V83.848ZM1082.74 76H1090.3V77.152H1087.11V85H1085.92V77.152H1082.74V76ZM1098.93 83.866C1098.01 84.766 1096.89 85.216 1095.59 85.216C1094.25 85.216 1093.13 84.766 1092.22 83.866C1091.31 82.954 1090.85 81.832 1090.85 80.5C1090.85 79.168 1091.31 78.052 1092.22 77.152C1093.13 76.24 1094.25 75.784 1095.59 75.784C1096.91 75.784 1098.02 76.24 1098.93 77.152C1099.86 78.052 1100.32 79.168 1100.32 80.5C1100.32 81.82 1099.86 82.942 1098.93 83.866ZM1093.07 83.038C1093.75 83.722 1094.59 84.064 1095.59 84.064C1096.58 84.064 1097.42 83.722 1098.11 83.038C1098.79 82.33 1099.13 81.484 1099.13 80.5C1099.13 79.504 1098.79 78.664 1098.11 77.98C1097.42 77.284 1096.58 76.936 1095.59 76.936C1094.59 76.936 1093.75 77.284 1093.07 77.98C1092.38 78.664 1092.04 79.504 1092.04 80.5C1092.04 81.484 1092.38 82.33 1093.07 83.038ZM1107.13 75.784C1108.42 75.784 1109.51 76.24 1110.41 77.152C1111.32 78.064 1111.78 79.18 1111.78 80.5C1111.78 81.82 1111.32 82.936 1110.41 83.848C1109.51 84.76 1108.42 85.216 1107.13 85.216C1105.54 85.216 1104.32 84.556 1103.5 83.236V88.6H1102.31V76H1103.5V77.764C1104.32 76.444 1105.54 75.784 1107.13 75.784ZM1104.52 83.038C1105.21 83.722 1106.05 84.064 1107.04 84.064C1108.04 84.064 1108.88 83.722 1109.56 83.038C1110.25 82.33 1110.59 81.484 1110.59 80.5C1110.59 79.504 1110.25 78.664 1109.56 77.98C1108.88 77.284 1108.04 76.936 1107.04 76.936C1106.05 76.936 1105.21 77.284 1104.52 77.98C1103.84 78.664 1103.5 79.504 1103.5 80.5C1103.5 81.484 1103.84 82.33 1104.52 83.038ZM1121.29 83.866C1120.37 84.766 1119.25 85.216 1117.95 85.216C1116.61 85.216 1115.49 84.766 1114.58 83.866C1113.67 82.954 1113.21 81.832 1113.21 80.5C1113.21 79.168 1113.67 78.052 1114.58 77.152C1115.49 76.24 1116.61 75.784 1117.95 75.784C1119.27 75.784 1120.38 76.24 1121.29 77.152C1122.22 78.052 1122.68 79.168 1122.68 80.5C1122.68 81.82 1122.22 82.942 1121.29 83.866ZM1115.43 83.038C1116.11 83.722 1116.95 84.064 1117.95 84.064C1118.94 84.064 1119.78 83.722 1120.47 83.038C1121.15 82.33 1121.49 81.484 1121.49 80.5C1121.49 79.504 1121.15 78.664 1120.47 77.98C1119.78 77.284 1118.94 76.936 1117.95 76.936C1116.95 76.936 1116.11 77.284 1115.43 77.98C1114.74 78.664 1114.4 79.504 1114.4 80.5C1114.4 81.484 1114.74 82.33 1115.43 83.038ZM1130.79 74.56H1126.11V73.516H1130.79V74.56ZM1125.86 82.93L1131.22 76H1132.23V85H1131.04V78.07L1125.68 85H1124.67V76H1125.86V82.93ZM1142.44 75.784C1143.8 75.784 1144.89 76.234 1145.72 77.134C1146.55 78.022 1146.96 79.144 1146.96 80.5C1146.96 81.868 1146.54 82.996 1145.7 83.884C1144.87 84.772 1143.78 85.216 1142.41 85.216C1141.45 85.216 1140.61 85.006 1139.89 84.586C1139.18 84.154 1138.66 83.572 1138.34 82.84L1139.37 82.246C1139.58 82.81 1139.95 83.254 1140.48 83.578C1141.01 83.902 1141.65 84.064 1142.41 84.064C1143.3 84.064 1144.04 83.788 1144.64 83.236C1145.25 82.684 1145.62 81.964 1145.74 81.076H1141.26V79.924H1145.74C1145.63 79.036 1145.28 78.316 1144.68 77.764C1144.08 77.212 1143.33 76.936 1142.44 76.936C1141.76 76.936 1141.15 77.098 1140.63 77.422C1140.1 77.746 1139.71 78.184 1139.46 78.736L1138.41 78.142C1138.77 77.41 1139.31 76.834 1140.01 76.414C1140.73 75.994 1141.54 75.784 1142.44 75.784ZM1147.51 76H1155.07V77.152H1151.89V85H1150.7V77.152H1147.51V76ZM1163.91 77.764V76H1165.1V85H1163.91V83.236C1163.08 84.556 1161.87 85.216 1160.27 85.216C1158.99 85.216 1157.89 84.76 1156.98 83.848C1156.08 82.936 1155.63 81.82 1155.63 80.5C1155.63 79.18 1156.08 78.064 1156.98 77.152C1157.89 76.24 1158.99 75.784 1160.27 75.784C1161.87 75.784 1163.08 76.444 1163.91 77.764ZM1157.84 83.038C1158.53 83.722 1159.37 84.064 1160.36 84.064C1161.36 84.064 1162.2 83.722 1162.88 83.038C1163.57 82.33 1163.91 81.484 1163.91 80.5C1163.91 79.504 1163.57 78.664 1162.88 77.98C1162.2 77.284 1161.36 76.936 1160.36 76.936C1159.37 76.936 1158.53 77.284 1157.84 77.98C1157.16 78.664 1156.82 79.504 1156.82 80.5C1156.82 81.484 1157.16 82.33 1157.84 83.038ZM1167.61 76H1175.17V85H1173.98V77.152H1168.8V85H1167.61V76Z" fill="#1B1B1B"/>
<path fill-rule="evenodd" clip-rule="evenodd" d="M1458.5 107.222V187.222H1450.5V107.222H1458.5Z" fill="#1B1B1B" stroke="#1B1B1B"/>
<path fill-rule="evenodd" clip-rule="evenodd" d="M1518.5 148.595C1489 137.095 1478 121.595 1458.5 108.595V155.595C1470 147.095 1492.5 161.095 1518.5 148.595Z" fill="#FD493D" stroke="#1B1B1B" stroke-linejoin="round"/>
<path fill-rule="evenodd" clip-rule="evenodd" d="M438 107V187H530.021L512.004 168.983L518.987 162L543.987 187H942.517L924.5 168.983L931.483 162L956.483 187H1108V107H1118V187H1282.52L1264.5 168.983L1271.48 162L1296.48 187H1458V197V277H1448V197H1296.52L1271.48 222.051L1264.5 215.068L1282.56 197H956.52L931.483 222.051L924.5 215.068L942.556 197H644V277H634V197H544.024L518.987 222.051L512.004 215.068L530.059 197H237.254L212.217 222.051L205.234 215.068L223.29 197H1V187H223.252L205.234 168.983L212.217 162L237.217 187H428V107H438Z" fill="#FCAF17"/>
<path d="M438 187H437V188H438V187ZM438 107H439V106H438V107ZM530.021 187V188H532.436L530.728 186.293L530.021 187ZM512.004 168.983L511.297 168.276L510.59 168.983L511.297 169.69L512.004 168.983ZM518.987 162L519.694 161.293L518.986 160.586L518.279 161.293L518.987 162ZM543.987 187L543.28 187.707L543.572 188H543.987V187ZM942.517 187V188H944.932L943.224 186.293L942.517 187ZM924.5 168.983L923.793 168.276L923.086 168.983L923.793 169.69L924.5 168.983ZM931.483 162L932.19 161.293L931.483 160.586L930.775 161.293L931.483 162ZM956.483 187L955.776 187.707L956.069 188H956.483V187ZM1108 187V188H1109V187H1108ZM1108 107V106H1107V107H1108ZM1118 107H1119V106H1118V107ZM1118 187H1117V188H1118V187ZM1282.52 187V188H1284.93L1283.22 186.293L1282.52 187ZM1264.5 168.983L1263.79 168.276L1263.09 168.983L1263.79 169.69L1264.5 168.983ZM1271.48 162L1272.19 161.293L1271.48 160.586L1270.78 161.293L1271.48 162ZM1296.48 187L1295.78 187.707L1296.07 188H1296.48V187ZM1458 187H1459V186H1458V187ZM1458 277V278H1459V277H1458ZM1448 277H1447V278H1448V277ZM1448 197H1449V196H1448V197ZM1296.52 197V196H1296.11L1295.81 196.293L1296.52 197ZM1271.48 222.051L1270.78 222.758L1271.48 223.466L1272.19 222.758L1271.48 222.051ZM1264.5 215.068L1263.79 214.361L1263.09 215.068L1263.79 215.775L1264.5 215.068ZM1282.56 197L1283.26 197.707L1284.97 196H1282.56V197ZM956.52 197V196H956.106L955.813 196.293L956.52 197ZM931.483 222.051L930.775 222.758L931.483 223.466L932.19 222.758L931.483 222.051ZM924.5 215.068L923.793 214.361L923.086 215.068L923.793 215.775L924.5 215.068ZM942.556 197L943.263 197.707L944.969 196H942.556V197ZM644 197V196H643V197H644ZM644 277V278H645V277H644ZM634 277H633V278H634V277ZM634 197H635V196H634V197ZM544.024 197V196H543.61L543.317 196.293L544.024 197ZM518.987 222.051L518.279 222.758L518.987 223.466L519.694 222.758L518.987 222.051ZM512.004 215.068L511.297 214.361L510.59 215.068L511.297 215.775L512.004 215.068ZM530.059 197L530.767 197.707L532.472 196H530.059V197ZM237.254 197V196H236.84L236.547 196.293L237.254 197ZM212.217 222.051L211.51 222.758L212.217 223.466L212.924 222.758L212.217 222.051ZM205.234 215.068L204.527 214.361L203.82 215.068L204.527 215.775L205.234 215.068ZM223.29 197L223.997 197.707L225.703 196H223.29V197ZM1 197H0V198H1V197ZM1 187V186H0V187H1ZM223.252 187V188H225.666L223.959 186.293L223.252 187ZM205.234 168.983L204.527 168.276L203.82 168.983L204.527 169.69L205.234 168.983ZM212.217 162L212.924 161.293L212.217 160.586L211.51 161.293L212.217 162ZM237.217 187L236.51 187.707L236.803 188H237.217V187ZM428 187V188H429V187H428ZM428 107V106H427V107H428ZM439 187V107H437V187H439ZM530.021 186H438V188H530.021V186ZM511.297 169.69L529.314 187.707L530.728 186.293L512.711 168.276L511.297 169.69ZM518.279 161.293L511.297 168.276L512.711 169.69L519.694 162.707L518.279 161.293ZM544.694 186.293L519.694 161.293L518.279 162.707L543.28 187.707L544.694 186.293ZM942.517 186H543.987V188H942.517V186ZM923.793 169.69L941.81 187.707L943.224 186.293L925.207 168.276L923.793 169.69ZM930.775 161.293L923.793 168.276L925.207 169.69L932.19 162.707L930.775 161.293ZM957.19 186.293L932.19 161.293L930.775 162.707L955.776 187.707L957.19 186.293ZM1108 186H956.483V188H1108V186ZM1107 107V187H1109V107H1107ZM1118 106H1108V108H1118V106ZM1119 187V107H1117V187H1119ZM1282.52 186H1118V188H1282.52V186ZM1263.79 169.69L1281.81 187.707L1283.22 186.293L1265.21 168.276L1263.79 169.69ZM1270.78 161.293L1263.79 168.276L1265.21 169.69L1272.19 162.707L1270.78 161.293ZM1297.19 186.293L1272.19 161.293L1270.78 162.707L1295.78 187.707L1297.19 186.293ZM1458 186H1296.48V188H1458V186ZM1459 197V187H1457V197H1459ZM1459 277V197H1457V277H1459ZM1448 278H1458V276H1448V278ZM1447 197V277H1449V197H1447ZM1296.52 198H1448V196H1296.52V198ZM1272.19 222.758L1297.23 197.707L1295.81 196.293L1270.78 221.344L1272.19 222.758ZM1263.79 215.775L1270.78 222.758L1272.19 221.344L1265.21 214.361L1263.79 215.775ZM1281.85 196.293L1263.79 214.361L1265.21 215.775L1283.26 197.707L1281.85 196.293ZM956.52 198H1282.56V196H956.52V198ZM932.19 222.758L957.227 197.707L955.813 196.293L930.775 221.344L932.19 222.758ZM923.793 215.775L930.775 222.758L932.19 221.344L925.207 214.361L923.793 215.775ZM941.848 196.293L923.793 214.361L925.207 215.775L943.263 197.707L941.848 196.293ZM644 198H942.556V196H644V198ZM645 277V197H643V277H645ZM634 278H644V276H634V278ZM633 197V277H635V197H633ZM544.024 198H634V196H544.024V198ZM519.694 222.758L544.731 197.707L543.317 196.293L518.279 221.344L519.694 222.758ZM511.297 215.775L518.279 222.758L519.694 221.344L512.711 214.361L511.297 215.775ZM529.352 196.293L511.297 214.361L512.711 215.775L530.767 197.707L529.352 196.293ZM237.254 198H530.059V196H237.254V198ZM236.547 196.293L211.51 221.344L212.924 222.758L237.962 197.707L236.547 196.293ZM212.924 221.344L205.942 214.361L204.527 215.775L211.51 222.758L212.924 221.344ZM205.942 215.775L223.997 197.707L222.583 196.293L204.527 214.361L205.942 215.775ZM1 198H223.29V196H1V198ZM0 187V197H2V187H0ZM223.252 186H1V188H223.252V186ZM223.959 186.293L205.941 168.276L204.527 169.69L222.545 187.707L223.959 186.293ZM205.942 169.69L212.924 162.707L211.51 161.293L204.527 168.276L205.942 169.69ZM211.51 162.707L236.51 187.707L237.924 186.293L212.924 161.293L211.51 162.707ZM428 186H237.217V188H428V186ZM427 107V187H429V107H427ZM438 106H428V108H438V106Z" fill="#1B1B1B"/>
<path d="M945.077 292.996C943.957 294.116 942.592 294.676 940.981 294.676C939.37 294.676 938.005 294.116 936.885 292.996C935.765 291.865 935.205 290.5 935.205 288.9C935.205 287.3 935.765 285.94 936.885 284.82C938.005 283.689 939.37 283.124 940.981 283.124C942.592 283.124 943.957 283.689 945.077 284.82C946.197 285.94 946.757 287.3 946.757 288.9C946.757 290.5 946.197 291.865 945.077 292.996ZM937.477 292.42C938.437 293.38 939.605 293.86 940.981 293.86C942.368 293.86 943.53 293.38 944.469 292.42C945.429 291.439 945.909 290.265 945.909 288.9C945.909 287.524 945.429 286.356 944.469 285.396C943.53 284.425 942.368 283.94 940.981 283.94C939.605 283.94 938.437 284.425 937.477 285.396C936.528 286.367 936.053 287.535 936.053 288.9C936.053 290.265 936.528 291.439 937.477 292.42ZM952.236 294.692C951.094 294.692 950.134 294.313 949.356 293.556C948.588 292.788 948.204 291.796 948.204 290.58C948.204 289.247 948.396 288.217 948.78 287.492C949.185 286.745 949.99 286.079 951.196 285.492L952.028 285.124C952.817 284.793 953.286 284.585 953.436 284.5C953.788 284.308 954.054 284.111 954.236 283.908C954.417 283.695 954.529 283.423 954.572 283.092L955.212 283.46C955.094 284.057 954.78 284.527 954.268 284.868C954.044 285.007 953.798 285.151 953.532 285.3C953.318 285.417 952.998 285.561 952.572 285.732L951.628 286.132C950.828 286.495 950.246 286.879 949.884 287.284C949.521 287.689 949.276 288.249 949.148 288.964C949.51 288.399 949.985 287.967 950.572 287.668C951.158 287.369 951.772 287.22 952.412 287.22C953.478 287.22 954.364 287.572 955.068 288.276C955.772 288.98 956.124 289.876 956.124 290.964C956.124 292.041 955.756 292.932 955.02 293.636C954.305 294.34 953.377 294.692 952.236 294.692ZM952.236 293.892C953.132 293.892 953.868 293.62 954.444 293.076C955.02 292.511 955.308 291.807 955.308 290.964C955.308 290.1 955.03 289.391 954.476 288.836C953.921 288.281 953.201 288.004 952.316 288.004C951.505 288.004 950.774 288.26 950.124 288.772C949.484 289.284 949.132 289.945 949.068 290.756C949.068 291.663 949.366 292.415 949.964 293.012C950.55 293.599 951.308 293.892 952.236 293.892ZM962.128 286.324C963.28 286.324 964.256 286.729 965.056 287.54C965.867 288.34 966.272 289.327 966.272 290.5C966.272 291.673 965.867 292.665 965.056 293.476C964.256 294.276 963.28 294.676 962.128 294.676C961.371 294.676 960.688 294.5 960.08 294.148C959.483 293.785 959.019 293.284 958.688 292.644V297.7H957.888V286.5H958.688V288.356C959.019 287.716 959.483 287.22 960.08 286.868C960.688 286.505 961.371 286.324 962.128 286.324ZM959.664 292.916C960.326 293.577 961.131 293.908 962.08 293.908C963.019 293.908 963.819 293.577 964.48 292.916C965.142 292.255 965.472 291.449 965.472 290.5C965.472 289.551 965.142 288.745 964.48 288.084C963.819 287.423 963.019 287.092 962.08 287.092C961.131 287.092 960.326 287.423 959.664 288.084C959.014 288.735 958.688 289.54 958.688 290.5C958.688 291.46 959.014 292.265 959.664 292.916ZM975.241 288.308V286.5H976.057V294.5H975.241V292.692C974.889 293.311 974.414 293.796 973.817 294.148C973.219 294.5 972.547 294.676 971.801 294.676C970.67 294.676 969.694 294.276 968.873 293.476C968.062 292.665 967.657 291.673 967.657 290.5C967.657 289.327 968.062 288.34 968.873 287.54C969.683 286.729 970.659 286.324 971.801 286.324C972.547 286.324 973.219 286.5 973.817 286.852C974.414 287.204 974.889 287.689 975.241 288.308ZM969.449 292.916C970.11 293.577 970.915 293.908 971.865 293.908C972.803 293.908 973.603 293.577 974.265 292.916C974.915 292.265 975.241 291.46 975.241 290.5C975.241 289.54 974.915 288.735 974.265 288.084C973.603 287.423 972.803 287.092 971.865 287.092C970.915 287.092 970.11 287.423 969.449 288.084C968.798 288.735 968.473 289.54 968.473 290.5C968.473 291.46 968.798 292.265 969.449 292.916ZM982.353 290.372C982.833 290.532 983.207 290.788 983.473 291.14C983.74 291.492 983.873 291.897 983.873 292.356C983.873 293.028 983.607 293.583 983.073 294.02C982.551 294.457 981.836 294.676 980.929 294.676C979.329 294.676 978.289 294.047 977.809 292.788L978.497 292.388C978.839 293.401 979.649 293.908 980.929 293.908C981.591 293.908 982.108 293.764 982.481 293.476C982.865 293.177 983.057 292.788 983.057 292.308C983.057 291.871 982.897 291.519 982.577 291.252C982.257 290.975 981.831 290.836 981.297 290.836H980.193V290.052H980.993C981.516 290.052 981.927 289.919 982.225 289.652C982.524 289.385 982.673 289.028 982.673 288.58C982.673 288.153 982.497 287.801 982.145 287.524C981.804 287.236 981.351 287.092 980.785 287.092C979.697 287.092 978.977 287.524 978.625 288.388L977.953 288.004C978.188 287.481 978.545 287.071 979.025 286.772C979.505 286.473 980.092 286.324 980.785 286.324C981.596 286.324 982.247 286.543 982.737 286.98C983.228 287.407 983.473 287.929 983.473 288.548C983.473 289.412 983.1 290.02 982.353 290.372ZM989.302 294.676C988.129 294.676 987.132 294.276 986.31 293.476C985.5 292.665 985.094 291.673 985.094 290.5C985.094 289.327 985.5 288.34 986.31 287.54C987.121 286.729 988.118 286.324 989.302 286.324C990.465 286.324 991.452 286.729 992.262 287.54C993.084 288.34 993.494 289.327 993.494 290.5C993.494 291.663 993.084 292.655 992.262 293.476C991.441 294.276 990.454 294.676 989.302 294.676ZM986.886 292.916C987.548 293.577 988.353 293.908 989.302 293.908C990.241 293.908 991.041 293.577 991.702 292.916C992.353 292.265 992.678 291.46 992.678 290.5C992.678 289.54 992.353 288.735 991.702 288.084C991.041 287.423 990.241 287.092 989.302 287.092C988.353 287.092 987.548 287.423 986.886 288.084C986.236 288.735 985.91 289.54 985.91 290.5C985.91 291.46 986.236 292.265 986.886 292.916ZM1000.35 290.372C1001.29 290.671 1001.76 291.311 1001.76 292.292C1001.76 292.953 1001.54 293.487 1001.1 293.892C1000.67 294.297 1000.07 294.5 999.292 294.5H995.42V286.5H998.988C999.734 286.5 1000.32 286.697 1000.73 287.092C1001.16 287.476 1001.37 287.977 1001.37 288.596C1001.37 289.449 1001.03 290.041 1000.35 290.372ZM998.988 287.284H996.22V290.052H998.988C999.5 290.052 999.889 289.929 1000.16 289.684C1000.42 289.439 1000.56 289.092 1000.56 288.644C1000.56 288.217 1000.42 287.887 1000.14 287.652C999.873 287.407 999.489 287.284 998.988 287.284ZM996.22 293.716H999.292C999.825 293.716 1000.24 293.588 1000.52 293.332C1000.81 293.076 1000.96 292.719 1000.96 292.26C1000.96 291.812 1000.81 291.465 1000.51 291.22C1000.22 290.964 999.814 290.836 999.292 290.836H996.22V293.716ZM1010.57 288.308V286.5H1011.38V294.5H1010.57V292.692C1010.22 293.311 1009.74 293.796 1009.14 294.148C1008.55 294.5 1007.88 294.676 1007.13 294.676C1006 294.676 1005.02 294.276 1004.2 293.476C1003.39 292.665 1002.98 291.673 1002.98 290.5C1002.98 289.327 1003.39 288.34 1004.2 287.54C1005.01 286.729 1005.99 286.324 1007.13 286.324C1007.88 286.324 1008.55 286.5 1009.14 286.852C1009.74 287.204 1010.22 287.689 1010.57 288.308ZM1004.78 292.916C1005.44 293.577 1006.24 293.908 1007.19 293.908C1008.13 293.908 1008.93 293.577 1009.59 292.916C1010.24 292.265 1010.57 291.46 1010.57 290.5C1010.57 289.54 1010.24 288.735 1009.59 288.084C1008.93 287.423 1008.13 287.092 1007.19 287.092C1006.24 287.092 1005.44 287.423 1004.78 288.084C1004.13 288.735 1003.8 289.54 1003.8 290.5C1003.8 291.46 1004.13 292.265 1004.78 292.916ZM1012.82 286.5H1019.44V287.284H1016.53V294.5H1015.73V287.284H1012.82V286.5ZM1024.18 286.324C1025.35 286.324 1026.3 286.74 1027.02 287.572C1027.76 288.404 1028.13 289.391 1028.13 290.532C1028.13 290.553 1028.12 290.617 1028.11 290.724C1028.11 290.831 1028.11 290.895 1028.11 290.916H1020.86C1020.96 291.812 1021.32 292.537 1021.94 293.092C1022.55 293.636 1023.33 293.908 1024.26 293.908C1024.89 293.908 1025.44 293.78 1025.92 293.524C1026.4 293.257 1026.77 292.9 1027.02 292.452L1027.73 292.868C1027.4 293.423 1026.92 293.865 1026.3 294.196C1025.7 294.516 1025.01 294.676 1024.24 294.676C1023 294.676 1021.99 294.287 1021.22 293.508C1020.43 292.719 1020.03 291.716 1020.03 290.5C1020.03 289.305 1020.42 288.313 1021.18 287.524C1021.97 286.724 1022.97 286.324 1024.18 286.324ZM1024.18 287.092C1023.28 287.092 1022.52 287.375 1021.9 287.94C1021.3 288.505 1020.95 289.236 1020.86 290.132H1027.3C1027.21 289.183 1026.87 288.441 1026.27 287.908C1025.67 287.364 1024.98 287.092 1024.18 287.092ZM1030.55 286.5H1036.18V294.5H1035.38V287.284H1031.35V291.14C1031.35 292.399 1031.12 293.289 1030.66 293.812C1030.2 294.335 1029.54 294.564 1028.66 294.5V293.748C1029.31 293.801 1029.79 293.625 1030.09 293.22C1030.39 292.815 1030.55 292.121 1030.55 291.14V286.5ZM1039.44 289.604H1041.81C1042.55 289.604 1043.18 289.833 1043.68 290.292C1044.19 290.751 1044.45 291.337 1044.45 292.052C1044.45 292.767 1044.19 293.353 1043.68 293.812C1043.18 294.271 1042.55 294.5 1041.81 294.5H1038.64V286.5H1039.44V289.604ZM1039.44 293.716H1041.81C1042.33 293.716 1042.76 293.561 1043.1 293.252C1043.45 292.932 1043.63 292.532 1043.63 292.052C1043.63 291.551 1043.45 291.151 1043.1 290.852C1042.76 290.543 1042.33 290.388 1041.81 290.388H1039.44V293.716ZM1051.99 290.116V286.5H1052.81V294.5H1051.99V290.884H1047V294.5H1046.2V286.5H1047V290.116H1051.99ZM1062.32 288.308V286.5H1063.13V294.5H1062.32V292.692C1061.97 293.311 1061.49 293.796 1060.89 294.148C1060.3 294.5 1059.63 294.676 1058.88 294.676C1057.75 294.676 1056.77 294.276 1055.95 293.476C1055.14 292.665 1054.73 291.673 1054.73 290.5C1054.73 289.327 1055.14 288.34 1055.95 287.54C1056.76 286.729 1057.74 286.324 1058.88 286.324C1059.63 286.324 1060.3 286.5 1060.89 286.852C1061.49 287.204 1061.97 287.689 1062.32 288.308ZM1056.53 292.916C1057.19 293.577 1057.99 293.908 1058.94 293.908C1059.88 293.908 1060.68 293.577 1061.34 292.916C1061.99 292.265 1062.32 291.46 1062.32 290.5C1062.32 289.54 1061.99 288.735 1061.34 288.084C1060.68 287.423 1059.88 287.092 1058.94 287.092C1057.99 287.092 1057.19 287.423 1056.53 288.084C1055.88 288.735 1055.55 289.54 1055.55 290.5C1055.55 291.46 1055.88 292.265 1056.53 292.916ZM1067.96 286.5H1071.13V294.5H1070.33V291.38H1068.6L1066.09 294.5H1065.05L1067.61 291.364C1066.95 291.289 1066.4 291.028 1065.96 290.58C1065.53 290.132 1065.32 289.588 1065.32 288.948C1065.32 288.233 1065.58 287.647 1066.09 287.188C1066.59 286.729 1067.21 286.5 1067.96 286.5ZM1067.96 290.612H1070.33V287.284H1067.96C1067.44 287.284 1067 287.444 1066.65 287.764C1066.31 288.073 1066.14 288.468 1066.14 288.948C1066.14 289.449 1066.31 289.855 1066.65 290.164C1067 290.463 1067.44 290.612 1067.96 290.612ZM1077.86 286.5H1084.47V294.5H1083.65V287.284H1078.66V294.5H1077.86V286.5ZM1091.18 286.324C1092.33 286.324 1093.3 286.729 1094.1 287.54C1094.91 288.34 1095.32 289.327 1095.32 290.5C1095.32 291.673 1094.91 292.665 1094.1 293.476C1093.3 294.276 1092.33 294.676 1091.18 294.676C1090.42 294.676 1089.74 294.5 1089.13 294.148C1088.53 293.785 1088.07 293.284 1087.74 292.644V297.7H1086.94V286.5H1087.74V288.356C1088.07 287.716 1088.53 287.22 1089.13 286.868C1089.74 286.505 1090.42 286.324 1091.18 286.324ZM1088.71 292.916C1089.37 293.577 1090.18 293.908 1091.13 293.908C1092.07 293.908 1092.87 293.577 1093.53 292.916C1094.19 292.255 1094.52 291.449 1094.52 290.5C1094.52 289.551 1094.19 288.745 1093.53 288.084C1092.87 287.423 1092.07 287.092 1091.13 287.092C1090.18 287.092 1089.37 287.423 1088.71 288.084C1088.06 288.735 1087.74 289.54 1087.74 290.5C1087.74 291.46 1088.06 292.265 1088.71 292.916ZM1100.91 294.676C1099.74 294.676 1098.74 294.276 1097.92 293.476C1097.11 292.665 1096.7 291.673 1096.7 290.5C1096.7 289.327 1097.11 288.34 1097.92 287.54C1098.73 286.729 1099.73 286.324 1100.91 286.324C1102.07 286.324 1103.06 286.729 1103.87 287.54C1104.69 288.34 1105.1 289.327 1105.1 290.5C1105.1 291.663 1104.69 292.655 1103.87 293.476C1103.05 294.276 1102.06 294.676 1100.91 294.676ZM1098.5 292.916C1099.16 293.577 1099.96 293.908 1100.91 293.908C1101.85 293.908 1102.65 293.577 1103.31 292.916C1103.96 292.265 1104.29 291.46 1104.29 290.5C1104.29 289.54 1103.96 288.735 1103.31 288.084C1102.65 287.423 1101.85 287.092 1100.91 287.092C1099.96 287.092 1099.16 287.423 1098.5 288.084C1097.84 288.735 1097.52 289.54 1097.52 290.5C1097.52 291.46 1097.84 292.265 1098.5 292.916ZM1107.03 286.5H1112.04V287.284H1107.83V294.5H1107.03V286.5ZM1117.71 286.324C1118.86 286.324 1119.83 286.729 1120.63 287.54C1121.45 288.34 1121.85 289.327 1121.85 290.5C1121.85 291.673 1121.45 292.665 1120.63 293.476C1119.83 294.276 1118.86 294.676 1117.71 294.676C1116.95 294.676 1116.27 294.5 1115.66 294.148C1115.06 293.785 1114.6 293.284 1114.27 292.644V297.7H1113.47V286.5H1114.27V288.356C1114.6 287.716 1115.06 287.22 1115.66 286.868C1116.27 286.505 1116.95 286.324 1117.71 286.324ZM1115.24 292.916C1115.9 293.577 1116.71 293.908 1117.66 293.908C1118.6 293.908 1119.4 293.577 1120.06 292.916C1120.72 292.255 1121.05 291.449 1121.05 290.5C1121.05 289.551 1120.72 288.745 1120.06 288.084C1119.4 287.423 1118.6 287.092 1117.66 287.092C1116.71 287.092 1115.9 287.423 1115.24 288.084C1114.59 288.735 1114.27 289.54 1114.27 290.5C1114.27 291.46 1114.59 292.265 1115.24 292.916ZM1130.82 288.308V286.5H1131.63V294.5H1130.82V292.692C1130.47 293.311 1129.99 293.796 1129.39 294.148C1128.8 294.5 1128.13 294.676 1127.38 294.676C1126.25 294.676 1125.27 294.276 1124.45 293.476C1123.64 292.665 1123.23 291.673 1123.23 290.5C1123.23 289.327 1123.64 288.34 1124.45 287.54C1125.26 286.729 1126.24 286.324 1127.38 286.324C1128.13 286.324 1128.8 286.5 1129.39 286.852C1129.99 287.204 1130.47 287.689 1130.82 288.308ZM1125.03 292.916C1125.69 293.577 1126.49 293.908 1127.44 293.908C1128.38 293.908 1129.18 293.577 1129.84 292.916C1130.49 292.265 1130.82 291.46 1130.82 290.5C1130.82 289.54 1130.49 288.735 1129.84 288.084C1129.18 287.423 1128.38 287.092 1127.44 287.092C1126.49 287.092 1125.69 287.423 1125.03 288.084C1124.38 288.735 1124.05 289.54 1124.05 290.5C1124.05 291.46 1124.38 292.265 1125.03 292.916ZM1140.86 286.5H1141.82V294.5H1141V287.716L1138.01 292.436H1137.9L1134.89 287.684V294.5H1134.09V286.5H1135.04L1137.95 291.092L1140.86 286.5ZM1151.05 286.5H1152.01V294.5H1151.19V287.716L1148.2 292.436H1148.09L1145.08 287.684V294.5H1144.28V286.5H1145.22L1148.13 291.092L1151.05 286.5ZM1161.51 288.308V286.5H1162.32V294.5H1161.51V292.692C1161.15 293.311 1160.68 293.796 1160.08 294.148C1159.49 294.5 1158.81 294.676 1158.07 294.676C1156.94 294.676 1155.96 294.276 1155.14 293.476C1154.33 292.665 1153.92 291.673 1153.92 290.5C1153.92 289.327 1154.33 288.34 1155.14 287.54C1155.95 286.729 1156.93 286.324 1158.07 286.324C1158.81 286.324 1159.49 286.5 1160.08 286.852C1160.68 287.204 1161.15 287.689 1161.51 288.308ZM1155.71 292.916C1156.38 293.577 1157.18 293.908 1158.13 293.908C1159.07 293.908 1159.87 293.577 1160.53 292.916C1161.18 292.265 1161.51 291.46 1161.51 290.5C1161.51 289.54 1161.18 288.735 1160.53 288.084C1159.87 287.423 1159.07 287.092 1158.13 287.092C1157.18 287.092 1156.38 287.423 1155.71 288.084C1155.06 288.735 1154.74 289.54 1154.74 290.5C1154.74 291.46 1155.06 292.265 1155.71 292.916ZM951.563 313.108L956.667 306.5H957.371V314.5H956.555V307.892L951.467 314.5H950.763V306.5H951.563V313.108ZM964.907 313.108L970.011 306.5H970.715V314.5H969.899V307.892L964.811 314.5H964.107V306.5H964.907V313.108ZM978.977 310.116V306.5H979.793V314.5H978.977V310.884H973.985V314.5H973.185V306.5H973.985V310.116H978.977ZM988.823 306.5V313.716H989.943V316.644H989.127V314.5H982.215V316.644H981.399V313.716H982.327C982.914 312.927 983.207 311.855 983.207 310.5V306.5H988.823ZM983.319 313.716H988.007V307.284H984.007V310.5C984.007 311.823 983.778 312.895 983.319 313.716ZM992.501 313.108L997.605 306.5H998.309V314.5H997.493V307.892L992.405 314.5H991.701V306.5H992.501V313.108ZM1005.71 310.372C1006.65 310.671 1007.11 311.311 1007.11 312.292C1007.11 312.953 1006.9 313.487 1006.46 313.892C1006.03 314.297 1005.43 314.5 1004.65 314.5H1000.78V306.5H1004.35C1005.09 306.5 1005.67 306.697 1006.09 307.092C1006.52 307.476 1006.73 307.977 1006.73 308.596C1006.73 309.449 1006.39 310.041 1005.71 310.372ZM1004.35 307.284H1001.58V310.052H1004.35C1004.86 310.052 1005.25 309.929 1005.51 309.684C1005.78 309.439 1005.91 309.092 1005.91 308.644C1005.91 308.217 1005.78 307.887 1005.5 307.652C1005.23 307.407 1004.85 307.284 1004.35 307.284ZM1001.58 313.716H1004.65C1005.18 313.716 1005.59 313.588 1005.88 313.332C1006.17 313.076 1006.31 312.719 1006.31 312.26C1006.31 311.812 1006.17 311.465 1005.87 311.22C1005.58 310.964 1005.17 310.836 1004.65 310.836H1001.58V313.716ZM1009.69 313.108L1014.79 306.5H1015.5V314.5H1014.68V307.892L1009.59 314.5H1008.89V306.5H1009.69V313.108ZM1024.53 306.5V313.716H1025.65V316.644H1024.83V314.5H1017.92V316.644H1017.1V313.716H1018.03C1018.62 312.927 1018.91 311.855 1018.91 310.5V306.5H1024.53ZM1019.02 313.716H1023.71V307.284H1019.71V310.5C1019.71 311.823 1019.48 312.895 1019.02 313.716ZM1030.16 313.62L1032.95 306.5H1033.81L1030.36 315.236C1030.04 316.036 1029.59 316.66 1029.03 317.108C1028.46 317.556 1027.85 317.753 1027.19 317.7V316.948C1027.69 316.991 1028.15 316.847 1028.56 316.516C1028.98 316.185 1029.32 315.705 1029.57 315.076L1029.75 314.644L1026.07 306.5H1026.93L1030.16 313.62ZM1041.98 308.308V306.5H1042.79V314.5H1041.98V312.692C1041.62 313.311 1041.15 313.796 1040.55 314.148C1039.95 314.5 1039.28 314.676 1038.54 314.676C1037.4 314.676 1036.43 314.276 1035.61 313.476C1034.8 312.665 1034.39 311.673 1034.39 310.5C1034.39 309.327 1034.8 308.34 1035.61 307.54C1036.42 306.729 1037.39 306.324 1038.54 306.324C1039.28 306.324 1039.95 306.5 1040.55 306.852C1041.15 307.204 1041.62 307.689 1041.98 308.308ZM1036.18 312.916C1036.84 313.577 1037.65 313.908 1038.6 313.908C1039.54 313.908 1040.34 313.577 1041 312.916C1041.65 312.265 1041.98 311.46 1041.98 310.5C1041.98 309.54 1041.65 308.735 1041 308.084C1040.34 307.423 1039.54 307.092 1038.6 307.092C1037.65 307.092 1036.84 307.423 1036.18 308.084C1035.53 308.735 1035.21 309.54 1035.21 310.5C1035.21 311.46 1035.53 312.265 1036.18 312.916ZM1046.11 306.5H1051.74V314.5H1050.94V307.284H1046.91V311.14C1046.91 312.399 1046.68 313.289 1046.22 313.812C1045.76 314.335 1045.1 314.564 1044.22 314.5V313.748C1044.87 313.801 1045.35 313.625 1045.65 313.22C1045.96 312.815 1046.11 312.121 1046.11 311.14V306.5ZM1055 309.604H1057.37C1058.12 309.604 1058.74 309.833 1059.24 310.292C1059.75 310.751 1060.01 311.337 1060.01 312.052C1060.01 312.767 1059.75 313.353 1059.24 313.812C1058.74 314.271 1058.12 314.5 1057.37 314.5H1054.2V306.5H1055V309.604ZM1055 313.716H1057.37C1057.89 313.716 1058.32 313.561 1058.66 313.252C1059.02 312.932 1059.19 312.532 1059.19 312.052C1059.19 311.551 1059.02 311.151 1058.66 310.852C1058.32 310.543 1057.89 310.388 1057.37 310.388H1055V313.716ZM1067.56 310.116V306.5H1068.37V314.5H1067.56V310.884H1062.56V314.5H1061.76V306.5H1062.56V310.116H1067.56ZM1077.88 308.308V306.5H1078.7V314.5H1077.88V312.692C1077.53 313.311 1077.05 313.796 1076.46 314.148C1075.86 314.5 1075.19 314.676 1074.44 314.676C1073.31 314.676 1072.33 314.276 1071.51 313.476C1070.7 312.665 1070.3 311.673 1070.3 310.5C1070.3 309.327 1070.7 308.34 1071.51 307.54C1072.32 306.729 1073.3 306.324 1074.44 306.324C1075.19 306.324 1075.86 306.5 1076.46 306.852C1077.05 307.204 1077.53 307.689 1077.88 308.308ZM1072.09 312.916C1072.75 313.577 1073.56 313.908 1074.51 313.908C1075.44 313.908 1076.24 313.577 1076.91 312.916C1077.56 312.265 1077.88 311.46 1077.88 310.5C1077.88 309.54 1077.56 308.735 1076.91 308.084C1076.24 307.423 1075.44 307.092 1074.51 307.092C1073.56 307.092 1072.75 307.423 1072.09 308.084C1071.44 308.735 1071.11 309.54 1071.11 310.5C1071.11 311.46 1071.44 312.265 1072.09 312.916ZM1083.52 306.5H1086.69V314.5H1085.89V311.38H1084.16L1081.65 314.5H1080.61L1083.17 311.364C1082.51 311.289 1081.96 311.028 1081.52 310.58C1081.1 310.132 1080.88 309.588 1080.88 308.948C1080.88 308.233 1081.14 307.647 1081.65 307.188C1082.15 306.729 1082.78 306.5 1083.52 306.5ZM1083.52 310.612H1085.89V307.284H1083.52C1083 307.284 1082.56 307.444 1082.21 307.764C1081.87 308.073 1081.7 308.468 1081.7 308.948C1081.7 309.449 1081.87 309.855 1082.21 310.164C1082.56 310.463 1083 310.612 1083.52 310.612ZM1097.66 306.324C1098.81 306.324 1099.79 306.729 1100.59 307.54C1101.4 308.34 1101.8 309.327 1101.8 310.5C1101.8 311.673 1101.4 312.665 1100.59 313.476C1099.79 314.276 1098.81 314.676 1097.66 314.676C1096.9 314.676 1096.22 314.5 1095.61 314.148C1095.01 313.785 1094.55 313.284 1094.22 312.644V317.7H1093.42V306.5H1094.22V308.356C1094.55 307.716 1095.01 307.22 1095.61 306.868C1096.22 306.505 1096.9 306.324 1097.66 306.324ZM1095.2 312.916C1095.86 313.577 1096.66 313.908 1097.61 313.908C1098.55 313.908 1099.35 313.577 1100.01 312.916C1100.67 312.255 1101 311.449 1101 310.5C1101 309.551 1100.67 308.745 1100.01 308.084C1099.35 307.423 1098.55 307.092 1097.61 307.092C1096.66 307.092 1095.86 307.423 1095.2 308.084C1094.54 308.735 1094.22 309.54 1094.22 310.5C1094.22 311.46 1094.54 312.265 1095.2 312.916ZM1110.77 308.308V306.5H1111.59V314.5H1110.77V312.692C1110.42 313.311 1109.95 313.796 1109.35 314.148C1108.75 314.5 1108.08 314.676 1107.33 314.676C1106.2 314.676 1105.23 314.276 1104.4 313.476C1103.59 312.665 1103.19 311.673 1103.19 310.5C1103.19 309.327 1103.59 308.34 1104.4 307.54C1105.21 306.729 1106.19 306.324 1107.33 306.324C1108.08 306.324 1108.75 306.5 1109.35 306.852C1109.95 307.204 1110.42 307.689 1110.77 308.308ZM1104.98 312.916C1105.64 313.577 1106.45 313.908 1107.4 313.908C1108.33 313.908 1109.13 313.577 1109.8 312.916C1110.45 312.265 1110.77 311.46 1110.77 310.5C1110.77 309.54 1110.45 308.735 1109.8 308.084C1109.13 307.423 1108.33 307.092 1107.4 307.092C1106.45 307.092 1105.64 307.423 1104.98 308.084C1104.33 308.735 1104 309.54 1104 310.5C1104 311.46 1104.33 312.265 1104.98 312.916ZM1117.53 314.692C1116.39 314.692 1115.43 314.313 1114.65 313.556C1113.88 312.788 1113.5 311.796 1113.5 310.58C1113.5 309.247 1113.69 308.217 1114.08 307.492C1114.48 306.745 1115.29 306.079 1116.49 305.492L1117.32 305.124C1118.11 304.793 1118.58 304.585 1118.73 304.5C1119.08 304.308 1119.35 304.111 1119.53 303.908C1119.71 303.695 1119.83 303.423 1119.87 303.092L1120.51 303.46C1120.39 304.057 1120.08 304.527 1119.56 304.868C1119.34 305.007 1119.1 305.151 1118.83 305.3C1118.62 305.417 1118.3 305.561 1117.87 305.732L1116.92 306.132C1116.12 306.495 1115.54 306.879 1115.18 307.284C1114.82 307.689 1114.57 308.249 1114.44 308.964C1114.81 308.399 1115.28 307.967 1115.87 307.668C1116.46 307.369 1117.07 307.22 1117.71 307.22C1118.78 307.22 1119.66 307.572 1120.36 308.276C1121.07 308.98 1121.42 309.876 1121.42 310.964C1121.42 312.041 1121.05 312.932 1120.32 313.636C1119.6 314.34 1118.67 314.692 1117.53 314.692ZM1117.53 313.892C1118.43 313.892 1119.16 313.62 1119.74 313.076C1120.32 312.511 1120.6 311.807 1120.6 310.964C1120.6 310.1 1120.33 309.391 1119.77 308.836C1119.22 308.281 1118.5 308.004 1117.61 308.004C1116.8 308.004 1116.07 308.26 1115.42 308.772C1114.78 309.284 1114.43 309.945 1114.36 310.756C1114.36 311.663 1114.66 312.415 1115.26 313.012C1115.85 313.599 1116.6 313.892 1117.53 313.892ZM1126.85 314.676C1125.68 314.676 1124.68 314.276 1123.86 313.476C1123.05 312.665 1122.64 311.673 1122.64 310.5C1122.64 309.327 1123.05 308.34 1123.86 307.54C1124.67 306.729 1125.67 306.324 1126.85 306.324C1128.01 306.324 1129 306.729 1129.81 307.54C1130.63 308.34 1131.04 309.327 1131.04 310.5C1131.04 311.663 1130.63 312.655 1129.81 313.476C1128.99 314.276 1128 314.676 1126.85 314.676ZM1124.43 312.916C1125.09 313.577 1125.9 313.908 1126.85 313.908C1127.79 313.908 1128.59 313.577 1129.25 312.916C1129.9 312.265 1130.23 311.46 1130.23 310.5C1130.23 309.54 1129.9 308.735 1129.25 308.084C1128.59 307.423 1127.79 307.092 1126.85 307.092C1125.9 307.092 1125.09 307.423 1124.43 308.084C1123.78 308.735 1123.46 309.54 1123.46 310.5C1123.46 311.46 1123.78 312.265 1124.43 312.916ZM1131.63 306.5H1138.25V307.284H1135.34V314.5H1134.54V307.284H1131.63V306.5ZM1146.43 308.308V306.5H1147.24V314.5H1146.43V312.692C1146.08 313.311 1145.6 313.796 1145 314.148C1144.41 314.5 1143.73 314.676 1142.99 314.676C1141.86 314.676 1140.88 314.276 1140.06 313.476C1139.25 312.665 1138.84 311.673 1138.84 310.5C1138.84 309.327 1139.25 308.34 1140.06 307.54C1140.87 306.729 1141.85 306.324 1142.99 306.324C1143.73 306.324 1144.41 306.5 1145 306.852C1145.6 307.204 1146.08 307.689 1146.43 308.308ZM1140.64 312.916C1141.3 313.577 1142.1 313.908 1143.05 313.908C1143.99 313.908 1144.79 313.577 1145.45 312.916C1146.1 312.265 1146.43 311.46 1146.43 310.5C1146.43 309.54 1146.1 308.735 1145.45 308.084C1144.79 307.423 1143.99 307.092 1143.05 307.092C1142.1 307.092 1141.3 307.423 1140.64 308.084C1139.99 308.735 1139.66 309.54 1139.66 310.5C1139.66 311.46 1139.99 312.265 1140.64 312.916ZM952.209 333.676C951.003 333.676 950.001 333.276 949.201 332.476C948.401 331.676 948.001 330.684 948.001 329.5C948.001 328.316 948.401 327.324 949.201 326.524C950.001 325.724 951.003 325.324 952.209 325.324C952.987 325.324 953.691 325.511 954.321 325.884C954.95 326.247 955.409 326.743 955.697 327.372L955.041 327.756C954.806 327.244 954.433 326.839 953.921 326.54C953.419 326.241 952.849 326.092 952.209 326.092C951.259 326.092 950.454 326.423 949.793 327.084C949.142 327.735 948.817 328.54 948.817 329.5C948.817 330.471 949.142 331.281 949.793 331.932C950.443 332.583 951.249 332.908 952.209 332.908C952.849 332.908 953.419 332.759 953.921 332.46C954.433 332.161 954.822 331.756 955.089 331.244L955.76 331.644C955.441 332.263 954.961 332.759 954.321 333.132C953.681 333.495 952.977 333.676 952.209 333.676ZM960.755 325.5H967.379V326.284H964.467V333.5H963.667V326.284H960.755V325.5ZM973.066 325.324C974.218 325.324 975.194 325.729 975.994 326.54C976.804 327.34 977.21 328.327 977.21 329.5C977.21 330.673 976.804 331.665 975.994 332.476C975.194 333.276 974.218 333.676 973.066 333.676C972.308 333.676 971.626 333.5 971.018 333.148C970.42 332.785 969.956 332.284 969.626 331.644V336.7H968.826V325.5H969.626V327.356C969.956 326.716 970.42 326.22 971.018 325.868C971.626 325.505 972.308 325.324 973.066 325.324ZM970.602 331.916C971.263 332.577 972.068 332.908 973.018 332.908C973.956 332.908 974.756 332.577 975.418 331.916C976.079 331.255 976.41 330.449 976.41 329.5C976.41 328.551 976.079 327.745 975.418 327.084C974.756 326.423 973.956 326.092 973.018 326.092C972.068 326.092 971.263 326.423 970.602 327.084C969.951 327.735 969.626 328.54 969.626 329.5C969.626 330.46 969.951 331.265 970.602 331.916ZM982.738 325.324C983.912 325.324 984.861 325.74 985.586 326.572C986.322 327.404 986.69 328.391 986.69 329.532C986.69 329.553 986.685 329.617 986.674 329.724C986.674 329.831 986.674 329.895 986.674 329.916H979.426C979.522 330.812 979.88 331.537 980.498 332.092C981.117 332.636 981.89 332.908 982.818 332.908C983.448 332.908 984.002 332.78 984.482 332.524C984.962 332.257 985.33 331.9 985.586 331.452L986.29 331.868C985.96 332.423 985.485 332.865 984.866 333.196C984.258 333.516 983.57 333.676 982.802 333.676C981.565 333.676 980.557 333.287 979.778 332.508C978.989 331.719 978.594 330.716 978.594 329.5C978.594 328.305 978.978 327.313 979.746 326.524C980.536 325.724 981.533 325.324 982.738 325.324ZM982.738 326.092C981.842 326.092 981.085 326.375 980.466 326.94C979.858 327.505 979.512 328.236 979.426 329.132H985.858C985.773 328.183 985.432 327.441 984.834 326.908C984.237 326.364 983.538 326.092 982.738 326.092ZM990.224 329.34L994.688 333.5H993.6L989.36 329.564V333.5H988.56V325.5H989.36V329.132L993.408 325.5H994.528L990.224 329.34ZM999.098 325.324C1000.27 325.324 1001.22 325.74 1001.95 326.572C1002.68 327.404 1003.05 328.391 1003.05 329.532C1003.05 329.553 1003.04 329.617 1003.03 329.724C1003.03 329.831 1003.03 329.895 1003.03 329.916H995.786C995.882 330.812 996.239 331.537 996.858 332.092C997.476 332.636 998.25 332.908 999.178 332.908C999.807 332.908 1000.36 332.78 1000.84 332.524C1001.32 332.257 1001.69 331.9 1001.95 331.452L1002.65 331.868C1002.32 332.423 1001.84 332.865 1001.23 333.196C1000.62 333.516 999.93 333.676 999.162 333.676C997.924 333.676 996.916 333.287 996.138 332.508C995.348 331.719 994.954 330.716 994.954 329.5C994.954 328.305 995.338 327.313 996.106 326.524C996.895 325.724 997.892 325.324 999.098 325.324ZM999.098 326.092C998.202 326.092 997.444 326.375 996.826 326.94C996.218 327.505 995.871 328.236 995.786 329.132H1002.22C1002.13 328.183 1001.79 327.441 1001.19 326.908C1000.6 326.364 999.898 326.092 999.098 326.092ZM1009.16 325.324C1010.31 325.324 1011.29 325.729 1012.09 326.54C1012.9 327.34 1013.3 328.327 1013.3 329.5C1013.3 330.673 1012.9 331.665 1012.09 332.476C1011.29 333.276 1010.31 333.676 1009.16 333.676C1008.4 333.676 1007.72 333.5 1007.11 333.148C1006.51 332.785 1006.05 332.284 1005.72 331.644V336.7H1004.92V325.5H1005.72V327.356C1006.05 326.716 1006.51 326.22 1007.11 325.868C1007.72 325.505 1008.4 325.324 1009.16 325.324ZM1006.7 331.916C1007.36 332.577 1008.16 332.908 1009.11 332.908C1010.05 332.908 1010.85 332.577 1011.51 331.916C1012.17 331.255 1012.5 330.449 1012.5 329.5C1012.5 328.551 1012.17 327.745 1011.51 327.084C1010.85 326.423 1010.05 326.092 1009.11 326.092C1008.16 326.092 1007.36 326.423 1006.7 327.084C1006.04 327.735 1005.72 328.54 1005.72 329.5C1005.72 330.46 1006.04 331.265 1006.7 331.916ZM1022.27 327.308V325.5H1023.09V333.5H1022.27V331.692C1021.92 332.311 1021.45 332.796 1020.85 333.148C1020.25 333.5 1019.58 333.676 1018.83 333.676C1017.7 333.676 1016.73 333.276 1015.9 332.476C1015.09 331.665 1014.69 330.673 1014.69 329.5C1014.69 328.327 1015.09 327.34 1015.9 326.54C1016.71 325.729 1017.69 325.324 1018.83 325.324C1019.58 325.324 1020.25 325.5 1020.85 325.852C1021.45 326.204 1021.92 326.689 1022.27 327.308ZM1016.48 331.916C1017.14 332.577 1017.95 332.908 1018.9 332.908C1019.83 332.908 1020.63 332.577 1021.3 331.916C1021.95 331.265 1022.27 330.46 1022.27 329.5C1022.27 328.54 1021.95 327.735 1021.3 327.084C1020.63 326.423 1019.83 326.092 1018.9 326.092C1017.95 326.092 1017.14 326.423 1016.48 327.084C1015.83 327.735 1015.5 328.54 1015.5 329.5C1015.5 330.46 1015.83 331.265 1016.48 331.916ZM1032.31 325.5H1033.27V333.5H1032.46V326.716L1029.46 331.436H1029.35L1026.34 326.684V333.5H1025.54V325.5H1026.49L1029.4 330.092L1032.31 325.5ZM1036.53 332.108L1041.64 325.5H1042.34V333.5H1041.52V326.892L1036.44 333.5H1035.73V325.5H1036.53V332.108ZM1049.88 332.108L1054.98 325.5H1055.68V333.5H1054.87V326.892L1049.78 333.5H1049.08V325.5H1049.88V332.108ZM1065.24 325.324C1066.45 325.324 1067.43 325.719 1068.16 326.508C1068.91 327.287 1069.28 328.284 1069.28 329.5C1069.28 330.716 1068.91 331.713 1068.16 332.492C1067.41 333.281 1066.42 333.676 1065.22 333.676C1064.37 333.676 1063.62 333.495 1063 333.132C1062.37 332.769 1061.91 332.268 1061.62 331.628L1062.31 331.212C1062.53 331.735 1062.89 332.151 1063.4 332.46C1063.91 332.759 1064.52 332.908 1065.22 332.908C1066.12 332.908 1066.86 332.625 1067.44 332.06C1068.04 331.484 1068.38 330.759 1068.45 329.884H1064.31V329.116H1068.45C1068.37 328.231 1068.04 327.505 1067.46 326.94C1066.87 326.375 1066.13 326.092 1065.24 326.092C1064.57 326.092 1063.99 326.241 1063.48 326.54C1062.97 326.839 1062.6 327.249 1062.36 327.772L1061.65 327.372C1061.97 326.732 1062.45 326.231 1063.08 325.868C1063.72 325.505 1064.44 325.324 1065.24 325.324ZM1072.86 329.34L1077.33 333.5H1076.24L1072 329.564V333.5H1071.2V325.5H1072V329.132L1076.05 325.5H1077.17L1072.86 329.34ZM1081.8 333.676C1080.6 333.676 1079.59 333.276 1078.79 332.476C1077.99 331.676 1077.59 330.684 1077.59 329.5C1077.59 328.316 1077.99 327.324 1078.79 326.524C1079.59 325.724 1080.6 325.324 1081.8 325.324C1082.58 325.324 1083.28 325.511 1083.91 325.884C1084.54 326.247 1085 326.743 1085.29 327.372L1084.63 327.756C1084.4 327.244 1084.03 326.839 1083.51 326.54C1083.01 326.241 1082.44 326.092 1081.8 326.092C1080.85 326.092 1080.05 326.423 1079.39 327.084C1078.74 327.735 1078.41 328.54 1078.41 329.5C1078.41 330.471 1078.74 331.281 1079.39 331.932C1080.04 332.583 1080.84 332.908 1081.8 332.908C1082.44 332.908 1083.01 332.759 1083.51 332.46C1084.03 332.161 1084.42 331.756 1084.68 331.244L1085.35 331.644C1085.03 332.263 1084.55 332.759 1083.91 333.132C1083.27 333.495 1082.57 333.676 1081.8 333.676ZM1087.11 325.5H1093.72V333.5H1092.9V326.284H1087.91V333.5H1087.11V325.5ZM1099.79 325.324C1100.96 325.324 1101.91 325.74 1102.63 326.572C1103.37 327.404 1103.74 328.391 1103.74 329.532C1103.74 329.553 1103.73 329.617 1103.72 329.724C1103.72 329.831 1103.72 329.895 1103.72 329.916H1096.47C1096.57 330.812 1096.93 331.537 1097.55 332.092C1098.16 332.636 1098.94 332.908 1099.87 332.908C1100.49 332.908 1101.05 332.78 1101.53 332.524C1102.01 332.257 1102.38 331.9 1102.63 331.452L1103.34 331.868C1103.01 332.423 1102.53 332.865 1101.91 333.196C1101.31 333.516 1100.62 333.676 1099.85 333.676C1098.61 333.676 1097.6 333.287 1096.83 332.508C1096.04 331.719 1095.64 330.716 1095.64 329.5C1095.64 328.305 1096.03 327.313 1096.79 326.524C1097.58 325.724 1098.58 325.324 1099.79 325.324ZM1099.79 326.092C1098.89 326.092 1098.13 326.375 1097.51 326.94C1096.91 327.505 1096.56 328.236 1096.47 329.132H1102.91C1102.82 328.183 1102.48 327.441 1101.88 326.908C1101.28 326.364 1100.59 326.092 1099.79 326.092ZM1109.85 325.324C1111 325.324 1111.98 325.729 1112.78 326.54C1113.59 327.34 1113.99 328.327 1113.99 329.5C1113.99 330.673 1113.59 331.665 1112.78 332.476C1111.98 333.276 1111 333.676 1109.85 333.676C1109.09 333.676 1108.41 333.5 1107.8 333.148C1107.2 332.785 1106.74 332.284 1106.41 331.644V336.7H1105.61V325.5H1106.41V327.356C1106.74 326.716 1107.2 326.22 1107.8 325.868C1108.41 325.505 1109.09 325.324 1109.85 325.324ZM1107.38 331.916C1108.04 332.577 1108.85 332.908 1109.8 332.908C1110.74 332.908 1111.54 332.577 1112.2 331.916C1112.86 331.255 1113.19 330.449 1113.19 329.5C1113.19 328.551 1112.86 327.745 1112.2 327.084C1111.54 326.423 1110.74 326.092 1109.8 326.092C1108.85 326.092 1108.04 326.423 1107.38 327.084C1106.73 327.735 1106.41 328.54 1106.41 329.5C1106.41 330.46 1106.73 331.265 1107.38 331.916ZM1114.58 325.5H1121.21V326.284H1118.3V333.5H1117.5V326.284H1114.58V325.5ZM1129.38 327.308V325.5H1130.2V333.5H1129.38V331.692C1129.03 332.311 1128.55 332.796 1127.96 333.148C1127.36 333.5 1126.69 333.676 1125.94 333.676C1124.81 333.676 1123.83 333.276 1123.01 332.476C1122.2 331.665 1121.8 330.673 1121.8 329.5C1121.8 328.327 1122.2 327.34 1123.01 326.54C1123.82 325.729 1124.8 325.324 1125.94 325.324C1126.69 325.324 1127.36 325.5 1127.96 325.852C1128.55 326.204 1129.03 326.689 1129.38 327.308ZM1123.59 331.916C1124.25 332.577 1125.06 332.908 1126.01 332.908C1126.94 332.908 1127.74 332.577 1128.41 331.916C1129.06 331.265 1129.38 330.46 1129.38 329.5C1129.38 328.54 1129.06 327.735 1128.41 327.084C1127.74 326.423 1126.94 326.092 1126.01 326.092C1125.06 326.092 1124.25 326.423 1123.59 327.084C1122.94 327.735 1122.61 328.54 1122.61 329.5C1122.61 330.46 1122.94 331.265 1123.59 331.916ZM1139.42 325.5H1140.38V333.5H1139.57V326.716L1136.57 331.436H1136.46L1133.45 326.684V333.5H1132.65V325.5H1133.6L1136.51 330.092L1139.42 325.5ZM1143.64 332.108L1148.75 325.5H1149.45V333.5H1148.63V326.892L1143.55 333.5H1142.84V325.5H1143.64V332.108Z" fill="black"/>
<path d="M1347 308.5H1197" stroke="black" stroke-linecap="round"/>
<path d="M902 308.5H752" stroke="black" stroke-linecap="round"/>
</svg>
