<svg width="150" height="338" viewBox="0 0 150 338" fill="none" xmlns="http://www.w3.org/2000/svg">
<path d="M11.9805 337.279H42.3984" stroke="#1B1B1B" stroke-linecap="round"/>
<path d="M111.898 337.279H142.316" stroke="#1B1B1B" stroke-linecap="round"/>
<path d="M58.6523 334.758H101.876" stroke="#1B1B1B" stroke-linecap="round"/>
<path d="M8.07031 328.789L149.301 328.789" stroke="#1B1B1B" stroke-linecap="round"/>
<path fill-rule="evenodd" clip-rule="evenodd" d="M59.4113 325.903C57.2125 327.795 54.1834 328.035 51.1316 328.262C45.308 328.688 27.3305 328.928 25.2383 326.529V323.97C26.3444 326.676 45.6011 326.689 50.9184 326.542C53.8902 326.463 58.4518 325.903 58.4518 325.903H59.398H59.4113Z" fill="#191919"/>
<path fill-rule="evenodd" clip-rule="evenodd" d="M101.053 326.099H102C102 326.099 106.608 326.702 109.593 326.782C114.91 326.929 134.167 326.916 135.273 324.21V326.769C133.181 329.168 115.216 328.928 109.379 328.501C106.328 328.275 103.252 327.992 101.04 326.099H101.053Z" fill="#191919"/>
<path fill-rule="evenodd" clip-rule="evenodd" d="M25.2539 323.97C26.0268 322.051 37.4476 322.704 50.1744 313.762C50.1744 313.762 50.2944 314.549 50.7475 315.415C51.3205 316.521 52.4399 317.76 54.5588 317.747C57.2641 317.747 60.036 315.855 61.5819 314.602C62.3548 313.976 62.8213 313.496 62.8213 313.496C66.4461 317.081 66.2728 323.384 65.873 328.262H60.2226L60.1009 325.427H59.1547C59.1547 325.427 53.9325 326.462 50.9474 326.542C45.6301 326.689 26.3733 326.676 25.2672 323.97H25.2539Z" fill="#242424"/>
<path fill-rule="evenodd" clip-rule="evenodd" d="M135.289 324.21C134.183 326.916 114.927 326.929 109.609 326.782C106.638 326.702 101.28 325.661 101.28 325.661H100.334V328.501H94.6837C94.2839 323.624 94.1106 317.334 97.7354 313.736C97.7354 313.736 98.2019 314.202 98.9748 314.842C100.521 316.094 103.293 317.974 105.998 317.987C108.103 317.987 109.223 316.747 109.809 315.655C110.262 314.788 110.382 314.002 110.382 314.002C123.109 322.931 134.517 322.291 135.303 324.21H135.289Z" fill="#242424"/>
<path fill-rule="evenodd" clip-rule="evenodd" d="M50.9304 312.03L61.8048 313.323L61.5649 314.602C60.019 315.855 57.2471 317.734 54.5418 317.747C52.4363 317.747 51.3168 316.508 50.7305 315.415L50.9304 312.03Z" fill="white"/>
<path fill-rule="evenodd" clip-rule="evenodd" d="M109.794 311.67V315.668C109.221 316.774 108.102 318.013 105.983 318C103.277 318 100.505 316.108 98.9596 314.855L98.4932 313.096L109.781 311.67H109.794Z" fill="white"/>
<path fill-rule="evenodd" clip-rule="evenodd" d="M66.3899 313.869L43.8281 311.19L49.7717 169.223V152.778L109.115 144.263L113.539 311.19L98.8195 313.046L92.2965 313.869C92.2965 313.869 81.7819 180.524 80.7158 169.223C80.6225 168.171 79.783 168.197 79.5964 169.223C78.8235 173.474 66.3899 313.869 66.3899 313.869Z" fill="#222222"/>
<path d="M98.5073 313.083L98.9737 314.842M61.8061 313.323L61.5663 314.602M110.368 314.016C110.368 314.016 110.195 314.322 109.795 314.282M110.368 314.016C123.095 322.958 134.515 322.305 135.288 324.224V326.782C133.196 329.181 115.219 328.941 109.395 328.515C106.343 328.288 102.519 327.799 100.32 325.906M110.368 314.016C110.368 314.016 109.768 318.013 105.997 318C101.932 317.987 97.7343 313.749 97.7343 313.749H97.721M98.7472 314.016C98.2274 314.122 97.721 313.749 97.721 313.749M97.721 313.749C94.1095 317.334 94.2694 323.637 94.6692 328.515H100.32V325.906M50.1588 313.776C50.1588 313.776 50.4253 314.042 50.8118 314.016M50.1588 313.776C37.432 322.718 26.0112 322.065 25.2383 323.984V326.542C27.3305 328.941 45.308 328.701 51.1316 328.275C54.1834 328.048 58.0081 327.482 60.207 325.589M50.1588 313.776C50.1588 313.776 50.7585 317.774 54.5299 317.76C58.5945 317.747 62.7923 313.509 62.7923 313.509H62.8056M61.6995 313.869C62.2193 313.976 62.8056 313.509 62.8056 313.509M62.8056 313.509C66.4304 317.094 66.2572 323.397 65.8574 328.275H60.207L60.207 325.589M135.288 324.21C134.182 326.916 114.925 326.929 109.608 326.782C106.636 326.702 101.279 325.893 101.279 325.893L100.32 325.906M25.2516 323.97C26.3577 326.676 45.6145 326.689 50.9317 326.542C53.9035 326.462 59.2608 325.576 59.2608 325.576L60.207 325.589M109.795 311.67V315.668M50.9317 312.03L50.7318 315.415M97.0136 191.419L103.67 312.435M55.9121 312.435L66.3905 313.869C66.3905 313.869 78.8241 173.474 79.597 169.223C79.7836 168.197 80.6231 168.171 80.7164 169.223C81.7825 180.524 92.2971 313.869 92.2971 313.869L113.54 311.19L109.115 144.263L49.7723 152.778V169.223L43.8287 311.19L55.9121 312.435ZM55.9121 312.435L62.8056 214.191" stroke="#1B1B1B" stroke-linecap="round" stroke-linejoin="round"/>
<path fill-rule="evenodd" clip-rule="evenodd" d="M71.2306 34.1195C69.9779 32.0939 68.9917 30.0283 68.2987 28.3891C68.2987 28.3891 65.5535 29.5619 64.2075 25.8038C63.4079 23.5916 64.2475 20.9263 65.5668 20.4466C66.3264 22.219 67.2726 23.4583 67.7657 23.4583C71.0173 23.4583 71.3905 14.1032 71.9369 12.6106C73.1363 9.33227 77.7739 13.5568 82.5981 13.69C85.2633 13.7567 88.1152 12.4507 88.8482 13.1436C89.3013 13.5701 90.8205 18.1011 91.3402 20.1001C91.4868 20.6465 91.74 21.0063 92.0199 21.1795C92.0199 21.1795 92.6329 22.9253 92.4863 25.8171C92.4596 26.3635 92.4063 26.9499 92.3131 27.5762C92.2864 27.7628 92.2598 27.9494 92.2198 28.1359C91.7533 30.6147 90.5007 33.4532 88.5816 36.2384C88.435 36.4517 88.2885 36.6649 88.1285 36.8781C86.1962 39.5434 83.7175 41.9022 80.8256 41.8622C77.0009 41.8089 74.3623 38.7438 72.1767 35.5988C71.8436 35.119 71.5237 34.6259 71.2306 34.1328V34.1195Z" fill="white"/>
<path fill-rule="evenodd" clip-rule="evenodd" d="M71.2305 34.1195C71.537 34.6126 71.8435 35.1056 72.1767 35.5854C74.3489 38.7304 77.0008 41.7955 80.8255 41.8488C83.7174 41.8888 86.1961 39.53 88.1284 36.8647C88.2884 36.6515 88.435 36.4383 88.5815 36.2251L88.8214 44.141L80.8255 50.631L71.2305 44.3009V34.1328V34.1195Z" fill="white"/>
<path fill-rule="evenodd" clip-rule="evenodd" d="M80.8226 50.6177L73.8928 56.4414L68.3623 49.8981L70.921 44.0877L80.8226 50.6177Z" fill="#EEEEEE"/>
<path fill-rule="evenodd" clip-rule="evenodd" d="M93.2712 48.8985L87.6341 56.4413L80.8242 50.6177L90.3393 42.8883L93.2712 48.8985Z" fill="#EEEEEE"/>
<path fill-rule="evenodd" clip-rule="evenodd" d="M77.4932 53.4029L80.8115 50.6176L84.3163 53.6028C84.3163 53.6028 83.7033 55.9083 82.6638 56.6679C82.4639 56.8145 82.2374 56.9077 81.9975 56.9077H79.9319C79.5588 56.9077 79.2389 56.8278 78.9724 56.6679C77.6131 55.8683 77.4932 53.4029 77.4932 53.4029Z" fill="#FCAF17"/>
<path fill-rule="evenodd" clip-rule="evenodd" d="M76.8381 101.298C74.8525 83.5608 75.9319 71.1538 78.9704 56.6679C79.2369 56.8279 79.5567 56.9211 79.9299 56.9211H81.9955C82.2354 56.9211 82.4486 56.8145 82.6618 56.6679C87.6859 70.9939 87.0062 83.3076 86.5931 94.795C84.7274 100.286 82.6485 105.31 80.4763 109.974C79.1969 107.242 77.9842 104.35 76.8381 101.298Z" fill="#FCAF17"/>
<path fill-rule="evenodd" clip-rule="evenodd" d="M70.6297 44.7674L68.3776 49.8981L73.8947 56.4281L77.5062 53.3896C77.5062 53.3896 77.6262 55.855 78.9855 56.6546C75.947 71.1405 74.8676 83.5474 76.8532 101.285C71.4427 86.8657 67.5913 68.7151 67.0449 45.7269C69.2571 45.1139 70.6431 44.7541 70.6431 44.7541L70.6297 44.7674Z" fill="#DEDEDE"/>
<path fill-rule="evenodd" clip-rule="evenodd" d="M91.9373 46.1667C91.9373 46.1667 92.9768 46.4332 94.6559 46.8996C94.1895 66.4362 90.9778 81.9216 86.5934 94.8083C87.0065 83.3209 87.6862 71.0072 82.6621 56.6812C83.7016 55.9216 84.3146 53.6162 84.3146 53.6162L87.6329 56.4414L93.27 48.8986L91.9373 46.1667Z" fill="#DEDEDE"/>
<path fill-rule="evenodd" clip-rule="evenodd" d="M67.0282 45.7402C67.5879 68.7284 71.4259 86.879 76.8364 101.298C77.9825 104.35 79.2086 107.242 80.4746 109.974C71.8923 101.898 64.7627 82.8278 59.5253 67.7822L63.2568 65.0236L60.2183 64.1174L57.7529 48.4721C61.3244 47.3527 64.6427 46.4065 67.0148 45.7402H67.0282Z" fill="#4B4B4B"/>
<path fill-rule="evenodd" clip-rule="evenodd" d="M94.668 46.8996C96.627 47.4327 99.4655 48.2189 102.597 49.1518L100.745 64.1307L97.7198 65.0369L101.451 67.7955C96.2139 82.8411 89.0842 101.925 80.502 109.987C82.6742 105.323 84.7531 100.299 86.6188 94.8083C91.0032 81.9216 94.2149 66.4362 94.6813 46.8996H94.668Z" fill="#4B4B4B"/>
<path fill-rule="evenodd" clip-rule="evenodd" d="M57.7544 48.4721L60.2198 64.1174L63.2583 65.0236L59.5268 67.7822C64.7641 82.8277 71.8938 101.911 80.4761 109.974L78.8902 110.36L81.5155 148.714C76.1983 167.531 60.0999 165.252 46.1204 162.187C48.7057 140.425 49.412 117.69 48.5725 94.1553L31.1015 157.229L16.6289 153.791C16.6289 153.791 32.2475 68.755 37.7247 57.4541C39.0041 54.8022 49.0922 51.1507 57.7544 48.4454V48.4721Z" fill="#222222"/>
<path fill-rule="evenodd" clip-rule="evenodd" d="M83.1557 113.905C82.4094 113.932 81.6632 114.478 81.6632 115.424C81.6632 116.437 82.3028 117.064 83.1557 117.05C84.1419 117.05 84.7816 116.371 84.7682 115.424C84.7682 114.385 83.9953 113.878 83.1557 113.905ZM113.727 116.717L125.88 107.255L114.819 90.0907L113.727 116.704V116.717ZM102.586 49.1518C110.515 51.5106 120.323 54.7489 122.362 56.9344C125.187 59.9462 148.749 100.792 147.176 110.72C146.123 117.397 114.819 134.508 114.819 134.508L106.89 122.847L104.665 124.233L105.038 124.74C105.038 124.74 97.4284 121.101 96.6022 124.74C96.0558 127.125 99.4673 127.285 99.4673 127.285C99.4673 127.285 83.4489 128.631 88.2331 138.959C93.0973 149.474 112.661 134.908 112.661 134.908L112.914 135.241L113.327 134.921L114.806 162.227C94.39 168.024 83.5422 163.706 81.5032 148.754L78.8779 110.4L80.4638 110.014C89.046 101.938 96.1757 82.8678 101.413 67.8222L97.6816 65.0636L100.707 64.1574L102.559 49.1784L102.586 49.1518Z" fill="#222222"/>
<path fill-rule="evenodd" clip-rule="evenodd" d="M93.2428 20.3533C93.0829 21.1796 92.5098 21.4728 92.0034 21.1662C91.7236 20.993 91.4704 20.6332 91.3238 20.0868C90.8174 18.0878 89.2981 13.5701 88.8317 13.1304C88.0988 12.4374 85.2469 13.7567 82.5816 13.6768C77.7574 13.5435 73.1198 9.33233 71.9204 12.5973C71.374 14.0899 71.0009 23.4451 67.7492 23.4451C67.2561 23.4451 66.31 22.2057 65.5504 20.4333C65.1506 19.5004 64.8041 18.4077 64.6042 17.2882C63.9512 13.5568 63.7246 10.705 64.6042 8.37282C66.7631 2.68241 73.3597 4.42818 73.3597 4.42818C73.3597 4.42818 75.3453 2.41588 77.5309 1.58964C81.7154 -0.00953518 87.5657 0.896666 90.1111 2.1227C93.0029 3.50866 93.0962 5.50763 93.2561 8.37282C93.4693 12.1042 93.2428 17.2216 93.2828 19.8069C93.2828 20.0068 93.2828 20.1801 93.2428 20.34V20.3533Z" fill="#1B1B1B"/>
<path fill-rule="evenodd" clip-rule="evenodd" d="M93.2462 20.3533C93.2462 20.3533 95.1652 20.2866 94.8187 23.7115C94.4189 27.5762 93.3795 28.1626 92.2067 28.1093C92.2467 27.9227 92.2734 27.7361 92.3 27.5496C92.8731 23.6449 92.0068 21.1662 92.0068 21.1662C92.4999 21.4594 93.0863 21.1662 93.2462 20.3533Z" fill="white"/>
<path fill-rule="evenodd" clip-rule="evenodd" d="M37.4979 211.668C28.0495 211.282 8.24632 208.603 2.35601 207.83C1.66304 207.737 0.756836 207.177 0.756836 206.484C0.756836 204.045 0.956733 198.728 1.22326 193.011C1.56975 185.682 2.03618 177.739 2.35601 174.487C2.36934 174.314 2.40932 174.141 2.46263 173.968L45.787 177.672C45.9869 178.112 46.0935 178.618 46.0535 179.205C45.8137 182.23 45.2806 190.266 44.7742 197.276C44.4277 202.006 44.0945 206.284 43.868 208.243C43.4682 211.721 37.5113 211.668 37.5113 211.668H37.4979Z" fill="white"/>
<path fill-rule="evenodd" clip-rule="evenodd" d="M2.46387 173.981C2.83701 172.848 4.00974 171.849 5.47565 171.942C6.63506 172.022 8.28754 172.115 10.2732 172.248C11.0461 172.302 11.8857 172.355 12.7519 172.408C18.8421 172.808 26.9579 173.368 33.7145 173.994C34.7806 174.087 35.8067 174.194 36.7929 174.287C38.1122 174.421 39.3516 174.567 40.471 174.701C40.471 174.701 44.6688 175.274 45.7882 177.699L2.46387 173.994V173.981Z" fill="white"/>
<path fill-rule="evenodd" clip-rule="evenodd" d="M15.1233 165.638C15.03 166.638 15.0833 167.597 15.3765 168.384C14.1105 168.477 12.9777 169.556 12.7512 172.382C11.885 172.328 11.0587 172.275 10.2725 172.222C10.6056 167.971 12.1648 165.958 15.11 165.625L15.1233 165.638Z" fill="white"/>
<path fill-rule="evenodd" clip-rule="evenodd" d="M28.5547 165.639C28.5547 165.639 33.792 166.012 35.8843 169.183C37.2835 171.302 36.8038 174.274 36.8038 174.274C35.8176 174.167 34.7915 174.074 33.7254 173.981C33.9253 170.876 32.3661 168.65 28.5547 168.397C28.6213 167.597 28.568 166.705 28.5547 165.652V165.639Z" fill="white"/>
<path fill-rule="evenodd" clip-rule="evenodd" d="M40.4707 174.687C42.2298 174.9 43.709 175.127 44.7752 175.354C46.1611 175.647 47.2006 176.166 47.7603 177.046C47.3605 177.592 46.6675 177.752 45.788 177.686C44.6685 175.26 40.4707 174.687 40.4707 174.687Z" fill="white"/>
<path fill-rule="evenodd" clip-rule="evenodd" d="M47.3089 195.61C46.9225 200.954 46.4827 206.044 46.1229 208.523C45.6431 211.895 42.9778 211.602 40.4991 211.695C39.6862 211.721 38.6734 211.708 37.4873 211.668C37.4873 211.668 43.4442 211.721 43.844 208.243C44.0706 206.271 44.4037 202.006 44.7502 197.276C45.8297 197.156 46.6826 196.623 47.2956 195.61H47.3089Z" fill="white"/>
<path fill-rule="evenodd" clip-rule="evenodd" d="M47.7605 177.046C48.0937 177.566 48.2669 178.192 48.2536 178.978C48.187 182.03 47.7872 189.027 47.3207 195.61C46.7077 196.623 45.8415 197.169 44.7754 197.276C45.2951 190.266 45.8282 182.23 46.0547 179.205C46.0947 178.632 46.0014 178.125 45.7882 177.672C46.6677 177.739 47.3741 177.579 47.7605 177.033V177.046Z" fill="white"/>
<path fill-rule="evenodd" clip-rule="evenodd" d="M112.939 135.227L112.686 134.894L105.05 124.726L104.677 124.22L106.902 122.834L114.498 134.015L112.939 135.227Z" fill="#E4E4E4"/>
<path fill-rule="evenodd" clip-rule="evenodd" d="M17.3501 153.991L31.1163 157.256C31.1163 157.256 30.5699 161.267 29.2506 161.427C29.144 161.427 29.0107 161.454 28.8775 161.454C26.3055 161.521 19.7888 159.788 17.3368 159.042C17.2701 159.029 17.2168 158.989 17.1635 158.962C15.9375 158.189 17.3368 154.004 17.3368 154.004L17.3501 153.991Z" fill="#E4E4E4"/>
<path fill-rule="evenodd" clip-rule="evenodd" d="M17.1603 158.949C17.1603 158.949 17.2802 159.015 17.3335 159.029C19.7856 159.775 26.3023 161.521 28.8743 161.441C28.5811 163.107 28.5411 164.479 28.5411 165.639C28.5411 166.691 28.5944 167.584 28.5411 168.384C28.4478 169.543 28.1147 170.529 27.1019 171.555C25.0229 173.648 16.9471 171.116 15.6411 168.917C15.5478 168.757 15.4545 168.57 15.3879 168.384C15.0947 167.584 15.0414 166.638 15.1347 165.639C15.4279 162.48 17.1736 158.935 17.1736 158.935L17.1603 158.949Z" fill="white"/>
<path fill-rule="evenodd" clip-rule="evenodd" d="M105.049 124.726L112.672 134.894C112.672 134.894 93.1087 149.46 88.2446 138.946C83.4604 128.618 99.4788 127.272 99.4788 127.272C99.4788 127.272 96.0539 127.112 96.6136 124.726C97.4532 121.088 105.049 124.726 105.049 124.726Z" fill="white"/>
<path d="M93.2452 20.3532C93.2452 20.3532 95.1642 20.2866 94.8177 23.7115C94.4179 27.5761 93.3784 28.1625 92.2057 28.1092M65.5528 20.4465C64.2334 20.9262 63.3939 23.5915 64.1935 25.8037C65.5528 29.5618 68.2847 28.3891 68.2847 28.3891M92.0058 21.1661C92.0058 21.1661 92.872 23.6448 92.299 27.5495C91.8859 30.3347 90.4333 33.653 88.1145 36.8381C86.1821 39.5033 83.7034 41.8621 80.8116 41.8222C76.9869 41.7689 74.3482 38.7038 72.1627 35.5587C68.8178 30.7212 67.0187 25.0708 67.0187 25.0708M71.2298 34.1194V44.2876M88.8075 44.1276L88.5676 36.2117M37.5005 211.668C37.5005 211.668 43.4575 211.721 43.8573 208.243C44.417 203.352 45.6563 184.269 46.0561 179.192C46.3493 175.473 40.4723 174.674 40.4723 174.674M2.46521 173.981L45.7896 177.686C46.6691 177.752 47.3754 177.592 47.7619 177.046M15.3786 168.397C14.1126 168.49 12.9798 169.57 12.7533 172.395M15.1254 165.638C12.1802 165.972 10.621 167.984 10.2879 172.235M28.5451 168.397C32.3565 168.65 33.9157 170.876 33.7158 173.981M28.5585 165.638C28.5585 165.638 33.7958 166.012 35.888 169.183C37.2873 171.302 36.8075 174.274 36.8075 174.274M1.21307 192.983C1.21307 192.983 14.1036 194.217 23.0743 195.14C31.117 195.968 44.7635 197.276 44.7635 197.276C45.8429 197.156 46.6958 196.623 47.3088 195.61M17.1643 158.949C17.1643 158.949 13.7794 165.798 15.6318 168.93C16.9378 171.142 25.0269 173.661 27.0925 171.569C29.5979 169.05 27.9321 166.811 28.8783 161.441M78.9725 56.6812C75.9341 71.1804 74.8546 83.6007 76.8403 101.365M82.664 56.6812C87.7014 71.0471 87.0084 83.3874 86.5953 94.9015M84.3298 53.6161C84.3298 53.6161 83.4502 56.9211 82.011 56.9211C80.9315 56.9211 80.705 56.9211 79.9454 56.9211C77.6799 56.9211 77.5066 53.4029 77.5066 53.4029M67.032 45.7401C67.7117 73.6058 73.2022 94.3551 80.4917 109.974C71.9095 101.898 64.7798 82.8277 59.5425 67.7821L63.2739 65.0236L60.2355 64.1174L57.7701 48.4721M94.6711 46.8995C93.9915 74.7652 87.768 94.3685 80.4917 109.987M80.4917 109.987C89.074 101.911 96.2037 82.8411 101.441 67.7955L97.7095 65.0369L100.735 64.1307L102.587 49.1517M80.4917 109.987L78.9059 110.374L81.5312 148.727M48.5748 94.1686C49.4144 117.703 48.7081 140.438 46.1228 162.2C60.1022 165.265 76.2006 167.531 81.5179 148.727C83.5568 163.693 94.4046 168.011 114.821 162.2L113.342 134.894M17.3509 153.991C17.3509 153.991 15.8183 158.562 17.3509 159.029C19.9362 159.815 27.0126 161.694 29.2514 161.414C30.5708 161.254 31.1171 157.243 31.1171 157.243M70.6302 44.7673C70.6302 44.7673 40.0326 52.7232 37.7271 57.4808C32.2632 68.7816 16.6313 153.818 16.6313 153.818L31.1038 157.256L51.0802 85.1199M105.052 124.726C105.052 124.726 97.443 121.088 96.6168 124.726C96.0704 127.112 99.482 127.272 99.482 127.272C99.482 127.272 83.4635 128.618 88.2477 138.946C93.1119 149.46 112.675 134.894 112.675 134.894M114.834 90.0907L117.259 64.2106M125.895 107.255L135.45 100.392M106.905 122.834L104.679 124.22L112.942 135.227L114.501 134.015M91.9392 46.1666C91.9392 46.1666 118.819 53.1497 122.364 56.9211C125.189 59.9328 148.75 100.779 147.177 110.707C146.125 117.383 114.821 134.495 114.821 134.495L106.532 122.301L125.882 107.255L114.821 90.0907L113.728 116.704M93.2852 19.8335C93.2452 17.2481 93.4717 12.1308 93.2585 8.39934C93.0986 5.53415 92.992 3.53518 90.1135 2.14922C87.5681 0.923185 81.7178 0.0169846 77.5333 1.61616C75.3477 2.45573 73.3621 4.4547 73.3621 4.4547C73.3621 4.4547 66.7655 2.70893 64.6066 8.39934C63.727 10.7315 63.9536 13.5833 64.6066 17.3148C65.1796 20.5664 66.992 23.4716 67.7516 23.4716C71.0033 23.4716 71.3764 14.1164 71.9228 12.6238C73.1222 9.34552 77.7598 13.57 82.584 13.7033C85.2493 13.7699 88.1012 12.4639 88.8341 13.1569C89.2872 13.5833 90.8064 18.1143 91.3262 20.1133C91.7659 21.8324 93.3118 21.6459 93.2852 19.8468V19.8335ZM2.34527 174.487C2.47854 173.168 3.78453 171.822 5.47699 171.929C12.54 172.382 37.6871 173.874 44.7635 175.34C46.9757 175.793 48.2816 176.873 48.2417 178.965C48.1351 184.495 46.909 202.966 46.1228 208.523C45.643 211.895 42.9777 211.602 40.499 211.695C33.2094 211.975 8.96853 208.696 2.34527 207.817C1.65229 207.724 0.746094 207.164 0.746094 206.471C0.746094 200.914 1.77223 180.258 2.34527 174.487ZM83.157 113.905C83.9966 113.878 84.7695 114.385 84.7695 115.424C84.7695 116.37 84.1432 117.05 83.157 117.05C82.3041 117.05 81.6778 116.424 81.6645 115.424C81.6645 114.478 82.4108 113.932 83.157 113.905ZM70.9233 44.0877L68.3647 49.898L73.8818 56.428L80.8116 50.6043L87.6214 56.428L93.2585 48.8852L90.3267 42.8749L80.7983 50.6043L70.8967 44.0743L70.9233 44.0877Z" stroke="#1B1B1B" stroke-linecap="round" stroke-linejoin="round"/>
</svg>
