<svg width="143" height="167" viewBox="0 0 143 167" fill="none" xmlns="http://www.w3.org/2000/svg">
<path d="M62.804 154.925L62.1798 133.864H66.9176L67.3148 153.984C67.3148 153.984 72.1945 153.886 76.0954 154.672C81.2588 155.711 85.2164 158.239 87.5002 160.682C89.7982 163.139 80.436 159.839 77.3862 161.356C75.0457 162.521 77.2018 165.301 74.989 165.118C72.7619 164.936 67.173 161.496 64.1941 159.755C61.2152 158.014 60.8039 160.345 59.4137 159.755C57.1441 158.744 62.804 154.925 62.804 154.925Z" fill="#FCAF17"/>
<path d="M64.4783 156.652C67.4714 158.716 73.5851 162.914 74.0391 163.293H70.9893L65.5564 159.951L61.7973 159.291L59.1731 158.449L60.8327 156.666H64.4783V156.652Z" fill="#C68300"/>
<path d="M72.8915 156.596C76.2959 157.873 84.1119 159.881 84.6367 160.134L82.0125 160.457C82.0125 160.457 76.6221 159.179 71.4304 158.337C70.1112 158.112 69.2885 156.596 69.2885 156.596H72.8915Z" fill="#C68300"/>
<path d="M66.579 134.861C67.0755 135.268 66.6783 141.432 67.2031 141.684L61.9263 140.449C61.9263 140.449 62.366 137.43 62.366 136.068C62.366 134.748 62.1532 134.159 62.1532 134.159L66.579 134.861Z" fill="#C68300"/>
<path fill-rule="evenodd" clip-rule="evenodd" d="M68.011 132.755H61.0319L61.6702 154.363C61.5568 154.447 61.4149 154.546 61.2731 154.658C60.7624 155.051 60.0815 155.585 59.4716 156.16C58.89 156.708 58.2516 157.424 57.9538 158.14C57.7977 158.519 57.67 159.024 57.8545 159.572C58.0389 160.148 58.4928 160.527 58.9893 160.737C59.6701 161.032 60.2659 160.948 60.7482 160.765C60.961 160.681 61.1596 160.583 61.2873 160.499C61.3014 160.485 61.3156 160.485 61.3298 160.471C61.4717 160.4 61.5709 160.344 61.6844 160.288C61.8972 160.19 62.0816 160.148 62.3228 160.162C62.5923 160.176 63.0037 160.288 63.642 160.667C63.9682 160.85 64.3229 161.06 64.7059 161.285C66.0676 162.085 67.7415 163.082 69.3586 163.953C70.3941 164.5 71.4296 165.034 72.3658 165.427C73.2595 165.806 74.1673 166.129 74.9191 166.185C75.2879 166.213 75.6851 166.199 76.0539 166.045C76.4653 165.89 76.7632 165.624 76.9476 165.287C77.132 164.978 77.1887 164.669 77.2171 164.43C77.2455 164.205 77.2455 163.981 77.2597 163.798C77.2597 163.784 77.2597 163.77 77.2597 163.77C77.2738 163.349 77.288 163.068 77.3873 162.843C77.4582 162.675 77.5717 162.492 77.898 162.338C78.3803 162.099 79.2739 161.987 80.5506 162.057C81.6996 162.113 82.9621 162.282 84.1536 162.436C84.2104 162.45 84.2671 162.45 84.3238 162.464C84.9196 162.549 85.5154 162.619 86.026 162.675C86.5225 162.731 87.0332 162.745 87.4446 162.703C87.6431 162.689 87.9127 162.633 88.168 162.521C88.4375 162.394 88.7921 162.127 88.934 161.65C89.0617 161.201 88.9198 160.808 88.8063 160.569C88.6787 160.33 88.5084 160.12 88.3382 159.923C85.8842 157.297 81.728 154.672 76.3376 153.591C74.295 153.184 72.0254 153.001 70.2948 152.931C69.5572 152.903 68.9188 152.889 68.4082 152.875L68.011 132.755ZM67.3443 155.065C67.3585 155.065 67.3727 155.065 67.401 155.065C67.4294 155.065 67.4861 155.065 67.5571 155.065C67.6989 155.065 67.8975 155.065 68.1528 155.065C68.6635 155.065 69.3728 155.079 70.2097 155.121C71.8977 155.191 74.0255 155.36 75.8979 155.739C80.1109 156.581 83.4444 158.449 85.6572 160.4C85.3452 160.358 84.9905 160.316 84.6359 160.26C84.565 160.246 84.5082 160.246 84.4373 160.232C83.2741 160.077 81.9124 159.895 80.6641 159.839C79.3874 159.783 77.9689 159.839 76.9192 160.358C76.0823 160.78 75.5858 161.383 75.3305 162.057C75.1035 162.647 75.0752 163.265 75.061 163.658C75.061 163.672 75.061 163.686 75.061 163.686C75.0468 163.826 75.0468 163.925 75.0468 164.009C74.678 163.967 74.068 163.784 73.2453 163.433C72.4084 163.082 71.4438 162.591 70.4224 162.043C68.8479 161.201 67.2308 160.232 65.869 159.446C65.4718 159.221 65.1172 158.996 64.7768 158.8C63.9257 158.308 63.1881 158.056 62.493 157.999C61.7837 157.943 61.2163 158.112 60.7766 158.322C60.6064 158.393 60.4503 158.477 60.3227 158.547C60.5071 158.322 60.734 158.056 61.0461 157.761C61.5568 157.269 62.1667 156.778 62.6348 156.413C62.876 156.23 63.0746 156.09 63.2164 155.992C63.2874 155.936 63.3441 155.893 63.3725 155.879C63.3866 155.865 63.4008 155.851 63.415 155.851L63.4292 155.837L63.9257 155.5L63.3157 134.959H65.8265L66.2378 155.107L67.3443 155.065Z" fill="#1B1B1B"/>
<path d="M77.899 155.023L78.7075 132.769H83.3177V152.636C83.3177 152.636 87.5449 152.13 90.2117 152.425C95.9424 153.057 100.425 155.612 101.787 157.578C103.758 160.456 96.7935 156.427 93.8288 158.294C92.5664 159.095 92.8926 159.867 92.8926 161.06C92.8926 162.071 87.5732 159.193 84.8071 158.042C82.0836 156.918 77.899 155.023 77.899 155.023Z" fill="#FCAF17"/>
<path d="M87.7153 154.419C92.2687 154.742 99.4322 156.399 99.957 156.638L97.73 157.199C97.73 157.199 97.3044 156.932 92.0701 156.455C90.2261 156.287 87.6018 156.638 86.2542 155.234L87.7153 154.419Z" fill="#C68300"/>
<path d="M78.4656 153.956C84.239 155.739 90.6365 158.365 93.2891 158.365L91.9557 160.541C89.3598 160.555 78.0685 155.318 78.4656 153.956Z" fill="#C68300"/>
<path d="M82.7778 134.79C83.2743 135.197 82.8345 142.555 83.3594 142.821L78.0825 141.586C78.0825 141.586 78.5223 138.567 78.5223 137.205C78.5223 135.885 78.3095 135.296 78.3095 135.296L82.7778 134.79Z" fill="#C68300"/>
<path fill-rule="evenodd" clip-rule="evenodd" d="M77.6279 131.674L76.7626 155.725L77.4435 156.034L77.9116 155.037C77.4435 156.034 77.4435 156.034 77.4435 156.034L77.5002 156.062C77.5144 156.076 77.5428 156.076 77.5712 156.09C77.5853 156.104 77.6137 156.104 77.6421 156.118C77.7556 156.174 77.94 156.259 78.1528 156.357C78.5783 156.553 79.2024 156.82 79.8975 157.143C81.2735 157.761 83.0182 158.519 84.3942 159.081C85.1744 159.404 86.0964 159.839 87.061 160.288C87.8412 160.653 88.6497 161.032 89.4441 161.383C90.281 161.748 91.1037 162.085 91.7279 162.254C92.0116 162.324 92.4088 162.408 92.7776 162.38C92.962 162.366 93.2882 162.296 93.5719 162.057C93.8982 161.776 94.0259 161.411 94.0259 161.088C94.0259 160.836 94.0117 160.597 93.9975 160.386C93.9975 160.316 93.9833 160.26 93.9833 160.204C93.9691 159.965 93.9691 159.825 93.9975 159.727C94.0117 159.642 94.0259 159.6 94.0684 159.544C94.111 159.488 94.2103 159.376 94.4372 159.235C94.877 158.954 95.572 158.842 96.5366 158.912C97.4728 158.982 98.4942 159.193 99.4304 159.404L99.4871 159.418C99.9127 159.516 100.367 159.614 100.735 159.684C101.104 159.755 101.544 159.811 101.955 159.755C102.154 159.727 102.466 159.656 102.75 159.432C103.076 159.165 103.246 158.8 103.26 158.421C103.275 158.098 103.175 157.817 103.09 157.62C102.991 157.41 102.863 157.199 102.721 156.989C101.884 155.767 100.225 154.532 98.1395 153.535C96.026 152.524 93.345 151.681 90.3519 151.358C88.9192 151.204 87.1177 151.26 85.7134 151.344C85.2453 151.372 84.8197 151.415 84.4509 151.443V131.702H77.6279V131.674ZM83.4438 153.731H83.4863C83.5147 153.731 83.5573 153.717 83.6282 153.717C83.7417 153.703 83.9119 153.689 84.1247 153.661C84.5502 153.619 85.146 153.563 85.8269 153.521C87.2028 153.422 88.8483 153.38 90.0824 153.521C92.8201 153.83 95.2458 154.588 97.1466 155.5C98.3523 156.076 99.3027 156.708 99.9694 157.269C99.9552 157.269 99.941 157.255 99.9269 157.255L99.8985 157.241C98.9765 157.045 97.8133 156.778 96.6785 156.708C95.572 156.638 94.2812 156.722 93.2315 157.368C92.3804 157.901 91.9265 158.547 91.7846 159.347C91.7562 159.544 91.7421 159.741 91.7421 159.923C91.3449 159.783 90.8768 159.586 90.3377 159.347C89.671 159.053 88.8909 158.688 88.1107 158.323C87.061 157.831 86.0255 157.354 85.2311 157.017C83.8835 156.469 82.1671 155.711 80.7912 155.107C80.1103 154.798 79.5003 154.532 79.0606 154.335C79.0464 154.335 79.0464 154.321 79.0464 154.321L79.784 133.864H82.2097V153.872L83.4438 153.731Z" fill="#1B1B1B"/>
<path d="M116.083 70.6115L118.267 76.677L120.608 75.4555L122.792 72.6193L125.204 67.7753L125.785 62.7207V54.4087L125.204 49.0593L123.303 43.78L119.43 44.2855L121.26 49.0593C121.7 50.5335 122.622 53.5382 122.792 53.8331C122.962 54.1279 121.842 60.4602 121.26 63.5912L116.083 70.6115Z" fill="#4A386A"/>
<path d="M118.227 43.5831L122.539 49.4661C121.929 50.3366 120.582 52.1198 120.128 52.3725C119.674 52.6252 117.971 54.9419 117.191 56.0651L113.461 58.6486L117.191 63.7594H120.128V65.374L116.142 70.8779L118.227 76.7609L117.177 77.5331L102.481 77.9824L92.9348 75.7219L87.1898 69.9653L84.3103 62.6642V54.0714L85.8139 49.4801L90.3957 43.5831L98.3677 41.5051L108.567 42.2212L118.227 43.5831Z" fill="#FDFDFD"/>
<path d="M107.274 45.2828C112.281 46.0269 119.175 49.9723 119.175 49.9723L122.055 49.1018L119.175 43.9068L107.926 42.601C107.926 42.601 97.6138 39.5964 92.3511 42.601C86.975 45.6619 85.2444 50.197 84.5493 56.2906C83.8259 62.6649 85.1167 67.2843 89.5708 71.9317C93.3299 75.849 96.8336 76.2983 102.167 77.4075C108.295 78.6852 118.267 76.902 118.267 76.902L116.523 71.4262L121.544 64.2937L116.991 63.1985C116.991 63.1985 113.388 71.5807 107.515 72.9988C104.04 73.8412 98.7911 72.9286 95.5569 71.4122C90.8617 69.2078 88.436 64.42 88.0672 60.3061C87.6133 55.1392 88.0814 50.6463 91.9681 47.1782C96.2946 43.3452 101.529 44.4263 107.274 45.2828Z" fill="#D0D9E4"/>
<path d="M84.7488 57.2731C84.7488 62.5944 87.0184 76.5648 102.835 77.3089C118.665 78.0671 119.616 75.961 119.616 75.961C119.616 75.961 143.106 132.123 74.3512 134.454C43.456 135.507 8.44724 104.744 1.45399 92.8237C1.45399 92.8237 13.0858 94.5647 25.5545 95.4071C38.0231 96.2496 60.1519 95.8564 61.7974 87.741C62.9605 81.9844 63.0456 77.6459 63.1308 71.9875V71.8471C63.1875 69.1654 63.23 66.1748 63.4003 62.5804C63.4995 60.4603 63.6414 58.1155 63.8542 55.518C63.8826 55.0827 63.9393 54.6334 63.996 54.1982C64.5918 49.5086 66.2798 44.8893 68.3934 40.8597C69.968 37.869 71.7553 35.1873 73.5142 33.0532C75.2448 30.9471 76.9186 29.3605 78.3088 28.504C78.3088 28.504 75.9824 23.7162 75.0746 20.2622C74.876 19.476 74.7058 18.6195 74.6065 17.749C74.1667 14.1265 74.6348 10.0548 76.9612 9.11405C79.6706 8.01889 83.6566 10.7287 85.8269 13.9299C86.0964 14.3371 86.3376 14.7303 86.5503 15.1515C88.3093 18.6054 89.4725 24.7271 89.4725 24.7271C89.4725 24.7271 91.2172 24.9939 93.6571 25.4011C95.6288 25.724 98.0402 26.1452 100.338 26.5664C101.587 26.8051 102.792 27.0298 103.899 27.2685C111.445 28.841 118.169 30.568 121.502 32.2669C124.949 34.036 128.751 36.9143 127.914 41.3651C127.545 43.3168 125.843 43.752 123.162 43.8644C115.984 44.4821 100.579 40.0734 94.0117 42.1093C85.1176 44.8612 84.7488 54.0999 84.7488 57.2731Z" fill="#FDFDFD"/>
<path d="M63.9972 54.212C63.9972 54.212 55.7556 56.9359 52.5782 54.4507C50.5213 52.8501 50.0107 50.2245 51.3866 47.7955C52.7626 45.3525 54.1243 46.9671 56.2095 45.7877C57.6139 45.0015 58.8338 44.4258 59.6707 43.6957C60.4793 42.9937 60.919 42.1372 62.3942 41.6317C64.2667 41.0139 68.3945 40.8735 68.3945 40.8735C66.281 44.9032 64.5929 49.5225 63.9972 54.212Z" fill="#B5D8E1"/>
<path d="M63.8699 55.5322C63.6571 58.1297 63.5152 60.4745 63.416 62.5946C63.416 62.5946 55.7134 65.866 51.9544 64.7568C47.8691 63.5493 47.2166 60.1515 49.1316 58.0876C50.5643 56.5572 53.5147 56.8661 55.3872 56.4589C57.2029 56.0658 64.0117 54.2124 64.0117 54.2124C63.955 54.6617 63.8982 55.097 63.8699 55.5322Z" fill="#FD493D"/>
<path d="M63.1328 72.0018C61.5157 73.1812 56.4517 73.9674 54.5367 74.2342C51.6996 74.6273 48.1959 69.8395 50.0826 67.0033C51.3308 65.1079 55.331 65.164 58.6787 63.9706C60.5086 63.3247 63.4023 62.5806 63.4023 62.5806C63.2321 66.1609 63.1754 69.1515 63.1328 71.8473V72.0018Z" fill="#FCAF17"/>
<path d="M68.3948 40.8734C68.3948 40.8734 64.2528 41.0138 62.3945 41.6316C60.9193 42.123 60.4795 42.9795 59.671 43.6955C59.671 43.6955 56.1531 42.6285 54.5927 40.031C52.3231 36.2822 52.9756 29.641 56.2098 29.5989C58.3518 29.5708 58.5645 30.8204 60.6498 31.3258C62.8059 31.8594 64.3379 31.0872 66.2103 30.9889C66.7777 30.9608 67.3735 30.9889 68.026 31.1293C69.8984 31.5365 73.5156 33.0669 73.5156 33.0669C71.7567 35.201 69.9552 37.8828 68.3948 40.8734Z" fill="#FBB3C1"/>
<path d="M75.0744 20.2764C75.9822 23.7304 78.3086 28.5182 78.3086 28.5182C76.9326 29.3887 75.2446 30.9753 73.514 33.0673C73.514 33.0673 69.8968 31.5369 68.0244 31.1297C67.3719 30.9893 66.7761 30.9612 66.2087 30.9893C66.2087 30.9893 59.3431 25.9347 63.8682 19.9815C67.0031 15.8536 74.5921 17.7491 74.5921 17.7491C74.7056 18.6336 74.8616 19.4901 75.0744 20.2764Z" fill="#FCAF17"/>
<path d="M89.4703 24.7268C89.4703 24.7268 88.3072 18.6191 86.5482 15.1511C86.3354 14.7439 86.0943 14.3368 85.8248 13.9296C85.8248 13.9296 90.2931 11.4865 93.045 16.5411C93.1301 16.6956 93.3996 17.2432 93.4705 17.3976C95.7969 22.2135 93.6691 25.4007 93.6691 25.4007C91.2151 24.9935 89.4703 24.7268 89.4703 24.7268Z" fill="#8F00FF"/>
<path d="M93.6563 25.4009C93.6563 25.4009 95.7982 22.2137 93.4577 17.3978C93.4577 17.3978 96.394 16.2465 98.3516 17.117C100.862 18.2402 101.486 20.262 100.806 22.8876C100.38 24.5444 100.337 26.5662 100.337 26.5662C98.0395 26.145 95.628 25.7238 93.6563 25.4009Z" fill="#FBB3C1"/>
<path d="M58.5086 52.317C61.1896 51.9238 63.0762 50.3232 65.0195 49.1719L64.2677 53.8333C62.7074 54.4652 59.5583 55.7709 59.4022 55.799C59.2462 55.8271 55.3737 55.3497 53.4587 55.097L51.5295 50.9971C53.9268 51.5447 55.7283 52.7241 58.5086 52.317Z" fill="#84BECD"/>
<path d="M63.5843 38.037C66.2653 37.6438 69.5137 35.8607 71.457 34.6953L68.2512 40.6625C66.6908 41.2944 63.8113 41.505 61.3147 42.8809C58.8039 44.2429 58.3216 41.7577 56.4067 41.519L54.4775 37.0822C56.8748 37.6157 60.7898 38.4301 63.5843 38.037Z" fill="#EC7D92"/>
<path d="M57.4002 69.6991C59.5989 68.8146 60.4642 68.3793 62.1522 65.9363L62.8047 72.1703C61.2443 72.8021 58.9747 73.8411 58.0101 74.0938C56.8186 74.4027 54.4497 74.3325 52.5205 74.0938L50.0381 69.994C52.4638 70.5275 55.1022 70.6258 57.4002 69.6991Z" fill="#C68300"/>
<path d="M56.5213 61.6812C59.2023 61.2881 61.3301 59.505 63.2734 58.3396L62.8053 62.9028C61.245 63.5346 58.1952 64.9106 57.0462 65.1352C55.6419 65.416 52.6914 65.1352 50.5069 64.1805L48.8898 60.7265C51.3012 61.2881 53.741 62.0884 56.5213 61.6812Z" fill="#D82D21"/>
<path d="M71.1889 28.1107C73.8698 27.7176 74.7493 26.8471 76.7069 25.6958L77.3594 29.1919C75.799 29.8237 74.3096 32.1544 73.1464 32.3791C71.7421 32.6599 68.2809 31.1997 66.0964 30.2449L63.4012 25.2043C64.6921 26.7909 68.4086 28.5179 71.1889 28.1107Z" fill="#C68300"/>
<path d="M91.6868 22.579C93.7437 22.579 94.2969 20.501 94.2969 20.501V24.5446C92.7365 25.1765 92.8784 25.2326 91.6868 25.2326C90.6797 25.2326 90.2683 24.8395 89.1477 24.4323L88.7647 21.2873C88.7647 21.2873 89.7435 22.579 91.6868 22.579Z" fill="#6C07BB"/>
<path d="M97.701 23.8565C99.7579 23.8565 100.836 21.9189 100.836 21.9189L100.311 25.8222C98.7507 26.454 98.8926 26.5102 97.701 26.5102C96.6939 26.5102 96.2825 26.1171 95.1619 25.7099L94.7789 22.5648C94.7789 22.5648 95.7577 23.8565 97.701 23.8565Z" fill="#EC7D92"/>
<path d="M45.4145 114.572C78.9764 122.407 84.0547 104.042 84.0547 104.042L31.7968 95.1123H13.0725C13.0725 95.1123 32.5345 111.568 45.4145 114.572Z" fill="#CADAED"/>
<path d="M83.4297 79.6818C83.4297 79.6818 75.6563 69.699 73.1597 65.7817C69.7978 60.5024 63.1592 56.4026 63.1592 56.4026V71.9455C63.1592 71.9455 69.8687 72.1982 73.8689 73.6865C77.9826 75.2309 83.4297 79.6818 83.4297 79.6818Z" fill="#CADAED"/>
<path d="M64.1798 133.878C127.105 139.677 123.36 96.6428 123.36 96.6428C123.36 96.6428 119.601 107.229 105.927 117.128C93.3727 126.226 58.2788 136.125 4.50314 97.9486C4.48895 97.9486 34.6464 131.154 64.1798 133.878Z" fill="#B4C5DB"/>
<path fill-rule="evenodd" clip-rule="evenodd" d="M81.8555 9.08617C80.1391 8.07525 78.0681 7.48554 76.2382 8.21565C74.5502 8.8896 73.7416 10.6166 73.3586 12.3155C73.0749 13.5932 72.9898 15.0534 73.0749 16.4855C72.3515 16.3592 71.4153 16.2468 70.4081 16.2468C68.1243 16.2328 65.1313 16.7523 63.2447 19.2375C61.968 20.9223 61.5141 22.6353 61.6276 24.2359C61.741 25.8084 62.3936 27.2125 63.1454 28.3498C63.6844 29.1501 64.2944 29.8381 64.8476 30.3997C64.7483 30.4137 64.649 30.4278 64.5497 30.4558C63.7411 30.5822 62.9751 30.6243 62.0957 30.3997C61.3722 30.2172 60.8616 29.9363 60.2374 29.5994C60.1239 29.5292 59.9963 29.459 59.8686 29.3888C59.0742 28.9535 58.1238 28.5183 56.7763 28.5323C55.4996 28.5463 54.5492 29.2764 53.9392 30.2031C53.3435 31.1158 53.003 32.2811 52.8612 33.5026C52.5775 35.9176 53.0172 38.8521 54.3081 40.9862C55.2726 42.5588 56.8046 43.4855 57.9962 43.9909C58.0671 44.019 58.1238 44.0471 58.1948 44.0752C57.8118 44.3841 57.3862 44.6649 56.8472 44.9737C56.5209 45.1563 56.1663 45.2405 55.7124 45.2546C55.3861 45.2686 55.1166 45.2546 54.7904 45.2405C54.6059 45.2265 54.3932 45.2265 54.152 45.2124C53.5988 45.1984 52.9037 45.2265 52.2229 45.4932C51.4994 45.7741 50.9036 46.2936 50.4497 47.1079C49.5702 48.6524 49.5986 50.3513 50.1093 51.8396C50.6058 53.3138 51.5987 54.6477 52.7903 55.5743C52.9037 55.6726 53.0314 55.7569 53.1591 55.8411C52.9747 55.8552 52.7903 55.8692 52.6058 55.8973C51.8682 55.9815 51.1022 56.1219 50.393 56.3325C49.6979 56.5572 48.9745 56.8942 48.4354 57.4698C47.0878 58.902 47.0737 60.7974 47.9531 62.398C48.5489 63.4792 49.5419 64.4339 50.8469 65.1359C50.1944 65.4448 49.5702 65.852 49.1447 66.4838C48.4638 67.5228 48.4071 68.6882 48.6908 69.7553C48.9603 70.8083 49.556 71.8052 50.2795 72.6476C51.0029 73.4901 51.8966 74.2483 52.8328 74.7537C53.7548 75.2592 54.8187 75.5961 55.8542 75.4557C56.8614 75.3153 58.2941 75.0486 59.6842 74.6554C60.3509 74.4729 61.0318 74.2483 61.6843 73.9815C61.585 78.7553 61.4006 82.6585 60.3935 87.671C60.0814 89.1874 58.7905 90.5212 56.4216 91.6304C54.0669 92.7256 50.8895 93.4978 47.2864 93.9892C40.1088 94.9861 31.541 94.8738 25.3279 94.4526C19.1149 94.0313 13.1146 93.3855 8.66045 92.8519C6.43339 92.5852 4.60351 92.3465 3.31266 92.164C2.67433 92.0797 2.17786 92.0095 1.82323 91.9533C1.65301 91.9253 1.52535 91.9112 1.42606 91.8972C1.3835 91.8832 1.35512 91.8831 1.32675 91.8831H1.29839H1.2842C1.2842 91.8831 1.28419 91.8831 1.11398 92.9783L1.2842 91.8831C0.85865 91.8129 0.43309 91.9955 0.19194 92.3465C-0.0492096 92.6975 -0.063385 93.1468 0.149399 93.5259C3.76659 99.6897 14.4196 110.473 27.9664 119.557C41.5273 128.655 58.2373 136.237 74.0395 135.69C91.3737 135.1 103.048 131.112 110.751 125.342C118.481 119.557 122.113 112.045 123.503 104.674C124.907 97.3168 124.085 90.0719 122.95 84.6804C122.368 81.9846 121.716 79.7381 121.191 78.1796C120.95 77.4635 120.751 76.9019 120.595 76.4807C124.694 73.1531 126.865 66.9331 127.418 60.7834C127.929 55.0829 127.078 49.0595 124.751 44.9457C125.39 44.8474 125.985 44.6929 126.51 44.4543C127.645 43.9488 128.397 43.0502 128.652 41.7164C129.149 39.0908 128.241 36.9426 126.808 35.2577C125.39 33.6009 123.432 32.3654 121.659 31.4527C118.169 29.6696 111.29 27.9145 103.771 26.342C103.105 26.2016 102.41 26.0612 101.672 25.9208C102.027 25.2047 102.438 24.264 102.679 23.3654C103.091 21.7928 102.892 20.2905 102.183 18.9988C101.473 17.7211 100.31 16.7383 98.8776 16.0924C97.5584 15.5167 96.1824 15.6852 95.2462 15.9379C95.0051 15.9941 94.7923 16.0784 94.6079 16.1345C93.005 13.5511 90.6644 12.7227 88.7353 12.5963C87.7281 12.5261 86.8487 12.6384 86.1961 12.7648C86.111 12.7788 86.0259 12.7929 85.9408 12.8209C84.8485 11.3046 83.3875 9.98476 81.8555 9.08617ZM87.2458 14.7866C87.643 14.7305 88.1111 14.7164 88.6076 14.7445C90.0687 14.8428 91.7851 15.4465 92.9341 17.5807C93.005 17.7211 93.0759 17.8615 93.1468 17.9879C94.1682 20.108 93.9838 21.8069 93.5724 22.9582C93.3738 23.5479 93.1043 24.0112 92.8915 24.3201C91.9553 24.1657 91.1325 24.0393 90.5226 23.927C90.3666 23.8989 90.2247 23.8708 90.097 23.8568C90.0829 23.7726 90.0687 23.6743 90.0403 23.576C89.8984 22.9442 89.6999 22.0456 89.4445 21.0627C88.9339 19.1111 88.182 16.6259 87.2458 14.7866ZM88.0544 24.9379V27.1704C88.0544 27.7741 88.5509 28.2655 89.1608 28.2655C89.7708 28.2655 90.2673 27.7741 90.2673 27.1704V26.1173C90.9907 26.2296 91.9978 26.3981 93.161 26.5807C95.1186 26.9036 97.53 27.3248 99.8138 27.746C101.048 27.9847 102.254 28.2094 103.346 28.434C110.935 30.0206 117.488 31.7055 120.68 33.3482C122.354 34.2047 124.014 35.2858 125.148 36.6196C126.255 37.9254 126.851 39.4277 126.51 41.2671C126.397 41.8848 126.113 42.1937 125.631 42.4043C125.035 42.6711 124.141 42.8115 122.808 42.8677C122.794 42.8677 122.779 42.8677 122.751 42.8677C121.077 43.0081 118.864 42.8536 116.311 42.5728C114.524 42.3763 112.623 42.0954 110.68 41.8146C109.857 41.7023 109.02 41.5759 108.197 41.4636C105.403 41.0705 102.608 40.7335 100.069 40.6212C97.5584 40.5089 95.2037 40.5931 93.3738 41.1688C88.5367 42.6571 85.9975 45.9566 84.7067 49.2421C83.43 52.4854 83.3307 55.7569 83.3307 57.3715C83.3307 60.1375 83.9123 65.1781 86.5933 69.657C89.3169 74.2061 94.1682 78.1094 102.466 78.5025C110.41 78.8816 114.708 78.5446 117.063 78.0954C117.758 77.9549 118.297 77.8145 118.723 77.6601C118.836 77.983 118.978 78.3762 119.12 78.8255C119.616 80.3418 120.255 82.5041 120.808 85.1016C121.914 90.3247 122.68 97.2607 121.361 104.225C120.042 111.175 116.652 118.139 109.445 123.545C102.225 128.964 91.0333 132.867 73.997 133.443C58.904 133.949 42.6479 126.676 29.243 117.69C17.2424 109.644 7.71004 100.35 3.39777 94.3543C4.64606 94.5228 6.36245 94.7474 8.36255 94.9861C12.845 95.5337 18.8879 96.1796 25.1435 96.6008C31.4133 97.022 40.1513 97.1484 47.556 96.1234C51.2441 95.6179 54.6911 94.8176 57.3295 93.5821C59.9537 92.3605 62.0247 90.6055 62.5496 88.0641C63.7269 82.1952 63.8121 77.7724 63.9114 72.1141V71.9737C63.9681 69.2919 64.0107 66.3013 64.1809 62.7491C64.2802 60.6289 64.422 58.3122 64.6348 55.7148C64.6632 55.2935 64.7057 54.8723 64.7767 54.4371C65.3582 49.902 66.9753 45.409 69.0464 41.4636C70.5784 38.5291 72.3373 35.9176 74.0395 33.8537C75.7275 31.7897 77.3305 30.3154 78.5646 29.5432C79.0327 29.2343 79.2171 28.6306 78.9759 28.1392L78.9617 28.1251L78.9476 28.083C78.9334 28.069 78.9334 28.0409 78.9192 28.0268C78.905 27.9988 78.8908 27.9707 78.8766 27.9286C78.8057 27.7881 78.7206 27.6056 78.6071 27.3529C78.3802 26.8615 78.0681 26.1595 77.7276 25.3591C77.0468 23.7445 76.2524 21.7367 75.8127 20.0939C75.6282 19.3638 75.458 18.5635 75.3587 17.7211C75.146 15.9801 75.1601 14.1969 75.4864 12.7648C75.8127 11.2765 76.3942 10.4902 77.0326 10.2375C77.912 9.88648 79.1887 10.083 80.6781 10.9536C82.125 11.796 83.5435 13.1579 84.5507 14.6462C84.7918 15.0113 85.0188 15.3904 85.2032 15.7414C86.0259 17.356 86.7352 19.6587 87.2458 21.5963C87.5012 22.5651 87.6998 23.4215 87.8274 24.0253C87.8983 24.3342 87.9409 24.5729 87.9835 24.7414C88.0402 24.8537 88.0544 24.8958 88.0544 24.9379ZM76.607 28.2655C75.4722 29.108 74.2381 30.3014 72.9898 31.7335C72.8338 31.6353 72.6352 31.5229 72.4508 31.4106C71.6564 30.9613 70.5358 30.4137 69.4294 30.175C68.8336 30.0346 68.252 29.9925 67.7271 29.9925C67.5427 29.8521 67.2732 29.6415 66.9753 29.3747C66.3512 28.8271 65.5994 28.0549 64.9753 27.1142C64.3511 26.1875 63.8972 25.1345 63.8262 24.0534C63.7553 23.0003 64.0248 21.8069 65.0036 20.5292C66.2519 18.8865 68.3513 18.4091 70.3798 18.4091C71.3727 18.4231 72.2806 18.5495 72.9473 18.6758C73.0749 18.7039 73.2026 18.732 73.3161 18.746C73.4154 19.406 73.5572 20.0518 73.7133 20.6556C74.1814 22.4668 75.0183 24.5869 75.7275 26.2156C76.0396 27.044 76.3659 27.746 76.607 28.2655ZM71.5713 33.4605C70.1244 35.3279 68.6917 37.5323 67.3867 39.9472C67.1172 39.9753 66.7626 40.0034 66.3796 40.0596C65.4575 40.1719 64.2376 40.3825 63.2021 40.7195C61.812 41.1828 60.8899 41.7725 60.1239 42.4043H60.1098C59.7835 42.3201 59.3438 42.1797 58.8615 41.9691C57.8543 41.5479 56.8046 40.8599 56.1947 39.849C55.2159 38.2203 54.8045 35.7912 55.0457 33.7554C55.1592 32.7445 55.4429 31.9301 55.7833 31.4106C56.1096 30.9051 56.45 30.7367 56.7904 30.7367C57.5848 30.7226 58.1238 30.9613 58.7905 31.3123C58.8898 31.3685 58.9891 31.4246 59.1026 31.4808C59.7268 31.8318 60.5211 32.2811 61.5566 32.5338C62.8333 32.8427 63.9114 32.7725 64.8759 32.6181C65.2306 32.5619 65.5426 32.5058 65.8405 32.4496C66.3938 32.3513 66.876 32.253 67.4293 32.225C67.9116 32.1969 68.408 32.2249 68.9471 32.3373C69.7131 32.5058 70.6067 32.9129 71.3443 33.3342C71.4295 33.3763 71.5146 33.4184 71.5713 33.4605ZM66.2093 42.292C64.5781 45.76 63.273 49.5931 62.6914 53.5104C62.6205 53.5385 62.5496 53.5666 62.4787 53.5806C62.3084 53.6368 62.1098 53.707 61.9113 53.7772C61.2729 53.9737 60.4502 54.1843 59.5849 54.3528C58.5636 54.5494 57.4855 54.6477 56.5067 54.5775C55.528 54.5073 54.7194 54.2545 54.1662 53.8193C53.3009 53.1453 52.5775 52.1625 52.2229 51.1095C51.8682 50.0705 51.8966 49.0315 52.4072 48.1469C52.6342 47.7397 52.8612 47.5712 53.074 47.501C53.3151 47.4028 53.6272 47.3606 54.1378 47.3887C54.2655 47.3887 54.4074 47.4028 54.5634 47.4028C54.9606 47.4168 55.4145 47.4449 55.84 47.4168C56.4926 47.3887 57.2302 47.2624 57.9536 46.8552C59.2303 46.1391 60.0672 45.3809 60.7906 44.7631C60.9325 44.6368 61.0602 44.5245 61.1878 44.4121C61.9396 43.7663 62.6489 43.2327 63.9539 42.7975C64.6064 42.5588 65.4292 42.4043 66.2093 42.292ZM62.4219 55.9254C62.2375 58.1297 62.1099 60.1516 62.0247 62.0049C61.9254 62.047 61.8261 62.1032 61.6985 62.1594C61.1453 62.4121 60.3509 62.7491 59.4714 63.058C59.4431 63.072 59.4289 63.072 59.4005 63.086C58.2515 63.4792 56.9039 63.7179 55.4996 63.9706C55.4429 63.9846 55.4003 63.9846 55.3578 63.9987C54.6343 64.0408 53.9818 63.9846 53.4286 63.8302C51.5987 63.2966 50.4213 62.2998 49.8965 61.345C49.3858 60.4183 49.4851 59.5759 50.0525 58.9722C50.2369 58.7896 50.549 58.5931 51.0597 58.4246C51.5703 58.2701 52.1803 58.1578 52.847 58.0736C53.386 58.0034 53.9393 57.9612 54.4783 57.9191C54.6201 57.9051 54.7478 57.9051 54.8755 57.891C55.528 57.8349 56.1947 57.7787 56.7479 57.6664C57.7267 57.4558 59.5707 56.8801 61.1169 56.3606C61.6134 56.2062 62.0389 56.0658 62.4219 55.9254ZM61.9113 64.476C61.812 67.1016 61.7694 69.4043 61.7269 71.5103C61.0743 71.8754 60.1381 72.2264 59.0742 72.5213C57.7834 72.8863 56.4642 73.139 55.5422 73.2654C55.1734 73.3216 54.5918 73.1952 53.8967 72.8161C53.2158 72.4511 52.5349 71.8754 51.9675 71.2155C51.4001 70.5556 51.0029 69.8395 50.8327 69.1937C50.6767 68.5618 50.7334 68.0704 51.0029 67.6773C51.1306 67.4948 51.4285 67.2561 52.0526 67.0033C52.6626 66.7646 53.457 66.5821 54.3648 66.3996C54.762 66.3294 55.1875 66.2451 55.6273 66.1749C55.8826 66.1609 56.1379 66.1188 56.3933 66.0907C57.599 65.9363 58.8047 65.5993 59.8544 65.2483C59.9537 65.2202 60.0388 65.1921 60.1381 65.15C60.1665 65.1359 60.1807 65.1359 60.209 65.1219C60.8474 64.9113 61.429 64.6866 61.9113 64.476ZM118.453 75.3996C118.439 75.4136 118.425 75.4277 118.382 75.4417C118.184 75.554 117.701 75.7646 116.652 75.9612C114.566 76.3684 110.481 76.7053 102.594 76.3262C95.076 75.9612 90.8914 72.5072 88.5225 68.5478C86.111 64.5322 85.572 59.9129 85.572 57.3715C85.572 55.813 85.6713 52.8926 86.7919 50.0283C87.8983 47.2202 89.9977 44.5104 94.0547 43.2608C95.5016 42.8115 97.53 42.6992 99.984 42.8115C102.41 42.9238 105.133 43.2608 107.914 43.6399C108.722 43.7522 109.545 43.8645 110.353 43.9909C112.311 44.2717 114.268 44.5385 116.084 44.7491C118.368 45.0159 120.538 45.1703 122.34 45.1001C124.751 48.5962 125.815 54.5775 125.276 60.5447C124.723 66.7927 122.439 72.5493 118.694 75.1609C118.595 75.2451 118.51 75.3153 118.453 75.3996ZM95.232 24.7133C95.3881 24.4044 95.5441 24.0674 95.6718 23.6743C96.1683 22.2562 96.381 20.3467 95.5867 18.1002C95.6718 18.0721 95.7569 18.044 95.8562 18.03C96.5796 17.8334 97.3598 17.7913 97.9981 18.0721C99.062 18.5495 99.828 19.2375 100.268 20.0237C100.693 20.796 100.835 21.7226 100.566 22.7897C100.381 23.5058 100.027 24.3342 99.6862 25.0081C99.601 25.1766 99.5301 25.3311 99.445 25.4574C98.0265 25.1906 96.5796 24.9379 95.232 24.7133Z" fill="#1B1B1B"/>
<path d="M116.682 55.0964C114.398 57.7079 110.525 58.9294 110.525 58.9294L112.852 58.5082L118.753 57.3288L130.299 59.8L135.406 62.5238L141.406 64.4614L140.725 58.4942C139.747 57.1323 137.747 54.3242 137.548 53.9731C137.364 53.6081 132.924 51.853 130.711 51.0246L122.866 49.8171L119.987 50.1682C120.001 50.1682 118.355 53.1869 116.682 55.0964Z" fill="#FCAF17"/>
<path d="M116.809 63.6194C115.391 60.9237 114.312 59.9408 110.894 58.7193L116.497 57.0344L130.413 59.5617L136.016 63.1842L130.413 63.6335H116.809V63.6194Z" fill="#FCAF17"/>
<path d="M118.339 77.407C118.453 77.407 118.58 77.393 118.694 77.3509C119.275 77.1543 119.587 76.5365 119.389 75.9609L117.602 70.6816L122.396 64.574H138.383L141.376 66.0342C141.702 66.2027 142.099 66.1887 142.425 66.0061C142.752 65.8236 142.95 65.4866 142.979 65.1216C143.007 64.7986 143.461 57.0342 138.227 53.2152C133.077 49.4804 125.361 48.624 123.148 48.4555L120.212 43.6817C119.885 43.1622 119.204 42.9937 118.68 43.3166C118.155 43.6396 117.985 44.3135 118.311 44.833L120.666 48.6661L119.729 48.7924C119.119 48.8767 118.694 49.4383 118.793 50.042C118.878 50.6458 119.446 51.067 120.056 50.9687L122.552 50.6177C123.559 50.6739 131.829 51.3057 136.907 54.9983C139.83 57.1185 140.553 61.0217 140.723 63.2682L139.205 62.5241C139.191 62.51 139.163 62.496 139.134 62.4819C138.893 62.3556 133.134 59.4211 129.021 58.326L128.325 58.1434C121.999 56.4445 116.538 54.9703 111.034 57.4695C109.686 58.0732 108.126 59.4913 107.941 59.6458C107.488 60.0529 107.459 60.755 107.871 61.2043C108.282 61.6536 108.991 61.6816 109.445 61.2745C109.856 60.9094 111.091 59.8704 111.956 59.4773C116.722 57.315 121.588 58.6208 127.73 60.2776L128.425 60.4601C130.028 60.8954 131.957 61.6395 133.659 62.3837H121.843H121.829H117.389C116.779 62.3837 116.282 62.8751 116.282 63.4788C116.282 64.0826 116.779 64.574 117.389 64.574H119.573L115.488 69.783C115.488 69.7971 115.474 69.7971 115.474 69.8111L113.076 72.8579C112.693 73.3353 112.793 74.0233 113.275 74.4024C113.757 74.7815 114.452 74.6832 114.835 74.2058L115.97 72.7596L117.289 76.6488C117.445 77.1122 117.871 77.407 118.339 77.407ZM129.943 56.3884C130.34 56.3884 130.723 56.1777 130.921 55.8127C131.219 55.2792 131.006 54.6052 130.467 54.3244C129.545 53.833 128.481 53.3696 126.992 53.3696C126.382 53.3696 125.886 53.8611 125.886 54.4648C125.886 55.0686 126.382 55.56 126.992 55.56C127.942 55.56 128.595 55.8127 129.418 56.248C129.574 56.3462 129.758 56.3884 129.943 56.3884Z" fill="#1B1B1B"/>
<path d="M103.503 30.2592C105.901 31.2139 110.539 30.2592 110.539 30.2592C110.539 30.2592 110.553 30.2171 110.596 30.1328C110.837 29.5291 111.901 26.9316 112.057 25.7802C112.383 23.5759 112.724 22.565 113.518 20.487C114.17 18.774 114.525 17.7491 115.107 16.008C115.731 14.1266 116.128 13.1718 116.554 11.2343C117.32 7.66796 118.639 2.51509 116.539 1.74286C114.482 0.984674 113.518 4.08763 112.411 5.66017C112.014 6.22179 111.234 6.97998 110.879 7.56968C110.156 8.77717 109.844 9.50727 109.844 9.50727C109.844 9.50727 109.206 10.3216 108.511 11.2343C107.858 12.0767 107.149 13.5509 107.149 13.5509C107.149 13.5509 106.071 14.7865 105.532 15.5868C104.78 16.682 104.383 17.5104 104.383 17.5104C104.383 17.5104 103.432 18.8583 103.007 19.5463C102.326 20.6414 101.943 21.6383 101.943 21.6383C101.943 21.6383 100.879 23.1266 100.34 24.1515C99.6449 25.4714 99.3754 26.398 99.3754 26.398C99.3754 26.398 101.134 29.3185 103.503 30.2592Z" fill="#FCAF17"/>
<path d="M106.308 26.6226C108.492 25.2186 116.606 6.48853 116.606 6.48853L117.188 9.25451L111.145 27.437L107.925 30.891L101.201 28.7708L99.9526 25.373C99.9526 25.3871 103.939 28.139 106.308 26.6226Z" fill="#C68300"/>
<path fill-rule="evenodd" clip-rule="evenodd" d="M112.228 3.79286C111.944 4.29832 111.717 4.7055 111.49 5.02843C111.349 5.225 111.164 5.44965 110.909 5.73046C110.866 5.78662 110.809 5.84278 110.767 5.88491C110.483 6.20784 110.143 6.61501 109.916 7.00815C109.547 7.63997 109.277 8.14543 109.079 8.49644C108.98 8.67897 108.923 8.81937 108.88 8.91766C108.88 8.9317 108.866 8.9317 108.866 8.9317C108.852 8.94574 108.852 8.95978 108.838 8.95978C108.767 9.05806 108.653 9.18443 108.54 9.35291C108.299 9.67585 107.958 10.1111 107.604 10.5604C107.221 11.0518 106.852 11.6977 106.582 12.1751C106.44 12.4278 106.327 12.6384 106.256 12.8069C106.228 12.863 106.199 12.9052 106.185 12.9473C106.157 12.9754 106.128 13.0175 106.086 13.0596C105.972 13.2 105.816 13.3825 105.646 13.5932C105.306 14.0003 104.88 14.5479 104.582 14.9972C104.185 15.5729 103.887 16.0783 103.689 16.4434C103.589 16.6259 103.504 16.7663 103.447 16.8786C103.433 16.9067 103.419 16.9488 103.405 16.9629C103.376 17.005 103.334 17.0612 103.291 17.1173C103.192 17.2577 103.064 17.4403 102.923 17.6649C102.639 18.0861 102.284 18.6197 102.043 18.9847C101.674 19.5744 101.376 20.1501 101.192 20.5573C101.093 20.7679 101.022 20.9504 100.965 21.0627C100.951 21.0908 100.951 21.1189 100.937 21.1329C100.908 21.175 100.88 21.2312 100.837 21.2874C100.724 21.4418 100.568 21.6805 100.412 21.9192C100.071 22.4246 99.6458 23.0986 99.3479 23.6602C98.9791 24.3622 98.7238 24.966 98.5536 25.3872C98.4685 25.6118 98.4117 25.7803 98.3692 25.8927C98.355 25.9488 98.3408 26.005 98.3124 26.0331C98.2982 26.0471 98.2982 26.0611 98.2982 26.0752V26.0892V26.1033C98.2982 26.1033 98.2982 26.1033 99.3621 26.4122C98.4117 26.9878 98.4117 26.9878 98.4117 26.9878V27.0019L98.4259 27.0159C98.4401 27.0299 98.4401 27.0299 98.4401 27.044C98.4543 27.0721 98.4826 27.1001 98.511 27.1563C98.5678 27.2546 98.6529 27.381 98.7663 27.5354C98.9933 27.8443 99.3054 28.2795 99.7026 28.7288C100.483 29.6134 101.66 30.7507 103.093 31.3123C104.554 31.902 106.554 31.8599 108.015 31.7476C108.781 31.6914 109.462 31.5931 109.958 31.5089C110.2 31.4667 110.412 31.4387 110.54 31.4106C110.611 31.3965 110.668 31.3825 110.696 31.3825C110.71 31.3825 110.724 31.3685 110.739 31.3685H110.753C110.753 31.3685 110.753 31.3685 110.526 30.2873L111.547 30.7086V30.6945L111.561 30.6664C111.575 30.6384 111.59 30.6103 111.604 30.5682C111.732 30.2593 112.058 29.4449 112.384 28.5463C112.696 27.6898 113.051 26.6508 113.15 25.9488C113.462 23.8568 113.774 22.9301 114.554 20.8802C115.221 19.1392 115.576 18.1002 116.157 16.3591C116.271 15.9941 116.398 15.6571 116.512 15.3482C116.952 14.0705 117.292 13.0877 117.647 11.459C117.703 11.1922 117.76 10.9255 117.831 10.6446C118.186 9.04402 118.597 7.16259 118.739 5.53389C118.824 4.57914 118.824 3.61034 118.625 2.78195C118.427 1.95356 117.945 1.08304 116.937 0.703947C116.129 0.395055 115.349 0.479302 114.668 0.830315C114.044 1.15325 113.576 1.68678 113.221 2.1782C112.852 2.68366 112.54 3.24528 112.271 3.7367L112.228 3.79286ZM110.54 30.2593L111.561 30.6805C111.419 31.0174 111.122 31.2561 110.767 31.3404L110.54 30.2593ZM106.937 29.5853C105.788 29.6274 104.667 29.5432 103.93 29.2483C102.994 28.8692 102.1 28.0689 101.391 27.2546C101.05 26.8615 100.781 26.5104 100.596 26.2437C100.61 26.2156 100.61 26.1875 100.625 26.1735C100.766 25.8084 100.993 25.2889 101.305 24.6711C101.433 24.4324 101.603 24.1376 101.774 23.8568C102.71 25.5978 103.66 26.9176 104.795 27.9847C105.462 28.6025 106.157 29.122 106.937 29.5853ZM103.135 21.6243C103.164 21.5682 103.178 21.5261 103.206 21.4699C103.376 21.1048 103.618 20.6275 103.93 20.122C104.015 19.9816 104.128 19.8131 104.242 19.6446C105.15 21.2593 106.029 22.4808 107.022 23.4917C108.143 24.643 109.348 25.4855 110.795 26.3279C110.682 26.7491 110.497 27.2546 110.313 27.7881C110.2 28.097 110.086 28.4059 109.987 28.6727C108.455 27.9847 107.32 27.3108 106.341 26.3841C105.206 25.331 104.228 23.8989 103.135 21.6243ZM111.235 24.0253C110.214 23.3794 109.377 22.7616 108.611 21.9613C107.604 20.9364 106.682 19.5885 105.604 17.5105C105.618 17.4964 105.618 17.4964 105.618 17.4824C105.802 17.1594 106.072 16.7101 106.426 16.1906C106.554 16.0081 106.71 15.7975 106.88 15.5729C107.618 16.8084 108.526 17.7492 109.434 18.5214C109.93 18.9426 110.441 19.3357 110.895 19.6867C111.008 19.785 111.136 19.8693 111.249 19.9535C111.604 20.2343 111.93 20.487 112.228 20.7538C111.788 21.9894 111.49 22.888 111.235 24.0253ZM113.051 18.5916C112.909 18.4793 112.767 18.3669 112.625 18.2546C112.498 18.1563 112.37 18.058 112.242 17.9598C111.788 17.6087 111.349 17.2577 110.909 16.8786C109.902 16.0222 108.994 15.0253 108.37 13.5932C108.426 13.4808 108.483 13.3685 108.568 13.2281C108.824 12.7648 109.121 12.2453 109.405 11.8942C109.476 11.796 109.547 11.7117 109.618 11.6134C110.781 13.7757 112.171 14.9832 113.831 16.3591C113.547 17.1875 113.306 17.8615 113.051 18.5916ZM114.583 14.1267C113.051 12.8209 111.987 11.7117 111.065 9.54948C111.079 9.53544 111.079 9.50736 111.093 9.49332C111.249 9.18443 111.49 8.72109 111.845 8.14543C111.888 8.07522 111.958 7.97694 112.029 7.87866C112.313 8.49644 112.654 9.05806 113.051 9.56352C113.675 10.3638 114.427 11.0518 115.32 11.6977C115.079 12.6244 114.866 13.3123 114.583 14.1267ZM115.845 9.29675C116.129 7.94886 116.413 6.57289 116.512 5.35136C116.583 4.48085 116.569 3.79286 116.455 3.31549C116.342 2.85215 116.186 2.78195 116.143 2.78195C115.93 2.6977 115.817 2.72579 115.689 2.79599C115.505 2.89427 115.292 3.09084 115.008 3.46993C114.739 3.84903 114.469 4.29832 114.2 4.81782C114.186 4.84591 114.171 4.87398 114.143 4.91611C113.973 5.225 113.788 5.54793 113.604 5.85682C113.916 6.86774 114.313 7.59785 114.795 8.24371C115.093 8.59473 115.434 8.94574 115.845 9.29675ZM99.3621 26.3981L98.4117 26.9738C98.2557 26.707 98.2131 26.3981 98.2982 26.1033L99.3621 26.3981Z" fill="#1B1B1B"/>
<path fill-rule="evenodd" clip-rule="evenodd" d="M63.399 72.5914C75.3571 71.9736 88.0527 78.0532 87.4144 92.4447C86.7761 106.836 76.5486 112.775 64.6615 113.899C50.519 115.247 33.5394 104.548 21.936 93.7786C15.9783 88.2466 8.61623 78.3761 8.61623 78.3761H12.8292L9.89288 73.9393L19.6948 76.8738C19.6948 76.8738 28.5179 79.5976 35.1282 80.8613C46.6039 83.0797 51.441 73.2232 63.399 72.5914Z" fill="#B5C9E2"/>
<path d="M58.1101 107.58C58.4222 108.886 60.862 109.153 63.543 110.585L60.6634 107.679L61.3301 105.39L58.3512 103.958L55.1738 101.192L56.0674 98.8893L53.1879 96.8674L51.4998 95.1966L53.9539 93.1467L51.9112 91.2512L50.1097 88.3448L53.1879 85.7754L50.7764 84.9751L47.3862 79.9907C47.3862 79.9907 45.1166 81.3386 45.5563 82.7848C46.0528 85.6069 50.1239 86.2528 50.1239 86.2528C50.1239 86.2528 47.8968 87.0952 47.7408 89.4962C47.5848 91.7005 51.4998 92.6553 51.4998 92.6553C51.4998 92.6553 49.4572 93.5398 49.3153 95.2949C49.1309 97.4291 53.4148 99.3105 53.4148 99.3105C53.4148 99.3105 52.0814 100.448 52.4077 101.866C52.9042 104.098 58.9612 105.657 58.9612 105.657C58.0959 106.429 57.9399 106.836 58.1101 107.58Z" fill="#81A5D1"/>
<path d="M38.8333 100.7C39.3298 102.933 43.4293 104.927 43.4293 104.927L47.543 104.66L44.5641 103.228L41.3866 100.462L42.5073 97.9204L39.4149 96.1372L37.7269 94.4664L40.1809 92.4165V90.9844L36.7765 86.0561L39.4007 85.0171L38.6347 84.1466L37.273 80.833C37.273 80.833 36.2658 80.482 35.6417 81.2964C34.7196 82.4898 36.89 83.6692 36.89 83.6692C36.89 83.6692 34.4785 83.6412 34.3508 85.2979C34.1948 87.5023 37.7127 91.2792 37.7127 91.2792C37.7127 91.2792 36.0956 91.56 35.9537 93.3151C35.7693 95.4492 39.7837 97.5272 39.7837 97.5272C39.7837 97.5272 38.5071 99.2683 38.8333 100.7Z" fill="#81A5D1"/>
<path d="M36.2661 95.7436C37.6279 96.6422 36.947 98.299 36.947 98.299L31.1169 95.2381L12.0096 77.5611L11.655 74.416C11.655 74.416 19.7547 81.4082 23.5563 85.3255C27.7125 89.6219 31.4857 92.5845 36.2661 95.7436Z" fill="#81A5D1"/>
<path d="M58.932 107.426C78.4649 108.156 87.3164 95.0142 87.3164 95.0142C87.3164 95.0142 85.827 102.273 83.0467 105.91C78.394 111.975 72.8618 113.253 65.2302 114.278C55.6978 115.556 50.0947 112.242 41.3993 108.156C29.8101 102.708 22.4764 96.0392 14.3341 86.2249C10.8872 82.0548 10.4616 77.7444 10.4616 77.7444C10.4616 77.7444 21.5544 91.9815 30.7463 97.9908C39.4985 103.691 48.4776 107.033 58.932 107.426Z" fill="#81A5D1"/>
<path d="M86.3087 99.6614C86.8477 99.6614 87.3159 99.2682 87.401 98.7347C87.4293 98.5802 88.0109 94.8455 87.2166 90.2542C86.1527 84.0904 83.1029 79.3588 78.3934 76.5647C73.1024 73.4337 66.5489 72.8861 61.9813 72.9844C57.0732 73.0826 53.4419 73.911 53.2858 73.9391C52.6901 74.0795 52.3212 74.6692 52.4489 75.2589C52.5908 75.8486 53.1865 76.2137 53.7823 76.0873C53.9242 76.0592 67.9532 72.9422 77.2444 78.4461C81.4149 80.9173 84.0249 84.989 85.0037 90.5491C85.7413 94.7893 85.2023 98.3416 85.1881 98.3837C85.0888 98.9874 85.5143 99.549 86.1101 99.6473C86.1952 99.6614 86.252 99.6614 86.3087 99.6614Z" fill="white"/>
<path d="M99.1186 58.4382C95.5581 58.4382 92.6785 55.588 92.6785 52.0638C92.6785 48.5397 95.5581 45.6895 99.1186 45.6895C102.679 45.6895 105.559 48.5397 105.559 52.0638C105.559 55.588 102.679 58.4382 99.1186 58.4382Z" fill="#1B1B1B"/>
<path d="M99.1184 58.5503C102.736 58.5503 105.672 55.644 105.672 52.0636C105.672 48.4833 102.736 45.5769 99.1184 45.5769C95.5012 45.5769 92.5649 48.4833 92.5649 52.0636C92.5649 55.644 95.5012 58.5503 99.1184 58.5503ZM99.1184 45.7875C102.608 45.7875 105.459 48.5956 105.459 52.0636C105.459 55.5316 102.622 58.3397 99.1184 58.3397C95.6146 58.3397 92.7776 55.5316 92.7776 52.0636C92.7776 48.5956 95.6288 45.7875 99.1184 45.7875Z" fill="#1B1B1B"/>
<path d="M96.7349 52.2468C95.671 52.2468 94.8057 51.3903 94.8057 50.3372C94.8057 49.2842 95.671 48.4277 96.7349 48.4277C97.7988 48.4277 98.6641 49.2842 98.6641 50.3372C98.6641 51.3903 97.7988 52.2468 96.7349 52.2468Z" fill="white"/>
<path d="M97.5144 56.2202C97.9115 56.2202 98.3087 56.0096 98.5073 55.6305C98.791 55.0969 98.5782 54.423 98.025 54.1422C97.2448 53.749 96.9186 53.0751 96.7767 52.5977C96.5356 51.7834 96.6774 51.0111 96.9186 50.5899C97.2307 50.0704 97.0463 49.3965 96.5214 49.0876C95.9966 48.7787 95.3157 48.9612 95.0036 49.4807C94.4078 50.4916 94.266 51.9238 94.649 53.2015C95.0178 54.4791 95.8689 55.5041 97.0179 56.0938C97.1597 56.1921 97.3441 56.2202 97.5144 56.2202Z" fill="white"/>
<path d="M80.9903 26.1171C81.9691 26.7489 84.4657 26.1171 84.8203 25.3308L84.1394 20.6553L82.5223 15.9377L80.0399 14.8987L78.3519 16.387L78.7349 20.6553L80.9903 26.1171Z" fill="#FD8DC8"/>
<path d="M81.1892 27.4509C81.3595 27.4509 81.5439 27.4088 81.7141 27.3246C82.2531 27.0437 82.4659 26.3698 82.1822 25.8363C80.6644 23.0141 78.8771 18.2684 79.6289 16.5836C79.7566 16.3027 79.9268 16.1623 80.2389 16.0781C80.5509 15.9938 80.8063 16.05 81.0616 16.2466C82.7071 17.44 83.5582 22.5929 83.7142 25.5414C83.7426 26.1451 84.2674 26.6085 84.8774 26.5804C85.4873 26.5523 85.9696 26.0328 85.9271 25.4291C85.8845 24.5445 85.388 16.6678 82.3808 14.4634C81.5723 13.8737 80.6502 13.6912 79.6856 13.9299C78.721 14.1686 77.9834 14.7723 77.5862 15.6709C76.0968 18.9985 79.7707 26.0469 80.1963 26.8472C80.4091 27.2403 80.7921 27.4509 81.1892 27.4509Z" fill="#1B1B1B"/>
<path d="M96.3233 36.0856C94.8197 36.0856 93.5998 34.8782 93.5998 33.3899C93.5998 31.9016 94.8197 30.6941 96.3233 30.6941C97.827 30.6941 99.0469 31.9016 99.0469 33.3899C99.0469 34.8782 97.827 36.0856 96.3233 36.0856Z" fill="#1B1B1B"/>
<path d="M84.8173 41.5199C82.3207 41.5199 80.3064 39.5261 80.3064 37.055C80.3064 34.5838 82.3207 32.5901 84.8173 32.5901C87.3138 32.5901 89.3281 34.5838 89.3281 37.055C89.3281 39.5121 87.2997 41.5199 84.8173 41.5199Z" fill="#FF98B6"/>
<path d="M122.083 40.621C122.452 40.621 122.835 40.607 123.204 40.5648C124.792 40.3964 126.594 38.9642 126.792 38.7957C127.261 38.4026 127.332 37.7146 126.949 37.2513C126.551 36.7879 125.856 36.7177 125.388 37.0968C124.792 37.5882 123.643 38.3043 122.977 38.3745C120.735 38.6132 118.381 37.8269 118.352 37.8269C117.771 37.6304 117.147 37.9393 116.948 38.5149C116.749 39.0906 117.062 39.7084 117.643 39.9049C117.714 39.933 119.757 40.621 122.083 40.621Z" fill="#1B1B1B"/>
<path d="M86.2378 161.86C86.5783 161.86 86.9045 161.664 87.0464 161.327C87.245 160.878 87.0322 160.358 86.5924 160.161C86.3513 160.063 80.6631 157.592 77.4005 156.862C73.4712 155.977 69.9108 155.767 69.7689 155.753C69.2724 155.725 68.8611 156.09 68.8327 156.581C68.8043 157.073 69.1732 157.48 69.6696 157.508C69.698 157.508 73.2301 157.718 77.0175 158.575C80.1099 159.263 85.8264 161.734 85.8832 161.762C85.9967 161.832 86.1101 161.86 86.2378 161.86Z" fill="#1B1B1B"/>
<path d="M74.9746 165.174C75.2015 165.174 75.4427 165.09 75.6129 164.907C75.9534 164.556 75.9392 163.995 75.5845 163.658C75.4711 163.545 72.7333 160.948 70.6056 159.53C68.336 158.013 64.8748 156.497 64.7188 156.427C64.2648 156.23 63.74 156.427 63.5414 156.876C63.3428 157.325 63.5414 157.845 63.9953 158.042C64.0237 158.056 67.4565 159.558 69.5984 160.99C71.5985 162.338 74.3079 164.907 74.3363 164.935C74.5348 165.09 74.7476 165.174 74.9746 165.174Z" fill="#1B1B1B"/>
<path d="M100.935 158.224C101.289 158.224 101.63 158.014 101.772 157.663C101.942 157.214 101.715 156.694 101.261 156.526C101.062 156.441 96.1969 154.602 92.6364 154.04C88.8064 153.451 86.6077 154.04 86.5085 154.068C86.0403 154.195 85.7566 154.686 85.8843 155.15C86.012 155.613 86.5085 155.894 86.9766 155.767C87.0049 155.753 88.9625 155.262 92.3527 155.781C95.7288 156.301 100.566 158.154 100.623 158.168C100.722 158.21 100.821 158.224 100.935 158.224Z" fill="#1B1B1B"/>
<path d="M118.027 90.8437C118.466 90.8437 118.835 90.5348 118.906 90.0995C119.176 88.3445 118.949 84.5816 117.998 82.8827C117.757 82.4615 117.218 82.307 116.793 82.5317C116.367 82.7704 116.211 83.3039 116.438 83.7251C117.09 84.9045 117.388 88.1619 117.147 89.8328C117.076 90.3101 117.417 90.7594 117.899 90.8296C117.942 90.8437 117.984 90.8437 118.027 90.8437Z" fill="#1B1B1B"/>
<path d="M103.586 123.993C103.728 123.993 103.87 123.965 103.997 123.895C106.721 122.477 108.877 120.68 110.04 118.798C110.296 118.391 110.168 117.844 109.757 117.591C109.345 117.338 108.792 117.465 108.537 117.872C107.544 119.458 105.6 121.087 103.189 122.337C102.749 122.561 102.579 123.095 102.806 123.53C102.962 123.825 103.274 123.993 103.586 123.993Z" fill="#1B1B1B"/>
<path d="M86.9059 129.456C86.9201 129.456 86.9343 129.456 86.9484 129.456C90.0408 129.301 92.7501 128.543 94.5942 127.322C95.0056 127.055 95.1191 126.507 94.8353 126.1C94.5516 125.693 94.0126 125.58 93.6012 125.861C92.0125 126.9 89.6152 127.56 86.8491 127.701C86.3527 127.729 85.9839 128.136 86.0122 128.627C86.0406 129.091 86.4378 129.456 86.9059 129.456Z" fill="#1B1B1B"/>
<path d="M107.942 90.8438C108.268 90.8438 108.58 90.6612 108.736 90.3523C109.644 88.5692 109.615 86.9124 109.601 85.4522V85.4101C109.601 84.9327 109.204 84.5396 108.708 84.5396C108.708 84.5396 108.708 84.5396 108.693 84.5396C108.197 84.5396 107.814 84.9467 107.814 85.4241V85.4662C107.828 86.8562 107.842 88.162 107.133 89.566C106.92 90.0013 107.091 90.5348 107.53 90.7455C107.672 90.8157 107.8 90.8438 107.942 90.8438Z" fill="#1B1B1B"/>
<path d="M71.6824 68.8282C71.7249 68.8282 71.7675 68.8282 71.81 68.8142C72.42 68.744 72.8597 68.1964 72.7746 67.5926C72.5476 65.7112 72.5476 64.5458 72.7604 63.3103C72.8739 62.7065 72.4625 62.1449 71.8668 62.0326C71.2568 61.9203 70.6894 62.3274 70.5759 62.9171C70.3206 64.3774 70.3064 65.7533 70.5617 67.8454C70.6468 68.421 71.1291 68.8282 71.6824 68.8282Z" fill="#1B1B1B"/>
<path d="M68.054 65.473C68.664 65.473 69.1604 64.9815 69.1604 64.3778V64.1953C69.1604 62.4121 69.1604 61.2327 69.3874 59.955C69.5009 59.3513 69.0895 58.7897 68.4937 58.6774C67.8838 58.565 67.3164 58.9722 67.2029 59.5619C66.9334 61.0362 66.9334 62.2858 66.9334 64.1953V64.3778C66.9334 64.9815 67.4298 65.473 68.054 65.473Z" fill="#1B1B1B"/>
<path d="M89.5732 120.989C89.6158 120.989 89.6583 120.989 89.7009 120.975C91.6868 120.694 93.0486 119.753 94.2401 118.911L94.2969 118.869C94.6941 118.588 94.7933 118.04 94.5096 117.647C94.2259 117.254 93.6727 117.156 93.2755 117.436L93.2188 117.479C92.084 118.265 91.0201 119.023 89.4598 119.234C88.9775 119.304 88.637 119.753 88.7079 120.231C88.7505 120.666 89.1335 120.989 89.5732 120.989Z" fill="#1B1B1B"/>
<path d="M92.423 112.34C92.5365 112.34 92.65 112.326 92.7493 112.27C94.6075 111.54 95.6856 110.304 96.6502 109.223L96.7211 109.139C97.0474 108.774 97.0048 108.212 96.636 107.903C96.2672 107.58 95.6998 107.623 95.3877 107.988L95.3168 108.072C94.409 109.097 93.5578 110.066 92.0968 110.641C91.6429 110.824 91.4159 111.329 91.6003 111.793C91.7422 112.13 92.0684 112.34 92.423 112.34Z" fill="#1B1B1B"/>
<path d="M115.558 110.164C115.856 110.164 116.14 110.024 116.31 109.757C117.984 107.187 118.948 104.562 119.019 102.372C119.033 101.88 118.65 101.473 118.154 101.459C117.657 101.445 117.246 101.824 117.232 102.315C117.175 104.169 116.296 106.542 114.806 108.816C114.537 109.223 114.664 109.771 115.076 110.038C115.232 110.108 115.402 110.164 115.558 110.164Z" fill="#1B1B1B"/>
<path d="M101.854 116.018C101.996 116.018 102.152 115.976 102.28 115.906C105.769 113.996 108.606 110.753 109.883 107.229C110.053 106.765 109.812 106.26 109.344 106.106C108.876 105.937 108.379 106.176 108.209 106.639C106.876 110.318 103.84 113.042 101.429 114.361C101.003 114.6 100.847 115.134 101.074 115.555C101.23 115.85 101.528 116.018 101.854 116.018Z" fill="#1B1B1B"/>
<path d="M62.6211 123.025C63.075 123.025 63.4722 122.674 63.5006 122.21C63.5431 121.719 63.1743 121.298 62.6778 121.27C60.7061 121.115 59.5713 120.82 57.9826 120.048C57.5428 119.837 57.0038 120.006 56.791 120.441C56.5782 120.876 56.7485 121.41 57.1882 121.621C58.9613 122.491 60.3515 122.87 62.536 123.025C62.5785 123.025 62.5927 123.025 62.6211 123.025Z" fill="#1B1B1B"/>
<path d="M52.377 126.001C52.7884 126.001 53.1572 125.721 53.2423 125.313C53.3558 124.836 53.0437 124.373 52.5614 124.26C49.9088 123.671 48.391 123.081 46.3058 121.803C45.8944 121.551 45.3412 121.677 45.0859 122.084C44.8305 122.491 44.9582 123.039 45.3696 123.292C47.6108 124.668 49.3272 125.328 52.1642 125.959C52.2493 126.001 52.3061 126.001 52.377 126.001Z" fill="#1B1B1B"/>
<path d="M74.4082 123.643C76.5076 123.643 78.1957 123.362 80.5929 122.646C81.061 122.505 81.3306 122.014 81.1887 121.551C81.0469 121.087 80.5504 120.82 80.0823 120.961C77.5148 121.719 75.8409 121.944 73.4153 121.859C72.9188 121.845 72.5074 122.224 72.4932 122.702C72.4791 123.193 72.8621 123.6 73.3444 123.614C73.7132 123.628 74.0678 123.643 74.4082 123.643Z" fill="#1B1B1B"/>
<path d="M34.2216 117.044C34.5904 117.044 34.9309 116.819 35.0585 116.468C35.2288 116.005 34.9876 115.499 34.5337 115.345C31.9378 114.404 29.6398 113.253 26.8596 110.739C26.4908 110.416 25.9375 110.43 25.5971 110.796C25.2708 111.161 25.285 111.708 25.6538 112.045C28.2071 114.362 30.6044 115.794 33.9096 117.001C34.023 117.03 34.1223 117.044 34.2216 117.044Z" fill="#1B1B1B"/>
<path d="M70.296 130.523C71.5301 130.523 72.7926 130.424 74.1685 130.214C74.6508 130.144 74.9913 129.694 74.9203 129.217C74.8494 128.74 74.3955 128.403 73.9132 128.473C71.1613 128.88 68.5938 128.964 64.9624 128.066C64.4801 127.953 63.9978 128.234 63.8843 128.712C63.7709 129.189 64.0546 129.666 64.5368 129.779C66.5653 130.27 68.3952 130.523 70.296 130.523Z" fill="#1B1B1B"/>
<path d="M111.218 100.616C111.544 100.616 111.856 100.434 112.012 100.125C112.877 98.3979 113.402 96.1093 113.402 94.0032C113.402 93.5118 113.005 93.1187 112.509 93.1187C112.012 93.1187 111.615 93.5118 111.615 94.0032C111.615 95.8566 111.161 97.8503 110.409 99.3386C110.197 99.7739 110.367 100.307 110.806 100.518C110.948 100.588 111.076 100.616 111.218 100.616Z" fill="#1B1B1B"/>
<path d="M72.3354 102.919C72.4347 102.919 72.5482 102.905 72.6616 102.862C72.7326 102.834 74.5341 102.231 75.6831 101.613C76.8321 100.995 78.3073 99.7454 78.3782 99.7033C78.8038 99.3522 78.8463 98.7204 78.4917 98.3132C78.1371 97.892 77.4988 97.8499 77.0874 98.2009C77.0732 98.215 75.6973 99.3663 74.7469 99.8858C73.7539 100.419 72.0659 100.995 72.0375 100.995C71.5127 101.163 71.229 101.739 71.4134 102.245C71.5268 102.652 71.924 102.919 72.3354 102.919Z" fill="#81A5D1"/>
<path d="M68.7469 100.293C68.832 100.293 68.9029 100.279 68.988 100.265C69.1441 100.223 70.5626 99.872 71.4279 99.4227C72.0946 99.0857 73.3003 98.2574 73.428 98.1731C73.8819 97.8642 73.9954 97.2464 73.6833 96.7971C73.3712 96.3478 72.7471 96.2355 72.2932 96.5444C71.9527 96.7691 70.9881 97.429 70.52 97.6536C69.9526 97.9485 68.8745 98.2433 68.5057 98.3276C67.9667 98.4539 67.6404 99.0015 67.7823 99.521C67.8958 99.9843 68.293 100.293 68.7469 100.293Z" fill="#81A5D1"/>
<path d="M63.5436 79.3869C63.5862 79.3869 63.6429 79.3869 63.6855 79.3728C64.0685 79.3167 65.1749 79.1763 65.7282 79.1763C66.409 79.1763 67.6431 79.3167 68.0545 79.3728C68.6077 79.443 69.1042 79.0639 69.1751 78.5304C69.2461 77.9968 68.8631 77.4914 68.324 77.4212C68.2531 77.4071 66.6786 77.1965 65.7282 77.1965C64.9196 77.1965 63.5436 77.3931 63.3876 77.4212C62.8344 77.5054 62.4656 78.0109 62.5507 78.5444C62.6216 79.0218 63.0614 79.3869 63.5436 79.3869Z" fill="#81A5D1"/>
<path d="M61.1292 83.1069C61.2568 83.1069 61.3845 83.0788 61.5122 83.0226C61.6966 82.9524 62.264 82.7278 62.6754 82.6435C62.9591 82.5874 63.6258 82.5312 63.9804 82.5172C64.5336 82.4891 64.9592 82.0257 64.945 81.4922C64.9166 80.9446 64.4627 80.5234 63.9095 80.5375C63.7251 80.5515 62.7888 80.5936 62.264 80.7059C61.6115 80.8463 60.8455 81.1552 60.7604 81.1973C60.2497 81.408 60.0086 81.9836 60.2213 82.4891C60.3774 82.8822 60.7462 83.1069 61.1292 83.1069Z" fill="#81A5D1"/>
<path d="M61.4586 115.134C62.4515 115.134 63.4303 115.092 64.3807 114.994C71.1044 114.348 76.5515 112.326 80.5801 108.985C85.2753 105.081 87.8145 99.5353 88.1407 92.487C88.3961 86.6883 86.552 81.6758 82.793 77.9831C80.4099 75.6384 77.3601 73.8833 73.7287 72.7601C70.3952 71.7351 66.6787 71.2858 62.9622 71.4824C57.1463 71.7913 53.0326 73.9395 49.075 76.0315C44.7911 78.292 40.7342 80.4262 34.8757 79.7522C27.2867 78.8958 16.4209 75.1048 16.3216 75.0767C16.2649 75.0627 16.2082 75.0487 16.1514 75.0346L8.83191 72.2265C8.3638 72.044 7.81059 72.1984 7.52689 72.6197C7.24319 73.0409 7.25735 73.5884 7.58362 73.9675L10.1369 76.9301L8.51984 76.1157C8.08011 75.8911 7.54107 75.9894 7.20062 76.3404C6.86018 76.6914 6.80344 77.239 7.05878 77.6602C7.3141 78.0814 13.3853 88.1344 21.9248 96.0673C28.2655 101.95 35.2162 106.808 42.0534 110.122C48.919 113.45 55.4299 115.134 61.4586 115.134ZM64.6786 73.6446C71.3172 73.6446 77.4168 75.8069 81.2326 79.5557C84.5803 82.8412 86.1548 87.1656 85.9279 92.4028C85.2328 107.623 73.7145 111.905 64.1679 112.818C52.2525 113.955 37.0319 107.089 23.4284 94.4667C18.109 89.5244 13.6974 83.6134 11.1866 79.9628L13.9811 81.3809C14.7755 82.097 19.6409 86.5338 23.4567 90.072C27.6981 94.0174 35.3013 99.0299 35.6275 99.2405C36.1382 99.5775 36.8333 99.4371 37.1737 98.9316C37.5142 98.4261 37.3723 97.7382 36.8616 97.4012C36.7907 97.345 29.0882 92.2904 24.9887 88.4714C21.0453 84.8068 15.9954 80.2015 15.4422 79.6961L12.1512 75.8771L15.3854 77.1126C16.96 78.5307 27.8399 88.2046 33.8402 91.1391C34.3934 91.4059 35.0601 91.1812 35.3297 90.6477C35.5992 90.1001 35.3722 89.4402 34.8332 89.1734C30.989 87.292 24.776 82.2655 20.719 78.8256C24.6483 80.005 30.1237 81.4652 34.6488 81.9706C39.9965 82.5744 44.0109 81.0861 47.699 79.2608C47.3302 79.682 47.1033 80.1875 47.0324 80.7351C46.7487 82.7148 48.2239 84.3856 51.4155 85.6773C49.997 86.3092 49.5289 87.2499 49.4154 88.0221C49.1034 90.072 50.6496 91.6867 52.4227 92.824C51.7985 93.1188 51.3162 93.5962 51.1035 94.3263C50.8623 95.1687 50.99 95.9971 51.4865 96.7413C52.2666 97.9347 53.9689 98.7772 55.6285 99.3388C55.2739 99.6617 55.0044 100.055 54.8909 100.56C54.7207 101.347 54.8909 102.119 55.3874 102.793C56.3945 104.155 58.7492 104.983 60.8628 105.446C60.4514 105.868 60.1961 106.387 60.1961 107.033C60.1961 110.108 65.2744 110.824 66.2957 110.936C66.9057 111.006 67.4589 110.571 67.5298 109.967C67.6007 109.364 67.161 108.816 66.551 108.746C64.6502 108.535 62.4515 107.749 62.4374 107.047C62.565 106.738 63.7708 106.219 65.0049 106.05C65.5581 105.966 65.9694 105.489 65.9552 104.927C65.9411 104.365 65.5013 103.916 64.9481 103.86C62.2813 103.621 58.1251 102.737 57.2031 101.487C57.0612 101.304 57.0612 101.178 57.0896 101.038C57.1463 100.771 58.4939 100.322 59.9691 100.336C60.5507 100.336 61.033 99.8864 61.0756 99.3107C61.1181 98.735 60.7068 98.2296 60.1252 98.1453C57.813 97.8224 54.1958 96.7975 53.3731 95.5478C53.2312 95.3372 53.2029 95.1547 53.2738 94.9301C53.3731 94.5931 55.0895 94.4246 56.9477 94.8599C57.5293 95.0003 58.1109 94.6493 58.2811 94.0736C58.4372 93.4979 58.1109 92.9082 57.5435 92.7397C55.515 92.1079 51.4014 90.2124 51.6709 88.331C51.8127 87.4043 54.6781 87.0112 56.6782 87.1376C57.274 87.1656 57.7846 86.7444 57.8556 86.1688C57.9265 85.5931 57.5293 85.0596 56.9477 84.9613C53.5859 84.3716 49.0608 82.6867 49.2878 81.0299C49.302 80.8895 49.3587 80.707 49.614 80.5245C50.7914 79.668 54.054 79.7803 55.8413 80.0611C56.4513 80.1594 57.0187 79.7522 57.118 79.1485C57.2172 78.5448 56.8059 77.9831 56.1959 77.8849C55.7704 77.8147 52.7773 77.3794 50.3659 77.9129C54.0682 75.9613 57.9265 73.9675 63.1892 73.6867C63.6147 73.6587 64.1537 73.6446 64.6786 73.6446Z" fill="#1B1B1B"/>
<path d="M38.3361 79.1199L43.7264 80.4256L45.1875 83.5426L43.9818 85.8734L40.4639 84.2306L37.1304 80.3274L38.3361 79.1199Z" fill="#B5C9E2"/>
<path d="M48.4938 106.26C48.9761 106.26 49.4158 105.952 49.5577 105.474C49.7279 104.884 49.3875 104.281 48.8059 104.112C48.7917 104.112 46.7774 103.523 44.8908 102.652C41.997 101.318 41.9261 100.518 41.9261 100.518C42.224 99.2402 45.0894 99.17 46.3518 99.3385C46.9334 99.4087 47.4866 99.0296 47.5859 98.4539C47.6994 97.8782 47.3306 97.3166 46.749 97.1762C44.2383 96.5865 40.3799 95.1965 39.6565 93.989C39.5714 93.8486 39.5856 93.7924 39.5997 93.7503C39.6281 93.638 40.1388 93.3572 41.5005 93.3993C42.7205 93.4414 43.912 93.7223 43.9262 93.7223C44.4936 93.8486 45.061 93.5397 45.2312 92.9921C45.4156 92.4446 45.1461 91.8549 44.6071 91.6302C44.5929 91.6162 42.5077 90.7316 40.5785 89.5101C38.1103 87.9376 37.4011 86.7862 37.5571 86.2808C37.5855 86.1684 37.6422 86.1123 37.7557 86.0561C38.6493 85.6489 41.1034 86.365 42.4793 86.9828C43.0325 87.2355 43.685 86.9968 43.9404 86.4352C44.1957 85.8876 43.9546 85.2418 43.4013 84.975C41.1317 83.9079 38.2238 81.8018 38.4791 80.5382C38.6919 80.482 39.5146 80.3697 41.7843 81.1279C43.3304 81.6474 44.6922 82.2933 44.7064 82.2933C45.2596 82.56 45.9263 82.3213 46.1958 81.7738C46.4653 81.2262 46.2242 80.5663 45.671 80.2995C44.3092 79.6536 39.699 77.6178 37.5571 78.5164C36.9755 78.755 36.5783 79.1903 36.3797 79.7519C35.94 81.0577 36.4081 82.4056 37.7415 83.7675C37.4011 83.8096 37.0748 83.9079 36.7911 84.0343C36.0818 84.3572 35.5996 84.9188 35.401 85.663C34.8903 87.4742 36.1953 89.3276 39.387 91.3634C39.4012 91.3634 39.4011 91.3775 39.4153 91.3775C38.4791 91.6302 37.6989 92.1497 37.4294 93.1185C37.245 93.7644 37.3443 94.4383 37.7131 95.0561C38.3656 96.1653 39.926 97.0779 41.5289 97.7659C40.6494 98.2152 39.9686 98.9172 39.7274 99.9703C39.1458 102.413 42.763 104.07 43.9404 104.618C45.983 105.558 48.054 106.162 48.1392 106.19C48.281 106.246 48.3803 106.26 48.4938 106.26Z" fill="#1B1B1B"/>
</svg>
