<svg width="143" height="338" viewBox="0 0 143 338" fill="none" xmlns="http://www.w3.org/2000/svg">
<path d="M21.7773 337.279H71.5787" stroke="#1B1B1B" stroke-linecap="round"/>
<path d="M75.2227 332.635H118.447" stroke="#1B1B1B" stroke-linecap="round"/>
<path d="M0.964844 328.789L142.195 328.789" stroke="#1B1B1B" stroke-linecap="round"/>
<path d="M111.81 313.624L89.8596 315.639C89.8596 315.639 80.7505 283.791 77.719 262.859C73.699 235.102 68.0934 204.417 68.0934 204.417L60.4258 315.639L35.2761 312.377C36.4007 279.764 36.8208 209.243 34.1218 186.179C31.4228 163.115 37.6274 138.475 40.49 129.274L92.9365 131.727L101.468 183.622C102.058 202.073 103.59 242.158 105.005 254.89C106.42 267.623 110.131 299.351 111.81 313.624Z" fill="white"/>
<path d="M68.0934 204.417L60.4258 315.639L35.2761 312.377C36.4007 279.764 36.8208 209.243 34.1218 186.179C31.4228 163.115 37.6274 138.475 40.49 129.274L92.9365 131.727L101.468 183.622C102.058 202.073 103.59 242.158 105.005 254.89C106.42 267.623 110.131 299.351 111.81 313.624L89.8596 315.639C89.8596 315.639 80.7505 283.791 77.719 262.859C73.699 235.102 68.0934 204.417 68.0934 204.417ZM68.0934 204.417C63.1776 181.716 61.7562 168.839 60.6819 145.705" stroke="#1B1B1B"/>
<path d="M109.602 328.789L108.513 313.906L90.8716 315.648C90.7264 316.374 90.3924 318.204 90.2182 319.714C90.044 321.224 84.628 324.989 81.9419 326.683L81.506 328.789H109.602Z" fill="#1B1B1B"/>
<path d="M60.2346 328.789V315.648L36.8566 312.454V315.14C36.0338 315.769 33.4299 317.826 29.5966 321.021C25.7634 324.215 19.9168 325.546 17.4727 325.812V328.789H40.0514L48.1826 325.304L48.6184 328.789H60.2346Z" fill="#1B1B1B"/>
<path d="M109.602 328.789L108.513 313.906L90.8716 315.648C90.7264 316.374 90.3924 318.204 90.2182 319.714C90.044 321.224 84.628 324.989 81.9419 326.683L81.506 328.789H109.602Z" stroke="#1B1B1B"/>
<path d="M60.2346 328.789V315.648L36.8566 312.454V315.14C36.0338 315.769 33.4299 317.826 29.5966 321.021C25.7634 324.215 19.9168 325.546 17.4727 325.812V328.789H40.0514L48.1826 325.304L48.6184 328.789H60.2346Z" stroke="#1B1B1B"/>
<path d="M61.5056 47.2588L57.2601 49.0428L44.2266 84.1288L47.8325 135.658L72.7246 137.17L73.7715 108.905C75.8558 92.1706 79.9752 58.5425 79.7783 57.9026C79.5815 57.2627 78.2607 50.9502 77.6249 47.874L61.5056 47.2588Z" fill="white"/>
<path d="M65.5763 134.048H52.2674L48.7773 138.663L51.7177 139.822H66.566L68.8936 134.439L65.5763 134.048Z" fill="white" stroke="#1B1B1B"/>
<path d="M58.4344 46.6804C56.0447 50.4568 54.8032 53.0873 52.0253 55.8368C49.2473 58.5863 45.8228 61.7066 45.8228 61.7066L49.6926 63.2231L44.8744 66.93C44.79 82.6057 48.9861 100.354 50.547 107.377L52.9989 86.2985L58.4344 46.6804Z" fill="#B5D8E1"/>
<path d="M52.0253 55.8368C54.8032 53.0873 56.0447 50.4568 58.4344 46.6804L30.6973 60.7804C26.8892 75.464 18.8858 105.412 17.3368 107.736C15.4005 110.64 12.7865 113.738 13.0769 117.707C13.8061 127.673 23.9554 134.299 33.3721 130.957C29.3975 142.337 24.2355 157.357 24.2355 169.146C24.2355 182.104 31.6502 187.414 35.8013 187.414C41.5109 187.414 48.7475 185.453 51.1356 151.378C53.1326 122.885 52.9226 118.065 50.547 107.377C48.9861 100.354 44.79 82.6057 44.8744 66.93L49.6926 63.2231L45.8228 61.7066C45.8228 61.7066 49.2473 58.5863 52.0253 55.8368Z" fill="#B5D8E1"/>
<path d="M95.607 314.936L75.3628 185.453M51.0437 309.415L54.7244 266.035M58.4344 46.6804C56.0447 50.4568 54.8032 53.0873 52.0253 55.8368C49.2473 58.5863 45.8228 61.7066 45.8228 61.7066L49.6926 63.2231L44.8744 66.93C44.79 82.6057 48.9861 100.354 50.547 107.377M58.4344 46.6804L30.6973 60.7804C26.8892 75.464 18.8858 105.412 17.3368 107.736C15.4005 110.64 12.7865 113.738 13.0769 117.707C13.8061 127.673 23.9554 134.299 33.3721 130.957M58.4344 46.6804L52.9989 86.2985L50.547 107.377M50.547 107.377C52.9226 118.065 53.1326 122.885 51.1356 151.378C48.7475 185.453 41.5109 187.414 35.8013 187.414C31.6502 187.414 24.2355 182.104 24.2355 169.146C24.2355 157.357 29.3975 142.337 33.3721 130.957M33.3721 130.957C35.4303 129.644 35.7316 128.93 37.4089 126.352" stroke="#1B1B1B"/>
<path d="M114.753 178.471L101.318 182.36L98.3335 182.858L96.8359 170.875L101.318 161.623L106.969 158.98L109.686 162.797L114.753 178.471Z" fill="#B5D8E1" stroke="#1B1B1B"/>
<path d="M102.953 167.922C104.304 165.749 106.976 162.751 106.976 162.751L109.963 156.953L106.976 150.785C103.595 151.285 96.6939 152.283 96.1295 152.283C95.5651 152.283 95.1309 158.568 94.9844 161.711L96.835 175.192L99.5578 174.792C99.5578 174.792 101.5 170.26 102.953 167.922Z" fill="white" stroke="#1B1B1B"/>
<path d="M97.1946 149.185H82.7578V141.819H101.201M94.7159 152.41C93.3021 153.754 90.5719 158.626 91.2394 163.187C91.9069 167.748 94.8318 171.276 96.1761 172.991" stroke="#1B1B1B"/>
<path d="M112.815 122.115L96 150.882L108.561 164.354C117.272 153.11 134.937 129.043 135.91 122.723C136.882 116.402 117.407 78.492 107.548 60.327C104.813 61.7113 102.094 68.0296 100.102 76.3128C96.8198 89.9647 98.5523 94.3949 100.848 101.08L112.815 122.115Z" fill="#B5D8E1" stroke="#1B1B1B"/>
<path d="M70.3062 59.3662L64.9166 50.4574C63.8167 50.5306 61.4299 51.3371 60.682 53.9768C59.9341 56.6165 59.0507 59.5129 58.7025 60.6311L58.4258 46.2364L64.9166 48.9199L75.7686 39.9499L79.2682 45.7724L76.5079 51.2717L70.3062 59.3662Z" fill="white" stroke="#1B1B1B"/>
<path d="M64.5422 50.5126C63.2718 50.5126 62.3937 53.3577 62.3995 54.533C62.4037 55.371 62.55 56.4431 63.0094 57.09C63.256 57.4373 63.593 57.6619 64.0466 57.6619C64.5751 57.6619 64.9558 57.427 65.2214 57.0474C65.6086 56.4944 65.7514 55.6344 65.7514 54.7473C65.7514 53.2514 65.4226 50.5126 64.5422 50.5126Z" fill="#1B1B1B"/>
<path d="M56.4122 128.813C63.8884 128.813 58.999 92.7064 59.945 85.3745C60.8373 78.4594 65.1835 65.9775 65.2214 57.0474C64.9558 57.427 64.5751 57.6619 64.0466 57.6619C63.593 57.6619 63.256 57.4373 63.0094 57.09C58.7785 67.4821 55.4187 76.5903 54.6814 87.9701C53.7605 102.182 51.9069 128.813 56.4122 128.813Z" fill="#1B1B1B"/>
<path d="M65.2214 57.0474C64.9558 57.427 64.5751 57.6619 64.0466 57.6619C63.593 57.6619 63.256 57.4373 63.0094 57.09M65.2214 57.0474C65.6086 56.4944 65.7514 55.6344 65.7514 54.7473C65.7514 53.2514 65.4226 50.5126 64.5422 50.5126C63.2718 50.5126 62.3937 53.3577 62.3995 54.533C62.4037 55.371 62.55 56.4431 63.0094 57.09M65.2214 57.0474C65.1835 65.9775 60.8373 78.4594 59.945 85.3745C58.999 92.7064 63.8884 128.813 56.4122 128.813C51.9069 128.813 53.7605 102.182 54.6814 87.9701C55.4187 76.5903 58.7785 67.4821 63.0094 57.09" stroke="#1B1B1B"/>
<path d="M78.4498 43.9837L76.3043 40.7321C77.8896 42.8592 81.0718 48.7887 85.1651 50.6042C97.7253 56.1753 100.697 57.8635 107.449 60.3283C104.807 63.7116 100.258 71.3691 99.6499 80.5867C99.1434 88.2673 99.886 97.4581 100.941 101.149C101.016 105.518 100.941 113.709 100.941 120.901C100.941 127.592 102.372 134.986 103.2 136.945C95.0485 158.688 105.849 185.709 91.4971 187.782C73.5569 190.374 64.2081 131.879 63.6101 116.53C63.1317 104.251 73.267 62.6548 78.4498 43.9837Z" fill="#B5D8E1" stroke="#1B1B1B"/>
<path d="M91.4984 89.6096H76.7728C76.6465 89.8816 76.5196 90.1534 76.392 90.4253V93.2967H91.4984V89.6096Z" fill="#FCAF17"/>
<path d="M82.5363 48.6566C83.235 54.3746 83.7284 57.5485 86.8054 62.556L81.5435 64.3429L85.4155 69.1084C82.2296 77.0732 79.662 83.3861 76.7728 89.6096M63.6367 113.867C69.2806 104.547 73.071 97.5 76.392 90.4253M76.7728 89.6096H91.4984V93.2967H76.392V90.4253M76.7728 89.6096C76.6465 89.8816 76.5196 90.1534 76.392 90.4253M76.7728 89.6096H76.392V90.4253" stroke="#1B1B1B"/>
<path d="M57.764 134.02C57.5024 134.573 57.014 135.969 57.1535 137.132C57.2929 138.296 57.7901 139.897 58.5376 139.819C59.1765 139.819 59.6376 138.092 59.6841 136.929C59.7307 135.765 59.4708 134.505 59.3351 134.02" stroke="#1B1B1B"/>
<path d="M36.3263 108.077C36.386 108.573 35.3646 108.838 34.0707 108.994C32.7768 109.149 31.6794 108.874 31.6197 108.378C31.56 107.882 32.5605 107.354 33.8544 107.198C35.1484 107.042 36.2666 107.581 36.3263 108.077Z" fill="white"/>
<path d="M37.9472 109.354C37.9801 109.963 36.6262 110.246 35.8748 110.331C34.9319 110.439 33.5015 110.375 33.4404 109.9L33.44 109.897C33.3826 109.42 34.345 108.912 35.5896 108.762C36.8342 108.612 37.8897 108.877 37.9472 109.354Z" fill="white"/>
<path d="M41.8916 107.407C41.8947 107.433 41.8954 107.459 41.8937 107.486C41.8564 108.051 40.706 108.632 39.2373 108.808C37.7005 108.994 36.3972 108.666 36.3263 108.077C36.2553 107.488 37.4437 106.861 38.9805 106.676C40.5173 106.491 41.8207 106.818 41.8916 107.407Z" fill="white"/>
<path d="M36.3263 108.077C36.386 108.573 35.3646 108.838 34.0707 108.994C32.7768 109.149 31.6794 108.874 31.6197 108.378L32.0103 115.394L34.2541 116.435L33.4404 109.9L33.44 109.897C33.3826 109.42 34.345 108.912 35.5896 108.762C36.8342 108.612 37.8897 108.877 37.9472 109.354L38.3163 116.175L41.5919 114.303L42.0489 113.33L41.8937 107.486C41.8564 108.051 40.706 108.632 39.2373 108.808C37.7005 108.994 36.3972 108.666 36.3263 108.077Z" fill="white"/>
<path d="M34.2541 116.435L38.3163 116.175L37.9472 109.354C37.9801 109.963 36.6262 110.246 35.8748 110.331C34.9319 110.439 33.5015 110.375 33.4404 109.9L34.2541 116.435Z" fill="white"/>
<path d="M36.3263 108.077C36.386 108.573 35.3646 108.838 34.0707 108.994C32.7768 109.149 31.6794 108.874 31.6197 108.378M36.3263 108.077C36.2666 107.581 35.1484 107.042 33.8544 107.198C32.5605 107.354 31.56 107.882 31.6197 108.378M36.3263 108.077C36.3972 108.666 37.7005 108.994 39.2373 108.808C40.706 108.632 41.8564 108.051 41.8937 107.486M36.3263 108.077C36.2553 107.488 37.4437 106.861 38.9805 106.676C40.5173 106.491 41.8207 106.818 41.8916 107.407M31.6197 108.378L32.0103 115.394L34.2541 116.435M37.9472 109.354C37.8897 108.877 36.8342 108.612 35.5896 108.762C34.345 108.912 33.3826 109.42 33.44 109.897L33.4404 109.9M37.9472 109.354C37.9801 109.963 36.6262 110.246 35.8748 110.331C34.9319 110.439 33.5015 110.375 33.4404 109.9M37.9472 109.354L38.3163 116.175M38.3163 116.175L41.5919 114.303L42.0489 113.33L41.8937 107.486M38.3163 116.175L34.2541 116.435M34.2541 116.435L33.4404 109.9M41.8916 107.407L41.8937 107.486M41.8916 107.407C41.8947 107.433 41.8954 107.459 41.8937 107.486" stroke="#1B1B1B"/>
<path d="M35.7131 78.8711C35.7131 78.8711 34.4089 86.4594 32.9861 93.0397C32.1847 96.7464 29.3555 111.208 29.3555 111.208" stroke="#1B1B1B"/>
<path d="M43.6154 122.841C42.318 125.11 33.9993 128.379 28.1784 126.953C27.1049 125.646 26.2851 123.931 26.2852 121.586C26.2852 119.107 26.6754 117.784 27.3203 116.679C28.1197 115.309 30.7992 112.619 31.9177 113.732C31.9206 113.735 31.9177 115.212 31.9177 115.212C31.9177 115.212 40.1199 115.658 41.4887 113.732C43.164 111.374 45.51 119.529 43.6154 122.841Z" fill="white"/>
<path d="M27.3203 116.679C28.1197 115.309 30.7992 112.619 31.9177 113.732C31.9206 113.735 31.9177 115.212 31.9177 115.212M27.3203 116.679L31.9177 115.212M27.3203 116.679C26.6754 117.784 26.2852 119.107 26.2852 121.586C26.2851 123.931 27.1049 125.646 28.1784 126.953C33.9993 128.379 42.318 125.11 43.6154 122.841C45.51 119.529 43.164 111.374 41.4887 113.732C40.1199 115.658 31.9177 115.212 31.9177 115.212" stroke="#1B1B1B"/>
<path d="M31.8154 112.915C30.7124 112.026 28.7673 110.322 25.7148 110.913" stroke="#1B1B1B"/>
<path d="M64.8044 50.5123C69.9671 47.4744 72.4699 45.3627 76.243 40.8L75.7909 30.2164C75.7909 30.2164 76.5011 28.9885 77.2255 27.3908C77.6768 26.3559 78.1326 25.1652 78.4365 24.0035C78.4941 23.645 78.5699 23.3125 78.66 22.9972C78.9964 21.1138 78.7829 19.4604 77.2936 18.8933C75.4944 18.2082 74.1081 20.0564 72.5673 19.8719C71.0265 19.6875 68.7153 18.6697 67.7612 15.5704C66.8239 12.5257 71.3707 8.26449 71.0008 7.29359C70.7455 6.62343 64.4849 12.5793 54.8995 13.1999C54.1387 13.2492 53.0252 12.9741 51.9294 12.4099C51.56 15.7929 51.1268 17.6932 51.3175 21.091C51.8151 29.9568 53.638 40.7802 57.3462 42.6873C57.6935 42.8659 58.0542 43.0144 58.4249 43.1336V46.4658C60.6123 47.9607 61.9771 48.7725 64.8044 50.5123Z" fill="white"/>
<path d="M78.66 22.9972C79.1304 21.3504 79.9896 20.1761 80.6793 18.2578C81.9862 14.6231 82.2909 9.50548 80.0117 7.98596C77.7324 6.46644 74.1873 6.78122 72.5673 6.91156C72.977 6.2784 73.8414 4.84837 73.2322 3.77453C71.2807 0.334448 51.8653 -1.20665 48.9635 4.72526C47.1355 8.46193 49.4886 11.1532 51.9294 12.4099C53.0252 12.9741 54.1387 13.2492 54.8995 13.1999C64.4849 12.5793 70.7455 6.62343 71.0008 7.29359C71.3707 8.26449 66.8239 12.5257 67.7612 15.5704C68.7153 18.6697 71.0265 19.6875 72.5673 19.8719C74.1081 20.0564 75.4944 18.2082 77.2936 18.8933C78.7829 19.4604 78.9964 21.1138 78.66 22.9972Z" fill="#1B1B1B"/>
<path d="M75.7909 30.2164L76.243 40.8C72.4699 45.3627 69.9671 47.4744 64.8044 50.5123C61.9771 48.7725 60.6123 47.9607 58.4249 46.4658V43.1336C58.0542 43.0144 57.6935 42.8659 57.3462 42.6873M75.7909 30.2164C75.7909 30.2164 76.5011 28.9885 77.2255 27.3908M75.7909 30.2164C75.7909 30.2164 76.4716 29.1193 77.2255 27.3908M77.2255 27.3908C77.7749 26.1788 78.2975 24.8675 78.4365 24.0035M77.2255 27.3908C77.6768 26.3559 78.1326 25.1652 78.4365 24.0035M78.4365 24.0035C78.4941 23.645 78.5699 23.3125 78.66 22.9972M78.4365 24.0035C78.5253 23.664 78.601 23.3271 78.66 22.9972M78.66 22.9972C79.1304 21.3504 79.9896 20.1761 80.6793 18.2578C81.9862 14.6231 82.2909 9.50548 80.0117 7.98596C77.7324 6.46644 74.1873 6.78122 72.5673 6.91156C72.977 6.2784 73.8414 4.84837 73.2322 3.77453C71.2807 0.334448 51.8653 -1.20665 48.9635 4.72526M78.66 22.9972C78.9964 21.1138 78.7829 19.4604 77.2936 18.8933C75.4944 18.2082 74.1081 20.0564 72.5673 19.8719C71.0265 19.6875 68.7153 18.6697 67.7612 15.5704C66.8239 12.5257 71.3707 8.26449 71.0008 7.29359C70.7455 6.62343 64.4849 12.5793 54.8995 13.1999M48.9635 4.72526C46.3149 10.1395 52.4441 13.3589 54.8995 13.1999M48.9635 4.72526C47.1355 8.46193 49.4886 11.1532 51.9294 12.4099M54.8995 13.1999C54.1387 13.2492 53.0252 12.9741 51.9294 12.4099M51.9294 12.4099C51.56 15.7929 51.1268 17.6932 51.3175 21.091C51.8151 29.9568 53.638 40.7802 57.3462 42.6873M57.3462 42.6873C59.5214 43.806 62.2248 43.7439 64.6175 42.6873C67.0102 41.6308 69.8068 36.4726 69.8068 36.4726" stroke="#1B1B1B"/>
<path d="M34.9582 129.742C28.8816 129.742 26.9557 126.031 26.4717 123.424C25.897 120.328 26.2377 116.67 29.4043 114.29C30.2708 113.639 31.1298 113.144 32.1144 113.144" stroke="#1B1B1B"/>
<path d="M75.6951 21.5381C76.605 22.5729 76.5543 23.3791 75.3672 26.537" stroke="#1B1B1B"/>
<path d="M54.0651 23.1563H56.6987M73.0247 21.5796C74.4432 20.7334 76.0816 19.6222 77.1883 20.9455C78.0223 21.9428 77.7154 23.3039 77.3963 24.2751M64.529 21.1465C64.529 21.1465 68.1175 20.5379 70.4401 20.3944C72.6502 20.2578 76.0905 20.3364 76.0905 20.3364M56.9346 22.5311C57.7624 20.6934 59.2644 19.6626 61.2799 19.6625C63.3479 19.6623 64.6133 19.4516 64.6133 23.8391C64.6133 26.3035 63.7 28.226 61.2799 28.6911C58.2281 29.2776 55.6582 25.3644 56.9346 22.5311ZM48.3364 21.3931C49.4028 20.7 51.0681 20.7497 52.675 21.7752C54.427 22.8934 54.9537 24.3855 54.9537 26.2453C54.9537 27.6841 54.1138 29.0298 52.675 29.0298C50.8608 29.0298 45.3772 23.3165 48.3364 21.3931Z" stroke="#1B1B1B"/>
</svg>
