<svg width="300" height="200" viewBox="0 0 300 200" fill="none" xmlns="http://www.w3.org/2000/svg">
<path d="M162.407 0.5C165.758 0.5 168.477 3.22445 168.477 6.58824V49.1451C168.477 52.5089 165.758 55.2334 162.407 55.2334H89.4642C86.1134 55.2334 83.3945 52.5089 83.3945 49.1451V6.58824C83.3945 3.22445 86.1134 0.5 89.4642 0.5H162.407Z" fill="#8F00FF" stroke="#1B1B1B"/>
<path fill-rule="evenodd" clip-rule="evenodd" d="M260.476 70.5222C267.55 70.5222 273.285 76.2736 273.285 83.3684C273.285 90.4631 267.55 96.2145 260.476 96.2145H47.8255C40.7508 96.2145 35.0156 90.4631 35.0156 83.3684C35.0156 76.2736 40.7508 70.5222 47.8255 70.5222H260.476Z" fill="#FD493D" stroke="#1B1B1B"/>
<path fill-rule="evenodd" clip-rule="evenodd" d="M109.367 107.592C110.65 107.251 115.387 105.656 115.387 100.599C115.387 97.6741 114.276 94.1887 108.981 94.1887C106.107 94.1887 102.75 95.8325 102.75 100.472C102.75 103.838 104.854 104.703 104.944 104.739L105.228 104.012C105.159 103.984 103.526 103.278 103.526 100.475C103.526 95.2389 108.069 94.9741 108.981 94.9741C112.77 94.9741 114.615 96.8157 114.615 100.602C114.615 105.765 109.144 106.855 108.912 106.901L108.595 106.961V116.456L49.578 139.846C44.5573 141.837 43.0417 146.61 43.7633 150.46C44.4003 153.845 46.9122 157.258 51.1751 158.031C51.4437 159.026 52.3374 159.76 53.4092 159.76H164.55C165.621 159.76 166.515 159.026 166.784 158.031C171.05 157.258 173.562 153.848 174.196 150.46C174.92 146.61 173.405 141.834 168.384 139.846L168.387 139.843L109.367 116.453V107.592ZM164.552 155.063H53.4087C52.192 155.063 51.2017 156.01 51.1021 157.212C47.3252 156.427 45.0972 153.362 44.5236 150.314C43.8593 146.78 45.2511 142.4 49.8582 140.574L108.98 117.144L168.103 140.574C172.71 142.4 174.101 146.783 173.437 150.314V150.311C172.864 153.358 170.636 156.424 166.859 157.212C166.756 156.01 165.769 155.063 164.552 155.063Z" fill="#1D1D1B"/>
<path fill-rule="evenodd" clip-rule="evenodd" d="M103.914 107.592C105.197 107.251 109.934 105.656 109.934 100.599C109.934 97.6741 108.823 94.1887 103.528 94.1887C100.654 94.1887 97.2965 95.8325 97.2965 100.472C97.2965 103.838 99.4007 104.703 99.4913 104.739L99.7751 104.012C99.7057 103.984 98.0725 103.278 98.0725 100.475C98.0725 95.2389 102.616 94.9741 103.528 94.9741C107.317 94.9741 109.161 96.8157 109.161 100.602C109.161 105.765 103.691 106.855 103.458 106.901L103.141 106.961V116.456L44.1249 139.846C39.1041 141.837 37.5886 146.61 38.3102 150.46C38.9472 153.845 41.4591 157.258 45.722 158.031C45.9906 159.026 46.8843 159.76 47.9561 159.76H159.097C160.168 159.76 161.062 159.026 161.331 158.031C165.597 157.258 168.108 153.848 168.742 150.46C169.467 146.61 167.952 141.834 162.931 139.846L162.934 139.843L103.914 116.453V107.592ZM159.099 155.063H47.9555C46.7389 155.063 45.7486 156.01 45.649 157.212C41.8721 156.427 39.6441 153.362 39.0704 150.314C38.4062 146.78 39.798 142.4 44.405 140.574L103.527 117.144L162.65 140.574C167.257 142.4 168.648 146.783 167.984 150.314V150.311C167.41 153.358 165.182 156.424 161.406 157.212C161.303 156.01 160.316 155.063 159.099 155.063Z" fill="#1D1D1B"/>
<path fill-rule="evenodd" clip-rule="evenodd" d="M98.469 107.592C99.752 107.251 104.489 105.656 104.489 100.599C104.489 97.6741 103.378 94.1887 98.0826 94.1887C95.2083 94.1887 91.8511 95.8325 91.8511 100.472C91.8511 103.838 93.9554 104.703 94.046 104.739L94.3298 104.012C94.2604 103.984 92.6271 103.278 92.6271 100.475C92.6271 95.2389 97.1707 94.9741 98.0826 94.9741C101.871 94.9741 103.716 96.8157 103.716 100.602C103.716 105.765 98.2455 106.855 98.0131 106.901L97.6961 106.961V116.456L38.6796 139.846C33.6588 141.837 32.1433 146.61 32.8649 150.46C33.5019 153.845 36.0138 157.258 40.2767 158.031C40.5453 159.026 41.439 159.76 42.5108 159.76H153.651C154.723 159.76 155.617 159.026 155.885 158.031C160.151 157.258 162.663 153.848 163.297 150.46C164.022 146.61 162.506 141.834 157.485 139.846L157.488 139.843L98.469 116.453V107.592ZM153.654 155.063H42.5102C41.2935 155.063 40.3033 156.01 40.2036 157.212C36.4267 156.427 34.1988 153.362 33.6251 150.314C32.9609 146.78 34.3527 142.4 38.9597 140.574L98.0819 117.144L157.204 140.574C161.811 142.4 163.203 146.783 162.539 150.314V150.311C161.965 153.358 159.737 156.424 155.96 157.212C155.858 156.01 154.87 155.063 153.654 155.063Z" fill="#1D1D1B"/>
<path fill-rule="evenodd" clip-rule="evenodd" d="M93.0159 107.592C94.2989 107.251 99.0358 105.656 99.0358 100.599C99.0358 97.6741 97.9248 94.1887 92.6294 94.1887C89.7552 94.1887 86.398 95.8325 86.398 100.472C86.398 103.838 88.5023 104.703 88.5929 104.739L88.8767 104.012C88.8072 103.984 87.174 103.278 87.174 100.475C87.174 95.2389 91.7176 94.9741 92.6294 94.9741C96.4183 94.9741 98.263 96.8157 98.263 100.602C98.263 105.765 92.7924 106.855 92.56 106.901L92.243 106.961V116.456L33.2264 139.846C28.2057 141.837 26.6902 146.61 27.4118 150.46C28.0488 153.845 30.5606 157.258 34.8235 158.031C35.0922 159.026 35.9859 159.76 37.0577 159.76H148.198C149.27 159.76 150.164 159.026 150.432 158.031C154.698 157.258 157.21 153.848 157.844 150.46C158.569 146.61 157.053 141.834 152.032 139.846L152.035 139.843L93.0159 116.453V107.592ZM148.201 155.063H37.0571C35.8404 155.063 34.8502 156.01 34.7505 157.212C30.9736 156.427 28.7456 153.362 28.172 150.314C27.5078 146.78 28.8995 142.4 33.5066 140.574L92.6288 117.144L151.751 140.574C156.358 142.4 157.75 146.783 157.086 150.314V150.311C156.512 153.358 154.284 156.424 150.507 157.212C150.405 156.01 149.417 155.063 148.201 155.063Z" fill="#1D1D1B"/>
<path fill-rule="evenodd" clip-rule="evenodd" d="M87.5706 107.592C88.8536 107.251 93.5905 105.656 93.5905 100.599C93.5905 97.6741 92.4795 94.1887 87.1841 94.1887C84.3099 94.1887 80.9527 95.8325 80.9527 100.472C80.9527 103.838 83.057 104.703 83.1476 104.739L83.4314 104.012C83.3619 103.984 81.7286 103.278 81.7286 100.475C81.7286 95.2389 86.2723 94.9741 87.1841 94.9741C90.973 94.9741 92.8177 96.8157 92.8177 100.602C92.8177 105.765 87.3471 106.855 87.1147 106.901L86.7977 106.961V116.456L27.7811 139.846C22.7604 141.837 21.2449 146.61 21.9665 150.46C22.6035 153.845 25.1153 157.258 29.3782 158.031C29.6468 159.026 30.5405 159.76 31.6123 159.76H142.753C143.825 159.76 144.718 159.026 144.987 158.031C149.253 157.258 151.765 153.848 152.399 150.46C153.123 146.61 151.608 141.834 146.587 139.846L146.59 139.843L87.5706 116.453V107.592ZM142.755 155.063H31.6118C30.3951 155.063 29.4048 156.01 29.3052 157.212C25.5283 156.427 23.3003 153.362 22.7267 150.314C22.0625 146.78 23.4542 142.4 28.0613 140.574L87.1835 117.144L146.306 140.574C150.913 142.4 152.305 146.783 151.64 150.314V150.311C151.067 153.358 148.839 156.424 145.062 157.212C144.959 156.01 143.972 155.063 142.755 155.063Z" fill="#1D1D1B"/>
<path fill-rule="evenodd" clip-rule="evenodd" d="M82.1253 107.592C83.4083 107.251 88.1452 105.656 88.1452 100.599C88.1452 97.6741 87.0342 94.1887 81.7388 94.1887C78.8646 94.1887 75.5074 95.8325 75.5074 100.472C75.5074 103.838 77.6116 104.703 77.7023 104.739L77.9861 104.012C77.9166 103.984 76.2834 103.278 76.2834 100.475C76.2834 95.2389 80.8269 94.9741 81.7388 94.9741C85.5277 94.9741 87.3724 96.8157 87.3724 100.602C87.3724 105.765 81.9018 106.855 81.6694 106.901L81.3524 106.961V116.456L22.3358 139.846C17.3151 141.837 15.7995 146.61 16.5211 150.46C17.1581 153.845 19.67 157.258 23.9329 158.031C24.2015 159.026 25.0952 159.76 26.167 159.76H137.307C138.379 159.76 139.273 159.026 139.542 158.031C143.808 157.258 146.319 153.848 146.953 150.46C147.678 146.61 146.162 141.834 141.142 139.846L141.145 139.843L82.1253 116.453V107.592ZM137.31 155.063H26.1665C24.9498 155.063 23.9595 156.01 23.8599 157.212C20.083 156.427 17.855 153.362 17.2814 150.314C16.6171 146.78 18.0089 142.4 22.616 140.574L81.7381 117.144L140.86 140.574C145.467 142.4 146.859 146.783 146.195 150.314V150.311C145.621 153.358 143.393 156.424 139.617 157.212C139.514 156.01 138.527 155.063 137.31 155.063Z" fill="#1D1D1B"/>
<path fill-rule="evenodd" clip-rule="evenodd" d="M76.6682 107.592C77.9512 107.251 82.6882 105.656 82.6882 100.599C82.6882 97.6741 81.5771 94.1887 76.2818 94.1887C73.4075 94.1887 70.0504 95.8325 70.0504 100.472C70.0504 103.838 72.1546 104.703 72.2452 104.739L72.529 104.012C72.4596 103.984 70.8264 103.278 70.8264 100.475C70.8264 95.2389 75.3699 94.9741 76.2818 94.9741C80.0707 94.9741 81.9153 96.8157 81.9153 100.602C81.9153 105.765 76.4447 106.855 76.2123 106.901L75.8954 106.961V116.456L16.8788 139.846C11.858 141.837 10.3425 146.61 11.0641 150.46C11.7011 153.845 14.213 157.258 18.4759 158.031C18.7445 159.026 19.6382 159.76 20.71 159.76H131.85C132.922 159.76 133.816 159.026 134.085 158.031C138.35 157.258 140.862 153.848 141.496 150.46C142.221 146.61 140.705 141.834 135.685 139.846L135.688 139.843L76.6682 116.453V107.592ZM131.853 155.063H20.7094C19.4928 155.063 18.5025 156.01 18.4029 157.212C14.626 156.427 12.398 153.362 11.8243 150.314C11.1601 146.78 12.5519 142.4 17.1589 140.574L76.2811 117.144L135.403 140.574C140.01 142.4 141.402 146.783 140.738 150.314V150.311C140.164 153.358 137.936 156.424 134.159 157.212C134.057 156.01 133.07 155.063 131.853 155.063Z" fill="#1D1D1B"/>
<path fill-rule="evenodd" clip-rule="evenodd" d="M71.2229 107.592C72.5059 107.251 77.2429 105.656 77.2429 100.599C77.2429 97.6741 76.1318 94.1887 70.8365 94.1887C67.9622 94.1887 64.6051 95.8325 64.6051 100.472C64.6051 103.838 66.7093 104.703 66.7999 104.739L67.0837 104.012C67.0143 103.984 65.3811 103.278 65.3811 100.475C65.3811 95.2389 69.9246 94.9741 70.8365 94.9741C74.6253 94.9741 76.47 96.8157 76.47 100.602C76.47 105.765 70.9994 106.855 70.767 106.901L70.45 106.961V116.456L11.4335 139.846C6.41272 141.837 4.8972 146.61 5.6188 150.46C6.25579 153.845 8.76767 157.258 13.0306 158.031C13.2992 159.026 14.1929 159.76 15.2647 159.76H126.405C127.477 159.76 128.371 159.026 128.639 158.031C132.905 157.258 135.417 153.848 136.051 150.46C136.776 146.61 135.26 141.834 130.239 139.846L130.242 139.843L71.2229 116.453V107.592ZM126.408 155.063H15.2641C14.0475 155.063 13.0572 156.01 12.9576 157.212C9.18065 156.427 6.95266 153.362 6.37902 150.314C5.7148 146.78 7.10657 142.4 11.7136 140.574L70.8358 117.144L129.958 140.574C134.565 142.4 135.957 146.783 135.293 150.314V150.311C134.719 153.358 132.491 156.424 128.714 157.212C128.612 156.01 127.624 155.063 126.408 155.063Z" fill="#1D1D1B"/>
<path fill-rule="evenodd" clip-rule="evenodd" d="M65.7767 107.592C67.0597 107.251 71.7967 105.656 71.7967 100.6C71.7967 97.6743 70.6856 94.1887 65.3903 94.1887C62.516 94.1887 59.1588 95.8326 59.1588 100.472C59.1588 103.839 61.2632 104.703 61.3537 104.74L61.6375 104.012C61.5681 103.985 59.9348 103.279 59.9348 100.475C59.9348 95.239 64.4785 94.9741 65.3903 94.9741C69.1791 94.9741 71.0238 96.8158 71.0238 100.603C71.0238 105.766 65.5532 106.855 65.3208 106.901L65.0038 106.962V116.457L5.98424 139.845C0.963502 141.836 -0.552018 146.609 0.169584 150.46C0.806575 153.845 3.31845 157.258 7.58136 158.031C7.84997 159.026 8.74366 159.76 9.81547 159.76H120.956C122.028 159.76 122.921 159.026 123.19 158.031C127.456 157.258 129.968 153.848 130.602 150.46C131.326 146.609 129.811 141.833 124.79 139.845H124.796L65.7767 116.454V107.592ZM120.962 155.066H9.81881C8.60214 155.066 7.61188 156.013 7.51224 157.215C3.73534 156.43 1.50734 153.364 0.933708 150.317C0.269483 146.783 1.66125 142.402 6.26831 140.576L65.3905 117.145L124.513 140.576C129.12 142.402 130.512 146.786 129.847 150.317V150.314C129.274 153.361 127.046 156.427 123.269 157.215C123.166 156.013 122.179 155.066 120.962 155.066Z" fill="#1D1D1B"/>
<path fill-rule="evenodd" clip-rule="evenodd" d="M218.809 86.4382C215.848 86.4382 213.445 88.8474 213.445 91.8173V143.811L222.753 131.944H278.368C281.33 131.944 283.732 129.535 283.732 126.565V91.8173C283.732 88.8474 281.33 86.4382 278.368 86.4382H218.809Z" fill="#8F00FF" stroke="#1B1B1B"/>
<path fill-rule="evenodd" clip-rule="evenodd" d="M85.4421 62.2096L80.4194 68.8544L78.5059 60.7184L71.2452 64.7242L72.7713 56.5032L64.5253 57.1774L69.2265 50.2957L61.4221 47.5199L68.4845 43.1649L62.4735 37.419L70.6775 36.344L67.4962 28.6241L75.4238 31.0172L75.6221 22.6565L82.1498 28.3174L81.7652 28.7699L76.1808 23.9259L76.0036 31.3634C76.0005 31.4727 75.9495 31.5699 75.8623 31.6337C75.7752 31.6975 75.6701 31.7157 75.5679 31.6853L68.5176 29.5564L71.3474 36.4229C71.3864 36.5201 71.3804 36.6325 71.3293 36.7236C71.2783 36.8147 71.1851 36.8785 71.08 36.8937L63.7803 37.8503L69.1274 42.9584C69.2025 43.0283 69.2415 43.1346 69.2325 43.2408C69.2235 43.3472 69.1634 43.4444 69.0733 43.499L62.7889 47.3741L69.7312 49.8432C69.8303 49.8766 69.9084 49.9586 69.9415 50.0588C69.9745 50.159 69.9565 50.2714 69.8994 50.3594L65.7178 56.4819L73.0536 55.8836C73.1617 55.8745 73.2609 55.917 73.333 55.996C73.4021 56.075 73.4351 56.1843 73.4141 56.2876L72.0593 63.6005L78.5179 60.0382C78.611 59.9865 78.7191 59.9835 78.8183 60.026C78.9144 60.0685 78.9865 60.1536 79.0106 60.2599L80.7138 67.4969L85.1808 61.587C85.307 61.42 85.5923 61.417 85.7185 61.587L90.1855 67.4969L91.8887 60.2599C91.9127 60.1536 91.9849 60.0685 92.081 60.026C92.1771 59.9835 92.2882 59.9865 92.3814 60.0382L98.84 63.6005L97.4852 56.2876C97.4672 56.1843 97.4972 56.075 97.5663 55.996C97.6354 55.917 97.7405 55.8775 97.8456 55.8836L105.178 56.4819L100.997 50.3594C100.937 50.2714 100.922 50.159 100.955 50.0588C100.988 49.9586 101.066 49.8766 101.165 49.8432L108.104 47.3741L101.868 43.5294L101.862 42.8278L109.471 47.5199L101.667 50.2957L106.368 57.1774L98.122 56.5032L99.6481 64.7242L92.3874 60.7184L90.4738 68.8544H90.4648L85.4421 62.2096Z" fill="#8F00FF"/>
<path fill-rule="evenodd" clip-rule="evenodd" d="M145.441 154.335C145.441 154.335 135.037 166.565 140.078 199.5H166.439C163.045 184.528 159.753 167.81 162.043 158.748L162.04 158.745C158.896 150.402 153.843 147.034 145.441 154.335Z" fill="#FCAF17" stroke="#1B1B1B"/>
<path fill-rule="evenodd" clip-rule="evenodd" d="M176.373 153.611C167.813 149.762 163.612 152.4 162.031 158.572C165.79 168.414 166.865 185.148 167.625 199.497L194.724 199.5C191.023 163.086 176.373 153.611 176.373 153.611Z" fill="#FCAF17" stroke="#1B1B1B"/>
<path fill-rule="evenodd" clip-rule="evenodd" d="M126.288 111.815C128.158 93.3718 140.18 34.9139 142.12 29.756C144.057 24.5982 147.175 6.62446 161.203 11.4702C175.231 16.3159 182.508 22.88 189.857 56.7969C197.206 90.714 192.22 109.47 196.584 117.285C200.947 125.101 197.938 140.165 174.92 146.514C156.217 151.672 141.721 152.172 134.241 142.45H134.235C134.235 142.45 124.417 130.259 126.288 111.815Z" fill="#1B1B1B"/>
<path fill-rule="evenodd" clip-rule="evenodd" d="M139.694 114.161C137.823 107.439 138.914 109.785 132.991 87.5894C132.136 84.3892 125.198 64.9245 137.512 65.8639C149.826 66.8004 149.201 65.8639 149.669 64.1456C150.137 62.4274 149.669 56.7998 149.669 56.7998C149.669 56.7998 156.372 61.3334 165.256 56.7998C165.256 56.7998 164.634 60.706 166.347 62.582C168.061 64.4578 169.62 66.4882 174.295 65.5518C178.97 64.6154 185.672 61.9577 189.102 67.4277C192.532 72.8977 183.179 111.506 182.868 117.13C182.557 122.758 182.868 127.758 183.336 128.698C183.805 129.637 156.06 143.547 138.606 131.355L138.603 131.352C137.962 130.907 141.564 120.879 139.694 114.161Z" fill="#FCAF17" stroke="#1B1B1B"/>
<path fill-rule="evenodd" clip-rule="evenodd" d="M137.976 129.319C137.976 129.319 152.548 139.244 183.407 126.116C183.407 126.116 192.135 147.687 207.411 158.315C207.411 158.315 213.074 180.213 176.941 190.277C155.899 196.138 135.715 194.89 127.922 190.511C127.922 190.511 132.947 152.275 137.976 129.319Z" fill="#AB41FF" stroke="#1B1B1B"/>
<path fill-rule="evenodd" clip-rule="evenodd" d="M134.719 126.298C126.053 140.807 123.179 140.247 121.571 131.419C119.081 117.764 127.215 96.1274 127.442 90.721C127.738 83.6579 128.005 82.3309 129.403 75.402C130.16 72.3222 130.484 69.0849 132.932 67.1543C135.513 65.1184 140.314 65.3207 143.519 67.9427C149.764 73.0509 143.386 111.788 134.719 126.298Z" fill="#8F00FF" stroke="#1B1B1B"/>
<path fill-rule="evenodd" clip-rule="evenodd" d="M180.919 63.7686C173.522 64.5484 158.875 104.33 158.773 121.243C158.67 138.156 161.414 139.171 167.358 132.465C176.554 122.089 178.521 98.8601 181.126 94.1205C183.731 89.3808 186.52 83.8168 189.403 74.6042H189.406C191.352 68.3857 188.315 62.9888 180.919 63.7686Z" fill="#8F00FF" stroke="#1B1B1B"/>
<path fill-rule="evenodd" clip-rule="evenodd" d="M142.24 41.8959C143.28 55.8573 147.435 56.9938 151.696 58.4575C155.957 59.9212 164.062 59.1939 166.658 55.6513C169.253 52.1086 171.021 48.566 171.644 44.3991C171.644 44.3991 176.319 50.1298 177.15 42.3142C177.981 34.4986 175.382 35.0198 174.137 36.1653C172.889 37.3108 172.475 37.8321 172.475 37.8321C172.475 37.8321 173.203 28.7679 169.462 25.3284C165.721 21.8888 156.371 20.5342 153.15 22.41C149.928 24.2859 150.551 20.0129 147.746 21.3676C147.278 21.5948 141.201 27.9315 142.24 41.8959Z" fill="white" stroke="#1B1B1B"/>
<path fill-rule="evenodd" clip-rule="evenodd" d="M134.732 97.2852C136.5 96.9964 140.313 94.4931 140.933 94.5761C141.554 94.6592 148.943 94.4133 149.62 93.3612C150.297 92.309 150.293 90.1625 147.131 89.7207C143.967 89.2814 143.743 89.6319 141.592 88.6729C138.742 87.3998 149.496 80.2615 151.479 75.1859C153.462 70.1102 151.999 66.1113 145.981 66.3564C139.965 66.6033 127.841 81.6641 125.256 84.7609C122.671 87.8577 120.108 92.267 121.089 94.508C122.069 96.7491 125.935 99.4009 129.495 98.7576L129.493 98.7558C129.493 98.7558 132.964 97.5739 134.732 97.2852Z" fill="white" stroke="black"/>
<path fill-rule="evenodd" clip-rule="evenodd" d="M112.428 127.994C112.497 123.573 119.106 96.3287 119.263 93.58C120.566 87.337 132.7 87.3347 132.7 95.5787C131.379 112.449 129.417 130.412 128.516 133.946C127.616 137.476 119.354 142.186 117.042 141.295H117.036C117.036 141.295 112.231 140.449 112.428 127.994Z" fill="#8F00FF" stroke="#1B1B1B"/>
<path fill-rule="evenodd" clip-rule="evenodd" d="M164.288 121.949C162.961 117.734 148.858 93.5231 147.921 90.932C146.987 88.344 130.463 80.0587 136.543 95.8444C142.621 111.63 148.701 129.137 150.571 132.262C152.442 135.389 161.704 137.529 163.662 136.013L163.665 136.016C163.665 136.016 168.029 133.828 164.288 121.949Z" fill="#8F00FF" stroke="#1B1B1B"/>
<path fill-rule="evenodd" clip-rule="evenodd" d="M132.812 89.2546C131.766 87.7771 130.861 83.2593 130.362 82.8743C129.863 82.4893 124.796 76.9981 125.074 75.7646C125.352 74.531 126.899 73.0091 129.458 74.972C132.018 76.9321 131.927 77.3439 134.145 78.2094C137.083 79.3572 134.25 67.0372 137.41 60.9473C139.378 57.1539 143.848 55.8007 147.083 59.2031C150.318 62.6055 148.941 83.1157 148.55 87.1759C148.156 91.2351 146.804 96.208 144.495 97.0944C142.186 97.9808 137.538 97.082 135.474 94.0653L135.47 94.0673C135.47 94.0673 133.858 90.732 132.812 89.2546Z" fill="white" stroke="black"/>
<path d="M270.727 42.9495L278.828 34.9302C282.573 31.2235 288.657 31.2216 292.404 34.9302C296.149 38.637 296.15 44.6585 292.404 48.3672L284.302 56.3864L270.728 42.9514L270.727 42.9495Z" stroke="#1D1D1B" stroke-miterlimit="10"/>
<path d="M284.3 56.3845C271.434 69.1192 257.966 76.4346 254.219 72.7232" stroke="#1D1D1B" stroke-miterlimit="10"/>
<path d="M270.726 42.9491C257.86 55.684 250.47 69.015 254.22 72.7237" stroke="#1D1D1B" stroke-miterlimit="10"/>
<path d="M282.923 38.0933H282.925C284.149 38.0933 285.142 39.0761 285.142 40.2873V42.1188H287.036C288.259 42.1188 289.252 43.1044 289.252 44.3129C289.252 44.9171 289.003 45.465 288.604 45.8624C288.205 46.2599 287.649 46.507 287.038 46.507H280.709V40.2873C280.709 39.0788 281.702 38.0933 282.923 38.0933ZM281.069 46.1471H287.033C287.529 46.1471 287.993 45.9564 288.343 45.61C288.693 45.2636 288.886 44.8043 288.886 44.3129C288.886 43.3005 288.053 42.4787 287.033 42.4787H284.778V40.29C284.778 39.8012 284.586 39.3393 284.236 38.9929C283.886 38.6465 283.422 38.4558 282.925 38.4558C282.429 38.4558 281.965 38.6465 281.615 38.9929C281.265 39.3393 281.072 39.7986 281.072 40.29V46.1498M282.923 37.3494C282.13 37.3494 281.387 37.6555 280.825 38.2114C280.266 38.7673 279.957 39.5031 279.957 40.2873V47.2482H287.036C287.828 47.2482 288.571 46.942 289.133 46.3861C289.695 45.8302 290.004 45.0917 290.004 44.3102C290.004 42.6909 288.672 41.3723 287.036 41.3723H285.893V40.2846C285.893 38.6653 284.561 37.3467 282.925 37.3467H282.923V37.3494ZM281.821 45.4032V40.2873C281.821 39.9973 281.935 39.7207 282.144 39.5166C282.353 39.3098 282.629 39.197 282.925 39.197C283.218 39.197 283.495 39.3098 283.704 39.5166C283.913 39.7234 284.027 39.9973 284.027 40.29V42.4787V43.2226H287.033C287.641 43.2226 288.137 43.7113 288.137 44.3156C288.137 44.6056 288.023 44.8822 287.814 45.0863C287.605 45.2931 287.329 45.4059 287.033 45.4059H281.821V45.4032Z" fill="#1D1D1B"/>
<path d="M249.902 38.988L251.701 27.7877C252.532 22.6105 257.454 19.0722 262.687 19.8953C267.918 20.7181 271.493 25.5904 270.661 30.7702L268.863 41.9705L249.905 38.9885L249.902 38.988Z" stroke="#1D1D1B" stroke-miterlimit="10"/>
<path d="M248.79 59.8357C248.332 54.0538 248.663 46.7841 249.916 38.9961" stroke="#1D1D1B" stroke-miterlimit="10"/>
<path d="M268.874 41.9768C266.017 59.763 259.456 73.5128 254.223 72.6883" stroke="#1D1D1B" stroke-miterlimit="10"/>
<path d="M258.2 27.5581C258.886 27.5581 259.564 27.8723 259.996 28.4631L261.081 29.9455L262.614 28.8445C263.007 28.5625 263.46 28.4282 263.913 28.4282C264.6 28.4282 265.278 28.7424 265.71 29.3332C266.07 29.822 266.193 30.4101 266.103 30.966C266.013 31.5219 265.712 32.0429 265.216 32.3974L260.096 36.0739L256.406 31.0412C255.687 30.0637 255.907 28.686 256.897 27.977C257.291 27.6951 257.744 27.5581 258.197 27.5581M260.18 35.5717L265.007 32.1047C265.408 31.8173 265.672 31.393 265.748 30.9069C265.826 30.4235 265.707 29.9375 265.417 29.5427C265.053 29.0486 264.489 28.7854 263.913 28.7854C263.536 28.7854 263.157 28.8982 262.828 29.1345L261.002 30.445L259.703 28.6726C259.412 28.2751 258.984 28.0146 258.493 27.9394C258.395 27.9233 258.295 27.9153 258.197 27.9153C257.809 27.9153 257.432 28.0361 257.112 28.2644C256.71 28.5517 256.447 28.976 256.371 29.4621C256.292 29.9455 256.412 30.4316 256.702 30.8264L260.177 35.569M258.2 26.8142C257.57 26.8142 256.968 27.0076 256.46 27.3728C255.82 27.832 255.397 28.5115 255.272 29.2876C255.147 30.0637 255.334 30.8398 255.801 31.4763L259.491 36.5089L259.931 37.1105L260.538 36.6727L265.658 32.9963C266.298 32.537 266.722 31.8549 266.844 31.0788C266.969 30.3027 266.781 29.5266 266.315 28.8928C265.758 28.1355 264.86 27.6816 263.911 27.6816C263.281 27.6816 262.679 27.875 262.172 28.2402L261.246 28.9035L260.601 28.0227C260.045 27.2654 259.146 26.8115 258.197 26.8115L258.2 26.8142ZM260.346 34.5324L257.31 30.3913C257.136 30.155 257.068 29.8676 257.114 29.5803C257.16 29.2929 257.318 29.0378 257.557 28.8659C257.746 28.7317 257.969 28.6592 258.2 28.6592C258.259 28.6592 258.319 28.6645 258.376 28.6726C258.666 28.7182 258.921 28.874 259.095 29.1103L260.395 30.8828L260.837 31.4843L261.445 31.0493L263.27 29.7387C263.46 29.6018 263.683 29.5319 263.916 29.5319C264.272 29.5319 264.605 29.7011 264.812 29.9831C264.985 30.2194 265.053 30.5068 265.007 30.7941C264.961 31.0815 264.803 31.3366 264.565 31.5058L260.346 34.5351V34.5324Z" fill="#1D1D1B"/>
</svg>
