<svg width="326" height="167" viewBox="0 0 326 167" fill="none" xmlns="http://www.w3.org/2000/svg">
<path fill-rule="evenodd" clip-rule="evenodd" d="M266.343 23.2661C271.705 23.2661 276.051 27.6096 276.051 32.9675C276.051 38.3254 271.705 42.6689 266.343 42.6689H105.18C99.819 42.6689 95.4727 38.3254 95.4727 32.9675C95.4727 27.6096 99.819 23.2661 105.18 23.2661H266.343Z" fill="#FCAF17" stroke="#1B1B1B"/>
<path fill-rule="evenodd" clip-rule="evenodd" d="M61.3288 9.49634C55.9668 9.49634 51.6211 13.8392 51.6211 19.1977C51.6211 23.6621 54.6389 27.4193 58.7444 28.5502V35.9244L64.2716 28.8991H222.489C227.851 28.8991 232.196 24.5562 232.196 19.1977C232.196 13.8392 227.851 9.49634 222.489 9.49634H222.492H61.3288Z" fill="#8F00FF" stroke="#1B1B1B"/>
<path fill-rule="evenodd" clip-rule="evenodd" d="M111.057 93.4679C114.473 92.1562 142.374 84.8172 142.374 84.8172C153.762 95.4439 147.814 111.052 147.814 111.052C129.618 112.663 93.9618 110.051 93.3414 109.995C88.9114 89.0068 99.447 53.2675 99.447 53.2675C105.71 48.2485 120.041 45.5942 120.041 45.5942C120.041 45.5942 136.747 65.3864 142.437 79.5366C142.437 79.5366 131.192 45.7905 130.528 45.3979C130.528 45.3979 147.088 47.0211 153.871 50.4169C153.871 50.4169 163.124 99.3132 164.072 105.709L175.46 154.54C175.46 154.54 163.124 158.148 157.238 156.771L151.165 108.167C151.165 108.167 138.197 115.775 117.067 113.021L110.994 68.9442C112.512 75.5022 111.057 93.4679 111.057 93.4679Z" fill="#1B1B1B"/>
<path fill-rule="evenodd" clip-rule="evenodd" d="M116.439 117.024C113.403 126.47 113.783 150.671 113.973 157.559C114.163 164.447 161.991 161.493 161.991 161.493C161.991 161.493 157.437 116.04 152.692 106.397C152.692 106.397 139.025 109.547 125.551 108.759H125.548C125.548 108.759 119.475 107.578 116.439 117.024Z" fill="#1B1B1B"/>
<path fill-rule="evenodd" clip-rule="evenodd" d="M143.397 17.0641C143.007 15.2945 142.34 8.7989 136.077 6.34089C129.814 3.87972 120.705 5.25978 117.001 9.19454C113.301 13.1293 111.212 18.0486 110.548 21.0986C109.884 24.1485 106.561 44.9408 109.41 62.6176C111.184 73.6306 113.732 89.6327 113.732 92.7792C117.345 91.6683 121.385 91.0245 127.844 89.3526C127.844 89.3526 122.697 45.9907 123.077 38.71C123.458 31.4293 133.801 26.3137 133.801 26.3137L130.416 38.9717C130.416 38.9717 131.12 44.8099 131.716 46.2586C132.311 47.7073 147.085 84.952 146.991 88.002C146.898 91.052 154.299 89.8712 154.299 89.8712C154.299 89.8712 140.158 48.8444 140.445 39.2022C140.728 29.56 144.438 29.5787 142.3 18.9459V18.9427C142.3 18.9427 143.79 18.8336 143.397 17.0641Z" fill="black"/>
<path fill-rule="evenodd" clip-rule="evenodd" d="M119.276 45.7906L117.568 26.9984C117.568 26.9984 116.713 28.768 115.669 26.9984C114.625 25.2289 114.057 17.5525 116.904 18.0447C119.75 18.537 119.276 19.7177 119.276 19.7177C119.276 19.7177 118.992 12.8295 126.773 11.356C134.555 9.87928 134.174 12.9293 136.169 12.2407C138.161 11.5522 139.966 9.48672 141.862 17.0602C143.76 24.637 143.533 30.578 138.255 35.8524C133.891 40.214 130.412 38.9678 130.412 38.9678C130.412 38.9678 130.664 43.6254 131.518 45.7906C131.518 45.7906 142.099 70.9444 143.38 81.1443C144 86.0884 119.276 45.7906 119.276 45.7906Z" fill="white" stroke="black" stroke-width="1.58"/>
<path fill-rule="evenodd" clip-rule="evenodd" d="M324.046 158.135V166.108H75.4844V158.135H324.046Z" fill="#8F00FF" stroke="#1B1B1B" stroke-linejoin="round"/>
<path fill-rule="evenodd" clip-rule="evenodd" d="M203.851 65.9441H201.824V70.3258C202.501 70.3087 203.174 70.3155 203.851 70.3462V70.3428V65.9441Z" fill="#FBB3C1"/>
<path fill-rule="evenodd" clip-rule="evenodd" d="M201.824 134.336V158.135H203.851V134.336C203.174 134.343 202.501 134.343 201.824 134.336Z" fill="#FBB3C1"/>
<path fill-rule="evenodd" clip-rule="evenodd" d="M222.711 132.657L216.855 103.541C216.088 99.7275 216.234 95.7896 217.284 92.0386L220.678 79.9166C221.35 77.5146 220.205 74.9786 217.937 73.8571L216.969 73.3773C212.728 71.2807 208.141 70.1404 203.52 69.9597V134.333C207.853 134.293 212.186 134.003 216.494 133.452V133.455L222.711 132.657Z" fill="black"/>
<path fill-rule="evenodd" clip-rule="evenodd" d="M186.911 73.9661C184.649 75.0316 183.451 77.4897 184.027 79.8792L187.207 93.0698C187.952 96.1572 188.089 99.3536 187.615 102.491L183.043 132.66L189.287 133.458C193.585 134.006 197.908 134.299 202.235 134.34V69.9473C197.596 70.0501 192.973 71.1093 188.682 73.1312L186.911 73.9661Z" fill="black"/>
<path fill-rule="evenodd" clip-rule="evenodd" d="M203.851 69.9629C203.177 69.9349 202.501 69.9318 201.824 69.9442V134.337C202.501 134.343 203.174 134.343 203.851 134.337V69.9629Z" fill="#FBB3C1"/>
<path fill-rule="evenodd" clip-rule="evenodd" d="M212.371 62.7819C211.389 59.4391 208.316 57.1399 204.83 57.1399H200.924C197.436 57.1399 194.365 59.436 193.383 62.7819C192.918 64.3614 194.103 65.944 195.749 65.944H210.005C211.651 65.944 212.836 64.3614 212.371 62.7819Z" fill="#FBB3C1"/>
<path fill-rule="evenodd" clip-rule="evenodd" d="M203.851 61.5417V65.9438H201.824V61.5417H203.851Z" fill="#FBB3C1"/>
<path fill-rule="evenodd" clip-rule="evenodd" d="M309.111 141.882L324.047 158.135H55.0508V141.882H309.111Z" fill="white" stroke="#1B1B1B" stroke-linejoin="round"/>
<path fill-rule="evenodd" clip-rule="evenodd" d="M75.7519 121.05C73.9905 115.271 68.6909 102.905 66.2717 100.391C63.8526 97.874 48.9231 92.2259 47.5109 89.6027C46.691 88.0792 47.5732 84.9888 48.4586 82.6678C50.9682 82.7799 53.5931 82.5711 56.2553 81.9419C58.8085 81.3375 63.7248 69.3619 61.2589 56.8193C59.1452 46.0617 53.1597 43.4416 48.2186 42.9369C42.9283 42.398 27.235 42.3918 26.2437 58.8878C25.9194 64.2682 27.3815 69.6111 30.2371 74.1846C30.3961 74.4368 30.5769 74.6892 30.7702 74.9415L31.8083 165.077C31.8083 165.077 52.9259 165.778 70.2745 165.781L87.0184 165.787H87.0215C87.0215 165.787 80.2379 135.758 75.7519 121.05Z" fill="white" stroke="black"/>
<path fill-rule="evenodd" clip-rule="evenodd" d="M47.51 37.192C58.8076 41.8277 61.0241 49.4885 59.11 54.5293C57.1927 59.57 55.1757 60.4766 55.1757 60.4766C55.1757 60.4766 55.3784 56.4453 52.3513 57.4516C49.3243 58.4609 49.2246 67.5299 52.049 66.6233C52.049 66.6233 48.414 73.4056 46.7026 80.5616C45.3839 86.079 45.2062 91.8176 48.7195 94.8458C56.7875 101.799 46.7026 124.177 47.7095 130.527C48.7195 136.876 54.3652 138.994 56.1827 148.266C57.4141 154.556 53.4269 166.544 30.5635 164.93C7.70323 163.316 -8.1677 156.596 4.47355 110.099C17.1148 63.5982 20.678 48.4137 28.5465 40.2482H28.5496C28.5496 40.2482 36.2154 32.5532 47.51 37.192Z" fill="black"/>
<path fill-rule="evenodd" clip-rule="evenodd" d="M224.639 13.679C223.807 12.9843 222.693 12.711 221.585 12.9291C220.267 13.1878 219.255 14.1761 218.981 15.3912C218.906 15.7313 219.179 16.051 219.552 16.051C219.831 16.051 220.069 15.8679 220.125 15.615C220.302 14.8098 220.965 14.1558 221.826 13.9872C222.562 13.8418 223.301 14.022 223.851 14.4813C223.883 14.5075 223.915 14.5366 223.947 14.5656C224.947 15.49 224.947 16.9958 223.947 17.9231L222.873 18.9143C221.954 19.7631 221.436 20.9171 221.436 22.1177L221.446 23.4592C221.446 23.7583 221.71 23.9997 222.029 23.9997C222.354 23.9997 222.618 23.7583 222.618 23.4592L222.606 22.1177C222.606 21.202 222.998 20.327 223.699 19.6788L224.773 18.6876C226.23 17.3417 226.23 15.147 224.773 13.8011H224.779C224.732 13.7604 224.688 13.7197 224.639 13.679Z" fill="white"/>
<path fill-rule="evenodd" clip-rule="evenodd" d="M221.434 25.2713C221.434 25.5765 221.698 25.8207 222.027 25.8207C222.356 25.8207 222.62 25.5765 222.62 25.2713C222.62 24.9661 222.356 24.7219 222.027 24.7219C221.698 24.7219 221.434 24.9661 221.434 25.2713Z" fill="white"/>
<path fill-rule="evenodd" clip-rule="evenodd" d="M228.448 26.9609L239.586 58.6641C240.165 60.3124 239.296 62.1186 237.649 62.6971C236 63.2765 234.193 62.4076 233.615 60.762L222.477 29.0588L228.448 26.9609Z" fill="white" stroke="#1B1B1B"/>
<path fill-rule="evenodd" clip-rule="evenodd" d="M227.417 33.5571C234.95 30.909 238.819 22.3976 236.056 14.5433C233.292 6.69187 224.944 2.47109 217.41 5.11926C209.877 7.76739 206.008 16.2787 208.771 24.1331C211.535 31.9845 219.883 36.2053 227.417 33.5571ZM230.785 16.3948C229.09 11.5723 223.962 8.98226 219.337 10.6072C214.709 12.2321 212.335 17.4587 214.031 22.2812C215.727 27.1037 220.855 29.6937 225.48 28.0687C230.108 26.4438 232.481 21.2172 230.785 16.3948Z" fill="white" stroke="#1B1B1B"/>
<path fill-rule="evenodd" clip-rule="evenodd" d="M176.569 149.998C178.702 149.998 180.609 148.671 181.348 146.674C182.09 144.671 181.52 142.415 179.911 141.007L178.951 140.166C176.635 138.138 173.324 137.708 170.565 139.076L169.103 139.802C168.916 139.895 167.741 140.618 167.186 141.123C163.856 144.138 165.777 149.721 170.263 149.992C170.328 149.995 170.387 149.998 170.434 149.998H170.431H176.569Z" fill="#FBB3C1" stroke="#1D1D1B" stroke-linejoin="round"/>
<path fill-rule="evenodd" clip-rule="evenodd" d="M166.961 131.169H170.255H166.961Z" fill="white"/>
<path d="M166.961 131.169H170.255" stroke="#1D1D1B" stroke-linejoin="round"/>
<path fill-rule="evenodd" clip-rule="evenodd" d="M176.719 128.505H178.696H176.719Z" fill="white"/>
<path d="M176.719 128.505H178.696" stroke="#1D1D1B" stroke-linejoin="round"/>
<path fill-rule="evenodd" clip-rule="evenodd" d="M177 132.422H181.285H177Z" fill="white"/>
<path d="M177 132.422H181.285" stroke="#1D1D1B" stroke-linejoin="round"/>
<path fill-rule="evenodd" clip-rule="evenodd" d="M178.834 142.599L178.697 142.487C178.569 142.381 178.544 142.197 178.641 142.063L183.551 135.315C183.716 135.091 183.978 134.957 184.259 134.957C184.461 134.957 184.658 135.029 184.817 135.156C185 135.309 185.113 135.53 185.131 135.767C185.147 136.004 185.066 136.241 184.904 136.415L179.264 142.568C179.202 142.633 179.118 142.668 179.034 142.668L179.031 142.671C178.962 142.671 178.89 142.649 178.834 142.599Z" fill="white"/>
<path fill-rule="evenodd" clip-rule="evenodd" d="M184.253 135.266C184.254 135.266 184.255 135.266 184.256 135.266C184.379 135.266 184.506 135.31 184.611 135.393C184.857 135.599 184.882 135.967 184.667 136.203L179.028 142.356C178.941 142.285 178.978 142.316 178.891 142.244L183.801 135.496C183.909 135.344 184.079 135.267 184.253 135.266C184.254 135.266 184.255 135.266 184.256 135.266" fill="#1D1D1B"/>
<path fill-rule="evenodd" clip-rule="evenodd" d="M178.384 141.88C178.191 142.148 178.238 142.518 178.494 142.727L178.581 142.799L178.631 142.839C178.746 142.933 178.886 142.979 179.024 142.979C179.192 142.979 179.36 142.911 179.485 142.777L185.124 136.624C185.343 136.387 185.455 136.066 185.433 135.742C185.411 135.421 185.255 135.119 185.006 134.91C184.794 134.736 184.526 134.639 184.252 134.639L184.255 134.643C183.877 134.643 183.519 134.826 183.294 135.132L178.384 141.88Z" fill="#1D1D1B"/>
<path fill-rule="evenodd" clip-rule="evenodd" d="M180.783 134.577C180.105 134.577 179.555 134.027 179.555 133.349C179.555 132.671 180.105 132.122 180.783 132.122C181.461 132.122 182.011 132.671 182.011 133.349C182.011 134.027 181.461 134.577 180.783 134.577Z" fill="#FBB3C1"/>
<path fill-rule="evenodd" clip-rule="evenodd" d="M178.693 129.835C178.015 129.835 177.465 129.286 177.465 128.608C177.465 127.93 178.015 127.38 178.693 127.38C179.371 127.38 179.921 127.93 179.921 128.608C179.921 129.286 179.371 129.835 178.693 129.835Z" fill="#FBB3C1"/>
<path fill-rule="evenodd" clip-rule="evenodd" d="M166.724 131.533C166.046 131.533 165.496 130.984 165.496 130.306C165.496 129.628 166.046 129.078 166.724 129.078C167.403 129.078 167.953 129.628 167.953 130.306C167.953 130.984 167.403 131.533 166.724 131.533Z" fill="#FBB3C1"/>
<path fill-rule="evenodd" clip-rule="evenodd" d="M100.199 147.677C99.1793 147.939 97.9105 148.194 96.5545 148.303V146.829C96.5545 146.829 96.5607 146.811 96.5607 146.801C96.5607 146.228 94.8305 145.926 93.1221 145.926C91.4138 145.926 89.6836 146.225 89.6836 146.801C89.6836 146.82 89.6898 146.836 89.6929 146.854L89.6836 146.848V152.986L89.7366 153.01C89.7771 153.029 92.2555 154.216 95.666 154.216C97.0564 154.216 98.5995 154.017 100.199 153.465V153.593C100.688 153.515 102.409 152.736 102.855 152.375C102.892 152.344 102.914 152.297 102.914 152.247V146.745C102.914 146.683 102.849 146.639 102.789 146.664H102.792C102.309 146.873 100.582 147.456 100.199 147.543V147.677Z" stroke="#1B1B1B" stroke-linejoin="round"/>
<path fill-rule="evenodd" clip-rule="evenodd" d="M96.3769 147.104V148.315C94.4877 148.446 92.452 148.281 90.7031 147.437C91.3547 147.593 92.24 147.674 93.1223 147.674C94.5002 147.674 95.8875 147.477 96.3769 147.104V147.104Z" stroke="#1B1B1B" stroke-linejoin="round"/>
<path fill-rule="evenodd" clip-rule="evenodd" d="M93.1234 147.487C91.1095 147.487 89.875 147.088 89.875 146.801C89.875 146.515 91.1095 146.116 93.1234 146.116C95.1341 146.116 96.3718 146.515 96.3718 146.801C96.3718 147.088 95.1373 147.487 93.1234 147.487V147.487Z" stroke="#1B1B1B" stroke-linejoin="round"/>
<path d="M99.0964 152.088V153.587M99.0964 153.587C98.8501 153.646 98.4729 153.743 98.2329 153.789M99.0964 153.587C99.4612 153.494 99.829 153.394 100.2 153.263V147.87C97.4816 148.562 93.0517 149.197 89.875 147.197V152.864C90.0246 152.929 90.6668 153.185 91.3496 153.397M98.2329 153.789V150.577M98.2329 153.789C98.0084 153.827 97.5969 153.892 97.3756 153.92M97.3756 153.92V152.369M97.3756 153.92C97.1293 153.948 96.7521 153.986 96.5121 154.001M96.5121 154.001V150.739M96.5121 154.001C96.2845 154.01 95.873 154.026 95.6548 154.026M95.6548 154.026C95.6548 154.026 95.6548 153.058 95.6548 152.437M95.6548 154.026C95.4054 154.026 95.0281 154.014 94.7912 153.998M94.7912 153.998V150.739M94.7912 153.998C94.5636 153.982 94.1521 153.948 93.9339 153.923M93.9339 153.923V152.275M93.9339 153.923C93.6814 153.892 93.3042 153.839 93.0704 153.799M93.0704 153.799V150.512M93.0704 153.799C92.8366 153.755 92.4251 153.674 92.2131 153.624M92.2131 153.624V152.023M92.2131 153.624C91.9512 153.562 91.5709 153.462 91.3496 153.397M91.3496 153.397V150.066" stroke="#1B1B1B" stroke-linecap="round" stroke-linejoin="round"/>
<path fill-rule="evenodd" clip-rule="evenodd" d="M150.85 112.149C152.754 112.149 154.304 113.694 154.304 115.601V139.633H110.996V115.601C110.996 113.697 112.542 112.149 114.45 112.149H150.85Z" fill="white" stroke="#1D1D1B" stroke-linejoin="round"/>
<path fill-rule="evenodd" clip-rule="evenodd" d="M151.689 114.822V137.642H113.609V114.822H151.689Z" fill="white" stroke="#1D1D1B"/>
<path fill-rule="evenodd" clip-rule="evenodd" d="M156.991 154.602C158.422 154.602 159.485 153.272 159.161 151.876L158.88 150.655L106.451 150.574L106.149 151.873C105.824 153.269 106.884 154.602 108.318 154.602H108.321H156.991Z" fill="white" stroke="#1D1D1B"/>
<path fill-rule="evenodd" clip-rule="evenodd" d="M106.541 150.25C106.055 151.409 106.906 152.693 108.165 152.693H157.137C158.397 152.693 159.251 151.409 158.762 150.25L154.297 139.636H110.99L110.993 139.633L106.541 150.25Z" fill="white" stroke="#1D1D1B" stroke-linejoin="round"/>
<path fill-rule="evenodd" clip-rule="evenodd" d="M127.488 149.799C127.017 149.799 126.714 149.294 126.939 148.879L127.276 148.259C127.385 148.06 127.594 147.932 127.824 147.932H137.71C137.919 147.932 138.115 148.038 138.23 148.213L138.639 148.833C138.91 149.247 138.614 149.799 138.118 149.799H138.121H127.488Z" fill="white" stroke="#1D1D1B"/>
<path fill-rule="evenodd" clip-rule="evenodd" d="M111.725 146.783C111.301 146.783 111.014 146.306 111.173 145.873L112.514 142.234C112.604 141.985 112.822 141.823 113.066 141.823H152.19C152.436 141.823 152.66 141.994 152.748 142.25L153.982 145.889C154.129 146.319 153.842 146.78 153.424 146.78L153.427 146.783H111.725Z" fill="white" stroke="#1D1D1B" stroke-linejoin="round"/>
<path fill-rule="evenodd" clip-rule="evenodd" d="M111.434 145.16H153.727H111.434Z" fill="white"/>
<path d="M111.434 145.16H153.727" stroke="#1D1D1B"/>
<path fill-rule="evenodd" clip-rule="evenodd" d="M112.012 143.458H153.152H112.012Z" fill="white"/>
<path d="M112.012 143.458H153.152" stroke="#1D1D1B"/>
<path fill-rule="evenodd" clip-rule="evenodd" d="M125.27 145.16H125.893H125.27Z" fill="white"/>
<path d="M125.27 145.16H125.893" stroke="#1D1D1B"/>
<path fill-rule="evenodd" clip-rule="evenodd" d="M138.02 145.209H138.731H138.02Z" fill="white"/>
<path d="M138.02 145.209H138.731" stroke="#1D1D1B"/>
</svg>
