<svg width="625" height="280" viewBox="0 0 625 280" fill="none" xmlns="http://www.w3.org/2000/svg">
<path fill-rule="evenodd" clip-rule="evenodd" d="M3.36681 201.37C21.9141 186.978 166.004 152.362 231.057 152.474C252.397 152.508 260.308 155.034 259.971 157.925L259.982 117.999C260.089 115.158 252.099 112.706 231.063 112.672C166.004 112.56 21.9195 147.181 3.37253 161.568C1.47324 163.044 0.473219 164.475 0.304688 165.867V205.631V205.625C0.484385 204.244 1.48467 202.83 3.36681 201.37Z" fill="#B14DFF"/>
<path fill-rule="evenodd" clip-rule="evenodd" d="M37.1693 114.216C13.3575 117.437 6.86789 122.383 6.51953 126.761V86.8739C6.94653 82.5125 13.498 77.6066 37.1693 74.4072C64.9703 70.6464 211.05 57.1982 221.956 57.1982L221.731 96.9327C210.51 98.83 63.1163 110.707 37.1693 114.216Z" fill="#B14DFF"/>
<path fill-rule="evenodd" clip-rule="evenodd" d="M49.7982 39.8082V0C49.7982 0 6.19187 2.70549 5.04567 10.2271L5.02319 50.3384V50.344C5.01195 42.5867 49.7982 39.8082 49.7982 39.8082Z" fill="#B14DFF"/>
<path fill-rule="evenodd" clip-rule="evenodd" d="M71.2159 212.372C73.9073 185.946 91.1959 102.187 93.9828 94.7997C96.7696 87.4073 101.253 61.6543 121.43 68.5979C141.606 75.5412 152.068 84.9488 162.643 133.542C173.217 182.14 166.042 209.015 172.318 220.214C178.594 231.412 174.262 253 141.157 262.093C114.255 269.486 93.4097 270.199 82.6499 256.272V256.267C82.6499 256.267 68.5246 238.799 71.2159 212.372Z" fill="black"/>
<path fill-rule="evenodd" clip-rule="evenodd" d="M89.4633 193.947C74.9166 255.748 59.347 254.622 57.4423 241.909C54.4929 222.235 67.3988 204.524 70.899 185.081C74.3992 165.639 75.6635 156.365 77.8191 151.972C79.9748 147.58 82.9632 146.081 87.8899 146.53C105.599 147.872 104.701 146.53 105.375 144.066C106.049 141.602 105.375 133.542 105.375 133.542C105.375 133.542 115.017 140.036 127.794 133.542C127.794 133.542 126.895 139.138 129.361 141.827C131.827 144.515 134.069 147.423 140.795 146.081C147.52 144.74 159.374 143.216 163.577 149.784C167.78 156.353 184.499 211.67 178.974 240.735C167.736 273.445 152.764 198.698 152.764 198.698" fill="#FCAF17"/>
<path d="M89.4633 193.947C74.9166 255.748 59.347 254.622 57.4423 241.909C54.4929 222.235 67.3988 204.524 70.899 185.081C74.3992 165.639 75.6635 156.365 77.8191 151.972C79.9748 147.58 82.9632 146.081 87.8899 146.53C105.599 147.872 104.701 146.53 105.375 144.066C106.049 141.602 105.375 133.542 105.375 133.542C105.375 133.542 115.017 140.036 127.794 133.542C127.794 133.542 126.895 139.138 129.361 141.827C131.827 144.515 134.069 147.423 140.795 146.081C147.52 144.74 159.374 143.216 163.577 149.784C167.78 156.353 184.499 211.67 178.974 240.735C167.736 273.445 152.764 198.698 152.764 198.698" stroke="#1B1B1B"/>
<path fill-rule="evenodd" clip-rule="evenodd" d="M150.688 166.989C152.478 189.918 152.764 198.698 152.764 198.698C152.764 198.698 153.122 235.218 153.796 236.559C154.47 237.901 114.567 257.833 89.4575 240.365L89.463 240.371C88.5411 239.731 88.3524 210.653 89.4634 193.947L91.8324 170.772" fill="#FCAF17"/>
<path d="M150.688 166.989C152.478 189.918 152.764 198.698 152.764 198.698C152.764 198.698 153.122 235.218 153.796 236.559C154.47 237.901 114.567 257.833 89.4575 240.365L89.463 240.371C88.5411 239.731 88.3524 210.653 89.4634 193.947L91.8324 170.772" stroke="#1B1B1B"/>
<path fill-rule="evenodd" clip-rule="evenodd" d="M49.2044 235.501C47.4233 229.422 44.9399 189.322 43.9903 185.494C43.0408 181.666 56.166 158.59 61.5093 182.238C66.8526 205.892 73.5725 231.589 73.831 236.803C74.1609 243.318 64.1836 251.162 61.8863 251.162C59.589 251.162 54.2219 252.632 49.2044 235.501Z" fill="#FCAF17" stroke="#1B1B1B"/>
<path fill-rule="evenodd" clip-rule="evenodd" d="M88.0294 237.457C88.0294 237.457 108.987 251.681 153.374 232.866C153.374 232.866 163.668 263.772 185.637 279C185.637 279 187.895 279 138.943 279C126.208 279 111.209 279 96.2102 279H79.2305C79.2305 279 80.7982 270.345 88.0294 237.457Z" fill="#FD493D" stroke="#1B1B1B"/>
<path fill-rule="evenodd" clip-rule="evenodd" d="M58.8864 170.111C57.9284 165.85 55.9421 161.658 56.1781 160.788C56.4141 159.924 57.4255 149.36 56.0545 148.203C54.6836 147.047 51.6214 146.66 50.4134 151.077C49.1998 155.495 49.6605 155.882 47.8962 158.767C45.5589 162.59 34.1748 145.332 29.3659 142.068C24.557 138.805 17.6847 139.812 16.9206 148.422C16.1565 157.027 35.3667 177.049 39.2997 181.298C43.2328 185.547 49.0368 190.004 52.408 189.022C55.7792 188.04 60.2742 183.022 60.0157 177.841L60.0101 177.835C60.0101 177.835 59.8443 174.373 58.8864 170.111Z" fill="white" stroke="#1B1B1B"/>
<path fill-rule="evenodd" clip-rule="evenodd" d="M190.946 241.802C195.733 237.648 219.533 205.266 222.405 202.555C225.276 199.844 226.731 173.344 209.431 190.352C192.131 207.36 172.573 225.344 169.527 229.593C166.482 233.843 168.96 247.269 172.078 248.992C172.078 248.992 177.455 253.5 190.946 241.802Z" fill="#FCAF17" stroke="#1B1B1B"/>
<path fill-rule="evenodd" clip-rule="evenodd" d="M94.156 112.195C95.6505 132.2 101.629 133.828 107.753 135.927C113.883 138.027 125.536 136.983 129.273 131.903C133.009 126.828 135.549 121.748 136.448 115.776C136.448 115.776 143.173 123.988 144.37 112.79C145.567 101.592 141.83 102.338 140.038 103.983C138.246 105.628 137.644 106.374 137.644 106.374C137.644 106.374 138.689 93.3854 133.312 88.4571C127.93 83.5287 114.484 81.5867 109.849 84.2753C105.213 86.964 106.112 80.8401 102.078 82.7823C101.404 83.1079 92.6614 92.1898 94.156 112.195Z" fill="white" stroke="#1B1B1B"/>
<path fill-rule="evenodd" clip-rule="evenodd" d="M209.478 185.545C210.205 181.238 211.961 176.945 211.68 176.092C211.399 175.239 209.82 164.748 211.129 163.519C212.439 162.289 215.473 161.739 216.922 166.084C218.372 170.434 217.934 170.838 219.85 173.628C222.389 177.321 232.554 158.798 237.453 155.958C242.351 153.118 248.999 153.078 250.224 161.633C251.449 170.187 233.346 191.208 229.643 195.659C225.946 200.116 220.389 204.876 216.967 204.073C213.545 203.271 208.792 198.505 208.77 193.313V193.319C208.77 193.319 208.75 189.851 209.478 185.545Z" fill="white" stroke="#1B1B1B"/>
<path opacity="0.3" fill-rule="evenodd" clip-rule="evenodd" d="M412.13 233.374C531.302 233.374 624.156 218.206 624.156 218.206V257.977C624.156 257.977 550.634 272.233 412.13 272.233C249.104 272.233 -3.9674 236.161 0.207247 204.525V164.762L0.201863 164.756C-3.59096 196.358 301.088 233.374 412.13 233.374Z" fill="#8F00FF"/>
<path opacity="0.3" fill-rule="evenodd" clip-rule="evenodd" d="M225.833 164.745C214.034 164.745 182.861 165.071 138.367 162.079C93.873 159.087 21.7971 147.99 9.07077 133.878C7.63795 132.29 6.36811 130.303 6.53666 128.181V88.2942C6.3344 90.444 7.61565 92.4592 9.07077 94.0701C21.7971 108.176 93.873 119.279 138.367 122.27C182.861 125.262 214.034 124.937 225.833 124.937C243.987 124.937 259.831 121.851 259.977 117.893L259.971 157.757C259.51 161.686 243.801 164.745 225.833 164.745Z" fill="#8F00FF"/>
<path opacity="0.3" fill-rule="evenodd" clip-rule="evenodd" d="M15.9577 58.0003C53.5634 71.2978 179.82 98.6504 217.465 97.1293C222.174 96.9384 223.348 97.0058 221.747 97.2753L221.971 57.2201C221.292 57.192 219.819 57.2201 217.465 57.3211C179.815 58.8423 53.5634 31.4895 15.9577 18.192C7.73201 15.2844 4.72604 12.7978 5.04626 10.6929L5.02387 50.8042C5.02387 52.8418 8.13094 55.2274 15.9577 58.0003Z" fill="#8F00FF"/>
</svg>
