<svg width="129" height="340" viewBox="0 0 129 340" fill="none" xmlns="http://www.w3.org/2000/svg">
<path d="M101.277 207.505L101.277 12.2795" stroke="#1B1B1B" stroke-linecap="round"/>
<path d="M107.348 181.837L107.348 37.4066" stroke="#1B1B1B" stroke-linecap="round"/>
<path d="M94.9883 181.837L94.9883 45.2137" stroke="#1B1B1B" stroke-linecap="round"/>
<path d="M52.5064 47.0421C56.8186 48.6537 56.6625 43.3942 56.0454 40.563V38.385L59.4211 27.7134L69.0038 21.0709C72.4884 17.0599 79.6754 9.31032 73.9585 3.04905C68.6409 -2.77486 60.4556 4.08354 57.6244 5.17247C54.7932 6.26141 56.0454 5.28138 50.3285 7.13257C45.755 8.61353 47.4791 12.6136 48.9129 14.4285C45.5372 15.9893 38.3502 20.4721 36.6079 25.9168C34.8656 31.3615 41.254 35.5902 44.666 37.0239C45.4827 39.6918 48.1942 45.4305 52.5064 47.0421Z" fill="#1B1B1B" stroke="#1B1B1B" stroke-linecap="round" stroke-linejoin="round"/>
<path d="M50.8438 258.106L40.168 244.978L48.9683 239.207L57.3359 250.46L50.8438 258.106Z" fill="white" stroke="#1B1B1B" stroke-linecap="round" stroke-linejoin="round"/>
<path d="M55.6953 43.3774C58.4775 49.2138 59.7569 53.3078 63.723 59.4488C66.4428 63.6601 67.4939 65.3366 70.6317 66.0376C74.1619 66.8264 73.3976 65.9313 76.9997 63.4604L82.7035 54.6579L74.8095 45.5109L64.9951 38.8127H56.2575L55.6953 43.3774Z" fill="white" stroke="#1B1B1B" stroke-linecap="round" stroke-linejoin="round"/>
<path d="M60.8602 319.222L63.9112 301.586L52.6749 298.758C52.6005 300.743 52.407 305.575 52.2284 309.027C52.0498 312.48 51.7075 316.618 51.5586 318.255L60.8602 319.222Z" fill="white" stroke="#1B1B1B" stroke-linecap="round" stroke-linejoin="round"/>
<path d="M65.2984 251.252L55.2695 246.647L50.6135 257.089C49.7792 256.913 48.0163 256.807 47.6399 257.788C47.1694 259.014 48.9409 260.884 50.0171 264.003C51.0932 267.121 48.9589 274.094 48.8384 277.511C48.7419 280.244 52.0261 281.331 53.6802 281.533L65.2984 251.252Z" fill="#1B1B1B" stroke="#1B1B1B" stroke-linecap="round" stroke-linejoin="round"/>
<path d="M74.3819 45.2576C64.07 50.0773 60.0745 43.0748 56.2071 40.3996C54.4773 41.1307 49.423 42.3161 48.8568 38.8751C48.149 34.5738 49.129 33.4304 53.5937 34.7371C58.0583 36.0438 48.6935 22.2688 52.8859 22.3777C57.0783 22.4866 58.0039 26.0256 62.9041 24.3922C66.8243 23.0855 69.2234 20.9509 69.933 20.0469C69.933 20.0469 77.877 29.8369 79.456 34.0293C81.0349 38.2217 79.9649 42.6482 74.3819 45.2576Z" fill="white" stroke="#1B1B1B" stroke-linecap="round" stroke-linejoin="round"/>
<path d="M66.2339 302.833L52.2291 299.918C52.2291 299.918 54.8125 261.522 57.0519 237.411C59.295 213.261 65.498 176.996 63.7089 176.351C60.9643 175.362 31.4358 199.223 31.4358 202.206C31.4358 204.443 50.395 239.707 50.395 239.707L39.1471 247.511C28.5114 233.585 5.41335 209.045 6.23215 197.732C7.05094 186.419 36.3144 158.446 52.2291 142.378L98.1411 154.544C98.1411 154.544 98.9026 163.966 98.1411 169.924C96.6072 181.924 76.1045 249.348 76.1045 249.348L66.2339 302.833Z" fill="#1B1B1B" stroke="#1B1B1B" stroke-linecap="round" stroke-linejoin="round"/>
<path d="M44.2598 146.579C46.8448 149.96 56.8168 158.54 71.2529 161.045C85.689 163.551 100.334 162.686 105.852 161.94C107.481 152.471 110.097 135.605 111.252 123.312C102.923 122.471 93.2387 119.29 86.8069 116.585C86.8069 116.585 80.7287 115.398 76.7017 111.016C68.9963 115.026 57.5262 117.555 48.1791 118.226C44.6858 127.504 44.3863 138.734 44.2598 146.579Z" fill="#FCAF17"/>
<path fill-rule="evenodd" clip-rule="evenodd" d="M78.6976 93.945C78.818 92.396 78.9213 91.0667 77.5478 90.998C75.8372 90.9125 73.0237 92.3023 73.0805 99.8291C73.0833 100.209 73.0935 100.605 73.1116 101.017C73.1445 101.771 73.2037 102.578 73.2921 103.444C73.6 106.458 74.8037 108.816 76.375 110.648C76.4823 110.773 76.5912 110.896 76.7017 111.016C68.9963 115.026 57.5262 117.555 48.1791 118.226C41.179 118.729 35.3696 118.191 33.2239 116.454C27.5375 111.851 37.8299 88.8105 42.8996 77.4616C43.4142 76.3096 43.875 75.278 44.2598 74.3985C47.6005 66.7628 62.8227 58.1161 62.8227 58.1161L64.9794 61.4842C64.9794 61.4842 66.6309 64.5625 68.5321 64.9804C71.6112 65.6571 74.5887 64.2698 76.585 62.4765C79.5638 59.8006 81.8387 56.3184 83.6963 53.3375C86.4613 53.1647 94.5054 54.3225 104.563 60.3362C117.134 67.8533 129.317 97.7921 127.632 115.418C126.949 122.568 119.817 124.178 111.252 123.312C102.923 122.471 93.2387 119.29 86.8069 116.585C86.9706 116.292 87.1505 115.987 87.3442 115.659C88.122 114.342 89.1205 112.652 90.1686 109.857C91.123 107.311 91.31 104.889 91.2911 103.211C91.2841 102.587 91.2486 102.066 91.2135 101.68C91.2135 101.68 94.3823 102.251 95.7783 102.466C96.144 100.536 96.21 97.6567 94.1597 96.3513C92.1094 95.0459 85.7456 96.1623 85.7456 96.1623C84.9837 94.0273 84.3014 92.3319 82.6387 92.8861C81.5908 93.2354 81.7296 94.2258 81.8793 95.295C81.9952 96.1218 82.1176 96.9958 81.7028 97.6567C81.1538 98.5315 79.9406 98.9471 79.0758 97.4739C78.4997 96.4925 78.6038 95.152 78.6976 93.945Z" fill="#FCAF17"/>
<path d="M88.1031 101.017C89.1423 102.228 90.782 102.987 91.2911 103.211C91.2841 102.587 91.2486 102.066 91.2135 101.68C91.2135 101.68 94.3823 102.251 95.7783 102.466C96.144 100.536 96.21 97.6567 94.1597 96.3513C92.1094 95.0459 85.7456 96.1623 85.7456 96.1623C86.3275 97.7932 86.9559 99.6805 88.1031 101.017Z" fill="white"/>
<path d="M88.4043 53.8435C87.3184 60.5889 81.3768 67.6178 74.2751 70.9247C66.6957 74.454 64.9794 61.4842 64.9794 61.4842M73.2921 103.444C73.2037 102.578 73.1445 101.771 73.1116 101.017M73.2921 103.444C73.6 106.458 74.8037 108.816 76.375 110.648M73.2921 103.444C73.1553 102.105 73.0886 100.904 73.0805 99.8291M86.8069 116.585C93.2387 119.29 102.923 122.471 111.252 123.312M86.8069 116.585C86.8069 116.585 80.7287 115.398 76.7017 111.016M86.8069 116.585C86.8069 116.585 80.3907 115.332 76.375 110.648M86.8069 116.585C86.9706 116.292 87.1505 115.987 87.3442 115.659C88.122 114.342 89.1205 112.652 90.1686 109.857C91.123 107.311 91.31 104.889 91.2911 103.211M91.2911 103.211C90.782 102.987 89.1423 102.228 88.1031 101.017C86.9559 99.6805 86.3275 97.7932 85.7456 96.1623M91.2911 103.211C91.2841 102.587 91.2486 102.066 91.2135 101.68C91.2135 101.68 94.3823 102.251 95.7783 102.466M76.7017 111.016C68.9963 115.026 57.5262 117.555 48.1791 118.226M76.7017 111.016C76.5912 110.896 76.4823 110.773 76.375 110.648M73.1116 101.017C73.0935 100.605 73.0833 100.209 73.0805 99.8291M73.1116 101.017C68.3003 101.572 60.4436 102.533 53.9098 103.177M51.5511 100.359C52.2735 102.093 53.9098 103.177 53.9098 103.177M111.252 123.312C119.817 124.178 126.949 122.568 127.632 115.418C129.317 97.7921 117.134 67.8533 104.563 60.3362C94.5054 54.3225 86.4613 53.1647 83.6963 53.3375C81.8387 56.3184 79.5638 59.8006 76.585 62.4765C74.5887 64.2698 71.6112 65.6571 68.5321 64.9804C66.6309 64.5625 64.9794 61.4842 64.9794 61.4842M111.252 123.312C110.097 135.605 107.481 152.471 105.852 161.94C100.334 162.686 85.689 163.551 71.2529 161.045C56.8168 158.54 46.8448 149.96 44.2598 146.579C44.3863 138.734 44.6858 127.504 48.1791 118.226M64.9794 61.4842L62.8227 58.1161C62.8227 58.1161 47.6005 66.7628 44.2598 74.3985C43.875 75.278 43.4142 76.3096 42.8996 77.4616C37.8299 88.8105 27.5375 111.851 33.2239 116.454C35.3696 118.191 41.179 118.729 48.1791 118.226M73.0805 99.8291C73.0237 92.3023 75.8372 90.9125 77.5478 90.998C78.9213 91.0667 78.818 92.396 78.6976 93.945C78.6038 95.152 78.4997 96.4925 79.0758 97.4739C79.9406 98.9471 81.1538 98.5315 81.7028 97.6567C82.1176 96.9958 81.9952 96.1218 81.8793 95.295C81.7296 94.2258 81.5908 93.2354 82.6387 92.8861C84.3014 92.3319 84.9837 94.0273 85.7456 96.1623M53.9098 103.177C53.9105 94.1708 53.6291 89.322 55.0846 80.7027M112.391 104.736C112.391 104.736 110.254 104.366 108.137 104.178M108.137 104.178C104.162 97.4739 103.395 94.0656 102.07 85.2087M108.137 104.178C101.946 103.321 98.7268 102.92 95.7783 102.466M85.7456 96.1623C85.7456 96.1623 92.1094 95.0459 94.1597 96.3513C96.21 97.6567 96.144 100.536 95.7783 102.466" stroke="#1B1B1B" stroke-linecap="round" stroke-linejoin="round"/>
<path d="M62.0632 328.161L62.7705 317.148L51.353 316.541C51.2183 315.699 50.6862 314.015 49.6354 314.015C48.3219 314.015 47.2105 316.339 44.6845 318.461C42.1585 320.583 34.8838 321.088 31.6506 322.199C29.064 323.089 29.2257 326.544 29.6299 328.161H62.0632Z" fill="#1B1B1B" stroke="#1B1B1B" stroke-linecap="round" stroke-linejoin="round"/>
<path d="M6.21094 334.452H37.1822" stroke="#1B1B1B" stroke-linecap="round"/>
<path d="M62.7695 338.854H100.346" stroke="#1B1B1B" stroke-linecap="round"/>
<path d="M0.6875 328.789L115 328.789" stroke="#1B1B1B" stroke-linecap="round"/>
</svg>
