<svg width="182" height="339" viewBox="0 0 182 339" fill="none" xmlns="http://www.w3.org/2000/svg">
<path d="M15.9219 334.075H74.5747" stroke="#1B1B1B" stroke-linecap="round"/>
<path d="M111.262 337.879H150.567" stroke="#1B1B1B" stroke-linecap="round"/>
<path d="M4.51953 328.789L180.789 328.789" stroke="#1B1B1B" stroke-linecap="round"/>
<path d="M101.561 48.9683C98.1975 57.1623 94.3738 58.1686 91.0387 60.7849C86.611 63.6025 79.567 69.2377 73.5293 69.2377C69.4307 69.2377 58.0038 70.5315 45.0659 64.5801C34.7155 59.8189 35.8292 45.1856 37.0444 41.9818C40.8394 31.9765 50.7586 32.5802 56.365 22.4886C61.9715 12.397 67.0604 4.80678 73.6156 1.70168C80.1708 -1.40343 87.5886 3.85801 90.6074 4.80678C93.6263 5.75556 94.9201 3.85801 98.0252 3.85801C101.13 3.858 102.252 10.672 104.149 17.3135C106.047 23.9549 105.218 40.0619 101.561 48.9683Z" fill="#1B1B1B" stroke="#1B1B1B" stroke-linecap="round"/>
<path d="M70.7094 45.1073C70.0951 48.7112 57.9248 62.5521 56.918 64.0025C70.7903 73.3002 90.3475 78.9141 89.7138 67.0002C83.4188 55.9522 78.5993 53.0775 82.1765 43.6739C82.04 43.2302 81.1425 41.9743 78.6443 40.5C76.1461 39.0256 73.4397 34.8347 72.3988 32.9235C72.0916 35.4831 71.3237 41.5033 70.7094 45.1073Z" fill="white" stroke="#1B1B1B" stroke-linecap="round" stroke-linejoin="round"/>
<path d="M73.4802 23.7095C75.3665 23.5315 79.8725 18.711 84.6954 15.4403C88.566 12.8154 92.8511 10.8808 94.9724 11.5252C98.487 12.593 99.1414 20.2654 99.1414 21.867C99.1414 23.6163 100.613 26.6985 99.8177 29.2706C99.2938 30.9646 97.8946 31.5768 97.0866 33.2239C96.2121 35.0064 95.7686 37.0464 95.4483 39.1106C95.0479 41.691 94.7263 44.4143 91.3387 45.5527C88.0189 46.6684 83.0008 45.687 78.0625 43.3291C74.1119 41.4428 72.7387 35.0986 72.5459 32.1624C71.1074 32.459 68.2305 32.1802 68.2305 28.6922C68.2305 24.3323 71.1223 23.9319 73.4802 23.7095Z" fill="white" stroke="#1B1B1B" stroke-linecap="round"/>
<path d="M72.6914 23.3613L82.1244 26.4616M82.1244 26.4616C83.2018 26.1318 84.9371 25.5381 86.6099 25.5381C88.2827 25.5381 89.6663 26.3957 90.5678 26.7915M82.1244 26.4616C82.1244 28.4186 83.0215 32.4644 86.6099 32.9921C90.1984 33.5199 90.7437 29.0782 90.5678 26.7915M90.5678 26.7915C90.9196 26.3737 91.6993 25.8677 92.6894 25.7094C93.7876 25.5339 94.4817 26.6815 94.6576 27.2532M94.6576 27.2532C96.2408 25.1424 98.8793 24.6146 101.254 25.5381C101.232 27.9129 100.489 32.5964 97.692 32.3325C94.8951 32.0686 94.5037 28.8364 94.6576 27.2532Z" stroke="#1B1B1B" stroke-linecap="round"/>
<path d="M91.3492 39.0331C90.1353 39.1387 88.9978 38.0028 88.668 36.9033C91.3819 36.9033 90.6439 37.784 92.8456 36.9033C92.4938 38.2667 92.5631 38.9275 91.3492 39.0331Z" fill="#1B1B1B" stroke="#1B1B1B" stroke-linecap="round" stroke-linejoin="round"/>
<path d="M71.7617 28.1287L71.9107 29.2737" stroke="#1B1B1B" stroke-linecap="round"/>
<path d="M94.4297 23.1759C94.8087 22.7495 95.5053 21.9932 96.9486 21.9932C98.3066 21.9932 98.9435 22.2871 99.3879 23.1759" stroke="#1B1B1B" stroke-linecap="round"/>
<path d="M81.3398 23.486C82.6458 22.6775 83.7482 22.0867 85.5998 22.0867C87.081 22.0867 88.7387 22.9017 89.4809 23.486" stroke="#1B1B1B" stroke-linecap="round"/>
<path d="M142.065 302.868L138.613 295.355L143.143 292.132L151.31 290.893L156.342 301.466L156.779 309.56L149.998 310.071L142.065 302.868Z" fill="white" stroke="#1B1B1B" stroke-linecap="round"/>
<path d="M41.717 288.136C45.8052 283.619 48.2485 283.066 48.2485 283.066L52.4169 286.744L55.4816 294.415L46.3296 301.72L38.5471 303.987L36.5076 297.499C36.5076 297.499 34.6075 295.993 41.717 288.136Z" fill="white" stroke="#1B1B1B" stroke-linecap="round"/>
<path d="M83.1671 72.9137C79.0902 73.1186 73.3431 66.6163 71.0978 62.6512C70.6915 64.5765 69.8789 68.5491 69.8789 69.0365C69.8789 69.6457 74.651 93.7091 74.651 95.2321C74.651 96.4505 73.5003 113.677 72.9249 122.139L77.9001 131.886L98.1052 134.627L103.69 127.824L102.877 106.807L93.9424 69.0365L88.1526 66.7357C88.1526 69.7215 88.2242 72.6595 83.1671 72.9137Z" fill="white" stroke="#1B1B1B" stroke-linecap="round"/>
<path d="M154.247 48.1489L125.446 47.3635L112.578 103.103L142.868 104.644L154.247 48.1489Z" fill="white" stroke="#1B1B1B" stroke-linecap="round" stroke-linejoin="round"/>
<path d="M62.0546 299.741L41.5377 282.176C39.789 283.852 73.903 233.422 72.3587 229.304C70.8144 225.186 52.3883 207.659 49.6864 187.511C46.309 162.326 49.3502 143.347 70.8234 122.172L91.4659 128.845H98.2206C97.4701 136.433 96.4194 152.536 98.2206 156.239C100.472 160.867 106.351 171.625 110.479 180.131C114.607 188.637 138.749 250.055 144.253 260.438C148.656 268.743 154.594 283.496 157.012 289.833C150.132 292.127 135.222 296.663 130.619 296.463C124.864 296.213 113.106 248.628 109.103 242.274C105.901 237.191 96.1958 215.818 91.7435 205.767C91.7435 205.767 97.6271 226.558 98.5484 231.277C99.4697 235.996 62.0546 299.741 62.0546 299.741Z" fill="white"/>
<path d="M91.4659 128.845C90.6319 134.557 90.7627 142.843 88.839 149.234C87.4002 154.014 83.3166 159.546 81.2434 162.326L91.7435 205.767M91.4659 128.845H98.2206C97.4701 136.433 96.4194 152.536 98.2206 156.239C100.472 160.867 106.351 171.625 110.479 180.131C114.607 188.637 138.749 250.055 144.253 260.438C148.656 268.743 154.594 283.496 157.012 289.833C150.132 292.127 135.222 296.663 130.619 296.463C124.864 296.213 113.106 248.628 109.103 242.274C105.901 237.191 96.1958 215.818 91.7435 205.767M91.4659 128.845L70.8234 122.172C49.3502 143.347 46.309 162.326 49.6864 187.511C52.3883 207.659 70.8144 225.186 72.3587 229.304C73.903 233.422 39.789 283.852 41.5377 282.176L62.0546 299.741C62.0546 299.741 99.4697 235.996 98.5484 231.277C97.6271 226.558 91.7435 205.767 91.7435 205.767" stroke="#1B1B1B"/>
<path d="M140.925 87.6826C141.598 92.0812 144.314 94.4578 142.262 98.9982C141.21 101.327 132.102 102.215 124.548 102.215C118.947 102.215 109.69 104.094 108.445 104.094V113.746C108.486 114.571 117.49 114.219 123.601 113.746C133.19 113.003 140.925 111.245 147.858 103.458C150.331 100.68 150.821 98.5439 150.821 92.1254C150.821 85.7069 148.814 79.6181 146.881 78.9644C142.9 77.6181 140.188 82.8628 140.925 87.6826Z" fill="white" stroke="#1B1B1B" stroke-linecap="round"/>
<path d="M40.6285 301.726C39.1285 299.516 44.2885 294.571 41.418 291.266C38.6131 288.036 33.9005 289.81 30.9575 290.685C28.1576 291.517 24.1484 294.49 22.2734 296.397L24.2471 300.641L30.9575 297.976C30.8589 300.476 30.7207 306.266 30.9575 309.424C31.2536 313.371 42.5035 326.693 44.0824 327.779C45.6613 328.864 47.1416 328.469 48.1284 325.608C48.9179 323.318 47.4047 314.391 46.5495 310.213C46.5495 310.213 49.339 310.623 50.1021 309.424C51.0274 307.97 48.1284 305.476 48.1284 305.476C49.2139 304.588 50.931 302.378 49.1152 300.641C46.8455 298.47 42.5035 304.489 40.6285 301.726Z" fill="#1B1B1B" stroke="#1B1B1B"/>
<path d="M152.976 308.52C150.31 308.683 148.689 301.723 144.382 302.506C140.173 303.271 139.427 307.756 138.839 310.692C138.265 313.556 138.346 319.004 139.031 321.59L143.687 322.057L144.818 314.926C146.918 316.286 151.827 319.358 154.664 320.765C158.211 322.523 175.408 319.642 177.147 318.837C178.886 318.033 179.301 316.558 177.343 314.25C175.777 312.403 167.326 309.151 163.296 307.756C163.296 307.756 165.071 305.565 164.429 304.297C163.65 302.76 160.027 303.982 160.027 303.982C159.817 302.595 158.791 299.991 156.371 300.667C153.346 301.512 156.309 308.317 152.976 308.52Z" fill="#1B1B1B" stroke="#1B1B1B"/>
<path d="M98.7223 67.9296C94.7169 62.6284 86.3461 57.3543 82.8594 55.86C86.9327 63.7157 95.0127 79.2453 96.5754 92.9621C97.8081 103.783 99.2298 124.846 98.2245 128.813C97.2191 132.78 95.2829 137.27 94.8802 143.138C94.4775 149.007 94.4738 155.258 95.4404 161.748C96.4069 168.238 100.449 173.517 106.937 173.517C111.628 173.517 113.319 170.902 114.55 165.289C116.232 157.614 111.89 137.063 109.489 128.26C107.568 121.218 111.754 109.089 110.104 96.1228C108.605 84.3461 104.487 75.5593 98.7223 67.9296Z" fill="#FD493D" stroke="#1B1B1B" stroke-linejoin="round"/>
<path d="M62.7955 144.854C52.3794 157.081 44.6446 166.672 36.0542 173.727C30.8667 169.619 20.1846 159.155 15.4038 152.382C10.6231 145.61 3.94992 135.451 1.21094 131.218C12.3638 120.718 36.2597 98.9741 42.9878 97.1587C41.8807 84.9421 43.3004 70.1497 44.135 67.6332C45.2274 64.3395 47.9487 59.6591 54.8828 58.4456C60.43 57.4748 65.0527 54.9208 66.6706 53.7651C69.6176 59.3124 76.4823 73.3885 80.3654 85.315C82.7094 94.4916 86.1277 114.935 81.0486 123.294C75.9695 131.653 68.8799 137.711 62.7955 144.854Z" fill="#FD493D"/>
<path d="M43.2943 97.0875C37.0196 98.2827 12.5403 120.552 1.21094 131.218C3.94992 135.451 10.6231 145.61 15.4038 152.382C20.1846 159.155 30.8667 169.619 36.0542 173.727C44.6446 166.672 52.3794 157.081 62.7955 144.854C68.8799 137.711 75.9695 131.653 81.0486 123.294C86.1277 114.935 82.7094 94.4916 80.3654 85.315C76.4823 73.3885 69.6176 59.3124 66.6706 53.7651C65.0527 54.9208 60.43 57.4748 54.8828 58.4456C47.9487 59.6591 45.2274 64.3395 44.135 67.6332C43.0426 70.9269 40.948 95.2498 44.8281 107.303" stroke="#1B1B1B"/>
<path d="M104.735 103.264C107.776 102.036 107.53 99.2679 109.31 97.1073C111.09 94.9468 112.623 94.6125 114.97 95.9365C116.988 93.3383 117.449 92.5926 119.792 91.0674C121.163 90.1746 124.128 89.9514 125.978 91.3544C128.121 92.9808 128.388 95.6647 127.119 98.3672C125.754 101.271 122.49 103.957 120.004 106.375C117.273 109.032 116.029 109.339 107.776 111.892C88.3477 117.901 61.6712 130.682 54.99 126.2C49.0563 122.219 46.0997 113.174 44.7812 107.142C46.1985 105.923 50.4322 103.682 56.0536 103.682C62.6786 103.682 65.5132 104.308 66.6339 104.473C66.6339 104.473 68.1727 109.343 69.8825 109.052C71.5922 108.76 77.4661 107.766 84.5056 106.375C91.3294 105.026 95.6453 104.682 104.735 103.264Z" fill="white"/>
<path d="M114.97 95.9365C112.623 94.6125 111.09 94.9468 109.31 97.1073C107.53 99.2679 107.776 102.036 104.735 103.264C95.6453 104.682 91.3294 105.026 84.5056 106.375C77.4661 107.766 71.5922 108.76 69.8825 109.052C68.1727 109.343 66.6339 104.473 66.6339 104.473C65.5132 104.308 62.6786 103.682 56.0536 103.682C50.4322 103.682 46.1985 105.923 44.7812 107.142C46.0997 113.174 49.0563 122.219 54.99 126.2C61.6712 130.682 88.3477 117.901 107.776 111.892C116.029 109.339 117.273 109.032 120.004 106.375C122.49 103.957 125.754 101.271 127.119 98.3672C128.388 95.6647 128.121 92.9808 125.978 91.3544C124.128 89.9514 121.163 90.1746 119.792 91.0674C117.449 92.5926 116.988 93.3383 114.97 95.9365ZM114.97 95.9365C114.634 96.3693 114.356 96.7688 114.159 97.1073" stroke="#1B1B1B" stroke-linecap="round"/>
<path d="M66.5445 104.431C66.5445 99.1564 65.7237 94.3384 64.3601 85.2478C62.9739 76.0063 59.4057 69.2937 54.2696 65.9757C50.159 63.3202 44.9062 64.7939 44.9062 64.7939" stroke="#1B1B1B"/>
<path d="M81.3984 122.786L91.0294 125.759L98.1749 126.602" stroke="#1B1B1B" stroke-linecap="round"/>
</svg>
