<svg width="131" height="231" viewBox="0 0 131 231" fill="none" xmlns="http://www.w3.org/2000/svg">
<path fill-rule="evenodd" clip-rule="evenodd" d="M2.45223 191.457C0.814288 190.962 -0.107013 189.247 0.394557 187.63L12.0272 150.191C13.7675 144.591 19.7902 141.461 25.4479 143.22L57.8104 153.263L56.7901 207.949H56.7867C56.3465 207.733 14.136 194.985 2.45223 191.457Z" fill="#1D1D1B" stroke="white" stroke-width="0.48"/>
<path fill-rule="evenodd" clip-rule="evenodd" d="M32.2751 194.088C30.8726 182.748 22.9595 189.173 20.7892 190.184C18.619 191.191 11.3439 193.209 10.5795 194.971C9.81515 196.736 9.17704 200.641 14.1522 203.538C19.1274 206.436 27.044 206.058 27.044 206.058C27.044 206.058 33.681 205.428 32.2751 194.088Z" fill="white" stroke="#1D1D1B" stroke-width="0.48"/>
<path fill-rule="evenodd" clip-rule="evenodd" d="M43.3837 183.928C39.6013 183.928 36.5352 180.805 36.5352 176.954C36.5352 173.102 39.6013 169.98 43.3837 169.98C47.166 169.98 50.2322 173.102 50.2322 176.954C50.2322 180.805 47.166 183.928 43.3837 183.928V183.928Z" stroke="white" stroke-width="0.48"/>
<path fill-rule="evenodd" clip-rule="evenodd" d="M81.5469 59.8306C78.8922 51.7652 80.7826 51.1992 80.7826 51.1992C70.7435 63.2973 56.7905 54.5177 56.7905 54.5177L60.8955 66.8449C61.9534 70.0218 60.3121 73.4312 57.1795 74.7081C55.47 75.4055 54.1528 76.7497 54.4906 79.3C55.3403 85.7247 83.2054 80.897 85.5872 76.2747C87.969 71.6524 87.1978 71.046 87.1978 71.046C87.1978 71.046 82.5775 62.9638 81.5469 59.8306Z" fill="white" stroke="#1D1D1B" stroke-width="0.48"/>
<path fill-rule="evenodd" clip-rule="evenodd" d="M107.07 175.754C114.536 185.962 114.536 212.989 114.536 212.989L115.301 226.165C115.301 226.165 48.1051 233.779 45.8086 227.543C45.8086 227.543 49.2551 182.371 50.4016 179.157H50.405C50.405 179.157 99.6039 165.55 107.07 175.754Z" fill="#1D1D1B" stroke="white" stroke-width="0.48"/>
<path fill-rule="evenodd" clip-rule="evenodd" d="M112.173 41.1627C112.173 41.1627 113.619 37.9689 119.745 38.1373C125.87 38.3057 129.105 41.412 129.869 42.672C130.633 43.932 131.06 46.0309 130.466 47.5436C129.869 49.0562 111.917 84.8417 111.917 84.8417C111.917 84.8417 91.6202 87.382 98.653 71.5678V71.5712L112.173 41.1627Z" fill="#1D1D1B" stroke="white" stroke-width="0.48"/>
<path fill-rule="evenodd" clip-rule="evenodd" d="M39.8121 82.5746C36.8775 87.4866 34.8335 91.2701 35.8572 99.8375C36.8775 108.405 40.324 124.408 41.4739 130.206C42.6238 136 49.7693 178.719 49.643 180.986C49.5167 183.254 60.4908 192.956 78.8696 187.162C97.2484 181.367 100.695 178.089 105.032 178.089C109.369 178.089 109.755 180.986 110.263 170.782C110.775 160.574 122.261 100.848 121.111 94.0428C119.961 87.2373 112.177 80.1827 109.369 77.5347C106.561 74.89 85.5782 65.4029 84.6535 65.0188C83.7287 64.6348 83.872 65.6085 78.3919 70.2273C72.9116 74.8462 66.7866 79.93 62.6166 78.7105C59.9243 77.9221 61.2859 72.8753 61.3199 69.1795C61.337 67.4782 60.3953 65.3456 60.3953 65.3456H60.3919C60.3919 65.3456 42.7467 77.6627 39.8121 82.5746Z" fill="#1D1D1B" stroke="white" stroke-width="0.48"/>
<path fill-rule="evenodd" clip-rule="evenodd" d="M111.155 80.5565L106.306 76.6519C106.306 76.6519 73.1247 91.5193 45.8125 157.42L47.5664 166.392H47.563C47.563 166.392 75.4178 101.222 111.155 80.5565Z" fill="white" stroke="#1D1D1B" stroke-width="0.48"/>
<path fill-rule="evenodd" clip-rule="evenodd" d="M112.509 50.4816C113.407 51.2666 114.629 52.1527 116.26 53.005C120.771 55.3566 124.204 55.2825 127.336 53.9753L129.796 48.9723C129.796 48.9723 123.494 51.9101 118.556 49.3901C113.618 46.8701 111.749 44.0132 112.175 41.1562L109.984 46.0851V46.0885C110.312 47.7898 111.199 49.3328 112.509 50.4816Z" fill="white" stroke="#1D1D1B" stroke-width="0.48"/>
<path fill-rule="evenodd" clip-rule="evenodd" d="M87.0778 32.9257C88.0128 31.0761 91.2477 23.6003 87.0778 15.0329C82.908 6.46553 74.1451 4.19485 74.1451 4.19485C74.9095 7.46953 76.7828 8.56442 76.7828 8.56442C66.9144 6.79908 63.0004 -0.00292969 63.0004 -0.00292969C59.2571 1.92753 62.4032 5.37401 62.4032 5.37401C49.3852 0.755106 42.7482 7.38863 43.3454 8.48358C43.9426 9.57852 47.5153 9.74358 47.5153 9.74358C38.5818 12.0951 39.4315 18.3952 39.7727 17.0509C40.114 15.7067 41.9839 15.9594 41.9839 15.9594C41.9839 15.9594 42.1545 18.2267 41.1342 20.4132C40.114 22.5963 36.6232 22.4279 37.6468 22.5963C38.6706 22.7648 40.5405 24.6952 43.6013 34.2733C46.6656 43.8513 49.491 46.9272 50.6649 48.386C50.6649 48.386 74.6569 74.5126 84.3581 36.0386L84.3547 36.0353C84.3547 36.0353 86.1428 34.7752 87.0778 32.9257Z" fill="black"/>
<path fill-rule="evenodd" clip-rule="evenodd" d="M120.71 92.3951C120.71 92.3951 123.068 147.172 122.727 152.717C122.386 158.262 122.495 168.295 116.175 172.207C109.856 176.115 108.433 176.071 98.2232 170.778C88.0135 165.486 58.6607 148.182 58.6607 148.182C58.6607 148.182 57.1286 134.238 73.1255 125.502C73.1255 125.502 76.8689 126.847 81.8884 130.205C86.9079 133.564 101.328 142.96 101.328 142.96C101.328 142.96 100.178 144.429 96.8617 132.466C93.5449 120.503 91.9275 112.397 91.9275 112.397C91.9275 112.397 99.2946 82.5611 120.71 92.3951Z" fill="white" stroke="#1D1D1B" stroke-width="0.48"/>
<path fill-rule="evenodd" clip-rule="evenodd" d="M46.9579 117.855C45.9376 116.342 43.6412 115.46 42.8325 115.84C42.0237 116.221 40.4916 116.554 46.917 126.089C53.3424 135.623 55.5024 142.89 64.7157 143.392L77.2901 151.205C77.2901 151.205 93.0175 141.67 85.8789 137.638C78.737 133.605 74.2292 131.129 73.5058 130.371C72.7824 129.616 66.009 113.233 64.7157 110.713C63.4224 108.193 59.8907 101.219 56.6592 100.255C53.4277 99.2917 49.681 101.599 49.1282 105.885C48.5754 110.17 51.5543 119.199 51.8512 120.964C52.148 122.73 51.8853 124.424 51.0015 123.316H50.9981C50.9162 123.212 47.9782 119.368 46.9579 117.855Z" fill="white" stroke="#1D1D1B" stroke-width="0.48"/>
<path fill-rule="evenodd" clip-rule="evenodd" d="M113.111 150.605C97.8273 140.238 82.4241 129.37 73.1255 125.502C73.1255 125.502 78.3156 127.938 74.9989 135.414C71.6821 142.89 67.0345 146.501 64.7209 147.677C62.4074 148.853 59.367 147.667 58.6641 148.183L68.6315 154.018L83.5263 162.619" fill="white"/>
<path d="M113.111 150.605C97.8273 140.238 82.4241 129.37 73.1255 125.502C73.1255 125.502 78.3156 127.938 74.9989 135.414C71.6821 142.89 67.0345 146.501 64.7209 147.677C62.4074 148.853 59.367 147.667 58.6641 148.183L68.6315 154.018L83.5263 162.619" stroke="#1D1D1B" stroke-width="0.48"/>
<path d="M63.31 74.0916L56.7891 54.5177C56.7891 54.5177 70.742 63.2973 80.7811 51.1992C80.7811 51.1992 78.8907 51.7652 81.5455 59.8306C81.9481 61.0502 82.8933 63.0244 83.9 64.9751" stroke="black" stroke-width="0.48"/>
<path fill-rule="evenodd" clip-rule="evenodd" d="M46.5756 34.1252C44.7261 34.6306 44.2143 36.8979 45.7465 42.1906C47.2786 47.4833 49.4488 50.886 52.0627 51.0107C52.0627 51.0107 53.3389 54.602 55.2532 56.428C57.1675 58.254 60.8051 61.7207 68.3975 61.5321C75.9899 61.3434 79.566 56.1147 79.566 56.1147C79.566 56.1147 81.9921 53.1533 82.9476 48.4907C82.9476 48.4907 86.2473 47.736 87.0322 39.482C87.817 31.2279 85.6297 30.6619 83.5209 33.0573C83.5209 33.0573 81.2858 24.1092 78.5423 21.8419C78.5423 21.8419 79.0542 23.7959 78.9245 25.2445C78.7982 26.6932 77.5835 23.7319 75.3518 21.4646C73.1167 19.1972 68.1416 18.5672 68.1416 18.5672C68.1416 18.5672 68.1416 20.2685 67.2475 21.7812C67.2475 21.7812 66.8892 20.5212 66.0156 19.1366C66.0156 19.1366 64.5893 22.0339 63.3029 23.1693C63.3029 23.1693 64.8862 19.7666 63.9921 18.5706C63.9921 18.5706 59.4606 17.9406 52.3766 26.0059C52.3766 26.0059 51.8647 24.9346 51.9944 23.7386C51.9944 23.7386 49.0598 27.394 49.1212 31.9927C49.186 36.5914 49.6945 38.3567 49.6945 38.3567L49.7013 38.3466C49.7013 38.3466 48.4251 33.6199 46.5756 34.1252Z" fill="white" stroke="#1D1D1B" stroke-width="0.48"/>
<path fill-rule="evenodd" clip-rule="evenodd" d="M74.9281 32.2822L69.5469 33.0369C69.5469 33.0369 76.0132 40.2499 79.0775 47.2136C78.2756 42.8474 77.8286 39.2156 76.1088 35.3682L80.7666 34.5799C80.7666 34.5799 79.9886 30.7358 70.3419 19.3655H70.3453C70.3453 19.3655 74.2286 27.1142 74.9281 32.2822Z" fill="black"/>
</svg>
